<?xml version="1.0" standalone="no"?>
<!DOCTYPE svg PUBLIC "-//W3C//DTD SVG 1.1//EN" "http://www.w3.org/Graphics/SVG/1.1/DTD/svg11.dtd" >
<svg>
<metadata>
Created by FontForge 20090914 at Mon Aug 11 14:04:14 2014
 By www-data
Copyright (c) 2006 Parachute&#194;&#168;, www.parachute.gr.  All rights reserved.
</metadata>
<defs>
<font id="PFAgoraSlabPro-Medium" horiz-adv-x="1818" >
  <font-face 
    font-family="PF Agora Slab Pro Medium"
    font-weight="500"
    font-stretch="normal"
    units-per-em="1000"
    panose-1="2 0 5 0 0 0 0 2 0 4"
    ascent="750"
    descent="-250"
    x-height="488"
    cap-height="686"
    bbox="-379 -266.007 1760 964.001"
    underline-thickness="50"
    underline-position="-50"
    unicode-range="U+0020-U+FB05"
  />
<missing-glyph horiz-adv-x="440" 
d="M0 686h440v-686h-440v686zM361 49l-141 249l-141 -249h282zM361 637h-282l141 -249zM49 92l141 251l-141 252v-503zM391 90v508l-142 -256z" />
    <glyph glyph-name="fj" unicode="fj" horiz-adv-x="591" 
d="M29 75l68 0.00292969v338h-69v60c10 3.33301 21.833 6.66602 35.5 9.99902s25.167 6.33301 34.5 9v71c0 56 17 98.333 51 127s84.667 43 152 43c23.333 -0.666992 50 -2.66699 80 -6s58.667 -8.33301 86 -15c-0.666992 -4.66699 -1.66699 -10.5 -3 -17.5l-4 -22
c-1.33301 -7.66699 -2.83301 -15 -4.5 -22s-2.83398 -12.5 -3.50098 -16.5c-25.333 3.33301 -49.333 6.33301 -72 9s-43.667 4 -63 4c-39.333 0 -68.5 -7.16699 -87.5 -21.5s-28.5 -41.833 -28.5 -82.5v-54h313v-414c0 -36.667 -1.83301 -70 -5.5 -100
s-12.334 -57 -26.001 -81s-33.667 -45.5 -60 -64.5s-62.166 -35.833 -107.499 -50.5c-1.33301 4 -3.16602 9 -5.49902 15l-7.5 19l-7.5 19c-2.33301 6 -4.5 10.667 -6.5 14c25.333 14 45.833 27 61.5 39s27.667 24.667 36 38s14 28.166 17 44.499s4.5 36.166 4.5 59.499v386
h-206v-338h79v-75h-251v75z" />
    <glyph glyph-name="ffj" unicode="ffj" horiz-adv-x="895" 
d="M767 723c-3.33301 -12.667 -6 -25.333 -8 -38s-4.33301 -25.667 -7 -39c-25.333 4 -48.833 7.16699 -70.5 9.5s-42.167 3.5 -61.5 3.5c-39.333 0 -68.333 -7.16699 -87 -21.5s-28 -42.166 -28 -83.499v-65h305v-450c-0.666992 -34 -4.33398 -64.5 -11.001 -91.5
s-17.5 -51 -32.5 -72s-35 -39.333 -60 -55s-56.5 -29.167 -94.5 -40.5l-27 67c23.333 13.333 42.666 25.666 57.999 36.999s27.333 23 36 35s14.834 25 18.501 39s5.83398 30.667 6.50098 50v404h-199v-338h79v-74h-240v74h57v338h-200v-338h64v-74h-237v74h69v338h-69v60
c11.333 4 22.833 7.33301 34.5 10s23.5 5.66699 35.5 9v66c2.66699 50 21 89.333 55 118s86.667 43 158 43c22 0 43.833 -1.33301 65.5 -4s45.167 -7.66699 70.5 -15c32 30 84.667 45 158 45c24.667 -0.666992 51.5 -2.66699 80.5 -6s56.167 -8.33301 81.5 -15zM402 567.001
c0 23.333 2.33398 42.333 7.00098 57c-16.667 4 -32.334 6.83301 -47.001 8.5s-28 2.5 -40 2.5c-46 0 -77.667 -8.5 -95 -25.5s-26 -45.167 -26 -84.5v-36h201v78z" />
    <glyph glyph-name="ff" unicode="ff" horiz-adv-x="687" 
d="M647 412h-142v-338h81v-74h-240v74h55v338h-200v-338h59v-74h-232v74h69v338h-69v60c11.333 4 22.833 7.33301 34.5 10s23.5 5.66699 35.5 9v37c0 27.333 3.5 52.666 10.5 75.999s18.667 43.5 35 60.5s38 30.333 65 40s60.5 14.5 100.5 14.5c22 0 43.667 -1.33301 65 -4
s44 -7.66699 68 -15c29.333 27.333 78.333 41 147 41c14.667 0 30.667 -1.16699 48 -3.5s33.666 -5.5 48.999 -9.5l-15 -77c-14 3.33301 -28.5 5.5 -43.5 6.5s-27.833 1.5 -38.5 1.5c-25.333 0 -45.666 -6.16699 -60.999 -18.5s-23 -32.166 -23 -59.499v-93h142v-76z
M401 488c1.33301 34 1.83203 62.833 1.49902 86.5s0.833984 40.167 3.50098 49.5c-15.333 4 -30.333 6.83301 -45 8.5s-27.667 2.5 -39 2.5c-46 0 -77.667 -8.5 -95 -25.5s-26 -45.167 -26 -84.5v-37h200z" />
    <glyph glyph-name="fi" unicode="fi" horiz-adv-x="609" 
d="M504 77h72.9971v-64c-15.333 -6.66699 -32.166 -11.667 -50.499 -15s-34.166 -5 -47.499 -5c-28 0 -48.333 5 -61 15s-19 29 -19 57v348h-198v-338h66v-75h-238v75h68v338h-69v61l70 19v70c0 55.333 16.333 97.5 49 126.5s82.334 43.5 149.001 43.5
c22 0 48.833 -1.66699 80.5 -5s62.167 -8.66602 91.5 -15.999l-15 -78c-25.333 4 -49.5 7.33301 -72.5 10s-44.167 4 -63.5 4c-39.333 0 -68.5 -7.33301 -87.5 -22s-28.5 -42.334 -28.5 -83.001v-54h303v-412z" />
    <glyph glyph-name="fl" unicode="fl" horiz-adv-x="618" 
d="M517 75l69 0.000976562v-75h-237v75h62v556c-16 3.33301 -32.333 5.66602 -49 6.99902s-31.667 2 -45 2c-39.333 0 -68.5 -7 -87.5 -21s-28.5 -41.667 -28.5 -83v-47h139v-76h-139v-338h61v-75h-233v75h68v338h-69v61l70 19v63c0 54.667 16.333 96.667 49 126
s82.334 44 149.001 44c18.667 0 40.167 -1.16699 64.5 -3.5s48.166 -5.5 71.499 -9.5l85 11v-649z" />
    <glyph glyph-name="ffi" unicode="ffi" horiz-adv-x="914" 
d="M402 572c0 10.667 0.5 20 1.5 28s3.16699 16 6.5 24c-16.667 4 -32.5 6.83301 -47.5 8.5s-28.5 2.5 -40.5 2.5c-46 0 -77.667 -8.5 -95 -25.5s-26 -45.167 -26 -84.5v-36h201v83zM505 412l0.00292969 -338.001h74v-74h-241v74h63v338h-200v-338h60v-74h-233v74h69v338
h-69v60c11.333 4 22.833 7.33301 34.5 10s23.5 5.66699 35.5 9v65c2 50.667 20 90.5 54 119.5s86.333 43.5 157 43.5c22 0 44.167 -1.5 66.5 -4.5s46.166 -8.16699 71.499 -15.5c17.333 16.667 40.166 28.167 68.499 34.5s63.5 9.5 105.5 9.5
c23.333 -0.666992 48.666 -2.83398 75.999 -6.50098s52 -8.5 74 -14.5c-2.66699 -12.667 -5.16699 -25.5 -7.5 -38.5s-4.5 -26.167 -6.5 -39.5c-26 4.66699 -50.5 8.16699 -73.5 10.5s-44.167 3.5 -63.5 3.5c-39.333 0 -68.333 -7.16699 -87 -21.5s-28 -41.833 -28 -82.5
v-65h304c0 -69.333 -0.166992 -138.166 -0.5 -206.499s-0.5 -137.166 -0.5 -206.499h72v-63c-14 -6.66699 -30.333 -11.5 -49 -14.5s-34.667 -4.5 -48 -4.5c-16.667 0 -30.167 1.83301 -40.5 5.5s-18.5 9 -24.5 16s-10 15.167 -12 24.5s-3 20 -3 32v340h-198z" />
    <glyph glyph-name="ffl" unicode="ffl" horiz-adv-x="923" 
d="M506 554c0 -11.333 -0.167969 -22.334 -0.500977 -33.001s-0.5 -21.334 -0.5 -32.001h138v-77h-138v-338h71v-74h-239v74h64v338h-200v-338h59v-74h-232v74h69v338h-69v60c11.333 4 22.833 7.33301 34.5 10s23.5 5.66699 35.5 9v60
c1.33301 52.667 19.833 93.834 55.5 123.501s86.834 44.5 153.501 44.5c22 0 44.333 -1.5 67 -4.5s47 -8.16699 73 -15.5c19.333 16.667 42.666 28.167 69.999 34.5s61 9.5 101 9.5c21.333 0 43.833 -1.33301 67.5 -4s48.167 -5.66699 73.5 -9l62 12v-668h68v-74h-235v74h61
v575c-16.667 2.66699 -33.167 4.83398 -49.5 6.50098s-31.166 2.5 -44.499 2.5c-40 0 -69.167 -7.16699 -87.5 -21.5s-27.5 -41.833 -27.5 -82.5zM401.999 488.999c0 10.667 -0.166016 22.001 -0.499023 34.001s-0.333008 23.833 0 35.5s1.16602 22.667 2.49902 33
s3.33301 19.166 6 26.499v6c-16.667 4 -32.5 6.83301 -47.5 8.5s-28.5 2.5 -40.5 2.5c-46 0 -77.667 -8.5 -95 -25.5s-26 -45.167 -26 -84.5v-36h201z" />
    <glyph glyph-name="ft" unicode="ft" horiz-adv-x="712" 
d="M29 75l67.999 0.00195312v338h-69v61l70 19v78c0 47.333 13.167 85.333 39.5 114s69.5 43 129.5 43c8 0 17.167 -0.333008 27.5 -1s21.333 -1.5 33 -2.5s23.167 -2.33301 34.5 -4s21.666 -3.83398 30.999 -6.50098l-15 -75c-12.667 2 -27.667 3.66699 -45 5
s-31.333 2 -42 2c-29.333 0 -51.666 -5.66699 -66.999 -17s-23 -31.333 -23 -60v-79h215l31 119l68 9v-129h146v-76h-146v-258c0 -25.333 4.5 -44.833 13.5 -58.5s26.833 -20.5 53.5 -20.5c23.333 0 53 5 89 15l14 -70c-19.333 -8.66699 -40.5 -15.334 -63.5 -20.001
s-44.833 -7 -65.5 -7c-53.333 0 -91.166 11.833 -113.499 35.5s-33.5 55.167 -33.5 94.5v289h-208v-338h82v-75h-254v75z" />
    <glyph glyph-name=".notdef" horiz-adv-x="440" 
d="M0 686h440v-686h-440v686zM361 49l-141 249l-141 -249h282zM361 637h-282l141 -249zM49 92l141 251l-141 252v-503zM391 90v508l-142 -256z" />
    <glyph glyph-name="space" unicode=" " horiz-adv-x="283" 
 />
    <glyph glyph-name="exclam" unicode="!" horiz-adv-x="249" 
d="M176 700l-2 -284l-11 -236h-74l-11 236l-4 284h102zM125 109c18 0 32.834 -5.83301 44.501 -17.5s17.5 -25.834 17.5 -42.501s-6 -31 -18 -43s-26.667 -18 -44 -18c-18.667 0 -33.834 6 -45.501 18s-17.5 26.333 -17.5 43s6 30.834 18 42.501s27 17.5 45 17.5z" />
    <glyph glyph-name="quotedbl" unicode="&#x22;" horiz-adv-x="311" 
d="M196 467l-16 220h91l-15 -220h-60zM60 467l-16 220h92l-17 -220h-59z" />
    <glyph glyph-name="numbersign" unicode="#" horiz-adv-x="556" 
d="M430 404l-34 -153h77l-7 -55h-82l-43 -196h-63l43 196h-132l-44 -196h-63l44 196h-75l8 55h79l34 153h-81l8 54h86l40 174h62l-40 -174h133l40 174h62l-39 -174h71l-7 -54h-77zM201 251h133l33 153h-132z" />
    <glyph glyph-name="dollar" unicode="$" horiz-adv-x="575" 
d="M300 735h39.999v-66c21.333 -1.33301 43.166 -4.83301 65.499 -10.5s43.166 -14.167 62.499 -25.5v-135h-69v81c-9.33301 4 -18.666 7.16699 -27.999 9.5s-19.666 4.16602 -30.999 5.49902v-221c21.333 -8 42.5 -16.5 63.5 -25.5s39.667 -20.167 56 -33.5
s29.5 -29.666 39.5 -48.999s15 -43 15 -71c0 -54.667 -16.167 -97.167 -48.5 -127.5s-74.166 -49.5 -125.499 -57.5v-84h-40v810zM266.999 -75h-39.002v81c-27.333 2.66699 -53.666 7.16699 -78.999 13.5s-51 17.166 -77 32.499v137h69v-81c18 -8 33.333 -13.5 46 -16.5
s26.334 -5.5 41.001 -7.5v237c-21.333 6.66699 -41.333 14.667 -60 24s-35 20.5 -49 33.5s-25.167 28.333 -33.5 46s-12.5 38.834 -12.5 63.501c0 50 14.167 90.167 42.5 120.5s65.833 49.833 112.5 58.5v68h39v-810zM425.997 192c0 25.333 -8 45.1699 -24 59.5029
s-36.667 26.166 -62 35.499v-199c24.667 5.33301 45.167 16.166 61.5 32.499s24.5 40.166 24.5 71.499zM158.997 497.004c0 -26 6.49902 -45.166 19.499 -57.499s29.5 -22.833 49.5 -31.5v181c-19.333 -5.33301 -35.666 -15.333 -48.999 -30s-20 -35.334 -20 -62.001z" />
    <glyph glyph-name="percent" unicode="%" horiz-adv-x="850" 
d="M356 464c0 -25.333 -2.83203 -50.002 -8.49902 -74.002s-15 -45.5 -28 -64.5s-30.167 -34.333 -51.5 -46s-48 -17.5 -80 -17.5c-34.667 0 -63 5.66699 -85 17s-39.333 26.333 -52 45s-21.334 40 -26.001 64s-7 49 -7 75c0 24 2.33301 48.333 7 73
s13.5 46.834 26.5 66.501s30.5 35.834 52.5 48.501s50.667 19 86 19s63.833 -6.5 85.5 -19.5s38.5 -29.5 50.5 -49.5s20 -42.167 24 -66.5s6 -47.833 6 -70.5zM273.001 462.998c0 14 -0.666016 29.4971 -1.99902 46.4971s-4.83301 32.833 -10.5 47.5s-14 26.834 -25 36.501
s-26.167 14.5 -45.5 14.5c-20 0 -36 -4.66699 -48 -14s-21 -21.166 -27 -35.499s-10 -30.166 -12 -47.499s-3 -33.666 -3 -48.999c0 -19.333 1.16699 -37.5 3.5 -54.5s6.66602 -31.833 12.999 -44.5s15.333 -22.667 27 -30s27.167 -11 46.5 -11
c17.333 0 31.333 4.16699 42 12.5s19 19.166 25 32.499s10.167 28.333 12.5 45s3.5 33.667 3.5 51zM308.002 -21.0049h-67l303 725h66zM830.002 198.995c0 -25.333 -2.83203 -50.002 -8.49902 -74.002s-15 -45.5 -28 -64.5s-30.167 -34.333 -51.5 -46s-48 -17.5 -80 -17.5
c-34.667 0 -63 5.66699 -85 17s-39.333 26.333 -52 45s-21.334 40 -26.001 64s-7 49 -7 75c0 24 2.33301 48.333 7 73s13.5 46.834 26.5 66.501s30.5 35.834 52.5 48.501s50.667 19 86 19s63.833 -6.5 85.5 -19.5s38.5 -29.5 50.5 -49.5s20 -42.167 24 -66.5
s6 -47.833 6 -70.5zM747.003 197.993c0 14 -0.666016 29.4971 -1.99902 46.4971s-4.83301 32.833 -10.5 47.5s-14 26.834 -25 36.501s-26.167 14.5 -45.5 14.5c-20 0 -36 -4.66699 -48 -14s-21 -21.166 -27 -35.499s-10 -30.166 -12 -47.499s-3 -33.666 -3 -48.999
c0 -19.333 1.16699 -37.5 3.5 -54.5s6.66602 -31.833 12.999 -44.5s15.333 -22.667 27 -30s27.167 -11 46.5 -11c17.333 0 31.333 4.16699 42 12.5s19 19.166 25 32.499s10.167 28.333 12.5 45s3.5 33.667 3.5 51z" />
    <glyph glyph-name="ampersand" unicode="&#x26;" horiz-adv-x="753" 
d="M268 -13c-32 0 -61.8223 4.16797 -89.4893 12.501s-51.667 20.666 -72 36.999s-36.5 36.833 -48.5 61.5s-18 53.334 -18 86.001c0 84.667 54.333 156.334 163 215.001c-19.333 26 -33 49.667 -41 71s-12 42.666 -12 63.999c0 17.333 2.83301 34.833 8.5 52.5
s14.667 33.5 27 47.5s28.166 25.333 47.499 34s42.666 13 69.999 13c28.667 0 53 -4.33301 73 -13s36.167 -19.667 48.5 -33s21.166 -28 26.499 -44s8 -31.333 8 -46c0 -19.333 -3.5 -36.833 -10.5 -52.5s-16.833 -30.334 -29.5 -44.001s-27.334 -26.5 -44.001 -38.5
s-34.334 -23.667 -53.001 -35l47.5 -64.5l53.5 -67.5l35.5 -41.5c11.667 -13.667 23.834 -27.167 36.501 -40.5c23.333 23.333 43.666 49.5 60.999 78.5s28.666 61.5 33.999 97.5h-80v71h233v-71h-68c-5.33301 -44 -18.833 -85.333 -40.5 -124s-48.834 -74 -81.501 -106
c23.333 -21.333 47.666 -40.666 72.999 -57.999s50 -31 74 -41l-38 -67c-12 4.66699 -25.333 11.167 -40 19.5s-29.834 17.666 -45.501 27.999s-31.334 21.333 -47.001 33s-29.834 23.5 -42.501 35.5c-32 -22.667 -67 -40 -105 -52s-76 -18 -114 -18zM345.011 209.001
l-50.999 63.999l-47 61c-32 -17.333 -58.667 -37.5 -80 -60.5s-32 -51.167 -32 -84.5c0 -21.333 3.66699 -40 11 -56s17.166 -29.333 29.499 -40s27 -18.667 44 -24s35.167 -8 54.5 -8c25.333 0 51.166 4.33301 77.499 13s51.833 21.334 76.5 38.001
c-15.333 16 -29.666 32.167 -42.999 48.5zM239.012 539c0 -15.333 3.83105 -31.332 11.498 -47.999s18.167 -34.667 31.5 -54c12.667 6.66699 24.834 13.5 36.501 20.5s21.834 14.833 30.501 23.5s15.667 18.167 21 28.5s8 22.166 8 35.499c0 20.667 -6.5 37.167 -19.5 49.5
s-31.167 18.5 -54.5 18.5c-12 0 -22.167 -2.5 -30.5 -7.5s-15 -11.167 -20 -18.5s-8.66699 -15.333 -11 -24s-3.5 -16.667 -3.5 -24z" />
    <glyph glyph-name="quotesingle" unicode="'" horiz-adv-x="213" 
d="M76 467l-16 220h93l-17 -220h-60z" />
    <glyph glyph-name="parenleft" unicode="(" horiz-adv-x="305" 
d="M61 283c0 52 5.33105 100.503 15.998 145.503s23.834 85.667 39.501 122s32.5 68.166 50.5 95.499s34.667 49.666 50 66.999l46 -29c-8 -12 -18.167 -29.333 -30.5 -52s-24.166 -50.834 -35.499 -84.501s-21.166 -72.334 -29.499 -116.001s-12.5 -92.5 -12.5 -146.5
c0 -60 4.16699 -113.5 12.5 -160.5s18.166 -87.833 29.499 -122.5s23.333 -63.667 36 -87s23 -41 31 -53l-47 -32c-14.667 16.667 -31 38.834 -49 66.501s-35 60.5 -51 98.5s-29.333 81 -40 129s-16 101 -16 159z" />
    <glyph glyph-name="parenright" unicode=")" horiz-adv-x="307" 
d="M237 283c0 -58 -5.33398 -110.835 -16.001 -158.502s-24 -90.5 -40 -128.5s-33.167 -70.833 -51.5 -98.5s-34.833 -50.167 -49.5 -67.5l-45 32c8 12 18.167 29.667 30.5 53s24.333 52.333 36 87s21.667 75.5 30 122.5s12.5 100.5 12.5 160.5c0 54 -4.16699 103 -12.5 147
s-18.333 82.667 -30 116s-23.667 61.5 -36 84.5s-22.5 40.167 -30.5 51.5l46 29c14.667 -17.333 31.167 -39.666 49.5 -66.999s35.333 -59.166 51 -95.499s28.834 -77 39.501 -122s16 -93.5 16 -145.5z" />
    <glyph glyph-name="asterisk" unicode="*" horiz-adv-x="403" 
d="M227 578l51 27.001l52 28c10 -14 16.833 -28.167 20.5 -42.5s6.5 -29.5 8.5 -45.5l-59.5 -8c-19.667 -2.66699 -39.5 -5 -59.5 -7l85 -80c-20 -22.667 -44.333 -41 -73 -55l-51 108l-49 -107c-14.667 6.66699 -28 14.167 -40 22.5s-23.667 18.833 -35 31.5l85 81l-115 15
c2.66699 17.333 6.16699 33.166 10.5 47.499s10.5 28.5 18.5 42.5l50.5 -29.5l51.5 -28.5l-23 114c8 2 16 3.16699 24 3.5s16.333 0.5 25 0.5c8 0 15.833 -0.166992 23.5 -0.5s15.167 -1.5 22.5 -3.5c-4 -18.667 -7.83301 -37.667 -11.5 -57s-7.5 -38.333 -11.5 -57z" />
    <glyph glyph-name="plus" unicode="+" horiz-adv-x="575" 
d="M329 266v-169h-71v169h-164v69h164v163h71v-163h163v-69h-163z" />
    <glyph glyph-name="comma" unicode="," horiz-adv-x="232" 
d="M49 56c0 16 6 30.1689 18 42.502s27.667 18.5 47 18.5c21.333 0 38 -7.33301 50 -22s18 -32.334 18 -53.001c0 -30.667 -9.66699 -62.167 -29 -94.5s-46 -59.5 -80 -81.5l-28 33c16 16 28.167 32.167 36.5 48.5s13.5 33.5 15.5 51.5
c-18 1.33301 -30.5 7.66602 -37.5 18.999s-10.5 24 -10.5 38z" />
    <glyph glyph-name="hyphen" unicode="-" horiz-adv-x="377" 
d="M56 225v82h265v-82h-265z" />
    <glyph glyph-name="period" unicode="." horiz-adv-x="231" 
d="M179 55c0 -18 -6.33301 -33.333 -19 -46s-27.667 -19 -45 -19c-18 0 -33.5 6.33301 -46.5 19s-19.5 28 -19.5 46s6.5 33.333 19.5 46s28.167 19 45.5 19c18 0 33.333 -6.33301 46 -19s19 -28 19 -46z" />
    <glyph glyph-name="slash" unicode="/" horiz-adv-x="349" 
d="M85 -30h-73l257 733h73z" />
    <glyph glyph-name="zero" unicode="0" horiz-adv-x="575" 
d="M542 330c0 -42 -4.16406 -83.167 -12.4971 -123.5s-22.333 -76.333 -42 -108s-45.667 -57.167 -78 -76.5s-72.5 -29 -120.5 -29c-52.667 0 -95.834 9.5 -129.501 28.5s-60 44 -79 75s-32 66.667 -39 107s-10.5 81.833 -10.5 124.5c0 39.333 3.66699 79.5 11 120.5
s20.666 78.167 39.999 111.5s45.666 60.666 78.999 81.999s76.333 32 129 32c53.333 0 96.5 -11 129.5 -33s58.5 -49.833 76.5 -83.5s30.167 -70.667 36.5 -111s9.5 -79.166 9.5 -116.499zM435.003 328c0 26 -1.33398 54.5 -4.00098 85.5s-8.83398 59.833 -18.501 86.5
s-24.167 49 -43.5 67s-45.666 27 -78.999 27c-34 0 -61 -8.66699 -81 -26s-35.167 -39.333 -45.5 -66s-17.166 -55.667 -20.499 -87s-5 -61 -5 -89c0 -35.333 2 -68.5 6 -99.5s11.5 -58 22.5 -81s26.333 -41 46 -54s45.5 -19.5 77.5 -19.5c29.333 0 53.5 7.5 72.5 22.5
s33.833 34.5 44.5 58.5s18 51.333 22 82s6 61.667 6 93z" />
    <glyph glyph-name="one" unicode="1" horiz-adv-x="575" 
d="M98 75h143v493c-2 0 -10.833 -1.16699 -26.5 -3.5l-51 -7.5l-51 -7.5c-15.667 -2.33301 -24.167 -3.5 -25.5 -3.5l-13 60l177 59h95v-590h138v-75h-386v75z" />
    <glyph glyph-name="two" unicode="2" horiz-adv-x="575" 
d="M477 486c0 -26.667 -5 -53.001 -15 -79.001s-23 -51.5 -39 -76.5s-34.5 -49.333 -55.5 -73s-42.5 -46.334 -64.5 -68.001l-65 -61.5l-58 -53l241 -1v85h84v-159h-465v68l66.5 59l73 66.5c24.333 23 47.833 46.667 70.5 71s42.834 48.833 60.501 73.5
s31.834 48.834 42.501 72.501s16 46.5 16 68.5c0 38 -11.167 65.833 -33.5 83.5s-53.5 26.5 -93.5 26.5c-16.667 0 -39.334 -3.16699 -68.001 -9.5s-62 -20.833 -100 -43.5l-35 65c41.333 29.333 81.166 48.833 119.499 58.5s71.833 14.5 100.5 14.5c32 0 61.5 -4 88.5 -12
s50 -19.833 69 -35.5s33.833 -35.167 44.5 -58.5s16 -50.666 16 -81.999z" />
    <glyph glyph-name="three" unicode="3" horiz-adv-x="575" 
d="M481 665l15 -59.001l-205 -204c30.667 -1.33301 59.334 -5.66602 86.001 -12.999s50 -18.5 70 -33.5s35.667 -34.333 47 -58s17 -52.167 17 -85.5c0 -37.333 -6.83301 -69.833 -20.5 -97.5s-32.167 -50.667 -55.5 -69s-50.5 -32 -81.5 -41s-63.5 -13.5 -97.5 -13.5
c-34.667 0 -70.334 3.16699 -107.001 9.5s-70.667 17.166 -102 32.499l25 73c36.667 -11.333 68 -19.166 94 -23.499s49.667 -6.5 71 -6.5c51.333 0 91.833 11 121.5 33s44.5 56 44.5 102c0 40 -14.5 70.333 -43.5 91s-72.833 31 -131.5 31c-8.66699 0 -17 -0.333008 -25 -1
s-16.667 -1.66699 -26 -3l-16 57l48 49l53 53l53 53l49 48h-208v-88h-83v164h408z" />
    <glyph glyph-name="four" unicode="4" horiz-adv-x="575" 
d="M447 665v-403h97v-74h-97v-113h70v-75h-239v75h68v113h-315v68l74 97l83.5 107.5l83.5 107.5l74 97h101zM341 534l-106.5 -136.5l-106.5 -135.5h219l-1 272h-5z" />
    <glyph glyph-name="five" unicode="5" horiz-adv-x="575" 
d="M255 346c-17.333 0 -35.498 -2.33496 -54.498 -7.00195s-37.5 -11 -55.5 -19l-57 34l22 311h372v-149h-83v74h-203l-13 -185c11.333 4.66699 24.666 8.83398 39.999 12.501s36.333 5.5 63 5.5c30 0 58.667 -4.16699 86 -12.5s51.5 -21 72.5 -38s37.833 -38.667 50.5 -65
s19 -57.5 19 -93.5c0 -37.333 -6.83301 -70 -20.5 -98s-32 -51.333 -55 -70s-49.667 -32.5 -80 -41.5s-62.166 -13.5 -95.499 -13.5c-34 0 -70.167 3 -108.5 9s-73.5 17.333 -105.5 34l25 74c37.333 -11.333 69.166 -19.166 95.499 -23.499s50.166 -6.5 71.499 -6.5
c50 0 90.167 10.667 120.5 32s45.5 56 45.5 104c0 22 -4 41.333 -12 58s-19 30.5 -33 41.5s-30.167 19.167 -48.5 24.5s-37.833 8 -58.5 8z" />
    <glyph glyph-name="six" unicode="6" horiz-adv-x="575" 
d="M159 371c25.333 13.333 51.002 24.3379 77.002 33.0049s54.667 13 86 13c26.667 0 52.167 -4 76.5 -12s45.833 -20.333 64.5 -37s33.667 -38 45 -64s17 -57 17 -93c0 -34.667 -5.83301 -65.5 -17.5 -92.5s-27.834 -49.833 -48.501 -68.5s-45.334 -32.834 -74.001 -42.501
s-60 -14.5 -94 -14.5c-46.667 0 -85.5 8 -116.5 24s-55.833 38 -74.5 66s-31.834 60.667 -39.501 98s-11.5 77.666 -11.5 120.999c0 53.333 5.33301 102.666 16 147.999s27.167 84.666 49.5 117.999s51 59.333 86 78s76.833 28 125.5 28c35.333 0 65.5 -2.83301 90.5 -8.5
s44.167 -11.5 57.5 -17.5l-20 -74c-24.667 9.33301 -47.5 15.166 -68.5 17.499s-39.167 3.5 -54.5 3.5c-34 0 -62.167 -8 -84.5 -24s-40.166 -35.5 -53.499 -58.5s-22.833 -47.167 -28.5 -72.5s-9.16699 -47 -10.5 -65zM299.002 341.005
c-22 0 -41.499 -2.33398 -58.499 -7.00098s-31.5 -9.66699 -43.5 -15s-21.5 -10.666 -28.5 -15.999s-11.5 -8.33301 -13.5 -9v-20c0 -20 1.5 -41.833 4.5 -65.5s9.33301 -45.5 19 -65.5s23.5 -36.833 41.5 -50.5s42 -20.5 72 -20.5c42.667 0 75 12.667 97 38s33 58 33 98
c0 19.333 -2 37.166 -6 53.499s-10.833 30.333 -20.5 42s-22.334 20.834 -38.001 27.501s-35.167 10 -58.5 10z" />
    <glyph glyph-name="seven" unicode="7" horiz-adv-x="575" 
d="M79 491v174h421v-71l-269 -594h-101l132.5 295l133.5 295h-232v-99h-85z" />
    <glyph glyph-name="eight" unicode="8" horiz-adv-x="575" 
d="M181 504c0 -15.333 3.66699 -28.3311 11 -38.998s17.5 -20.5 30.5 -29.5s28.167 -17.333 45.5 -25l56 -25.5c30.667 22 52 42 64 60s18 36.333 18 55c0 10.667 -2.16699 21.667 -6.5 33s-11 21.666 -20 30.999s-21 17.166 -36 23.499s-32.833 9.5 -53.5 9.5
c-20 0 -37 -3.33301 -51 -10s-25.167 -14.667 -33.5 -24s-14.5 -19.5 -18.5 -30.5s-6 -20.5 -6 -28.5zM284 71.002c21.333 0 40.334 2.99902 57.001 8.99902s30.834 14.333 42.501 25s20.5 22.834 26.5 36.501s9 28.5 9 44.5c0 16.667 -4 31.5 -12 44.5s-19.5 25 -34.5 36
s-33.5 21.5 -55.5 31.5l-76 33c-17.333 -11.333 -31.833 -23.333 -43.5 -36s-20.834 -25.5 -27.501 -38.5s-11.334 -25.833 -14.001 -38.5s-4 -25 -4 -37c0 -30 11 -55.833 33 -77.5s55 -32.5 99 -32.5zM505.001 510.001c0 -12 -1.33105 -24.3281 -3.99805 -36.9951
s-7.5 -25.834 -14.5 -39.501s-16.667 -27.5 -29 -41.5s-28.166 -28.333 -47.499 -43c16 -8 30.833 -17.5 44.5 -28.5s25.667 -23.5 36 -37.5s18.5 -29.667 24.5 -47s9 -36.333 9 -57c0 -26.667 -5.66699 -51.334 -17 -74.001s-27.5 -42.334 -48.5 -59.001
s-46.5 -29.834 -76.5 -39.501s-63.333 -14.5 -100 -14.5c-76.667 0 -135.5 16.333 -176.5 49s-61.5 75.667 -61.5 129c0 16 2 33 6 51s10.5 35.667 19.5 53s21.167 34.166 36.5 50.499s34.666 31.166 57.999 44.499c-30 18 -52.167 37.167 -66.5 57.5s-21.5 46.5 -21.5 78.5
c0 24.667 5.33301 47.5 16 68.5s25.667 39.167 45 54.5s42.166 27.333 68.499 36s55.5 13 87.5 13c24 0 48.667 -3 74 -9s48.166 -15.667 68.499 -29s37 -30.666 50 -51.999s19.5 -47 19.5 -77z" />
    <glyph glyph-name="nine" unicode="9" horiz-adv-x="575" 
d="M408 295c-24.667 -14.667 -50.332 -26.165 -76.999 -34.498s-55.334 -12.5 -86.001 -12.5c-27.333 0 -53.333 4 -78 12s-46.167 20.333 -64.5 37s-33 38 -44 64s-16.5 57 -16.5 93c0 34.667 5.83301 65.667 17.5 93s27.834 50.333 48.501 69s45.334 33 74.001 43
s60 15 94 15c46 0 84.5 -8.16699 115.5 -24.5s55.833 -38.5 74.5 -66.5s31.834 -60.833 39.501 -98.5s11.5 -77.834 11.5 -120.501c0 -53.333 -5.33301 -102.5 -16 -147.5s-27.334 -84 -50.001 -117s-51.334 -58.833 -86.001 -77.5s-76.334 -28 -125.001 -28
c-36 0 -66.667 2.66699 -92 8s-46.666 10.666 -63.999 15.999l20 72c27.333 -7.33301 52.166 -12.333 74.499 -15s41.166 -4 56.499 -4c34 0 62.167 8.16699 84.5 24.5s40.333 36 54 59s23.334 47.167 29.001 72.5s9.16699 47 10.5 65zM268.002 324.002
c21.333 0 40.499 2.33203 57.499 6.99902s31.5 9.66699 43.5 15s21.5 10.5 28.5 15.5s11.5 8.16699 13.5 9.5v21c0 19.333 -1.5 40.5 -4.5 63.5s-9.16699 44.5 -18.5 64.5s-23.166 36.833 -41.499 50.5s-42.5 20.5 -72.5 20.5c-42.667 0 -75 -12.167 -97 -36.5
s-33 -56.5 -33 -96.5c0 -19.333 2 -37.166 6 -53.499s10.833 -30.5 20.5 -42.5s22.5 -21.333 38.5 -28s35.667 -10 59 -10z" />
    <glyph glyph-name="colon" unicode=":" horiz-adv-x="228" 
d="M179 55c0 -18 -6.33301 -33.333 -19 -46s-27.667 -19 -45 -19c-18 0 -33.5 6.33301 -46.5 19s-19.5 28 -19.5 46s6.5 33.333 19.5 46s28.167 19 45.5 19c18 0 33.333 -6.33301 46 -19s19 -28 19 -46zM179 360c0 -18.667 -6.33301 -34.334 -19 -47.001
s-27.667 -19 -45 -19c-18 0 -33.5 6.33301 -46.5 19s-19.5 28.334 -19.5 47.001c0 17.333 6.5 32.333 19.5 45s28.167 19 45.5 19c18 0 33.333 -6.33301 46 -19s19 -27.667 19 -45z" />
    <glyph glyph-name="semicolon" unicode=";" horiz-adv-x="228" 
d="M179 360c0 -18.667 -6.33301 -34.334 -19 -47.001s-27.667 -19 -45 -19c-18 0 -33.5 6.33301 -46.5 19s-19.5 28.334 -19.5 47.001c0 17.333 6.5 32.333 19.5 45s28.167 19 45.5 19c18 0 33.333 -6.33301 46 -19s19 -27.667 19 -45zM50 56
c0 16 5.83301 30.1689 17.5 42.502s27.167 18.5 46.5 18.5c22 0 39 -7.33301 51 -22s18 -32.334 18 -53.001c0 -30.667 -9.66699 -62.167 -29 -94.5s-46.333 -59.5 -81 -81.5l-27 33c16 16 28.167 32.167 36.5 48.5s13.5 33.5 15.5 51.5
c-18 1.33301 -30.5 7.66602 -37.5 18.999s-10.5 24 -10.5 38z" />
    <glyph glyph-name="less" unicode="&#x3c;" horiz-adv-x="575" 
d="M500 61l-418 208v57l418 208v-80l-328 -156l328 -158v-79z" />
    <glyph glyph-name="equal" unicode="=" horiz-adv-x="575" 
d="M81 343v68h412v-68h-412zM81 191v67h412v-67h-412z" />
    <glyph glyph-name="greater" unicode="&#x3e;" horiz-adv-x="575" 
d="M82 140l328 158l-328 156v80l418 -208v-57l-418 -208v79z" />
    <glyph glyph-name="question" unicode="?" horiz-adv-x="464" 
d="M235 706c61.333 0 109.832 -12.333 145.499 -37s53.5 -58.667 53.5 -102c0 -22.667 -5.16699 -43.834 -15.5 -63.501s-23.166 -38.334 -38.499 -56.001s-32 -34.667 -50 -51s-34.667 -32.833 -50 -49.5s-28.166 -33.5 -38.499 -50.5s-15.5 -35.167 -15.5 -54.5
c0 -9.33301 0.5 -19 1.5 -29l3.5 -34l-84 -7c-3.33301 17.333 -5.83301 33.166 -7.5 47.499s-2.5 26.5 -2.5 36.5c0 20.667 3.33301 39.667 10 57s15.667 33.833 27 49.5s24.833 31.167 40.5 46.5l50.5 49c17.333 16.667 31.166 31.834 41.499 45.501
s15.5 29.834 15.5 48.501c0 25.333 -9.5 43.5 -28.5 54.5s-43.167 16.5 -72.5 16.5c-15.333 0 -31.333 -1.16699 -48 -3.5s-33.667 -6.16602 -51 -11.499v-87h-80v151c34.667 12 69 20.667 103 26s64 8 90 8zM266.999 47c0 -16 -6 -29.5 -18 -40.5s-26.333 -16.5 -43 -16.5
c-17.333 0 -32 5.5 -44 16.5s-18 24.5 -18 40.5c0 16.667 5.83301 30.834 17.5 42.501s26.167 17.5 43.5 17.5s32 -5.83301 44 -17.5s18 -25.834 18 -42.501z" />
    <glyph glyph-name="at" unicode="@" horiz-adv-x="897" 
d="M465 694c54.667 0 103.832 -7.83301 147.499 -23.5s80.834 -38 111.501 -67s54 -63.833 70 -104.5s24 -85.667 24 -135c-0.666992 -33.333 -6 -62.833 -16 -88.5s-23.5 -47.167 -40.5 -64.5s-36.333 -30.333 -58 -39s-44.167 -13 -67.5 -13c-10.667 0 -21.667 1 -33 3
s-22.166 5.5 -32.499 10.5s-19.666 11.333 -27.999 19s-14.5 17.167 -18.5 28.5c-15.333 -16 -34.833 -29.167 -58.5 -39.5s-47.834 -15.5 -72.501 -15.5c-22 0 -40 3.66699 -54 11s-24.833 16.166 -32.5 26.499s-13 21.666 -16 33.999s-4.5 23.5 -4.5 33.5
c0 26.667 6.83301 47.334 20.5 62.001s31.5 25.667 53.5 33s46.333 12.166 73 14.499s53 4.5 79 6.5v22c0 28 -4.83301 47.167 -14.5 57.5s-28.5 15.5 -56.5 15.5c-35.333 0 -72 -6 -110 -18l-15 51c21.333 9.33301 44.333 16.5 69 21.5s49.334 7.5 74.001 7.5
c38 0 68.667 -9 92 -27s35 -49.333 35 -94v-151c0 -16.667 5.16699 -30.167 15.5 -40.5s26.166 -15.5 47.499 -15.5c10.667 0 22.334 2.66699 35.001 8s24.334 13.833 35.001 25.5s19.5 26.834 26.5 45.501s10.5 41 10.5 67c0 42.667 -6.83301 81.167 -20.5 115.5
s-33 63.5 -58 87.5s-55.5 42.333 -91.5 55s-76.333 19 -121 19c-45.333 0 -88 -7.66699 -128 -23s-74.833 -36.5 -104.5 -63.5s-53.167 -59 -70.5 -96s-26 -76.833 -26 -119.5c0 -44 7.66699 -84.5 23 -121.5s36.5 -69.167 63.5 -96.5s59 -48.666 96 -63.999
s77.167 -23 120.5 -23c18 0 37.333 1.5 58 4.5s43.667 8.5 69 16.5c3.33301 -8 6.33301 -16 9 -24s5.66699 -16.333 9 -25c-20 -8.66699 -42.833 -15.334 -68.5 -20.001s-50.834 -7 -75.501 -7c-55.333 0 -105.5 9 -150.5 27s-83.333 42.833 -115 74.5
s-56.167 69.334 -73.5 113.001s-26 91.167 -26 142.5c0 52 10.167 100.167 30.5 144.5s48.166 82.5 83.499 114.5s76.666 57 123.999 75s98 27 152 27zM511.998 343c-16 -2 -32.667 -3.5 -50 -4.5s-33 -3.33301 -47 -7s-25.5 -9.5 -34.5 -17.5s-13.5 -19.667 -13.5 -35
c0 -18.667 4.5 -33.167 13.5 -43.5s24.167 -15.5 45.5 -15.5c28 0 56.667 12.667 86 38v85z" />
    <glyph glyph-name="A" unicode="A" horiz-adv-x="697" 
d="M510 76l-18 57.5l-18 55.5h-257l-17 -53l-18 -60h68v-76h-230v76h56l207 610h137l101 -305l101 -305h56v-76h-234v76h66zM451 265l-41 134.5l-43 134.5c-2.66699 10 -5.5 20 -8.5 30s-6.16699 20 -9.5 30h-2l-19 -61l-20 -61.5l-23 -71l-23 -72l-19 -63.5h208z" />
    <glyph glyph-name="B" unicode="B" horiz-adv-x="648" 
d="M44 608l0.00195312 76.9971h314c76.667 0 133.667 -15.5 171 -46.5s56 -74.833 56 -131.5c0 -10 -1 -21.5 -3 -34.5s-6.33301 -26.333 -13 -40s-16 -27 -28 -40s-28 -24.167 -48 -33.5v-1c22 -6.66699 40.167 -16.167 54.5 -28.5s25.833 -26.166 34.5 -41.499
s14.834 -31.5 18.501 -48.5s5.5 -33.5 5.5 -49.5c0 -29.333 -5.33301 -55.666 -16 -78.999s-25.334 -43.166 -44.001 -59.499s-40.334 -29 -65.001 -38s-51.334 -13.5 -80.001 -13.5h-361v76h70v532h-66zM493.002 195.997c0 16 -2.66797 31.167 -8.00098 45.5
s-13.166 27 -23.499 38s-23.5 19.833 -39.5 26.5s-34.667 10 -56 10h-145v-240h145c22.667 0 42 3.16699 58 9.5s29.167 15 39.5 26s17.833 23.833 22.5 38.5s7 30 7 46zM474.001 498.997c0 32 -9.66797 58.167 -29.001 78.5s-50.666 30.5 -93.999 30.5h-130v-216h130
c40 0 70.5 9.83301 91.5 29.5s31.5 45.5 31.5 77.5z" />
    <glyph glyph-name="C" unicode="C" horiz-adv-x="593" 
d="M165 341c0 -40 3.33398 -76 10.001 -108s18.167 -59.333 34.5 -82s38.333 -40 66 -52s62.5 -18 104.5 -18c8.66699 0 19.5 0.333008 32.5 1s26.833 2 41.5 4s29.667 4.33301 45 7s29.666 6 42.999 10l18 -78c-13.333 -5.33301 -28.166 -10 -44.499 -14
s-33.5 -7.5 -51.5 -10.5s-36.167 -5.33301 -54.5 -7s-35.833 -2.5 -52.5 -2.5c-58 0 -106.667 8.83301 -146 26.5s-70.833 42 -94.5 73s-40.667 67.833 -51 110.5s-15.5 89 -15.5 139c0 38 4.5 78.167 13.5 120.5s25.167 81 48.5 116s55.333 64 96 87s92.667 34.5 156 34.5
c37.333 0 70.666 -2.66699 99.999 -8s55.333 -12 78 -20v-174h-80v105c-15.333 4 -31.333 6.83301 -48 8.5s-32.334 2.5 -47.001 2.5c-36 0 -66.667 -6.5 -92 -19.5s-46.166 -31.333 -62.499 -55s-28.333 -52.167 -36 -85.5s-11.5 -70.333 -11.5 -111z" />
    <glyph glyph-name="D" unicode="D" horiz-adv-x="692" 
d="M42 0l-0.000976562 77.001h70v530h-66v79h304c58 0 105.833 -9.16699 143.5 -27.5s67.5 -43.166 89.5 -74.499s37.333 -67.5 46 -108.5s13 -84.5 13 -130.5c0 -46.667 -4.83301 -90.834 -14.5 -132.501s-26 -78.334 -49 -110.001s-53.667 -56.667 -92 -75
s-86.166 -27.5 -143.499 -27.5h-301zM223.999 607.001l0.000976562 -529.999h106c16.667 0 36.334 2.5 59.001 7.5s44.167 16.5 64.5 34.5s37.666 44.333 51.999 79s21.5 81.667 21.5 141c0 60 -6.5 107.833 -19.5 143.5s-29.167 62.667 -48.5 81s-40.333 30.166 -63 35.499
s-43.334 8 -62.001 8h-110z" />
    <glyph glyph-name="E" unicode="E" horiz-adv-x="607" 
d="M42 0v78h68v530h-66v77h519v-179h-81v102h-262v-215l243 5v-79l-243 4v-245h275v105h82v-183h-535z" />
    <glyph glyph-name="F" unicode="F" horiz-adv-x="587" 
d="M42 0v77h68v531h-66v77h520v-179h-82v102h-262v-215l243 5v-79l-243 4v-246h95v-77h-273z" />
    <glyph glyph-name="G" unicode="G" horiz-adv-x="657" 
d="M377 698c37.333 0 71.668 -2.66699 103.001 -8s58.333 -12 81 -20v-171h-80v100c-13.333 3.33301 -29 6.16602 -47 8.49902s-35.667 3.5 -53 3.5c-38 0 -70.5 -6.5 -97.5 -19.5s-49.333 -31.167 -67 -54.5s-30.667 -51.666 -39 -84.999s-12.5 -70.333 -12.5 -111
c0 -38 3.16699 -73 9.5 -105s17 -59.5 32 -82.5s35.167 -41 60.5 -54s57.333 -19.5 96 -19.5c16 0 34.667 1.16699 56 3.5s39.333 5.83301 54 10.5v192h-99v75h250v-75h-50v-261c-36 -11.333 -72.667 -19.833 -110 -25.5s-73.333 -8.5 -108 -8.5
c-57.333 0 -105.5 8.83301 -144.5 26.5s-70.5 42 -94.5 73s-41.167 67.833 -51.5 110.5s-15.5 89 -15.5 139c0 38 4.5 78 13.5 120s25.667 80.667 50 116s57.666 64.5 99.999 87.5s96.833 34.5 163.5 34.5z" />
    <glyph glyph-name="H" unicode="H" horiz-adv-x="739" 
d="M457 0v77h62v244h-301v-244h63v-77h-240v77h67v531h-67v77h240v-77h-63v-213h301v213h-62v77h240v-77h-67v-531h67v-77h-240z" />
    <glyph glyph-name="I" unicode="I" horiz-adv-x="381" 
d="M70 0v77h65v531h-65v78h241v-78h-66v-531h66v-77h-241z" />
    <glyph glyph-name="J" unicode="J" horiz-adv-x="393" 
d="M65 686h275v-78h-77l-1 -463c0 -44.667 -5.5 -84.334 -16.5 -119.001s-27.333 -65 -49 -91s-48.5 -48.333 -80.5 -67s-69 -34 -111 -46l-29 71c36 19.333 65.5 37.833 88.5 55.5s41 36.334 54 56.001s21.833 41 26.5 64s7 49.5 7 79.5v460h-87v78z" />
    <glyph glyph-name="K" unicode="K" horiz-adv-x="678" 
d="M375 416l228 -339h58v-77h-245l-1 77h63l-182 272l-80 -76v-197h63v-76h-237v76h66v535h-66v74h238v-74h-64v-239l250 238h-63v75h237v-75h-58z" />
    <glyph glyph-name="L" unicode="L" horiz-adv-x="591" 
d="M42 0v77h68v531h-66v77h249v-77h-72v-531h279v122h82v-199h-540z" />
    <glyph glyph-name="M" unicode="M" horiz-adv-x="910" 
d="M458 200c8 17.333 15.833 35.333 23.5 54l22.5 54l107 246l57 131h206v-77h-62v-532h62v-76h-234v76h61v453h-2l-40 -94l-31.5 -74l-32.5 -74l-44.5 -99.5l-43.5 -100.5h-104l-46.5 101.5l-46.5 101.5l-67 151l-38 88h-3c0 -76 -0.166992 -151.5 -0.5 -226.5
s-0.5 -150.5 -0.5 -226.5h65v-76h-235v76h66v532h-66v77h209l30.5 -65.5l34.5 -78.5l47 -106.5l47 -108.5c10.667 -23.333 20.5 -45.833 29.5 -67.5l24.5 -58.5h5z" />
    <glyph glyph-name="N" unicode="N" horiz-adv-x="770" 
d="M558 169v439h-69v77h238v-77h-66v-608h-106l-160 246l-60.5 92.5l-60.5 94.5l-30 48.5l-31 48.5c-0.666992 0 -1 -0.166992 -1 -0.5s-0.333008 -0.5 -1 -0.5v-453h68c0 -12.667 0.166992 -25.334 0.5 -38.001s0.5 -25.334 0.5 -38.001h-240
c0 12.667 -0.166992 25.334 -0.5 38.001s-0.5 25.334 -0.5 38.001h69c0 89.333 0.166992 178 0.5 266s0.5 176.667 0.5 266h-69v77h186l83.5 -131.5l64.5 -100.5l111 -175l34 -54l34 -55h5z" />
    <glyph glyph-name="O" unicode="O" horiz-adv-x="705" 
d="M655 342c0 -50 -6.33203 -96.333 -18.999 -139s-31.5 -79.834 -56.5 -111.501s-56.167 -56.334 -93.5 -74.001s-80.666 -26.5 -129.999 -26.5c-54 0 -100.333 8.33301 -139 25s-70.334 40.167 -95.001 70.5s-42.834 66.833 -54.501 109.5s-17.5 90.334 -17.5 143.001
c0 48 5.5 93.667 16.5 137s28.833 81.333 53.5 114s56.334 58.667 95.001 78s85.667 29 141 29c56 0 103.167 -9.66699 141.5 -29s69.166 -45.166 92.499 -77.499s40 -70 50 -113s15 -88.167 15 -135.5zM539.001 339c0 32.667 -2.33301 65.499 -7 98.499
s-13.667 62.5 -27 88.5s-32 47.167 -56 63.5s-55 24.5 -93 24.5s-69.333 -7.66699 -94 -23s-44.167 -35.833 -58.5 -61.5s-24.333 -55.167 -30 -88.5s-8.5 -67.666 -8.5 -102.999c0 -86 14.833 -151.5 44.5 -196.5s78.5 -67.5 146.5 -67.5c32 0 59.5 6.83301 82.5 20.5
s42 32.334 57 56.001s26 51.667 33 84s10.5 67.166 10.5 104.499z" />
    <glyph glyph-name="P" unicode="P" horiz-adv-x="598" 
d="M569 483c0 -22.667 -3.66699 -46.1689 -11 -70.502s-19.166 -46.666 -35.499 -66.999s-38 -37.166 -65 -50.499s-60.167 -20 -99.5 -20h-141v-198h87v-77h-262v77h65v531h-65v78h305c69.333 0 123.666 -17.5 162.999 -52.5s59 -85.167 59 -150.5zM217 607.998v-257.001
h116c16 0 31.333 2.16699 46 6.5s27.667 11.5 39 21.5s20.333 23.167 27 39.5s10 36.5 10 60.5c0 44.667 -11 77.334 -33 98.001s-52.667 31 -92 31h-113z" />
    <glyph glyph-name="Q" unicode="Q" horiz-adv-x="706" 
d="M653 340c0 -72 -12.667 -135.668 -38 -191.001s-63.333 -96.333 -114 -123l156 -38l-35 -89l-267 87c-17.333 1.33301 -33.833 3.5 -49.5 6.5s-30.167 6.16699 -43.5 9.5c-74.667 19.333 -128.667 57.5 -162 114.5s-50 131.167 -50 222.5c0 48 5.5 93.667 16.5 137
s28.667 81.333 53 114s55.833 58.667 94.5 78s85.667 29 141 29c56 0 103 -9.66699 141 -29s68.667 -45.333 92 -78s40 -70.667 50 -114s15 -88.666 15 -135.999zM538 338.999c0 32.667 -2.33203 65.334 -6.99902 98.001s-13.667 62.167 -27 88.5
s-31.833 47.666 -55.5 63.999s-54.834 24.5 -93.501 24.5c-38 0 -69.333 -7.83301 -94 -23.5s-44.167 -36.334 -58.5 -62.001s-24.333 -55.167 -30 -88.5s-8.5 -67.666 -8.5 -102.999c0 -86 14.833 -151.333 44.5 -196s78.5 -67 146.5 -67c32 0 59.5 6.66699 82.5 20
s42 31.833 57 55.5s26 51.667 33 84s10.5 67.5 10.5 105.5z" />
    <glyph glyph-name="R" unicode="R" horiz-adv-x="648" 
d="M460 491c0 21.333 -3.33203 39.5 -9.99902 54.5s-15.5 27.167 -26.5 36.5s-24 16 -39 20s-30.5 6 -46.5 6h-121v-239h121c13.333 0 27.166 1.66699 41.499 5s27.5 9.5 39.5 18.5s21.833 21.333 29.5 37s11.5 36.167 11.5 61.5zM217.001 294l-0.000976562 -216h77v-78
h-251v78h64v530h-64v78h313c70 0 124 -16.667 162 -50s57 -81.333 57 -144c0 -16 -2 -33 -6 -51s-10.833 -35.5 -20.5 -52.5s-22.5 -32.333 -38.5 -46s-35.667 -24.167 -59 -31.5l108 -236l74 -10v-60c-13.333 -5.33301 -28.833 -9.33301 -46.5 -12s-32.167 -4 -43.5 -4
c-24 0 -41.667 5.33301 -53 16s-21.666 26 -30.999 46l-107 243h-135z" />
    <glyph glyph-name="S" unicode="S" horiz-adv-x="575" 
d="M117 187l1.00195 -82.0039c24.667 -11.333 49.667 -19.166 75 -23.499s49 -6.5 71 -6.5c26 0 48.667 3.33301 68 10s35.333 15.167 48 25.5s22.167 22.333 28.5 36s9.5 27.5 9.5 41.5c0 20.667 -3.83301 37.334 -11.5 50.001s-18.334 23 -32.001 31
s-29.667 14.833 -48 20.5s-38.5 11.5 -60.5 17.5c-30.667 6.66699 -59.334 15 -86.001 25s-50 22.167 -70 36.5s-35.833 31.833 -47.5 52.5s-17.5 45.334 -17.5 74.001c0.666992 32.667 7.33398 61.5 20.001 86.5s29.834 45.833 51.501 62.5s47 29.334 76 38.001
s60.5 13 94.5 13c14.667 0 30.667 -0.666992 48 -2s34.833 -3.5 52.5 -6.5s35.167 -7.33301 52.5 -13s33.333 -12.5 48 -20.5l1 -143h-81l-1 83c-15.333 6.66699 -34.5 11.334 -57.5 14.001s-43.5 4 -61.5 4c-17.333 0 -33.833 -2.16699 -49.5 -6.5
s-29.334 -10.833 -41.001 -19.5s-21 -19.5 -28 -32.5s-10.5 -27.833 -10.5 -44.5c0 -16 4.16699 -29.833 12.5 -41.5s19.5 -21.834 33.5 -30.501s30.167 -16.167 48.5 -22.5s37.5 -11.833 57.5 -16.5c28 -6.66699 55.5 -14.5 82.5 -23.5s51.167 -21 72.5 -36
s38.5 -34 51.5 -57s19.5 -52.167 19.5 -87.5s-6.5 -65.666 -19.5 -90.999s-31.167 -46.333 -54.5 -63s-51.333 -28.834 -84 -36.501s-68.667 -11.5 -108 -11.5c-38.667 0 -78.334 3.66699 -119.001 11s-78.667 20.333 -114 39c0 24 -0.166992 48.167 -0.5 72.5
s-0.5 48.833 -0.5 73.5h80z" />
    <glyph glyph-name="T" unicode="T" horiz-adv-x="587" 
d="M158 0v77h82v531h-145v-109h-80v187h558v-187h-81v109h-143v-531h82v-77h-273z" />
    <glyph glyph-name="U" unicode="U" horiz-adv-x="728" 
d="M635 249c0 -78.667 -22.166 -141.166 -66.499 -187.499s-112.833 -69.5 -205.5 -69.5c-48 0 -89.167 5.83301 -123.5 17.5s-62.5 28.5 -84.5 50.5s-38.167 49 -48.5 81s-15.5 68 -15.5 108v359h-59v78h235v-78h-68v-358c0 -58.667 14.167 -102.334 42.5 -131.001
s69.166 -43 122.499 -43c52 0 92.333 14 121 42s43 72 43 132v358h-67v78h235v-78h-61v-359z" />
    <glyph glyph-name="V" unicode="V" horiz-adv-x="672" 
d="M435 685h228v-78h-60l-99 -304l-100 -303h-134l-101 303l-101 304h-59v78h234c0 -13.333 -0.166992 -26.333 -0.5 -39s-0.5 -25.667 -0.5 -39h-59l61 -198.5l62 -197.5l16 -54.5l16 -55.5h4l33 112l60 196.5l59 197.5h-59v78z" />
    <glyph glyph-name="W" unicode="W" horiz-adv-x="980" 
d="M491 436l-30 -103l-99 -333h-134l-159 607h-59v79h240v-79h-65l89 -366l31 -133h2l36 133l97 333l-12 33h-66l-1 79h247l1 -79h-69l113 -372l35 -119h2l29 130l83 361h-64v79h236v-79h-62l-21.5 -85.5l-27 -105l-30 -114l-30 -114l-27 -104l-21.5 -84.5h-133l-100 337
l-29 99h-2z" />
    <glyph glyph-name="X" unicode="X" horiz-adv-x="667" 
d="M408 686h228v-79h-63l-172 -255l177 -274h66l1 -78h-259v78h63l-131 210l-134 -210h66v-78h-232v78h61l183 278l-157 251h-72l1 79h254v-79h-58l117 -190l121 190h-60v79z" />
    <glyph glyph-name="Y" unicode="Y" horiz-adv-x="621" 
d="M445 607h-59v79h224v-79h-56l-189 -320v-210h80v-77h-273v77h80v207l-185 323h-55v79h227v-79h-58l128 -241h4z" />
    <glyph glyph-name="Z" unicode="Z" horiz-adv-x="565" 
d="M156 78h305v121h83v-199h-521v76l367 532h-261v-107h-82v185h477v-76z" />
    <glyph glyph-name="bracketleft" unicode="[" horiz-adv-x="282" 
d="M58 -160v858h189v-65h-96v-729h96v-64h-189z" />
    <glyph glyph-name="backslash" unicode="\" horiz-adv-x="349" 
d="M12 703h72l258 -733h-73z" />
    <glyph glyph-name="bracketright" unicode="]" horiz-adv-x="282" 
d="M35 -160v64h97v729h-97v65h189v-858h-189z" />
    <glyph glyph-name="asciicircum" unicode="^" horiz-adv-x="461" 
d="M358 370l-65.5 115.5l-65.5 114.5l-64.5 -113.5l-66.5 -116.5h-76l180 310h56l178 -310h-76z" />
    <glyph glyph-name="underscore" unicode="_" horiz-adv-x="500" 
d="M0 -138v57h500v-57h-500z" />
    <glyph glyph-name="grave" unicode="`" horiz-adv-x="500" 
d="M140 673l63 63l134 -165l-39 -37z" />
    <glyph glyph-name="a" unicode="a" horiz-adv-x="537" 
d="M230 220c-28 -2 -49.334 -10.166 -64.001 -24.499s-22 -31.833 -22 -52.5c0 -26 6.33301 -45.167 19 -57.5s33.334 -18.5 62.001 -18.5c18 0 37.5 4.66699 58.5 14s39.5 21.666 55.5 36.999v110zM441.999 75.001l75.9951 -0.000976562l6 -60
c-6.66699 -4 -15 -7.33301 -25 -10s-20.333 -4.83398 -31 -6.50098s-21 -2.83398 -31 -3.50098s-18.333 -1 -25 -1c-19.333 0 -35.166 3.66699 -47.499 11s-18.833 24 -19.5 50c-0.666992 0 -1 0.166992 -1 0.5s-0.333008 0.5 -1 0.5c-18 -16 -35.333 -28.333 -52 -37
s-32.167 -15.167 -46.5 -19.5s-27.166 -6.83301 -38.499 -7.5s-20.666 -1 -27.999 -1c-29.333 0 -53.333 4.66699 -72 14s-33.5 21 -44.5 35s-18.5 29.333 -22.5 46s-6 32 -6 46c0 20 3.5 38.333 10.5 55s18.167 31.334 33.5 44.001s35 23.167 59 31.5s53 13.5 87 15.5
l118 8v29c0 36.667 -7 62.667 -21 78s-39.667 23 -77 23c-24 0 -49.167 -2.33301 -75.5 -7s-51.166 -11 -74.499 -19l-10 34l-10 34c28 12.667 59.5 22.334 94.5 29.001s68.5 10 100.5 10c54.667 0 97.334 -12.167 128.001 -36.5s46 -67.166 46 -128.499v-257z" />
    <glyph glyph-name="b" unicode="b" horiz-adv-x="568" 
d="M299 -8c-32 0 -67.998 3.66602 -107.998 10.999s-78 19.333 -114 36v598h-75v76h182v-255c28 15.333 54.167 26.333 78.5 33s46.166 10 65.499 10c37.333 0 68.5 -6.5 93.5 -19.5s44.833 -31 59.5 -54s25 -50.167 31 -81.5s9 -65.666 9 -102.999
c0 -34 -3.5 -66.167 -10.5 -96.5s-19 -57 -36 -80s-39.833 -41.167 -68.5 -54.5s-64.334 -20 -107.001 -20zM306.002 418.999c-21.333 0 -42.6709 -4.00098 -64.0039 -12.001s-40.666 -16.667 -57.999 -26v-288c19.333 -8 38.333 -13.5 57 -16.5s35.667 -4.5 51 -4.5
c18.667 0 35.334 2.66699 50.001 8s27.334 14.5 38.001 27.5s18.834 30.333 24.501 52s8.5 48.834 8.5 81.501c0 36.667 -2.66699 66.5 -8 89.5s-12.833 41 -22.5 54s-21 22 -34 27s-27.167 7.5 -42.5 7.5z" />
    <glyph glyph-name="c" unicode="c" horiz-adv-x="471" 
d="M272 500c27.333 0 53.668 -2.16797 79.001 -6.50098s48.666 -10.833 69.999 -19.5v-137h-76v71c-6 1.33301 -13.167 2.5 -21.5 3.5s-15.5 1.5 -21.5 1.5c-54.667 0 -94.167 -13.5 -118.5 -40.5s-36.5 -70.833 -36.5 -131.5c0 -57.333 11.167 -99.666 33.5 -126.999
s55.166 -41 98.499 -41c24.667 0 48.334 2.33301 71.001 7s45.667 11.667 69 21l23 -70c-22.667 -12.667 -49.5 -22.334 -80.5 -29.001s-62.833 -10 -95.5 -10c-44 0 -80.5 6.33301 -109.5 19s-52.167 30.167 -69.5 52.5s-29.5 48.5 -36.5 78.5s-10.5 62.333 -10.5 97
c0 26.667 3 55.334 9 86.001s17.5 59 34.5 85s40.667 47.5 71 64.5s69.5 25.5 117.5 25.5z" />
    <glyph glyph-name="d" unicode="d" horiz-adv-x="572" 
d="M381 45c-20.667 -16.667 -44.832 -29.667 -72.499 -39s-53.5 -14 -77.5 -14c-36 0 -66.333 6.5 -91 19.5s-44.334 30.5 -59.001 52.5s-25.167 47.667 -31.5 77s-9.5 60.666 -9.5 93.999c0 38 3.66699 73.167 11 105.5s19 60.333 35 84s36.833 42.334 62.5 56.001
s57.167 20.5 94.5 20.5c18 0 39.167 -2.16699 63.5 -6.5s47.833 -12.5 70.5 -24.5v167h-78v76h185v-638h73v-75h-174v44zM264.002 419c-15.333 0 -29.999 -2.66602 -43.999 -7.99902s-26.333 -14.833 -37 -28.5s-19.167 -32.334 -25.5 -56.001s-9.5 -53.834 -9.5 -90.501
c0 -32 2.83301 -58.5 8.5 -79.5s13.5 -37.667 23.5 -50s21.833 -21 35.5 -26s28.5 -7.5 44.5 -7.5c21.333 0 43.166 4.83301 65.499 14.5s39.5 19.834 51.5 30.501v269c-5.33301 4 -12.333 7.83301 -21 11.5s-18.167 7 -28.5 10s-21 5.5 -32 7.5s-21.5 3 -31.5 3z" />
    <glyph glyph-name="e" unicode="e" horiz-adv-x="505" 
d="M264 422c-19.333 0 -36 -3.83301 -50 -11.5s-25.5 -17.667 -34.5 -30s-16 -26.333 -21 -42s-7.83301 -31.5 -8.5 -47.5h218c-0.666992 18 -2.66699 34.833 -6 50.5s-9 29.5 -17 41.5s-18.5 21.5 -31.5 28.5s-29.5 10.5 -49.5 10.5zM265 500
c47.333 0 84.5 -8.83105 111.5 -26.498s47.333 -39 61 -64s22.167 -50.833 25.5 -77.5s5 -49 5 -67v-48h-320c0 -22 2 -42 6 -60s11 -33.333 21 -46s23.5 -22.5 40.5 -29.5s38.167 -10.5 63.5 -10.5c28 0 53.667 2.66699 77 8s48.333 13.666 75 24.999l27 -67
c-30.667 -16 -62.167 -27.667 -94.5 -35s-64.833 -11 -97.5 -11c-46 0 -83.5 7 -112.5 21s-52 32.667 -69 56s-28.667 50.166 -35 80.499s-9.5 61.833 -9.5 94.5c0 24 3 50.833 9 80.5s17.333 57.667 34 84s39.667 48.333 69 66s67 26.5 113 26.5z" />
    <glyph glyph-name="f" unicode="f" horiz-adv-x="383" 
d="M29 75h68.002v338h-69v60l70 19v73c0 47.333 13.167 85.333 39.5 114s69.5 43 129.5 43c15.333 0 33.666 -1 54.999 -3s41.666 -5.66699 60.999 -11l-15 -75c-13.333 2 -26.833 3.66699 -40.5 5s-25.834 2 -36.501 2c-29.333 0 -51.666 -5.66699 -66.999 -17
s-23 -31.333 -23 -60v-74h143v-76h-143v-338h82v-75h-254v75z" />
    <glyph glyph-name="g" unicode="g" horiz-adv-x="540" 
d="M441 428c10.667 -12 18.835 -27.332 24.502 -45.999s8.5 -37.334 8.5 -56.001c0 -27.333 -5.5 -51.333 -16.5 -72s-26 -38.167 -45 -52.5s-41.5 -25.333 -67.5 -33s-54.333 -11.5 -85 -11.5h-55c-23.333 0 -41 -2.33301 -53 -7s-18 -13.667 -18 -27
c0 -20.667 15.333 -31 46 -31h132c60.667 0 108 -12.167 142 -36.5s51 -60.833 51 -109.5c0 -23.333 -5.16699 -44.833 -15.5 -64.5s-26.333 -36.834 -48 -51.501s-48.667 -26.167 -81 -34.5s-70.5 -12.5 -114.5 -12.5c-42 0 -76.833 3.83301 -104.5 11.5
s-49.834 17.667 -66.501 30s-28.334 26.833 -35.001 43.5s-10 34 -10 52c0 28 6.83301 52 20.5 72s28.167 34.333 43.5 43c-19.333 4 -34 12.667 -44 26s-15 29.666 -15 48.999c0 14 2.66699 25.833 8 35.5s12 17.834 20 24.501s16.833 12 26.5 16s19.167 7 28.5 9
c-18 8 -34 22.167 -48 42.5s-21 48.5 -21 84.5c0 32 6 59.333 18 82s27.833 41.167 47.5 55.5s42 24.833 67 31.5s50.167 10 75.5 10c17.333 0 34.5 -1.16699 51.5 -3.5s32.167 -5.16602 45.5 -8.49902h165v-59h-75zM187.001 21.001c-6 -2 -12.166 -5.66699 -18.499 -11
s-12 -11.5 -17 -18.5s-9 -14.667 -12 -23s-4.5 -16.5 -4.5 -24.5c0 -10 1.83301 -20 5.5 -30s10.167 -18.667 19.5 -26s22.166 -13.333 38.499 -18s37.5 -7 63.5 -7c44 0 77.167 7.5 99.5 22.5s33.5 34.5 33.5 58.5c0 9.33301 -1.66699 18.5 -5 27.5s-9 17.167 -17 24.5
s-18.5 13.333 -31.5 18s-29.167 7 -48.5 7h-106zM366.002 327.001c0 10 -1.66699 20.667 -5 32s-9 21.833 -17 31.5s-18.833 17.667 -32.5 24s-30.834 9.5 -51.501 9.5c-34 0 -59.667 -8.83301 -77 -26.5s-26 -41.5 -26 -71.5c0 -29.333 8.33301 -52.333 25 -69
s40 -25 70 -25c32.667 0 59.834 7.83301 81.501 23.5s32.5 39.5 32.5 71.5z" />
    <glyph glyph-name="h" unicode="h" horiz-adv-x="608" 
d="M90 0l0.000976562 637h-70v76h176v-268c28 17.333 56.667 30.833 86 40.5s56.666 14.5 81.999 14.5c35.333 0 63 -5.83301 83 -17.5s34.833 -25.834 44.5 -42.501s15.667 -34.5 18 -53.5s3.5 -35.5 3.5 -49.5v-261h74v-63c-14 -6.66699 -30.667 -11.5 -50 -14.5
s-35.666 -4.5 -48.999 -4.5c-20 0 -35.333 3.66699 -46 11s-18.667 16 -24 26s-8.5 19.833 -9.5 29.5s-1.5 17.167 -1.5 22.5v234c0 16.667 -1 31 -3 43s-5.66699 22 -11 30s-13.333 14 -24 18s-24.334 6 -41.001 6c-20.667 0 -43.167 -4.66699 -67.5 -14
s-45.833 -19.666 -64.5 -30.999v-369h-106z" />
    <glyph glyph-name="i" unicode="i" horiz-adv-x="315" 
d="M53 412l0.000976562 76h157v-411h72v-64c-14 -6.66699 -30.167 -11.667 -48.5 -15s-34.166 -5 -47.499 -5c-28.667 0 -49.334 5.83301 -62.001 17.5s-19.334 32.167 -20.001 61.5v340h-51zM220.001 625c0 -18 -6.5 -33.5 -19.5 -46.5s-28.833 -19.5 -47.5 -19.5
c-18 0 -33.333 6.5 -46 19.5s-19 28.5 -19 46.5c0 18.667 6.33301 34.334 19 47.001s28 19 46 19c18.667 0 34.5 -6.33301 47.5 -19s19.5 -28.334 19.5 -47.001z" />
    <glyph glyph-name="j" unicode="j" horiz-adv-x="300" 
d="M37 488l171.998 -0.000976562v-447c0 -36.667 -3.33301 -69 -10 -97s-17.667 -52.667 -33 -74s-35.666 -40.166 -60.999 -56.499s-56.666 -30.833 -93.999 -43.5l-32 68c26.667 16 48.167 31 64.5 45s28.833 28.5 37.5 43.5s14.5 31.167 17.5 48.5s4.5 37 4.5 59v378h-66
v76zM218.998 624.999c0 -18 -6.66699 -33.5 -20 -46.5s-28.666 -19.5 -45.999 -19.5c-18.667 0 -34.334 6.5 -47.001 19.5s-19 28.5 -19 46.5c0 18.667 6.33301 34.334 19 47.001s28.334 19 47.001 19c17.333 0 32.666 -6.33301 45.999 -19s20 -28.334 20 -47.001z" />
    <glyph glyph-name="k" unicode="k" horiz-adv-x="558" 
d="M303 488h211.999v-72h-45l-131 -112l142 -232l64 -9v-57c-12.667 -4.66699 -26.5 -8 -41.5 -10s-27.833 -3 -38.5 -3c-13.333 0 -26.166 2 -38.499 6s-23.5 14.333 -33.5 31l-129 217l-32.5 -28l-32.5 -28v-120h62v-71h-236v71h68v569h-75v71h181v-422l148 127h-44v72z
" />
    <glyph glyph-name="l" unicode="l" horiz-adv-x="320" 
d="M218 75h69v-75h-243v75h68v562h-75v76h181v-638z" />
    <glyph glyph-name="m" unicode="m" horiz-adv-x="905" 
d="M365 498c56 0 95.666 -20.335 118.999 -61.002c12 8.66699 25.333 16.834 40 24.501s29.667 14.167 45 19.5s30.666 9.66602 45.999 12.999s30 5 44 5c33.333 0 60 -4.83301 80 -14.5s35.333 -22.5 46 -38.5s17.667 -33.833 21 -53.5s5 -39.5 5 -59.5v-257h68v-63
c-14.667 -6.66699 -30.667 -11.5 -48 -14.5s-32.666 -4.5 -45.999 -4.5c-30 0 -50.5 5.66699 -61.5 17s-17.167 29 -18.5 53v249c0 32.667 -5.16699 56.834 -15.5 72.501s-32.166 23.5 -65.499 23.5c-9.33301 0 -19.5 -1 -30.5 -3s-22.167 -4.66699 -33.5 -8
s-22.333 -7.33301 -33 -12s-20 -9.66699 -28 -15c2.66699 -10.667 4.16699 -21.5 4.5 -32.5s0.5 -20.5 0.5 -28.5v-310h-106v326c0 32 -7 53.833 -21 65.5s-32.333 17.5 -55 17.5c-19.333 0 -40.333 -4.16699 -63 -12.5s-42.667 -18.166 -60 -29.499v-367h-107v412h-72v77
h176v-43l4 -3c27.333 18 55.5 31.667 84.5 41s55.833 14 80.5 14z" />
    <glyph glyph-name="n" unicode="n" horiz-adv-x="611" 
d="M365 500c35.333 0 63 -5.83398 83 -17.501s34.833 -25.834 44.5 -42.501s15.667 -34.5 18 -53.5s3.5 -35.5 3.5 -49.5v-261h74v-63c-14 -6.66699 -30.667 -11.5 -50 -14.5s-35.666 -4.5 -48.999 -4.5c-20 0 -35.333 3.16699 -46 9.5s-18.667 13.833 -24 22.5
s-8.5 17.334 -9.5 26.001s-1.5 15.667 -1.5 21v244c0 16.667 -1 31 -3 43s-5.66699 22 -11 30s-13.333 14 -24 18s-24.334 6 -41.001 6c-20.667 0 -43.167 -4.66699 -67.5 -14s-45.833 -19.666 -64.5 -30.999v-369h-106v413h-70v76h176v-43l5 -1c28 18 56 31.667 84 41
s54.333 14 79 14z" />
    <glyph glyph-name="o" unicode="o" horiz-adv-x="538" 
d="M498 244c0 -32.667 -4.00195 -64.1689 -12.002 -94.502s-21.167 -57.166 -39.5 -80.499s-42.333 -42 -72 -56s-66.5 -21 -110.5 -21c-41.333 0 -76.166 6.66699 -104.499 20s-51.333 31.5 -69 54.5s-30.5 49.5 -38.5 79.5s-12 62 -12 96c0 33.333 4.33301 65.5 13 96.5
s22.334 58.333 41.001 82s42.667 42.667 72 57s64.666 21.5 105.999 21.5c42 0 77.5 -7.16699 106.5 -21.5s52.333 -33.166 70 -56.499s30.334 -50.5 38.001 -81.5s11.5 -62.833 11.5 -95.5zM388.998 241.998c0 20.667 -1.50098 41.5029 -4.50098 62.5029
s-8.66699 40 -17 57s-20 30.833 -35 41.5s-34.5 16 -58.5 16c-24.667 0 -45 -5.16699 -61 -15.5s-28.667 -23.833 -38 -40.5s-15.833 -35.5 -19.5 -56.5s-5.5 -42.5 -5.5 -64.5c0 -22.667 1.5 -44.334 4.5 -65.001s8.83301 -38.834 17.5 -54.501
s20.834 -28.167 36.501 -37.5s36.5 -14 62.5 -14c24 0 43.667 5 59 15s27.333 23 36 39s14.667 34.167 18 54.5s5 41.166 5 62.499z" />
    <glyph glyph-name="p" unicode="p" horiz-adv-x="568" 
d="M16 -134l72.998 -0.000976562v546h-73v76h173v-45l2 -1c20 16.667 44 29.834 72 39.501s54 14.5 78 14.5c36.667 0 67.167 -6.5 91.5 -19.5s44 -30.5 59 -52.5s25.667 -47.833 32 -77.5s9.5 -60.834 9.5 -93.501c0 -38 -3.66699 -73 -11 -105s-19 -59.667 -35 -83
s-37 -41.666 -63 -54.999s-57.667 -20 -95 -20c-17.333 0 -38.166 2.33301 -62.499 7s-48.166 13 -71.499 25v-156h78v-76h-257v76zM308.998 73.999c14.667 0 29.002 2.49805 43.002 7.49805s26.333 14 37 27s19.167 31.167 25.5 54.5s9.5 53 9.5 89
c0 32 -2.83301 58.167 -8.5 78.5s-13.334 36.5 -23.001 48.5s-21.334 20.167 -35.001 24.5s-28.5 6.5 -44.5 6.5c-10.667 0 -21.667 -1.33301 -33 -4s-22.333 -6.16699 -33 -10.5s-20.5 -9.16602 -29.5 -14.499s-16.5 -10.666 -22.5 -15.999v-258c6 -4 13.333 -8 22 -12
s18.167 -7.5 28.5 -10.5s21 -5.5 32 -7.5s21.5 -3 31.5 -3z" />
    <glyph glyph-name="q" unicode="q" horiz-adv-x="566" 
d="M304 -134l80.9971 -0.000976562v165c-28 -15.333 -54.167 -26.166 -78.5 -32.499s-46.166 -9.5 -65.499 -9.5c-36 0 -66.5 6 -91.5 18s-45 29 -60 51s-25.833 48.167 -32.5 78.5s-9.66699 63.833 -9 100.5c0.666992 34.667 4.83398 67.667 12.501 99s20.334 59 38.001 83
s41.167 43 70.5 57s66 21 110 21c32 0 66.833 -3.5 104.5 -10.5s73.5 -18.167 107.5 -33.5v-587h74v-76h-261v76zM262.997 75.999c21.333 0 42.6699 3.66699 64.0029 11s40.666 15.666 57.999 24.999v283c-17.333 7.33301 -34.833 12.333 -52.5 15s-34.5 4 -50.5 4
c-37.333 0 -67.5 -12.667 -90.5 -38s-34.833 -69.666 -35.5 -132.999c-0.666992 -34.667 1.66602 -62.834 6.99902 -84.501s12.833 -38.667 22.5 -51s21.167 -20.666 34.5 -24.999s27.666 -6.5 42.999 -6.5z" />
    <glyph glyph-name="r" unicode="r" horiz-adv-x="416" 
d="M208 419c10 8.66699 21.999 17.833 35.999 27.5s29 18.5 45 26.5s32.333 14.667 49 20s32.667 8 48 8c9.33301 0 16.333 -2.5 21 -7.5s7 -13.833 7 -26.5c0 -13.333 -2.66699 -29.333 -8 -48s-13.666 -34 -24.999 -46l-174 -1v-297h73v-75h-248v75h68v338h-66v76h171v-69
z" />
    <glyph glyph-name="s" unicode="s" horiz-adv-x="464" 
d="M107 149l3 -62.0059c13.333 -7.33301 29.333 -12.5 48 -15.5s35.667 -4.5 51 -4.5c30 0 55.5 4.83301 76.5 14.5s31.5 26.5 31.5 50.5c0 12 -2.5 22 -7.5 30s-11.833 14.833 -20.5 20.5s-18.834 10.5 -30.501 14.5l-36.5 12l-67 20
c-22 6.66699 -41.667 15.334 -59 26.001s-31.333 23.834 -42 39.501s-16 35.834 -16 60.501c0 25.333 4.83301 47 14.5 65s23 32.833 40 44.5s37.333 20.334 61 26.001s49.5 8.5 77.5 8.5c28.667 0 57.167 -2.83301 85.5 -8.5s53.5 -15.167 75.5 -28.5
c0 -19.333 0.166992 -38.833 0.5 -58.5s0.833008 -39.5 1.5 -59.5h-79l-2 65c-22.667 9.33301 -47.667 14 -75 14c-25.333 0 -46.833 -4.83301 -64.5 -14.5s-26.5 -26.167 -26.5 -49.5c0 -10 3.16699 -18.5 9.5 -25.5s14.333 -13 24 -18s19.834 -9.16699 30.501 -12.5l30 -9
l63 -18.5c22 -6.33301 42.167 -15.166 60.5 -26.499s33.333 -26.166 45 -44.499s17.5 -42.5 17.5 -72.5c0 -24 -5 -44.833 -15 -62.5s-24.167 -32.167 -42.5 -43.5s-40.5 -19.833 -66.5 -25.5s-54.667 -8.5 -86 -8.5c-28.667 0 -60 2.5 -94 7.5s-64.333 15.167 -91 30.5
l-2 119h77z" />
    <glyph glyph-name="t" unicode="t" horiz-adv-x="391" 
d="M194 618l-0.00195312 -128.996h145v-76h-146v-255c0 -12.667 0.833008 -23.834 2.5 -33.501s4.83398 -17.834 9.50098 -24.501s11.334 -11.834 20.001 -15.501s20.334 -5.5 35.001 -5.5c11.333 0 24.5 1 39.5 3s31.833 5.66699 50.5 11l16 -72
c-19.333 -8.66699 -40.833 -15.334 -64.5 -20.001s-45.834 -7 -66.501 -7c-28 0 -51.5 3 -70.5 9s-34.167 14.667 -45.5 26s-19.333 25 -24 41s-7 34 -7 54v289h-70v60l75 23l30 113z" />
    <glyph glyph-name="u" unicode="u" horiz-adv-x="601" 
d="M238 -11c-31.333 0 -56.5 4.33105 -75.5 12.998s-33.667 20.334 -44 35.001s-17.333 31.334 -21 50.001s-5.5 38 -5.5 58v267h-70v77h177v-326c0 -14 0.666992 -26.333 2 -37s4.5 -19.667 9.5 -27s12.167 -12.833 21.5 -16.5s22 -5.5 38 -5.5s36.167 4 60.5 12
s47.5 22.333 69.5 43v280h-63v77h170v-413h69v-63c-18.667 -7.33301 -36.667 -12.333 -54 -15s-31.666 -4 -42.999 -4c-24.667 0 -42.834 4.5 -54.501 13.5s-18.834 25.5 -21.501 49.5c-30 -27.333 -59.667 -45.5 -89 -54.5s-54.666 -13.5 -75.999 -13.5z" />
    <glyph glyph-name="v" unicode="v" horiz-adv-x="553" 
d="M282 86c7.33301 25.333 16.168 53 26.501 83s19.166 57.333 26.499 82l27 80.5l26 80.5h-43v77h192v-77h-47c-10 -30 -21.5 -62.667 -34.5 -98l-39.5 -108l-39.5 -108l-35.5 -98h-129l-34 97l-38.5 107.5l-38 107l-33.5 97.5h-53v80h132l70 -216
c4 -14 8.66699 -28.833 14 -44.5l16.5 -48.5l16.5 -49c5.33301 -16 10 -31 14 -45h4z" />
    <glyph glyph-name="w" unicode="w" horiz-adv-x="860" 
d="M610 79l36 137l56 197h-60v76h205v-76l-47 -1l-122 -412h-142l-56 151l-46 129h-5l-43 -129l-53 -151h-146l-120 409h-53v80h134l73 -260l41 -152h5l44 130l64 183l-9 22h-73v77h248v-77h-55l72 -202l48 -131h4z" />
    <glyph glyph-name="x" unicode="x" horiz-adv-x="548" 
d="M254 190l-87 -115h56v-75h-211l1 75h45l145 192l-96 146h-82v75h147l107 -162l64 87h-49v75h217v-75h-58l-125 -161l118 -177h71v-75h-226v75h39z" />
    <glyph glyph-name="y" unicode="y" horiz-adv-x="561" 
d="M277 70c1.33301 4.66699 4.83496 15.498 10.502 32.498l19.5 60l24 74l24.5 75l20.5 63c6 18.333 10.333 30.833 13 37.5h-59v77h208v-77h-49l-178 -518c-6.66699 -17.333 -13.834 -32.666 -21.501 -45.999s-16.834 -24.5 -27.501 -33.5s-23.5 -16 -38.5 -21
s-33.5 -7.5 -55.5 -7.5c-7.33301 0 -21.333 0.833008 -42 2.5s-44.667 6.83398 -72 15.501l16 84c14.667 -3.33301 28.667 -5.83301 42 -7.5s25.666 -2.5 36.999 -2.5c16 0 28.5 2 37.5 6s16.5 10.833 22.5 20.5s12 22.667 18 39l24 62.5h-53l-65.5 201.5l-65.5 202.5h-50
v79h129c2.66699 -8 7.33398 -23.167 14.001 -45.5l23.5 -78l28.5 -93.5l27.5 -91.5l21.5 -73l11 -37.5h5v0z" />
    <glyph glyph-name="z" unicode="z" horiz-adv-x="475" 
d="M157 73h212v75h77v-148h-420v67l280 348h-185v-77h-76v151h392v-66z" />
    <glyph glyph-name="braceleft" unicode="{" horiz-adv-x="291" 
d="M203 -168c-23.333 0 -41.833 3.33105 -55.5 9.99805s-24.334 15.834 -32.001 27.501s-12.667 25.334 -15 41.001s-3.5 32.5 -3.5 50.5v201c0 25.333 -5 47.5 -15 66.5s-27.667 30.167 -53 33.5v57c25.333 4.66699 43 16.334 53 35.001s15 42.334 15 71.001v133
c0 15.333 0.833008 31.5 2.5 48.5s5.83398 32.5 12.501 46.5s16.667 25.667 30 35s31.666 14 54.999 14h72v-64h-25c-20 0 -33.833 -6.33301 -41.5 -19s-11.5 -28.334 -11.5 -47.001v-154c0 -14.667 -0.666992 -28.834 -2 -42.501s-4.33301 -26 -9 -37
s-11.167 -20.5 -19.5 -28.5s-19.5 -13.667 -33.5 -17v-1c14.667 -7.33301 26.334 -15.5 35.001 -24.5s15.167 -19.333 19.5 -31s7 -25.167 8 -40.5s1.5 -32.333 1.5 -51v-184c0 -17.333 3 -32.5 9 -45.5s19.667 -19.5 41 -19.5h28v-64h-66z" />
    <glyph glyph-name="bar" unicode="|" horiz-adv-x="272" 
d="M97 -142v845h73v-845h-73z" />
    <glyph glyph-name="braceright" unicode="}" horiz-adv-x="291" 
d="M23 -168l-0.000976562 64.002h28c21.333 0 35 6.5 41 19.5s9 28.167 9 45.5v184c0 18.667 0.5 35.667 1.5 51s3.66699 28.833 8 40.5s10.833 22 19.5 31s20.334 17.167 35.001 24.5v1c-14 3.33301 -25.167 9 -33.5 17s-14.833 17.5 -19.5 28.5s-7.66699 23.333 -9 37
s-2 27.834 -2 42.501v154c0 18.667 -3.83301 34.334 -11.5 47.001s-21.5 19 -41.5 19h-25v64h72c23.333 0 41.666 -4.66699 54.999 -14s23.333 -21 30 -35s10.834 -29.5 12.501 -46.5s2.5 -33.167 2.5 -48.5v-133c0 -28.667 5 -52.334 15 -71.001s27.667 -30.334 53 -35.001
v-57c-25.333 -3.33301 -43 -14.5 -53 -33.5s-15 -41.167 -15 -66.5v-201c0 -18 -1.16699 -34.833 -3.5 -50.5s-7.33301 -29.334 -15 -41.001s-18.5 -20.834 -32.5 -27.501s-32.333 -10 -55 -10h-66z" />
    <glyph glyph-name="asciitilde" unicode="~" horiz-adv-x="575" 
d="M397 240c-20 0 -39.832 2.5 -59.499 7.5s-38.5 10.333 -56.5 16l-51 16c-16 5 -31 7.5 -45 7.5l-72 -47l-41 32c13.333 30.667 30.333 54 51 70s44 24 70 24c16.667 0 34.5 -2.33301 53.5 -7s38.167 -10 57.5 -16s38.166 -11.333 56.499 -16s34.5 -7 48.5 -7l68 48
l39 -31c-11.333 -30 -27 -53.667 -47 -71s-44 -26 -72 -26z" />
    <glyph glyph-name="exclamdown" unicode="&#xa1;" horiz-adv-x="249" 
d="M74 -213l4 284l11 236h74l11 -236l2 -284h-102zM125 378c-18 0 -33.001 5.83301 -45.001 17.5s-18 25.834 -18 42.501s5.83301 31 17.5 43s26.834 18 45.501 18c17.333 0 32 -6 44 -18s18 -26.333 18 -43s-5.83301 -30.834 -17.5 -42.501s-26.5 -17.5 -44.5 -17.5z" />
    <glyph glyph-name="cent" unicode="&#xa2;" horiz-adv-x="575" 
d="M285 -6c-38 2.66699 -69.665 10.8281 -94.998 24.4951s-45.5 31.5 -60.5 53.5s-25.5 47.167 -31.5 75.5s-9 58.833 -9 91.5c0 25.333 2.66699 52.166 8 80.499s15.166 55 29.499 80s34.333 46.5 60 64.5s58.5 29.333 98.5 34v92h51v-90
c24 -1.33301 47.5 -4.16602 70.5 -8.49902s44.167 -10.166 63.5 -17.499v-137h-76v71c-6 1.33301 -13.167 2.5 -21.5 3.5s-15.5 1.5 -21.5 1.5c-2.66699 0 -5.16699 -0.166992 -7.5 -0.5s-4.83301 -0.5 -7.5 -0.5v-339c23.333 0.666992 45.666 3.33398 66.999 8.00098
s43 11.334 65 20.001l23 -70c-20 -11.333 -43.5 -20.166 -70.5 -26.499s-55.167 -10.166 -84.5 -11.499v-78h-51v79zM196.002 240.994c0 -92.667 29.667 -147.001 89 -163.001v326c-31.333 -9.33301 -54 -27.166 -68 -53.499s-21 -62.833 -21 -109.5z" />
    <glyph glyph-name="sterling" unicode="&#xa3;" horiz-adv-x="575" 
d="M142 368l4.99902 101.004c2 30 7.33301 57.667 16 83s21.167 47.166 37.5 65.499s37 32.666 62 42.999s54.833 15.5 89.5 15.5c35.333 0 67.5 -3.5 96.5 -10.5s53.833 -15.167 74.5 -24.5v-140h-81v80c-12.667 3.33301 -25.667 6.16602 -39 8.49902
s-28.666 3.5 -45.999 3.5c-21.333 0 -38.833 -3 -52.5 -9s-24.667 -14.667 -33 -26s-14.5 -25 -18.5 -41s-6.66699 -34 -8 -54l-5 -95h173v-61h-177l-4 -72c-0.666992 -15.333 -2 -30.833 -4 -46.5s-5 -30.667 -9 -45s-9 -27.333 -15 -39s-13.333 -21.5 -22 -29.5h335v-75
h-459l1 74c14.667 7.33301 26.667 17.166 36 29.499s16.833 25.833 22.5 40.5s9.66699 30.167 12 46.5s3.83301 32.5 4.5 48.5l4 68h-65v61h69z" />
    <glyph glyph-name="currency" unicode="&#xa4;" horiz-adv-x="575" 
d="M160 306c0 -17.333 3.33301 -33.666 10 -48.999s15.667 -28.666 27 -39.999s24.666 -20.333 39.999 -27s31.666 -10 48.999 -10s33.666 3.33301 48.999 10s28.666 15.667 39.999 27s20.333 24.666 27 39.999s10 31.666 10 48.999s-3.33301 33.666 -10 48.999
s-15.667 28.666 -27 39.999s-24.666 20.333 -39.999 27s-31.666 10 -48.999 10s-33.666 -3.33301 -48.999 -10s-28.666 -15.667 -39.999 -27s-20.333 -24.666 -27 -39.999s-10 -31.666 -10 -48.999zM64 482l45.9971 46.999l64 -64c33.333 24 71 36 113 36
c40.667 0 78.334 -12.333 113.001 -37l63 65l48 -48l-66 -62c12.667 -17.333 21.834 -35.333 27.501 -54s8.5 -38 8.5 -58c0 -20.667 -3.16699 -40.5 -9.5 -59.5s-15.166 -36.833 -26.499 -53.5l66 -61l-48 -48l-64 63c-17.333 -13.333 -35.5 -22.666 -54.5 -27.999
s-38.167 -8 -57.5 -8s-38.333 2.66699 -57 8s-37 14.666 -55 27.999l-65 -64l-47 48l65 62c-14 18.667 -23.667 37.5 -29 56.5s-8 37.167 -8 54.5c0 19.333 2.83301 38.833 8.5 58.5s15.167 37.834 28.5 54.501z" />
    <glyph glyph-name="yen" unicode="&#xa5;" horiz-adv-x="575" 
d="M68 294v44h124l-63.5 125.5l-62.5 124.5h-51v77h214v-77h-59l57.5 -121.5l57.5 -120.5h4l115 242h-61v77h211v-77h-49l-64.5 -124.5l-64.5 -125.5h127v-44h-435zM503 247v-47h-168v-125h79v-75h-261v75h78v125h-163v47h435z" />
    <glyph glyph-name="brokenbar" unicode="&#xa6;" horiz-adv-x="272" 
d="M97 359v344h73v-344h-73zM170 229v-371h-73v371h73z" />
    <glyph glyph-name="section" unicode="&#xa7;" horiz-adv-x="495" 
d="M436 286c0 -24 -5.33203 -46.4932 -15.999 -67.4932s-28 -42.167 -52 -63.5c29.333 -18.667 49.333 -39 60 -61s16 -42.333 16 -61c0 -26.667 -5.33301 -50 -16 -70s-25.334 -36.833 -44.001 -50.5s-41.167 -23.834 -67.5 -30.501s-54.833 -10 -85.5 -10
c-34 0 -63.833 3 -89.5 9s-48.834 12.333 -69.501 19v129h75c0 -12 -0.166992 -24 -0.5 -36s-0.5 -24.333 -0.5 -37c14 -3.33301 28.167 -6.33301 42.5 -9s29.166 -4 44.499 -4c36.667 0 64.834 8 84.501 24s29.5 35 29.5 57c0 24 -9.83301 43.5 -29.5 58.5
s-46.5 29.5 -80.5 43.5l-64 27c-21.333 9.33301 -40.5 20.166 -57.5 32.499s-30.667 26.833 -41 43.5s-15.5 36.667 -15.5 60c0 25.333 5.83301 49.166 17.5 71.499s30.167 42.166 55.5 59.499c-21.333 14.667 -37.166 30.167 -47.499 46.5s-15.5 36.166 -15.5 59.499
c0 26 5.16699 48.833 15.5 68.5s24.333 36 42 49s38.5 22.833 62.5 29.5s50 10 78 10c34.667 0 64.5 -2.83301 89.5 -8.5s46.833 -11.834 65.5 -18.501v-132h-76v77c-13.333 3.33301 -25.833 6.16602 -37.5 8.49902s-26.167 3.5 -43.5 3.5c-12 0 -24.167 -1.66699 -36.5 -5
s-23.5 -8.33301 -33.5 -15s-18 -15 -24 -25s-9 -21.667 -9 -35c0 -12 4.16699 -23 12.5 -33s19 -19 32 -27s27.333 -15.333 43 -22l44.5 -19c18 -7.33301 35.5 -15.333 52.5 -24s32.167 -18.667 45.5 -30s24 -24.5 32 -39.5s12 -32.5 12 -52.5zM351.001 268.007
c0 16.667 -4.83301 30.665 -14.5 41.998s-22 21.333 -37 30s-31.667 16.834 -50 24.501s-36.5 15.834 -54.5 24.501c-31.333 -25.333 -47 -52.333 -47 -81c0 -18.667 4.66699 -33.5 14 -44.5s21.5 -20.5 36.5 -28.5s32 -15.5 51 -22.5s38.167 -15.833 57.5 -26.5
c14 13.333 24.833 27.5 32.5 42.5s11.5 28.167 11.5 39.5z" />
    <glyph glyph-name="dieresis" unicode="&#xa8;" horiz-adv-x="463" 
d="M383 605c0 -14 -5.16699 -25.833 -15.5 -35.5s-23.166 -14.5 -38.499 -14.5c-14 0 -25.667 4.83301 -35 14.5s-14 21.5 -14 35.5s4.83301 25.833 14.5 35.5s21.167 14.5 34.5 14.5c15.333 0 28.166 -4.66699 38.499 -14s15.5 -21.333 15.5 -36zM190 605
c0 -14 -4.83203 -25.833 -14.499 -35.5s-22.167 -14.5 -37.5 -14.5c-14.667 0 -26.834 4.83301 -36.501 14.5s-14.5 21.5 -14.5 35.5s5 25.833 15 35.5s21.667 14.5 35 14.5c15.333 0 28 -4.66699 38 -14s15 -21.333 15 -36z" />
    <glyph glyph-name="copyright" unicode="&#xa9;" horiz-adv-x="845" 
d="M795 332c0 -51.333 -9.83301 -99.333 -29.5 -144s-46.5 -83.834 -80.5 -117.501s-73.667 -60.167 -119 -79.5s-93.333 -29 -144 -29c-51.333 0 -99.666 9.66699 -144.999 29s-84.833 45.833 -118.5 79.5s-60.334 72.834 -80.001 117.501s-29.5 92.667 -29.5 144
c0 50.667 9.83301 98.334 29.5 143.001s46.334 83.834 80.001 117.501s73.167 60.167 118.5 79.5s93.666 29 144.999 29c50.667 0 98.667 -9.66699 144 -29s85 -45.833 119 -79.5s60.833 -72.834 80.5 -117.501s29.5 -92.334 29.5 -143.001zM744 332
c0 44 -8.33301 85.333 -25 124s-39.5 72.5 -68.5 101.5s-63.167 51.833 -102.5 68.5s-81.333 25 -126 25c-44 0 -85.667 -8.33301 -125 -25s-73.666 -39.5 -102.999 -68.5s-52.5 -62.833 -69.5 -101.5s-25.5 -80 -25.5 -124s8.5 -85.333 25.5 -124s40.167 -72.5 69.5 -101.5
s63.666 -51.833 102.999 -68.5s81 -25 125 -25c44.667 0 86.667 8.33301 126 25s73.5 39.5 102.5 68.5s51.833 62.833 68.5 101.5s25 80 25 124zM293 325c0 -28 2.5 -53.334 7.5 -76.001s13.333 -42 25 -58s27.167 -28.333 46.5 -37s43.666 -13 72.999 -13
c6.66699 0 14.667 0.333008 24 1s19.333 1.66699 30 3s21.334 2.83301 32.001 4.5s20.334 3.83398 29.001 6.50098l12 -55c-17.333 -7.33301 -39.666 -13 -66.999 -17s-52.666 -6 -75.999 -6c-40.667 0 -74.834 6.16699 -102.501 18.5s-50 29.333 -67 51
s-29.167 47.5 -36.5 77.5s-11 63 -11 99c0 26.667 3.33301 55 10 85s18.334 57.5 35.001 82.5s39.5 45.667 68.5 62s66.167 24.5 111.5 24.5c27.333 0 51.166 -2 71.499 -6s38.166 -8.66699 53.499 -14v-122h-57v72c-21.333 4.66699 -43 7 -65 7
c-50.667 0 -87.834 -17 -111.501 -51s-35.5 -80.333 -35.5 -139z" />
    <glyph glyph-name="ordfeminine" unicode="&#xaa;" horiz-adv-x="364" 
d="M307 325l43.002 -0.00195312l5 -48c-10 -4 -21.833 -7.33301 -35.5 -10s-25.5 -4 -35.5 -4c-12.667 0 -23.834 2.66699 -33.501 8s-15.5 15.333 -17.5 30c-11.333 -9.33301 -22.333 -16.666 -33 -21.999s-20.667 -9.33301 -30 -12s-17.833 -4.16699 -25.5 -4.5
s-13.834 -0.5 -18.501 -0.5c-21.333 0 -38.833 3.16699 -52.5 9.5s-24.5 14.166 -32.5 23.499s-13.5 19.5 -16.5 30.5s-4.5 21.5 -4.5 31.5c0 23.333 5.83301 41.666 17.5 54.999s27.167 23.333 46.5 30s41.666 11 66.999 13s51.666 3.66699 78.999 5v15
c0 22.667 -4.33301 38.667 -13 48s-25.334 14 -50.001 14c-15.333 0 -32.166 -1.66699 -50.499 -5s-36.166 -7.66602 -53.499 -12.999c-2.66699 8 -5.16699 16.167 -7.5 24.5s-5.16602 16.833 -8.49902 25.5c20.667 8.66699 43.167 15.334 67.5 20.001s47.833 7 70.5 7
c38 0 67.833 -8.16699 89.5 -24.5s32.5 -45.166 32.5 -86.499v-160zM230.002 414.998c-17.333 -0.666992 -33.666 -1.33301 -48.999 -2s-28.833 -2.83398 -40.5 -6.50098s-20.834 -9 -27.501 -16s-10 -16.833 -10 -29.5c0 -30 17.333 -45 52 -45
c11.333 0 23.833 2.83301 37.5 8.5s26.167 12.834 37.5 21.501v69z" />
    <glyph glyph-name="guillemotleft" unicode="&#xab;" horiz-adv-x="459" 
d="M55 211l155 168l43 -32l-102 -155l102 -154l-43 -32l-155 167v38zM218 211l156 168l43 -32l-102 -155l102 -154l-43 -32l-156 167v38z" />
    <glyph glyph-name="logicalnot" unicode="&#xac;" horiz-adv-x="575" 
d="M492 97h-72v169h-326v69h398v-238z" />
    <glyph glyph-name="sfthyphen" unicode="&#xad;" horiz-adv-x="377" 
d="M56 225v82h265v-82h-265z" />
    <glyph glyph-name="registered" unicode="&#xae;" horiz-adv-x="593" 
d="M541 469c0 -34 -6.33496 -66 -19.002 -96s-30.167 -56 -52.5 -78s-48.666 -39.5 -78.999 -52.5s-62.833 -19.5 -97.5 -19.5c-35.333 0 -68.166 6.5 -98.499 19.5s-56.666 30.5 -78.999 52.5s-40 48 -53 78s-19.5 62 -19.5 96s6.33301 66 19 96s30.334 56.167 53.001 78.5
s49.167 39.833 79.5 52.5s63.166 19 98.499 19c34.667 0 67.167 -6.33301 97.5 -19s56.666 -30.167 78.999 -52.5s39.833 -48.5 52.5 -78.5s19 -62 19 -96zM500.998 469c0 28.667 -5.33105 55.5 -15.998 80.5s-25.334 47 -44.001 66s-40.667 34 -66 45
s-52.666 16.5 -81.999 16.5s-56.833 -5.5 -82.5 -16.5s-47.834 -26 -66.501 -45s-33.334 -41 -44.001 -66s-16 -51.833 -16 -80.5c0 -28 5.33301 -54.667 16 -80s25.334 -47.333 44.001 -66s40.667 -33.5 66 -44.5s53 -16.5 83 -16.5s57.833 5.5 83.5 16.5
s47.667 25.833 66 44.5s32.666 40.667 42.999 66s15.5 52 15.5 80zM256 450v-84.998h31v-37h-111v37h27v216h-27v38h134c30.667 0 54 -7.33301 70 -22s24 -35.334 24 -62.001c0 -12.667 -4 -26.667 -12 -42s-21.333 -27 -40 -35l46 -93l31 -4v-32
c-6 -1.33301 -13.167 -2.5 -21.5 -3.5s-15.5 -1.5 -21.5 -1.5c-10 0 -17.833 2.66699 -23.5 8s-10.167 11.666 -13.5 18.999l-47 99h-46zM351 535.002c0 17.333 -4.66797 29.501 -14.001 36.501s-20.666 10.5 -33.999 10.5h-47v-95h46c13.333 0 24.833 3.16699 34.5 9.5
s14.5 19.166 14.5 38.499z" />
    <glyph glyph-name="macron" unicode="&#xaf;" horiz-adv-x="526" 
d="M89 664h344v-76h-344v76z" />
    <glyph glyph-name="degree" unicode="&#xb0;" horiz-adv-x="358" 
d="M322 538c0 -19.333 -3.66602 -37.5029 -10.999 -54.5029s-17.166 -31.833 -29.499 -44.5s-27 -22.667 -44 -30s-35.167 -11 -54.5 -11c-42.667 0 -76.834 13.167 -102.501 39.5s-38.5 59.833 -38.5 100.5c0 18.667 3.66699 36.667 11 54s17.5 32.333 30.5 45
s28 22.834 45 30.501s35.167 11.5 54.5 11.5s37.5 -3.16699 54.5 -9.5s31.667 -15.666 44 -27.999s22.166 -27.166 29.499 -44.499s11 -37 11 -59zM264.001 534.997c0 24 -7.16699 44.833 -21.5 62.5s-34.833 26.5 -61.5 26.5c-23.333 0 -42.833 -8.83301 -58.5 -26.5
s-23.5 -38.5 -23.5 -62.5c0 -23.333 7.83301 -42.833 23.5 -58.5s35.167 -23.5 58.5 -23.5s43 7.83301 59 23.5s24 35.167 24 58.5z" />
    <glyph glyph-name="plusminus" unicode="&#xb1;" horiz-adv-x="575" 
d="M329 272v-158h-72v158h-163v69h163v154h72v-154h162v-69h-162zM491 64v-64h-397v64h397z" />
    <glyph glyph-name="twosuperior" unicode="&#xb2;" horiz-adv-x="376" 
d="M314 647c0 -21.333 -6 -42.8271 -18 -64.4941s-27 -42.334 -45 -62.001s-37.333 -38.334 -58 -56.001s-40 -33.167 -58 -46.5h129v46h68v-109h-309v54c23.333 17.333 47.166 36.333 71.499 57s46.5 41.5 66.5 62.5s36.333 41.167 49 60.5s19 36.666 19 51.999
c0 19.333 -6.5 33.166 -19.5 41.499s-30.5 12.5 -52.5 12.5c-10.667 0 -25 -1.83301 -43 -5.5s-40 -12.834 -66 -27.501l-30 52c28 19.333 55 32.166 81 38.499s48.667 9.5 68 9.5c44.667 0 80.334 -9.66699 107.001 -29s40 -48 40 -86z" />
    <glyph glyph-name="threesuperior" unicode="&#xb3;" horiz-adv-x="376" 
d="M208 602c18 -2 34.666 -5.66797 49.999 -11.001s28.666 -12.833 39.999 -22.5s20.333 -21.167 27 -34.5s10 -29 10 -47c0 -22 -4.66699 -41.5 -14 -58.5s-21.666 -31.167 -36.999 -42.5s-33.333 -20 -54 -26s-42.334 -9 -65.001 -9c-26 0 -51.167 1.83301 -75.5 5.5
s-47.166 10.834 -68.499 21.501l21 58c28 -8.66699 51.333 -13.834 70 -15.501s34 -2.5 46 -2.5c28 0 50.5 6.16699 67.5 18.5s25.5 29.166 25.5 50.499c0 18.667 -7.83301 33.667 -23.5 45s-39.5 17 -71.5 17c-8.66699 0 -16.667 -0.333008 -24 -1s-15.333 -1.66699 -24 -3
l-13 40l61.5 55.5l60.5 53.5h-111v-49h-66v111h275c2 -7.33301 3.83301 -14.666 5.5 -21.999s3.83398 -14.666 6.50098 -21.999z" />
    <glyph glyph-name="acute" unicode="&#xb4;" horiz-adv-x="505" 
d="M233 534l-40 37l133 165l64 -63z" />
    <glyph glyph-name="mu" unicode="&#xb5;" horiz-adv-x="578" 
d="M256 -7c-16.667 0 -30.667 0.332031 -42 0.999023s-21.333 2.66699 -30 6v-134h72v-74h-248v74h68v546h-68v76h175v-320c0 -28 6.16699 -50.667 18.5 -68s35.833 -26 70.5 -26c16.667 0 35.334 4.33301 56.001 13s41.334 22.667 62.001 42v283h-62v77h169
c0 -69.333 -0.166992 -138.166 -0.5 -206.499s-0.5 -137.166 -0.5 -206.499h67c0 -11.333 0.333008 -22.166 1 -32.499l2 -30.5c-18.667 -7.33301 -36.667 -12.333 -54 -15s-31.666 -4 -42.999 -4c-24.667 0 -42.834 4.5 -54.501 13.5s-18.834 25.5 -21.501 49.5
c-14 -12.667 -27.333 -22.834 -40 -30.501s-24.834 -13.834 -36.501 -18.501s-22.667 -8.16699 -33 -10.5s-19.5 -3.83301 -27.5 -4.5z" />
    <glyph glyph-name="mu" unicode="&#x3bc;" horiz-adv-x="578" 
d="M256 -7c-16.667 0 -30.667 0.332031 -42 0.999023s-21.333 2.66699 -30 6v-134h72v-74h-248v74h68v546h-68v76h175v-320c0 -28 6.16699 -50.667 18.5 -68s35.833 -26 70.5 -26c16.667 0 35.334 4.33301 56.001 13s41.334 22.667 62.001 42v283h-62v77h169
c0 -69.333 -0.166992 -138.166 -0.5 -206.499s-0.5 -137.166 -0.5 -206.499h67c0 -11.333 0.333008 -22.166 1 -32.499l2 -30.5c-18.667 -7.33301 -36.667 -12.333 -54 -15s-31.666 -4 -42.999 -4c-24.667 0 -42.834 4.5 -54.501 13.5s-18.834 25.5 -21.501 49.5
c-14 -12.667 -27.333 -22.834 -40 -30.501s-24.834 -13.834 -36.501 -18.501s-22.667 -8.16699 -33 -10.5s-19.5 -3.83301 -27.5 -4.5z" />
    <glyph glyph-name="paragraph" unicode="&#xb6;" horiz-adv-x="564" 
d="M233 312c-27.333 0 -52.5 4.66602 -75.5 13.999s-43 22.5 -60 39.5s-30.333 37.167 -40 60.5s-14.5 48.666 -14.5 75.999c0 26.667 4.66699 51.834 14 75.501s22.333 44.334 39 62.001s36.667 31.667 60 42s49 15.5 77 15.5h300v-73h-67v-823h-74v823h-65l1 -823h-159v70
h83v441h-19z" />
    <glyph glyph-name="periodcentered" unicode="&#xb7;" horiz-adv-x="228" 
d="M179 284c0 -17.333 -6.16699 -32.166 -18.5 -44.499s-27.166 -18.5 -44.499 -18.5s-32.166 6.16699 -44.499 18.5s-18.5 27.166 -18.5 44.499s6.16699 32.166 18.5 44.499s27.166 18.5 44.499 18.5s32.166 -6.16699 44.499 -18.5s18.5 -27.166 18.5 -44.499z" />
    <glyph glyph-name="cedilla" unicode="&#xb8;" horiz-adv-x="460" 
d="M299 17l-30.001 -38.0029c-10.667 -13.333 -20.667 -26.666 -30 -39.999c32.667 -1.33301 58.834 -8.83301 78.501 -22.5s29.5 -34.167 29.5 -61.5c-0.666992 -14 -4.66699 -27.167 -12 -39.5s-18.5 -23.166 -33.5 -32.499s-34 -16.666 -57 -21.999s-50.167 -8 -81.5 -8
v41c36 3.33301 64.333 9.66602 85 18.999s31 22 31 38c0 8.66699 -3 15.667 -9 21s-13.667 9.33301 -23 12s-19.833 4.33398 -31.5 5.00098s-23.167 1 -34.5 1l-14 21l49 64l49 63c5.33301 -4 11 -7.5 17 -10.5s11.667 -6.5 17 -10.5z" />
    <glyph glyph-name="onesuperior" unicode="&#xb9;" horiz-adv-x="376" 
d="M58 417h89.999v264c-13.333 -1.33301 -29.166 -3.33301 -47.499 -6l-47.5 -7l-11 53l119 35h72v-339h86v-62h-261v62z" />
    <glyph glyph-name="ordmasculine" unicode="&#xba;" horiz-adv-x="372" 
d="M346 429c0 -21.333 -2.8291 -42.001 -8.49609 -62.001s-15 -37.667 -28 -53s-29.833 -27.666 -50.5 -36.999s-46.334 -14 -77.001 -14c-28.667 0 -53 4.5 -73 13.5s-36.167 21 -48.5 36s-21.166 32.667 -26.499 53s-8 41.5 -8 63.5s3 43.167 9 63.5
s15.5 38.166 28.5 53.499s29.667 27.666 50 36.999s45.166 14 74.499 14s54.166 -4.66699 74.499 -14s36.666 -21.666 48.999 -36.999s21.166 -33.166 26.499 -53.499s8 -41.5 8 -63.5zM264.004 428.999c0 12.667 -1 25.667 -3 39s-5.66699 25.333 -11 36s-13 19.5 -23 26.5
s-23 10.5 -39 10.5s-29.167 -3.33301 -39.5 -10s-18.5 -15.5 -24.5 -26.5s-10.167 -23.167 -12.5 -36.5s-3.5 -26.666 -3.5 -39.999c0 -14 1 -27.5 3 -40.5s5.83301 -24.333 11.5 -34s13.667 -17.5 24 -23.5s24.166 -9 41.499 -9c16 0 28.833 3.16699 38.5 9.5
s17.334 14.666 23.001 24.999s9.5 21.833 11.5 34.5s3 25.667 3 39z" />
    <glyph glyph-name="guillemotright" unicode="&#xbb;" horiz-adv-x="459" 
d="M410 173l-155 -167l-43 32l101 154l-101 155l44 32l154 -168v-38zM246 173l-155 -167l-43 32l102 154l-102 155l43 32l155 -168v-38z" />
    <glyph glyph-name="onequarter" unicode="&#xbc;" horiz-adv-x="850" 
d="M84 327h89.999v264c-13.333 -1.33301 -29.166 -3.33301 -47.499 -6l-47.5 -7l-11 53l119 35h72v-339h86v-62h-261v62zM323.999 -21h-67l303 725h66zM717.999 401v-232h62v-57h-62v-55h45v-57h-166v57h41v55h-199v49l74.5 90.5l57 68.5l41 48.5l27.5 32.5h79zM638.999 314
c-20.667 -26.667 -41.168 -51.668 -61.501 -75.001s-39.166 -46.666 -56.499 -69.999h118v145z" />
    <glyph glyph-name="onehalf" unicode="&#xbd;" horiz-adv-x="850" 
d="M72 327h89.999v264c-13.333 -1.33301 -29.166 -3.33301 -47.499 -6l-47.5 -7l-11 53l119 35h72v-339h86v-62h-261v62zM302.999 -21h-67l303 725h66zM772.999 292c0 -21.333 -6 -42.8271 -18 -64.4941s-27 -42.334 -45 -62.001s-37.333 -38.334 -58 -56.001
s-40 -33.167 -58 -46.5h129v46h68v-109h-309v54c23.333 17.333 47.166 36.333 71.499 57s46.5 41.5 66.5 62.5s36.333 41.167 49 60.5s19 36.666 19 51.999c0 19.333 -6.5 33.166 -19.5 41.499s-30.5 12.5 -52.5 12.5c-10.667 0 -25 -1.83301 -43 -5.5
s-40 -12.834 -66 -27.501l-30 52c28 19.333 55 32.166 81 38.499s48.667 9.5 68 9.5c44.667 0 80.334 -9.66699 107.001 -29s40 -48 40 -86z" />
    <glyph glyph-name="threequarters" unicode="&#xbe;" horiz-adv-x="850" 
d="M735 401v-232h62v-57h-62v-55h45v-57h-166v57h41v55h-199v49l74.5 90.5l57 68.5l41 48.5l27.5 32.5h79zM241 512c18 -2 34.666 -5.66797 49.999 -11.001s28.666 -12.833 39.999 -22.5s20.333 -21.167 27 -34.5s10 -29 10 -47c0 -22 -4.66699 -41.5 -14 -58.5
s-21.666 -31.167 -36.999 -42.5s-33.333 -20 -54 -26s-42.334 -9 -65.001 -9c-26 0 -51.167 1.83301 -75.5 5.5s-47.166 10.834 -68.499 21.501l21 58c28 -8.66699 51.333 -13.834 70 -15.501s34 -2.5 46 -2.5c28 0 50.5 6.16699 67.5 18.5s25.5 29.166 25.5 50.499
c0 18.667 -7.83301 33.667 -23.5 45s-39.5 17 -71.5 17c-8.66699 0 -16.667 -0.333008 -24 -1s-15.333 -1.66699 -24 -3l-13 40l61.5 55.5l60.5 53.5h-111v-49h-66v111h275c2 -7.33301 3.83301 -14.666 5.5 -21.999s3.83398 -14.666 6.50098 -21.999zM326.999 -21.001h-67
l303 725h66zM655.999 313.999c-20.667 -26.667 -41.168 -51.668 -61.501 -75.001s-39.166 -46.666 -56.499 -69.999h118v145z" />
    <glyph glyph-name="questiondown" unicode="&#xbf;" horiz-adv-x="464" 
d="M125 74c20.667 16.667 38.8311 32.168 54.498 46.501s29 28 40 41s19.333 26 25 39s8.5 26.833 8.5 41.5c0 9.33301 -0.833008 18.833 -2.5 28.5s-3.16699 21.167 -4.5 34.5c14.667 1.33301 28.834 2.5 42.501 3.5s28.167 2.16699 43.5 3.5
c3.33301 -18 5.83301 -33.833 7.5 -47.5s2.5 -25.5 2.5 -35.5c0 -21.333 -3.16699 -40.833 -9.5 -58.5s-15.333 -34.334 -27 -50.001s-25.334 -31.167 -41.001 -46.5l-50.5 -48c-17.333 -15.333 -31.166 -29.666 -41.499 -42.999s-15.5 -29.333 -15.5 -48
c0 -25.333 9.16699 -43.666 27.5 -54.999s42.5 -17 72.5 -17c15.333 0 31.5 1 48.5 3s34.167 5.66699 51.5 11v87h80v-149c-35.333 -13.333 -70 -22.5 -104 -27.5s-64 -7.5 -90 -7.5c-63.333 0 -112.166 12.333 -146.499 37s-51.5 58.667 -51.5 102
c0 35.333 7 64.666 21 87.999s33.667 45.666 59 66.999zM210.997 436.001c0 17.333 6.00098 31.833 18.001 43.5s26.333 17.5 43 17.5c17.333 0 32.166 -6 44.499 -18s18.5 -26.333 18.5 -43c0 -15.333 -6 -29 -18 -41s-26.667 -18 -44 -18s-32 5.66699 -44 17
s-18 25.333 -18 42z" />
    <glyph glyph-name="Agrave" unicode="&#xc0;" horiz-adv-x="697" 
d="M510 76l-18 57.5l-18 55.5h-257l-17 -53l-18 -60h68v-76h-230v76h56l207 610h137l101 -305l101 -305h56v-76h-234v76h66zM451 265l-41 134.5l-43 134.5c-2.66699 10 -5.5 20 -8.5 30s-6.16699 20 -9.5 30h-2l-19 -61l-20 -61.5l-23 -71l-23 -72l-19 -63.5h208zM186 871
l62 63l134 -165l-40 -37z" />
    <glyph glyph-name="Aacute" unicode="&#xc1;" horiz-adv-x="697" 
d="M510 76l-18 57.5l-18 55.5h-257l-17 -53l-18 -60h68v-76h-230v76h56l207 610h137l101 -305l101 -305h56v-76h-234v76h66zM451 265l-41 134.5l-43 134.5c-2.66699 10 -5.5 20 -8.5 30s-6.16699 20 -9.5 30h-2l-19 -61l-20 -61.5l-23 -71l-23 -72l-19 -63.5h208zM360 732
l-40 38l134 164l64 -63z" />
    <glyph glyph-name="Acircumflex" unicode="&#xc2;" horiz-adv-x="697" 
d="M510 76l-18 57.5l-18 55.5h-257l-17 -53l-18 -60h68v-76h-230v76h56l207 610h137l101 -305l101 -305h56v-76h-234v76h66zM451 265l-41 134.5l-43 134.5c-2.66699 10 -5.5 20 -8.5 30s-6.16699 20 -9.5 30h-2l-19 -61l-20 -61.5l-23 -71l-23 -72l-19 -63.5h208zM505 733
l-159 99l-158 -100l-27 33l151 142h69l154 -140z" />
    <glyph glyph-name="Atilde" unicode="&#xc3;" horiz-adv-x="697" 
d="M510 76l-18 57.5l-18 55.5h-257l-17 -53l-18 -60h68v-76h-230v76h56l207 610h137l101 -305l101 -305h56v-76h-234v76h66zM451 265l-41 134.5l-43 134.5c-2.66699 10 -5.5 20 -8.5 30s-6.16699 20 -9.5 30h-2l-19 -61l-20 -61.5l-23 -71l-23 -72l-19 -63.5h208zM424 760
c-16 0 -31.3311 1.99902 -45.998 5.99902s-28.5 8.5 -41.5 13.5s-25.333 9.5 -37 13.5s-22.5 6 -32.5 6l-57 -39l-33 26c9.33301 26.667 22.166 47 38.499 61s34.833 21 55.5 21c12.667 0 26 -2 40 -6s27.833 -8.33301 41.5 -13s27 -9 40 -13s24.5 -6 34.5 -6l56 40l33 -26
c-8.66699 -25.333 -20.834 -45.666 -36.501 -60.999s-34.167 -23 -55.5 -23z" />
    <glyph glyph-name="Adieresis" unicode="&#xc4;" horiz-adv-x="697" 
d="M510 76l-18 57.5l-18 55.5h-257l-17 -53l-18 -60h68v-76h-230v76h56l207 610h137l101 -305l101 -305h56v-76h-234v76h66zM451 265l-41 134.5l-43 134.5c-2.66699 10 -5.5 20 -8.5 30s-6.16699 20 -9.5 30h-2l-19 -61l-20 -61.5l-23 -71l-23 -72l-19 -63.5h208zM310 781
c0 -15.333 -5.16602 -27.666 -15.499 -36.999s-22.833 -14 -37.5 -14c-15.333 0 -28 4.66699 -38 14s-15 21.666 -15 36.999c0 14.667 5.16699 27 15.5 37s22.166 15 35.499 15c15.333 0 28.333 -4.83301 39 -14.5s16 -22.167 16 -37.5zM501.001 781
c0 -15.333 -5.33301 -27.666 -16 -36.999s-24 -14 -40 -14c-14 0 -25.667 4.66699 -35 14s-14 21.666 -14 36.999c0 14.667 4.83301 27 14.5 37s21.167 15 34.5 15c16 0 29.333 -4.83301 40 -14.5s16 -22.167 16 -37.5z" />
    <glyph glyph-name="Aring" unicode="&#xc5;" horiz-adv-x="697" 
d="M510 76l-18 57.5l-18 55.5h-257l-17 -53l-18 -60h68v-76h-230v76h56l207 610h137l101 -305l101 -305h56v-76h-234v76h66zM344 742c-16 0 -31.167 3.00293 -45.5 9.00293s-26.666 14 -36.999 24s-18.5 21.667 -24.5 35s-9 27.666 -9 42.999c0 14.667 3 28.667 9 42
s14.167 25.166 24.5 35.499s22.666 18.5 36.999 24.5s29.5 9 45.5 9s30.833 -3 44.5 -9s25.5 -14 35.5 -24s17.833 -21.833 23.5 -35.5s8.5 -27.834 8.5 -42.501c0 -16 -3 -30.667 -9 -44s-14 -25 -24 -35s-21.833 -17.833 -35.5 -23.5s-28.167 -8.5 -43.5 -8.5z
M451 265.003l-41 134.5l-43 134.5c-2.66699 10 -5.5 20 -8.5 30s-6.16699 20 -9.5 30h-2l-19 -61l-20 -61.5l-23 -71l-23 -72l-19 -63.5h208zM344 909.003c-16.667 0 -30.667 -5.83301 -42 -17.5s-17 -25.5 -17 -41.5c0 -14.667 5.5 -27.667 16.5 -39s25.167 -17 42.5 -17
c15.333 0 28.333 5.66699 39 17s16 24.333 16 39c0 15.333 -5.16699 29 -15.5 41s-23.5 18 -39.5 18z" />
    <glyph glyph-name="AE" unicode="&#xc6;" horiz-adv-x="985" 
d="M509 205h-250l-80 -130h68v-75h-241v75h59l334 534h-55v76h587v-173h-81v99h-231v-218l217 5v-79l-217 4v-248h244v102h82v-177h-505v75h69v130zM302 280h207v325h-5z" />
    <glyph glyph-name="Ccedilla" unicode="&#xc7;" horiz-adv-x="593" 
d="M165 341c0 -40 3.33496 -76.0039 10.002 -108.004s18.167 -59.333 34.5 -82s38.333 -40 66 -52s62.5 -18 104.5 -18c8.66699 0 19.5 0.333008 32.5 1s26.833 2 41.5 4s29.667 4.33301 45 7s29.666 6 42.999 10l18 -78c-22.667 -8.66699 -49.834 -16 -81.501 -22
s-62.834 -9.66699 -93.501 -11l-26.5 -34.5l-26.5 -35.5c32.667 -1.33301 58.834 -8.83301 78.501 -22.5s29.5 -34.167 29.5 -61.5c-0.666992 -14 -4.66699 -27.167 -12 -39.5s-18.5 -23.166 -33.5 -32.499s-34 -16.666 -57 -21.999s-50.167 -8 -81.5 -8v41
c36 3.33301 64.333 9.66602 85 18.999s31 22 31 38c0 8.66699 -3 15.667 -9 21s-13.667 9.33301 -23 12s-19.833 4.33398 -31.5 5.00098s-23.167 1 -34.5 1l-14 21l37 49.5l37 48.5c-53.333 2 -98.166 12.167 -134.499 30.5s-65.5 42.833 -87.5 73.5
s-37.833 66.834 -47.5 108.501s-14.5 86.834 -14.5 135.501c0 38 4.5 78.167 13.5 120.5s25.167 81 48.5 116s55.333 64 96 87s92.667 34.5 156 34.5c37.333 0 70.666 -2.66699 99.999 -8s55.333 -12 78 -20v-174h-80v105c-15.333 4 -31.333 6.83301 -48 8.5
s-32.334 2.5 -47.001 2.5c-36 0 -66.667 -6.5 -92 -19.5s-46.166 -31.333 -62.499 -55s-28.333 -52.167 -36 -85.5s-11.5 -70.333 -11.5 -111z" />
    <glyph glyph-name="Egrave" unicode="&#xc8;" horiz-adv-x="607" 
d="M42 0v78h68v530h-66v77h519v-179h-81v102h-262v-215l243 5v-79l-243 4v-245h275v105h82v-183h-535zM186 871l62 63l134 -165l-40 -37z" />
    <glyph glyph-name="Eacute" unicode="&#xc9;" horiz-adv-x="607" 
d="M42 0v78h68v530h-66v77h519v-179h-81v102h-262v-215l243 5v-79l-243 4v-245h275v105h82v-183h-535zM314 732l-40 38l134 164l64 -63z" />
    <glyph glyph-name="Ecircumflex" unicode="&#xca;" horiz-adv-x="607" 
d="M42 0v78h68v530h-66v77h519v-179h-81v102h-262v-215l243 5v-79l-243 4v-245h275v105h82v-183h-535zM483 733l-159 99l-158 -100l-27 33l151 142h69l154 -140z" />
    <glyph glyph-name="Edieresis" unicode="&#xcb;" horiz-adv-x="607" 
d="M42 0v78h68v530h-66v77h519v-179h-81v102h-262v-215l243 5v-79l-243 4v-245h275v105h82v-183h-535zM474 781c0 -15.333 -5.33301 -27.666 -16 -36.999s-24 -14 -40 -14c-14 0 -25.667 4.66699 -35 14s-14 21.666 -14 36.999c0 14.667 4.83301 27 14.5 37
s21.167 15 34.5 15c16 0 29.333 -4.83301 40 -14.5s16 -22.167 16 -37.5zM283 781c0 -15.333 -5.16602 -27.666 -15.499 -36.999s-22.833 -14 -37.5 -14c-15.333 0 -28 4.66699 -38 14s-15 21.666 -15 36.999c0 14.667 5.16699 27 15.5 37s22.166 15 35.499 15
c15.333 0 28.333 -4.83301 39 -14.5s16 -22.167 16 -37.5z" />
    <glyph glyph-name="Igrave" unicode="&#xcc;" horiz-adv-x="381" 
d="M70 0v77h65v531h-65v78h241v-78h-66v-531h66v-77h-241zM37 871l62 63l134 -165l-40 -37z" />
    <glyph glyph-name="Iacute" unicode="&#xcd;" horiz-adv-x="381" 
d="M70 0v77h65v531h-65v78h241v-78h-66v-531h66v-77h-241zM196 732l-40 38l134 164l64 -63z" />
    <glyph glyph-name="Icircumflex" unicode="&#xce;" horiz-adv-x="381" 
d="M70 0v77h65v531h-65v78h241v-78h-66v-531h66v-77h-241zM349 733l-159 99l-158 -100l-27 33l151 142h69l154 -140z" />
    <glyph glyph-name="Idieresis" unicode="&#xcf;" horiz-adv-x="381" 
d="M70 0v77h65v531h-65v78h241v-78h-66v-531h66v-77h-241zM339 781c0 -15.333 -5.33301 -27.666 -16 -36.999s-24 -14 -40 -14c-14 0 -25.667 4.66699 -35 14s-14 21.666 -14 36.999c0 14.667 4.83301 27 14.5 37s21.167 15 34.5 15c16 0 29.333 -4.83301 40 -14.5
s16 -22.167 16 -37.5zM148 781c0 -15.333 -5.16602 -27.666 -15.499 -36.999s-22.833 -14 -37.5 -14c-15.333 0 -28 4.66699 -38 14s-15 21.666 -15 36.999c0 14.667 5.16699 27 15.5 37s22.166 15 35.499 15c15.333 0 28.333 -4.83301 39 -14.5s16 -22.167 16 -37.5z" />
    <glyph glyph-name="Eth" unicode="&#xd0;" horiz-adv-x="692" 
d="M42 0l-0.000976562 75.001h70v262h-66v55h66v219h-66v75h304c58 0 105.833 -9.16699 143.5 -27.5s67.5 -43.166 89.5 -74.499s37.333 -67.5 46 -108.5s13 -84.5 13 -130.5c0 -46.667 -4.83301 -90.834 -14.5 -132.501s-26 -78.334 -49 -110.001s-53.667 -56.667 -92 -75
s-86.166 -27.5 -143.499 -27.5h-301zM223.999 611.001l0.000976562 -219h133v-55h-133v-261h106c16.667 0 36.334 2.66699 59.001 8s44.167 17 64.5 35s37.666 44.333 51.999 79s21.5 81.667 21.5 141c0 60 -6.5 108 -19.5 144s-29.167 63.5 -48.5 82.5
s-40.333 31.333 -63 37s-43.334 8.5 -62.001 8.5h-110z" />
    <glyph glyph-name="Ntilde" unicode="&#xd1;" horiz-adv-x="770" 
d="M558 169v439h-69v77h238v-77h-66v-608h-106l-160 246l-60.5 92.5l-60.5 94.5l-30 48.5l-31 48.5c-0.666992 0 -1 -0.166992 -1 -0.5s-0.333008 -0.5 -1 -0.5v-453h68c0 -12.667 0.166992 -25.334 0.5 -38.001s0.5 -25.334 0.5 -38.001h-240
c0 12.667 -0.166992 25.334 -0.5 38.001s-0.5 25.334 -0.5 38.001h69c0 89.333 0.166992 178 0.5 266s0.5 176.667 0.5 266h-69v77h186l83.5 -131.5l64.5 -100.5l111 -175l34 -54l34 -55h5zM469 763c-16 0 -31.3311 1.99902 -45.998 5.99902s-28.5 8.5 -41.5 13.5
s-25.333 9.5 -37 13.5s-22.5 6 -32.5 6l-57 -39l-33 26c9.33301 26.667 22.166 47 38.499 61s34.833 21 55.5 21c12.667 0 26 -2 40 -6s27.833 -8.33301 41.5 -13s27 -9 40 -13s24.5 -6 34.5 -6l56 40l33 -26c-8.66699 -25.333 -20.834 -45.666 -36.501 -60.999
s-34.167 -23 -55.5 -23z" />
    <glyph glyph-name="Ograve" unicode="&#xd2;" horiz-adv-x="705" 
d="M655 342c0 -50 -6.33203 -96.333 -18.999 -139s-31.5 -79.834 -56.5 -111.501s-56.167 -56.334 -93.5 -74.001s-80.666 -26.5 -129.999 -26.5c-54 0 -100.333 8.33301 -139 25s-70.334 40.167 -95.001 70.5s-42.834 66.833 -54.501 109.5s-17.5 90.334 -17.5 143.001
c0 48 5.5 93.667 16.5 137s28.833 81.333 53.5 114s56.334 58.667 95.001 78s85.667 29 141 29c56 0 103.167 -9.66699 141.5 -29s69.166 -45.166 92.499 -77.499s40 -70 50 -113s15 -88.167 15 -135.5zM539.001 339c0 32.667 -2.33301 65.499 -7 98.499
s-13.667 62.5 -27 88.5s-32 47.167 -56 63.5s-55 24.5 -93 24.5s-69.333 -7.66699 -94 -23s-44.167 -35.833 -58.5 -61.5s-24.333 -55.167 -30 -88.5s-8.5 -67.666 -8.5 -102.999c0 -86 14.833 -151.5 44.5 -196.5s78.5 -67.5 146.5 -67.5c32 0 59.5 6.83301 82.5 20.5
s42 32.334 57 56.001s26 51.667 33 84s10.5 67.166 10.5 104.499zM196.001 870.999l62 63l134 -165l-40 -37z" />
    <glyph glyph-name="Oacute" unicode="&#xd3;" horiz-adv-x="705" 
d="M655 342c0 -50 -6.33203 -96.333 -18.999 -139s-31.5 -79.834 -56.5 -111.501s-56.167 -56.334 -93.5 -74.001s-80.666 -26.5 -129.999 -26.5c-54 0 -100.333 8.33301 -139 25s-70.334 40.167 -95.001 70.5s-42.834 66.833 -54.501 109.5s-17.5 90.334 -17.5 143.001
c0 48 5.5 93.667 16.5 137s28.833 81.333 53.5 114s56.334 58.667 95.001 78s85.667 29 141 29c56 0 103.167 -9.66699 141.5 -29s69.166 -45.166 92.499 -77.499s40 -70 50 -113s15 -88.167 15 -135.5zM539.001 339c0 32.667 -2.33301 65.499 -7 98.499
s-13.667 62.5 -27 88.5s-32 47.167 -56 63.5s-55 24.5 -93 24.5s-69.333 -7.66699 -94 -23s-44.167 -35.833 -58.5 -61.5s-24.333 -55.167 -30 -88.5s-8.5 -67.666 -8.5 -102.999c0 -86 14.833 -151.5 44.5 -196.5s78.5 -67.5 146.5 -67.5c32 0 59.5 6.83301 82.5 20.5
s42 32.334 57 56.001s26 51.667 33 84s10.5 67.166 10.5 104.499zM354.001 731.999l-40 38l134 164l64 -63z" />
    <glyph glyph-name="Ocircumflex" unicode="&#xd4;" horiz-adv-x="705" 
d="M655 342c0 -50 -6.33203 -96.333 -18.999 -139s-31.5 -79.834 -56.5 -111.501s-56.167 -56.334 -93.5 -74.001s-80.666 -26.5 -129.999 -26.5c-54 0 -100.333 8.33301 -139 25s-70.334 40.167 -95.001 70.5s-42.834 66.833 -54.501 109.5s-17.5 90.334 -17.5 143.001
c0 48 5.5 93.667 16.5 137s28.833 81.333 53.5 114s56.334 58.667 95.001 78s85.667 29 141 29c56 0 103.167 -9.66699 141.5 -29s69.166 -45.166 92.499 -77.499s40 -70 50 -113s15 -88.167 15 -135.5zM539.001 339c0 32.667 -2.33301 65.499 -7 98.499
s-13.667 62.5 -27 88.5s-32 47.167 -56 63.5s-55 24.5 -93 24.5s-69.333 -7.66699 -94 -23s-44.167 -35.833 -58.5 -61.5s-24.333 -55.167 -30 -88.5s-8.5 -67.666 -8.5 -102.999c0 -86 14.833 -151.5 44.5 -196.5s78.5 -67.5 146.5 -67.5c32 0 59.5 6.83301 82.5 20.5
s42 32.334 57 56.001s26 51.667 33 84s10.5 67.166 10.5 104.499zM514.001 732.999l-159 99l-158 -100l-27 33l151 142h69l154 -140z" />
    <glyph glyph-name="Otilde" unicode="&#xd5;" horiz-adv-x="705" 
d="M655 342c0 -50 -6.33203 -96.333 -18.999 -139s-31.5 -79.834 -56.5 -111.501s-56.167 -56.334 -93.5 -74.001s-80.666 -26.5 -129.999 -26.5c-54 0 -100.333 8.33301 -139 25s-70.334 40.167 -95.001 70.5s-42.834 66.833 -54.501 109.5s-17.5 90.334 -17.5 143.001
c0 48 5.5 93.667 16.5 137s28.833 81.333 53.5 114s56.334 58.667 95.001 78s85.667 29 141 29c56 0 103.167 -9.66699 141.5 -29s69.166 -45.166 92.499 -77.499s40 -70 50 -113s15 -88.167 15 -135.5zM539.001 339c0 32.667 -2.33301 65.499 -7 98.499
s-13.667 62.5 -27 88.5s-32 47.167 -56 63.5s-55 24.5 -93 24.5s-69.333 -7.66699 -94 -23s-44.167 -35.833 -58.5 -61.5s-24.333 -55.167 -30 -88.5s-8.5 -67.666 -8.5 -102.999c0 -86 14.833 -151.5 44.5 -196.5s78.5 -67.5 146.5 -67.5c32 0 59.5 6.83301 82.5 20.5
s42 32.334 57 56.001s26 51.667 33 84s10.5 67.166 10.5 104.499zM443.001 764.999c-16 0 -31.3311 1.99902 -45.998 5.99902s-28.5 8.5 -41.5 13.5s-25.333 9.5 -37 13.5s-22.5 6 -32.5 6l-57 -39l-33 26c9.33301 26.667 22.166 47 38.499 61s34.833 21 55.5 21
c12.667 0 26 -2 40 -6s27.833 -8.33301 41.5 -13s27 -9 40 -13s24.5 -6 34.5 -6l56 40l33 -26c-8.66699 -25.333 -20.834 -45.666 -36.501 -60.999s-34.167 -23 -55.5 -23z" />
    <glyph glyph-name="Odieresis" unicode="&#xd6;" horiz-adv-x="705" 
d="M655 342c0 -50 -6.33203 -96.333 -18.999 -139s-31.5 -79.834 -56.5 -111.501s-56.167 -56.334 -93.5 -74.001s-80.666 -26.5 -129.999 -26.5c-54 0 -100.333 8.33301 -139 25s-70.334 40.167 -95.001 70.5s-42.834 66.833 -54.501 109.5s-17.5 90.334 -17.5 143.001
c0 48 5.5 93.667 16.5 137s28.833 81.333 53.5 114s56.334 58.667 95.001 78s85.667 29 141 29c56 0 103.167 -9.66699 141.5 -29s69.166 -45.166 92.499 -77.499s40 -70 50 -113s15 -88.167 15 -135.5zM539.001 339c0 32.667 -2.33301 65.499 -7 98.499
s-13.667 62.5 -27 88.5s-32 47.167 -56 63.5s-55 24.5 -93 24.5s-69.333 -7.66699 -94 -23s-44.167 -35.833 -58.5 -61.5s-24.333 -55.167 -30 -88.5s-8.5 -67.666 -8.5 -102.999c0 -86 14.833 -151.5 44.5 -196.5s78.5 -67.5 146.5 -67.5c32 0 59.5 6.83301 82.5 20.5
s42 32.334 57 56.001s26 51.667 33 84s10.5 67.166 10.5 104.499zM501.001 780.999c0 -15.333 -5.33301 -27.666 -16 -36.999s-24 -14 -40 -14c-14 0 -25.667 4.66699 -35 14s-14 21.666 -14 36.999c0 14.667 4.83301 27 14.5 37s21.167 15 34.5 15
c16 0 29.333 -4.83301 40 -14.5s16 -22.167 16 -37.5zM310.001 780.999c0 -15.333 -5.16602 -27.666 -15.499 -36.999s-22.833 -14 -37.5 -14c-15.333 0 -28 4.66699 -38 14s-15 21.666 -15 36.999c0 14.667 5.16699 27 15.5 37s22.166 15 35.499 15
c15.333 0 28.333 -4.83301 39 -14.5s16 -22.167 16 -37.5z" />
    <glyph glyph-name="multiply" unicode="&#xd7;" horiz-adv-x="575" 
d="M292 243l-130 -130l-50 51l130 129l-128 128l49 49l127 -129l125 127l51 -51l-125 -126l127 -126l-49 -50z" />
    <glyph glyph-name="Oslash" unicode="&#xd8;" horiz-adv-x="705" 
d="M655 342c0 -50 -6.33594 -96.3301 -19.0029 -138.997s-31.5 -79.834 -56.5 -111.501s-56.167 -56.334 -93.5 -74.001s-80.666 -26.5 -129.999 -26.5c-45.333 0 -84.833 5.66699 -118.5 17s-62.5 27.666 -86.5 48.999l-50 -64h-54l74 94
c-24.667 30.667 -42.667 67.167 -54 109.5s-17 89.833 -17 142.5c0 48 5.5 93.667 16.5 137s28.833 81.333 53.5 114s56.334 58.667 95.001 78s85.667 29 141 29c42.667 0 79.834 -5.5 111.501 -16.5s59.167 -26.833 82.5 -47.5l50 66h58l-77 -96
c26.667 -34 45.667 -73.5 57 -118.5s17 -92.5 17 -142.5zM538.997 339.003c0 30 -2.33301 60.333 -7 91s-13 58.667 -25 84l-293 -381c16 -20.667 35.5 -36 58.5 -46s50.833 -15 83.5 -15c32 0 59.5 6.83301 82.5 20.5s42 32.5 57 56.5s26 52.333 33 85
s10.5 67.667 10.5 105zM164.997 338.003c0 -69.333 9.66699 -123.333 29 -162l292 380c-14 18.667 -31.5 33.5 -52.5 44.5s-46.833 16.5 -77.5 16.5c-38 0 -69.333 -7.83301 -94 -23.5s-44.167 -36.5 -58.5 -62.5s-24.333 -55.833 -30 -89.5s-8.5 -68.167 -8.5 -103.5z" />
    <glyph glyph-name="Ugrave" unicode="&#xd9;" horiz-adv-x="728" 
d="M635 249c0 -78.667 -22.166 -141.166 -66.499 -187.499s-112.833 -69.5 -205.5 -69.5c-48 0 -89.167 5.83301 -123.5 17.5s-62.5 28.5 -84.5 50.5s-38.167 49 -48.5 81s-15.5 68 -15.5 108v359h-59v78h235v-78h-68v-358c0 -58.667 14.167 -102.334 42.5 -131.001
s69.166 -43 122.499 -43c52 0 92.333 14 121 42s43 72 43 132v358h-67v78h235v-78h-61v-359zM210.001 871.001l62 63l134 -165l-40 -37z" />
    <glyph glyph-name="Uacute" unicode="&#xda;" horiz-adv-x="728" 
d="M635 249c0 -78.667 -22.166 -141.166 -66.499 -187.499s-112.833 -69.5 -205.5 -69.5c-48 0 -89.167 5.83301 -123.5 17.5s-62.5 28.5 -84.5 50.5s-38.167 49 -48.5 81s-15.5 68 -15.5 108v359h-59v78h235v-78h-68v-358c0 -58.667 14.167 -102.334 42.5 -131.001
s69.166 -43 122.499 -43c52 0 92.333 14 121 42s43 72 43 132v358h-67v78h235v-78h-61v-359zM372.001 732.001l-40 38l134 164l64 -63z" />
    <glyph glyph-name="Ucircumflex" unicode="&#xdb;" horiz-adv-x="728" 
d="M635 249c0 -78.667 -22.166 -141.166 -66.499 -187.499s-112.833 -69.5 -205.5 -69.5c-48 0 -89.167 5.83301 -123.5 17.5s-62.5 28.5 -84.5 50.5s-38.167 49 -48.5 81s-15.5 68 -15.5 108v359h-59v78h235v-78h-68v-358c0 -58.667 14.167 -102.334 42.5 -131.001
s69.166 -43 122.499 -43c52 0 92.333 14 121 42s43 72 43 132v358h-67v78h235v-78h-61v-359zM531.001 733.001l-165 97l-164 -98l-28 33l157 139h72l160 -137z" />
    <glyph glyph-name="Udieresis" unicode="&#xdc;" horiz-adv-x="728" 
d="M635 249c0 -78.667 -22.166 -141.166 -66.499 -187.499s-112.833 -69.5 -205.5 -69.5c-48 0 -89.167 5.83301 -123.5 17.5s-62.5 28.5 -84.5 50.5s-38.167 49 -48.5 81s-15.5 68 -15.5 108v359h-59v78h235v-78h-68v-358c0 -58.667 14.167 -102.334 42.5 -131.001
s69.166 -43 122.499 -43c52 0 92.333 14 121 42s43 72 43 132v358h-67v78h235v-78h-61v-359zM515.001 781.001c0 -15.333 -5.33301 -27.666 -16 -36.999s-24 -14 -40 -14c-14 0 -25.667 4.66699 -35 14s-14 21.666 -14 36.999c0 14.667 4.83301 27 14.5 37
s21.167 15 34.5 15c16 0 29.333 -4.83301 40 -14.5s16 -22.167 16 -37.5zM324.001 781.001c0 -15.333 -5.16602 -27.666 -15.499 -36.999s-22.833 -14 -37.5 -14c-15.333 0 -28 4.66699 -38 14s-15 21.666 -15 36.999c0 14.667 5.16699 27 15.5 37s22.166 15 35.499 15
c15.333 0 28.333 -4.83301 39 -14.5s16 -22.167 16 -37.5z" />
    <glyph glyph-name="Yacute" unicode="&#xdd;" horiz-adv-x="621" 
d="M445 607h-59v79h224v-79h-56l-189 -320v-210h80v-77h-273v77h80v207l-185 323h-55v79h227v-79h-58l128 -241h4zM317 731l-40 38l134 164l64 -63z" />
    <glyph glyph-name="Thorn" unicode="&#xde;" horiz-adv-x="598" 
d="M218 545h129.998c70 0 124.667 -15.833 164 -47.5s59 -78.834 59 -141.501c0 -22 -3.66699 -44.667 -11 -68s-19.166 -44.5 -35.499 -63.5s-38.166 -34.667 -65.499 -47s-61 -18.166 -101 -17.499h-140v-89h78v-71h-256v71h68v541h-68v74h256v-74h-78v-67zM217.998 478
v-251h118c16 0 31.333 2.16699 46 6.5s27.5 11.5 38.5 21.5s19.833 23 26.5 39s10 35.667 10 59c0 43.333 -11.833 75 -35.5 95s-53.5 30 -89.5 30h-114z" />
    <glyph glyph-name="germandbls" unicode="&#xdf;" horiz-adv-x="619" 
d="M481 120c0 16 -2.83008 30 -8.49707 42s-12.834 23 -21.501 33s-18.334 19.333 -29.001 28s-21 17.667 -31 27l-36.5 34.5c-12.333 11.667 -23.5 23.834 -33.5 36.501s-18.167 25.667 -24.5 39s-9.5 27.333 -9.5 42c0 19.333 5.33301 36.5 16 51.5
s22.334 29.167 35.001 42.5s24.334 26.333 35.001 39s16 26.667 16 42c0 4.66699 -0.833008 11 -2.5 19s-5.5 15.833 -11.5 23.5s-15 14.334 -27 20.001s-28.333 8.5 -49 8.5c-18 0 -33.167 -2.83301 -45.5 -8.5s-22.333 -13.5 -30 -23.5s-13.334 -21.667 -17.001 -35
s-5.5 -27.333 -5.5 -42v-539h-179v73h73v308h-69v64h69v74c0 8 0.5 18.667 1.5 32s3.5 27.666 7.5 42.999s10.167 30.833 18.5 46.5s20.166 29.834 35.499 42.501s34.5 23 57.5 31s51.167 12 84.5 12c37.333 0 68.166 -4.66699 92.499 -14s43.5 -20.833 57.5 -34.5
s23.833 -28.167 29.5 -43.5s8.5 -29.333 8.5 -42c0 -24.667 -5.5 -45.834 -16.5 -63.501s-23 -33.5 -36 -47.5l-35.5 -38.5c-10.667 -11.667 -16 -23.834 -16 -36.501c0 -16 7.5 -32 22.5 -48s33.833 -32.333 56.5 -49l46 -35c14.667 -11.333 27.667 -24 39 -38
s20.333 -29.667 27 -47s10 -37.666 10 -60.999c0 -18.667 -3.5 -36.5 -10.5 -53.5s-17.833 -32 -32.5 -45s-33.167 -23.333 -55.5 -31s-48.833 -11.5 -79.5 -11.5c-25.333 0 -51 2.16699 -77 6.5s-48.667 10.166 -68 17.499v126h67v-66
c17.333 -5.33301 32.333 -8.83301 45 -10.5s23.334 -2.5 32.001 -2.5c23.333 0 41.666 5.83301 54.999 17.5s20 26.5 20 44.5z" />
    <glyph glyph-name="agrave" unicode="&#xe0;" horiz-adv-x="537" 
d="M230 220c-28 -2 -49.334 -10.166 -64.001 -24.499s-22 -31.833 -22 -52.5c0 -26 6.33301 -45.167 19 -57.5s33.334 -18.5 62.001 -18.5c18 0 37.5 4.66699 58.5 14s39.5 21.666 55.5 36.999v110zM441.999 75.001l75.9951 -0.000976562l6 -60
c-6.66699 -4 -15 -7.33301 -25 -10s-20.333 -4.83398 -31 -6.50098s-21 -2.83398 -31 -3.50098s-18.333 -1 -25 -1c-19.333 0 -35.166 3.66699 -47.499 11s-18.833 24 -19.5 50c-0.666992 0 -1 0.166992 -1 0.5s-0.333008 0.5 -1 0.5c-18 -16 -35.333 -28.333 -52 -37
s-32.167 -15.167 -46.5 -19.5s-27.166 -6.83301 -38.499 -7.5s-20.666 -1 -27.999 -1c-29.333 0 -53.333 4.66699 -72 14s-33.5 21 -44.5 35s-18.5 29.333 -22.5 46s-6 32 -6 46c0 20 3.5 38.333 10.5 55s18.167 31.334 33.5 44.001s35 23.167 59 31.5s53 13.5 87 15.5
l118 8v29c0 36.667 -7 62.667 -21 78s-39.667 23 -77 23c-24 0 -49.167 -2.33301 -75.5 -7s-51.166 -11 -74.499 -19l-10 34l-10 34c28 12.667 59.5 22.334 94.5 29.001s68.5 10 100.5 10c54.667 0 97.334 -12.167 128.001 -36.5s46 -67.166 46 -128.499v-257zM135.994 673
l63 63l134 -165l-39 -37z" />
    <glyph glyph-name="aacute" unicode="&#xe1;" horiz-adv-x="537" 
d="M230 220c-28 -2 -49.334 -10.166 -64.001 -24.499s-22 -31.833 -22 -52.5c0 -26 6.33301 -45.167 19 -57.5s33.334 -18.5 62.001 -18.5c18 0 37.5 4.66699 58.5 14s39.5 21.666 55.5 36.999v110zM441.999 75.001l75.9951 -0.000976562l6 -60
c-6.66699 -4 -15 -7.33301 -25 -10s-20.333 -4.83398 -31 -6.50098s-21 -2.83398 -31 -3.50098s-18.333 -1 -25 -1c-19.333 0 -35.166 3.66699 -47.499 11s-18.833 24 -19.5 50c-0.666992 0 -1 0.166992 -1 0.5s-0.333008 0.5 -1 0.5c-18 -16 -35.333 -28.333 -52 -37
s-32.167 -15.167 -46.5 -19.5s-27.166 -6.83301 -38.499 -7.5s-20.666 -1 -27.999 -1c-29.333 0 -53.333 4.66699 -72 14s-33.5 21 -44.5 35s-18.5 29.333 -22.5 46s-6 32 -6 46c0 20 3.5 38.333 10.5 55s18.167 31.334 33.5 44.001s35 23.167 59 31.5s53 13.5 87 15.5
l118 8v29c0 36.667 -7 62.667 -21 78s-39.667 23 -77 23c-24 0 -49.167 -2.33301 -75.5 -7s-51.166 -11 -74.499 -19l-10 34l-10 34c28 12.667 59.5 22.334 94.5 29.001s68.5 10 100.5 10c54.667 0 97.334 -12.167 128.001 -36.5s46 -67.166 46 -128.499v-257zM239.994 534
l-40 37l133 165l64 -63z" />
    <glyph glyph-name="acircumflex" unicode="&#xe2;" horiz-adv-x="537" 
d="M230 220c-28 -2 -49.334 -10.166 -64.001 -24.499s-22 -31.833 -22 -52.5c0 -26 6.33301 -45.167 19 -57.5s33.334 -18.5 62.001 -18.5c18 0 37.5 4.66699 58.5 14s39.5 21.666 55.5 36.999v110zM441.999 75.001l75.9951 -0.000976562l6 -60
c-6.66699 -4 -15 -7.33301 -25 -10s-20.333 -4.83398 -31 -6.50098s-21 -2.83398 -31 -3.50098s-18.333 -1 -25 -1c-19.333 0 -35.166 3.66699 -47.499 11s-18.833 24 -19.5 50c-0.666992 0 -1 0.166992 -1 0.5s-0.333008 0.5 -1 0.5c-18 -16 -35.333 -28.333 -52 -37
s-32.167 -15.167 -46.5 -19.5s-27.166 -6.83301 -38.499 -7.5s-20.666 -1 -27.999 -1c-29.333 0 -53.333 4.66699 -72 14s-33.5 21 -44.5 35s-18.5 29.333 -22.5 46s-6 32 -6 46c0 20 3.5 38.333 10.5 55s18.167 31.334 33.5 44.001s35 23.167 59 31.5s53 13.5 87 15.5
l118 8v29c0 36.667 -7 62.667 -21 78s-39.667 23 -77 23c-24 0 -49.167 -2.33301 -75.5 -7s-51.166 -11 -74.499 -19l-10 34l-10 34c28 12.667 59.5 22.334 94.5 29.001s68.5 10 100.5 10c54.667 0 97.334 -12.167 128.001 -36.5s46 -67.166 46 -128.499v-257zM420.994 531
l-159 100l-158 -100l-28 33l152 146h69l153 -145z" />
    <glyph glyph-name="atilde" unicode="&#xe3;" horiz-adv-x="537" 
d="M230 220c-28 -2 -49.334 -10.166 -64.001 -24.499s-22 -31.833 -22 -52.5c0 -26 6.33301 -45.167 19 -57.5s33.334 -18.5 62.001 -18.5c18 0 37.5 4.66699 58.5 14s39.5 21.666 55.5 36.999v110zM441.999 75.001l75.9951 -0.000976562l6 -60
c-6.66699 -4 -15 -7.33301 -25 -10s-20.333 -4.83398 -31 -6.50098s-21 -2.83398 -31 -3.50098s-18.333 -1 -25 -1c-19.333 0 -35.166 3.66699 -47.499 11s-18.833 24 -19.5 50c-0.666992 0 -1 0.166992 -1 0.5s-0.333008 0.5 -1 0.5c-18 -16 -35.333 -28.333 -52 -37
s-32.167 -15.167 -46.5 -19.5s-27.166 -6.83301 -38.499 -7.5s-20.666 -1 -27.999 -1c-29.333 0 -53.333 4.66699 -72 14s-33.5 21 -44.5 35s-18.5 29.333 -22.5 46s-6 32 -6 46c0 20 3.5 38.333 10.5 55s18.167 31.334 33.5 44.001s35 23.167 59 31.5s53 13.5 87 15.5
l118 8v29c0 36.667 -7 62.667 -21 78s-39.667 23 -77 23c-24 0 -49.167 -2.33301 -75.5 -7s-51.166 -11 -74.499 -19l-10 34l-10 34c28 12.667 59.5 22.334 94.5 29.001s68.5 10 100.5 10c54.667 0 97.334 -12.167 128.001 -36.5s46 -67.166 46 -128.499v-257zM342.994 570
c-16 0 -31.3311 1.99902 -45.998 5.99902s-28.5 8.5 -41.5 13.5s-25.333 9.5 -37 13.5s-22.5 6 -32.5 6l-57 -39l-33 26c9.33301 26.667 22.166 47 38.499 61s34.833 21 55.5 21c12.667 0 26 -2 40 -6s27.833 -8.33301 41.5 -13s27 -9 40 -13s24.5 -6 34.5 -6l56 40l33 -26
c-8.66699 -25.333 -20.834 -45.666 -36.501 -60.999s-34.167 -23 -55.5 -23z" />
    <glyph glyph-name="adieresis" unicode="&#xe4;" horiz-adv-x="537" 
d="M230 220c-28 -2 -49.334 -10.166 -64.001 -24.499s-22 -31.833 -22 -52.5c0 -26 6.33301 -45.167 19 -57.5s33.334 -18.5 62.001 -18.5c18 0 37.5 4.66699 58.5 14s39.5 21.666 55.5 36.999v110zM441.999 75.001l75.9951 -0.000976562l6 -60
c-6.66699 -4 -15 -7.33301 -25 -10s-20.333 -4.83398 -31 -6.50098s-21 -2.83398 -31 -3.50098s-18.333 -1 -25 -1c-19.333 0 -35.166 3.66699 -47.499 11s-18.833 24 -19.5 50c-0.666992 0 -1 0.166992 -1 0.5s-0.333008 0.5 -1 0.5c-18 -16 -35.333 -28.333 -52 -37
s-32.167 -15.167 -46.5 -19.5s-27.166 -6.83301 -38.499 -7.5s-20.666 -1 -27.999 -1c-29.333 0 -53.333 4.66699 -72 14s-33.5 21 -44.5 35s-18.5 29.333 -22.5 46s-6 32 -6 46c0 20 3.5 38.333 10.5 55s18.167 31.334 33.5 44.001s35 23.167 59 31.5s53 13.5 87 15.5
l118 8v29c0 36.667 -7 62.667 -21 78s-39.667 23 -77 23c-24 0 -49.167 -2.33301 -75.5 -7s-51.166 -11 -74.499 -19l-10 34l-10 34c28 12.667 59.5 22.334 94.5 29.001s68.5 10 100.5 10c54.667 0 97.334 -12.167 128.001 -36.5s46 -67.166 46 -128.499v-257zM422.994 605
c0 -14 -5.16699 -25.833 -15.5 -35.5s-23.166 -14.5 -38.499 -14.5c-14 0 -25.667 4.83301 -35 14.5s-14 21.5 -14 35.5s4.83301 25.833 14.5 35.5s21.167 14.5 34.5 14.5c15.333 0 28.166 -4.66699 38.499 -14s15.5 -21.333 15.5 -36zM229.994 605
c0 -14 -4.83203 -25.833 -14.499 -35.5s-22.167 -14.5 -37.5 -14.5c-14.667 0 -26.834 4.83301 -36.501 14.5s-14.5 21.5 -14.5 35.5s5 25.833 15 35.5s21.667 14.5 35 14.5c15.333 0 28 -4.66699 38 -14s15 -21.333 15 -36z" />
    <glyph glyph-name="aring" unicode="&#xe5;" horiz-adv-x="537" 
d="M230 220c-28 -2 -49.334 -10.166 -64.001 -24.499s-22 -31.833 -22 -52.5c0 -26 6.33301 -45.167 19 -57.5s33.334 -18.5 62.001 -18.5c18 0 37.5 4.66699 58.5 14s39.5 21.666 55.5 36.999v110zM441.999 75.001l75.9951 -0.000976562l6 -60
c-6.66699 -4 -15 -7.33301 -25 -10s-20.333 -4.83398 -31 -6.50098s-21 -2.83398 -31 -3.50098s-18.333 -1 -25 -1c-19.333 0 -35.166 3.66699 -47.499 11s-18.833 24 -19.5 50c-0.666992 0 -1 0.166992 -1 0.5s-0.333008 0.5 -1 0.5c-18 -16 -35.333 -28.333 -52 -37
s-32.167 -15.167 -46.5 -19.5s-27.166 -6.83301 -38.499 -7.5s-20.666 -1 -27.999 -1c-29.333 0 -53.333 4.66699 -72 14s-33.5 21 -44.5 35s-18.5 29.333 -22.5 46s-6 32 -6 46c0 20 3.5 38.333 10.5 55s18.167 31.334 33.5 44.001s35 23.167 59 31.5s53 13.5 87 15.5
l118 8v29c0 36.667 -7 62.667 -21 78s-39.667 23 -77 23c-24 0 -49.167 -2.33301 -75.5 -7s-51.166 -11 -74.499 -19l-10 34l-10 34c28 12.667 59.5 22.334 94.5 29.001s68.5 10 100.5 10c54.667 0 97.334 -12.167 128.001 -36.5s46 -67.166 46 -128.499v-257zM263.994 550
c-16 0 -31.167 3.00293 -45.5 9.00293s-26.666 14 -36.999 24s-18.5 21.667 -24.5 35s-9 27.666 -9 42.999c0 14.667 3 28.667 9 42s14.167 25.166 24.5 35.499s22.666 18.5 36.999 24.5s29.5 9 45.5 9s30.833 -3 44.5 -9s25.5 -14 35.5 -24s17.833 -21.833 23.5 -35.5
s8.5 -27.834 8.5 -42.501c0 -16 -3 -30.667 -9 -44s-14 -25 -24 -35s-21.833 -17.833 -35.5 -23.5s-28.167 -8.5 -43.5 -8.5zM263.994 717.003c-16.667 0 -30.667 -5.83301 -42 -17.5s-17 -25.5 -17 -41.5c0 -14.667 5.5 -27.667 16.5 -39s25.167 -17 42.5 -17
c15.333 0 28.333 5.66699 39 17s16 24.333 16 39c0 15.333 -5.16699 29 -15.5 41s-23.5 18 -39.5 18z" />
    <glyph glyph-name="ae" unicode="&#xe6;" horiz-adv-x="809" 
d="M575 500c47.333 0 84.3291 -8.83203 110.996 -26.499s46.667 -39 60 -64s21.666 -50.833 24.999 -77.5s5 -49 5 -67v-39h-318c0 -22 2 -42.333 6 -61s11 -34.834 21 -48.501s23.5 -24.5 40.5 -32.5s38.167 -12 63.5 -12c27.333 0 52.833 2.66699 76.5 8
s48.834 13.333 75.501 24l22 -65c-30 -16 -60.667 -27.667 -92 -35s-63 -11 -95 -11c-47.333 0 -84.833 6.5 -112.5 19.5s-49.834 31.5 -66.501 55.5c-24 -18.667 -46.667 -33.167 -68 -43.5s-41.166 -18 -59.499 -23s-34.833 -8 -49.5 -9s-27 -1.5 -37 -1.5
c-30.667 0 -55.667 4.83301 -75 14.5s-34.666 21.5 -45.999 35.5s-19.166 29.167 -23.499 45.5s-6.5 31.5 -6.5 45.5c0 19.333 3.5 38 10.5 56s17.667 33.833 32 47.5s32.666 24.5 54.999 32.5s48.833 12 79.5 12h144v36c0 38 -8.66699 64.333 -26 79s-45 22 -83 22
c-26.667 0 -53.167 -2.33301 -79.5 -7s-51.166 -11 -74.499 -19l-20 68c28 12.667 59.667 22.5 95 29.5s69 10.5 101 10.5c32.667 0 62.834 -5.66699 90.501 -17s47.5 -30.333 59.5 -57c16 22 36.833 40 62.5 54s57.834 21 96.501 21zM226.996 63.001
c8 0 18.001 1.16699 30.001 3.5s24.5 6 37.5 11s26.167 10.833 39.5 17.5s25 14.667 35 24c-5.33301 16 -9.33301 32.833 -12 50.5s-4.33398 36.167 -5.00098 55.5h-112c-32 0 -56.167 -7.16699 -72.5 -21.5s-24.5 -33.833 -24.5 -58.5c0 -54.667 28 -82 84 -82z
M574.997 423.001c-20.667 0 -38.001 -4 -52.001 -12s-25.5 -18.5 -34.5 -31.5s-15.667 -28.167 -20 -45.5s-7.16602 -35.333 -8.49902 -54h219c0 21.333 -1.66699 40.833 -5 58.5s-9 32.667 -17 45s-18.667 22 -32 29s-30 10.5 -50 10.5z" />
    <glyph glyph-name="ccedilla" unicode="&#xe7;" horiz-adv-x="471" 
d="M272 500c27.333 0 53.667 -2.1709 79 -6.50391s48.666 -10.833 69.999 -19.5v-137h-76v71c-6 1.33301 -13.167 2.5 -21.5 3.5s-15.5 1.5 -21.5 1.5c-54.667 0 -94.167 -13.5 -118.5 -40.5s-36.5 -70.833 -36.5 -131.5c0 -57.333 11.167 -99.666 33.5 -126.999
s55.166 -41 98.499 -41c24.667 0 48.334 2.33301 71.001 7s45.667 11.667 69 21l23 -70c-21.333 -11.333 -46.166 -20.333 -74.499 -27s-57.5 -10.667 -87.5 -12l-20 -26c-6.66699 -8.66699 -13 -17.667 -19 -27c32.667 -1.33301 58.834 -8.83301 78.501 -22.5
s29.5 -34.167 29.5 -61.5c-0.666992 -14 -4.66699 -27.167 -12 -39.5s-18.5 -23.166 -33.5 -32.499s-34 -16.666 -57 -21.999s-50.167 -8 -81.5 -8v41c36 3.33301 64.333 9.66602 85 18.999s31 22 31 38c0 8.66699 -3 15.667 -9 21s-13.667 9.33301 -23 12
s-19.833 4.33398 -31.5 5.00098s-23.167 1 -34.5 1l-14 21l63 83c-37.333 3.33301 -68.333 11.833 -93 25.5s-44.334 31.5 -59.001 53.5s-25 47.167 -31 75.5s-9 58.5 -9 90.5c0 26.667 3 55.334 9 86.001s17.5 59 34.5 85s40.667 47.5 71 64.5s69.5 25.5 117.5 25.5z" />
    <glyph glyph-name="egrave" unicode="&#xe8;" horiz-adv-x="505" 
d="M264 422c-19.333 0 -36 -3.83301 -50 -11.5s-25.5 -17.667 -34.5 -30s-16 -26.333 -21 -42s-7.83301 -31.5 -8.5 -47.5h218c-0.666992 18 -2.66699 34.833 -6 50.5s-9 29.5 -17 41.5s-18.5 21.5 -31.5 28.5s-29.5 10.5 -49.5 10.5zM265 500
c47.333 0 84.5 -8.83105 111.5 -26.498s47.333 -39 61 -64s22.167 -50.833 25.5 -77.5s5 -49 5 -67v-48h-320c0 -22 2 -42 6 -60s11 -33.333 21 -46s23.5 -22.5 40.5 -29.5s38.167 -10.5 63.5 -10.5c28 0 53.667 2.66699 77 8s48.333 13.666 75 24.999l27 -67
c-30.667 -16 -62.167 -27.667 -94.5 -35s-64.833 -11 -97.5 -11c-46 0 -83.5 7 -112.5 21s-52 32.667 -69 56s-28.667 50.166 -35 80.499s-9.5 61.833 -9.5 94.5c0 24 3 50.833 9 80.5s17.333 57.667 34 84s39.667 48.333 69 66s67 26.5 113 26.5zM116 673.002l63 63
l134 -165l-39 -37z" />
    <glyph glyph-name="eacute" unicode="&#xe9;" horiz-adv-x="505" 
d="M264 422c-19.333 0 -36 -3.83301 -50 -11.5s-25.5 -17.667 -34.5 -30s-16 -26.333 -21 -42s-7.83301 -31.5 -8.5 -47.5h218c-0.666992 18 -2.66699 34.833 -6 50.5s-9 29.5 -17 41.5s-18.5 21.5 -31.5 28.5s-29.5 10.5 -49.5 10.5zM265 500
c47.333 0 84.5 -8.83105 111.5 -26.498s47.333 -39 61 -64s22.167 -50.833 25.5 -77.5s5 -49 5 -67v-48h-320c0 -22 2 -42 6 -60s11 -33.333 21 -46s23.5 -22.5 40.5 -29.5s38.167 -10.5 63.5 -10.5c28 0 53.667 2.66699 77 8s48.333 13.666 75 24.999l27 -67
c-30.667 -16 -62.167 -27.667 -94.5 -35s-64.833 -11 -97.5 -11c-46 0 -83.5 7 -112.5 21s-52 32.667 -69 56s-28.667 50.166 -35 80.499s-9.5 61.833 -9.5 94.5c0 24 3 50.833 9 80.5s17.333 57.667 34 84s39.667 48.333 69 66s67 26.5 113 26.5zM247 534.002l-40 37
l133 165l64 -63z" />
    <glyph glyph-name="ecircumflex" unicode="&#xea;" horiz-adv-x="505" 
d="M264 422c-19.333 0 -36 -3.83301 -50 -11.5s-25.5 -17.667 -34.5 -30s-16 -26.333 -21 -42s-7.83301 -31.5 -8.5 -47.5h218c-0.666992 18 -2.66699 34.833 -6 50.5s-9 29.5 -17 41.5s-18.5 21.5 -31.5 28.5s-29.5 10.5 -49.5 10.5zM265 500
c47.333 0 84.5 -8.83105 111.5 -26.498s47.333 -39 61 -64s22.167 -50.833 25.5 -77.5s5 -49 5 -67v-48h-320c0 -22 2 -42 6 -60s11 -33.333 21 -46s23.5 -22.5 40.5 -29.5s38.167 -10.5 63.5 -10.5c28 0 53.667 2.66699 77 8s48.333 13.666 75 24.999l27 -67
c-30.667 -16 -62.167 -27.667 -94.5 -35s-64.833 -11 -97.5 -11c-46 0 -83.5 7 -112.5 21s-52 32.667 -69 56s-28.667 50.166 -35 80.499s-9.5 61.833 -9.5 94.5c0 24 3 50.833 9 80.5s17.333 57.667 34 84s39.667 48.333 69 66s67 26.5 113 26.5zM424 531.002l-159 100
l-158 -100l-28 33l152 146h69l153 -145z" />
    <glyph glyph-name="edieresis" unicode="&#xeb;" horiz-adv-x="505" 
d="M264 422c-19.333 0 -36 -3.83301 -50 -11.5s-25.5 -17.667 -34.5 -30s-16 -26.333 -21 -42s-7.83301 -31.5 -8.5 -47.5h218c-0.666992 18 -2.66699 34.833 -6 50.5s-9 29.5 -17 41.5s-18.5 21.5 -31.5 28.5s-29.5 10.5 -49.5 10.5zM265 500
c47.333 0 84.5 -8.83105 111.5 -26.498s47.333 -39 61 -64s22.167 -50.833 25.5 -77.5s5 -49 5 -67v-48h-320c0 -22 2 -42 6 -60s11 -33.333 21 -46s23.5 -22.5 40.5 -29.5s38.167 -10.5 63.5 -10.5c28 0 53.667 2.66699 77 8s48.333 13.666 75 24.999l27 -67
c-30.667 -16 -62.167 -27.667 -94.5 -35s-64.833 -11 -97.5 -11c-46 0 -83.5 7 -112.5 21s-52 32.667 -69 56s-28.667 50.166 -35 80.499s-9.5 61.833 -9.5 94.5c0 24 3 50.833 9 80.5s17.333 57.667 34 84s39.667 48.333 69 66s67 26.5 113 26.5zM412 605.002
c0 -14 -5.16699 -25.833 -15.5 -35.5s-23.166 -14.5 -38.499 -14.5c-14 0 -25.667 4.83301 -35 14.5s-14 21.5 -14 35.5s4.83301 25.833 14.5 35.5s21.167 14.5 34.5 14.5c15.333 0 28.166 -4.66699 38.499 -14s15.5 -21.333 15.5 -36zM219 605.002
c0 -14 -4.83203 -25.833 -14.499 -35.5s-22.167 -14.5 -37.5 -14.5c-14.667 0 -26.834 4.83301 -36.501 14.5s-14.5 21.5 -14.5 35.5s5 25.833 15 35.5s21.667 14.5 35 14.5c15.333 0 28 -4.66699 38 -14s15 -21.333 15 -36z" />
    <glyph glyph-name="igrave" unicode="&#xec;" horiz-adv-x="315" 
d="M49 417l-0.000976562 72h161v-412h72v-64c-14 -6.66699 -30.167 -11.667 -48.5 -15s-34.166 -5 -47.499 -5c-28.667 0 -49.167 5.83301 -61.5 17.5s-18.833 32.167 -19.5 61.5v345h-56zM1.99902 673l63 63l134 -165l-39 -37z" />
    <glyph glyph-name="iacute" unicode="&#xed;" horiz-adv-x="315" 
d="M49 417l-0.000976562 72h161v-412h72v-64c-14 -6.66699 -30.167 -11.667 -48.5 -15s-34.166 -5 -47.499 -5c-28.667 0 -49.167 5.83301 -61.5 17.5s-18.833 32.167 -19.5 61.5v345h-56zM128.999 534l-40 37l133 165l64 -63z" />
    <glyph glyph-name="icircumflex" unicode="&#xee;" horiz-adv-x="334" 
d="M59 417l-0.000976562 72h161v-412h72v-64c-14 -6.66699 -30.167 -11.667 -48.5 -15s-34.166 -5 -47.499 -5c-28.667 0 -49.167 5.83301 -61.5 17.5s-18.833 32.167 -19.5 61.5v345h-56zM324.999 531l-159 100l-158 -100l-28 33l152 146h69l153 -145z" />
    <glyph glyph-name="idieresis" unicode="&#xef;" horiz-adv-x="315" 
d="M49 417l-0.000976562 72h161v-412h72v-64c-14 -6.66699 -30.167 -11.667 -48.5 -15s-34.166 -5 -47.499 -5c-28.667 0 -49.167 5.83301 -61.5 17.5s-18.833 32.167 -19.5 61.5v345h-56zM300.999 605c0 -14 -5.16699 -25.833 -15.5 -35.5s-23.166 -14.5 -38.499 -14.5
c-14 0 -25.667 4.83301 -35 14.5s-14 21.5 -14 35.5s4.83301 25.833 14.5 35.5s21.167 14.5 34.5 14.5c15.333 0 28.166 -4.66699 38.499 -14s15.5 -21.333 15.5 -36zM107.999 605c0 -14 -4.83203 -25.833 -14.499 -35.5s-22.167 -14.5 -37.5 -14.5
c-14.667 0 -26.834 4.83301 -36.501 14.5s-14.5 21.5 -14.5 35.5s5 25.833 15 35.5s21.667 14.5 35 14.5c15.333 0 28 -4.66699 38 -14s15 -21.333 15 -36z" />
    <glyph glyph-name="eth" unicode="&#xf0;" horiz-adv-x="540" 
d="M426 702l25.9951 -36.002l-81 -54c44.667 -46 77.834 -98.667 99.501 -158s31.167 -124 28.5 -194c-0.666992 -29.333 -4.66699 -59.666 -12 -90.999s-19.666 -60.166 -36.999 -86.499s-41.166 -48 -71.499 -65s-68.833 -25.5 -115.5 -25.5
c-44.667 0 -81.334 7 -110.001 21s-51.167 31.833 -67.5 53.5s-27.666 45.834 -33.999 72.501s-9.5 52.667 -9.5 78c0 30.667 4.66699 60.167 14 88.5s23.333 53.5 42 75.5s41.334 39.667 68.001 53s57.667 20 93 20c17.333 0 36.333 -1.83301 57 -5.5
s40.667 -10.834 60 -21.501c-18 54 -43 100 -75 138l-90 -61l-26 36l85 57c-29.333 28 -62 54 -98 78l31 56c50.667 -24 95.334 -53.333 134.001 -88zM269.995 378.998c-22.667 0 -41.833 -4.83105 -57.5 -14.498s-28.334 -22 -38.001 -37s-16.667 -32 -21 -51
s-6.5 -37.5 -6.5 -55.5c0 -16.667 1.33301 -33.834 4 -51.501s8.33398 -34 17.001 -49s21 -27.333 37 -37s37.333 -14.5 64 -14.5c26 0 47.167 6.16699 63.5 18.5s29 27.5 38 45.5s15.167 37.667 18.5 59s5 41 5 59c0 16.667 -0.833008 32.167 -2.5 46.5
s-4.16699 30.166 -7.5 47.499c-21.333 14 -41.833 23.167 -61.5 27.5s-37.167 6.5 -52.5 6.5z" />
    <glyph glyph-name="ntilde" unicode="&#xf1;" horiz-adv-x="611" 
d="M365 500c35.333 0 63 -5.83398 83 -17.501s34.833 -25.834 44.5 -42.501s15.667 -34.5 18 -53.5s3.5 -35.5 3.5 -49.5v-261h74v-63c-14 -6.66699 -30.667 -11.5 -50 -14.5s-35.666 -4.5 -48.999 -4.5c-20 0 -35.333 3.16699 -46 9.5s-18.667 13.833 -24 22.5
s-8.5 17.334 -9.5 26.001s-1.5 15.667 -1.5 21v244c0 16.667 -1 31 -3 43s-5.66699 22 -11 30s-13.333 14 -24 18s-24.334 6 -41.001 6c-20.667 0 -43.167 -4.66699 -67.5 -14s-45.833 -19.666 -64.5 -30.999v-369h-106v413h-70v76h176v-43l5 -1c28 18 56 31.667 84 41
s54.333 14 79 14zM361 580.999c-16 0 -31.3311 1.99902 -45.998 5.99902s-28.5 8.5 -41.5 13.5s-25.333 9.5 -37 13.5s-22.5 6 -32.5 6l-57 -39l-33 26c9.33301 26.667 22.166 47 38.499 61s34.833 21 55.5 21c12.667 0 26 -2 40 -6s27.833 -8.33301 41.5 -13s27 -9 40 -13
s24.5 -6 34.5 -6l56 40l33 -26c-8.66699 -25.333 -20.834 -45.666 -36.501 -60.999s-34.167 -23 -55.5 -23z" />
    <glyph glyph-name="ograve" unicode="&#xf2;" horiz-adv-x="538" 
d="M498 244c0 -32.667 -4.00195 -64.1689 -12.002 -94.502s-21.167 -57.166 -39.5 -80.499s-42.333 -42 -72 -56s-66.5 -21 -110.5 -21c-41.333 0 -76.166 6.66699 -104.499 20s-51.333 31.5 -69 54.5s-30.5 49.5 -38.5 79.5s-12 62 -12 96c0 33.333 4.33301 65.5 13 96.5
s22.334 58.333 41.001 82s42.667 42.667 72 57s64.666 21.5 105.999 21.5c42 0 77.5 -7.16699 106.5 -21.5s52.333 -33.166 70 -56.499s30.334 -50.5 38.001 -81.5s11.5 -62.833 11.5 -95.5zM388.998 241.998c0 20.667 -1.50098 41.5029 -4.50098 62.5029
s-8.66699 40 -17 57s-20 30.833 -35 41.5s-34.5 16 -58.5 16c-24.667 0 -45 -5.16699 -61 -15.5s-28.667 -23.833 -38 -40.5s-15.833 -35.5 -19.5 -56.5s-5.5 -42.5 -5.5 -64.5c0 -22.667 1.5 -44.334 4.5 -65.001s8.83301 -38.834 17.5 -54.501
s20.834 -28.167 36.501 -37.5s36.5 -14 62.5 -14c24 0 43.667 5 59 15s27.333 23 36 39s14.667 34.167 18 54.5s5 41.166 5 62.499zM119.997 673.001l63 63l134 -165l-39 -37z" />
    <glyph glyph-name="oacute" unicode="&#xf3;" horiz-adv-x="538" 
d="M498 244c0 -32.667 -4.00195 -64.1689 -12.002 -94.502s-21.167 -57.166 -39.5 -80.499s-42.333 -42 -72 -56s-66.5 -21 -110.5 -21c-41.333 0 -76.166 6.66699 -104.499 20s-51.333 31.5 -69 54.5s-30.5 49.5 -38.5 79.5s-12 62 -12 96c0 33.333 4.33301 65.5 13 96.5
s22.334 58.333 41.001 82s42.667 42.667 72 57s64.666 21.5 105.999 21.5c42 0 77.5 -7.16699 106.5 -21.5s52.333 -33.166 70 -56.499s30.334 -50.5 38.001 -81.5s11.5 -62.833 11.5 -95.5zM388.998 241.998c0 20.667 -1.50098 41.5029 -4.50098 62.5029
s-8.66699 40 -17 57s-20 30.833 -35 41.5s-34.5 16 -58.5 16c-24.667 0 -45 -5.16699 -61 -15.5s-28.667 -23.833 -38 -40.5s-15.833 -35.5 -19.5 -56.5s-5.5 -42.5 -5.5 -64.5c0 -22.667 1.5 -44.334 4.5 -65.001s8.83301 -38.834 17.5 -54.501
s20.834 -28.167 36.501 -37.5s36.5 -14 62.5 -14c24 0 43.667 5 59 15s27.333 23 36 39s14.667 34.167 18 54.5s5 41.166 5 62.499zM253.997 534.001l-40 37l133 165l64 -63z" />
    <glyph glyph-name="ocircumflex" unicode="&#xf4;" horiz-adv-x="538" 
d="M498 244c0 -32.667 -4.00195 -64.1689 -12.002 -94.502s-21.167 -57.166 -39.5 -80.499s-42.333 -42 -72 -56s-66.5 -21 -110.5 -21c-41.333 0 -76.166 6.66699 -104.499 20s-51.333 31.5 -69 54.5s-30.5 49.5 -38.5 79.5s-12 62 -12 96c0 33.333 4.33301 65.5 13 96.5
s22.334 58.333 41.001 82s42.667 42.667 72 57s64.666 21.5 105.999 21.5c42 0 77.5 -7.16699 106.5 -21.5s52.333 -33.166 70 -56.499s30.334 -50.5 38.001 -81.5s11.5 -62.833 11.5 -95.5zM388.998 241.998c0 20.667 -1.50098 41.5029 -4.50098 62.5029
s-8.66699 40 -17 57s-20 30.833 -35 41.5s-34.5 16 -58.5 16c-24.667 0 -45 -5.16699 -61 -15.5s-28.667 -23.833 -38 -40.5s-15.833 -35.5 -19.5 -56.5s-5.5 -42.5 -5.5 -64.5c0 -22.667 1.5 -44.334 4.5 -65.001s8.83301 -38.834 17.5 -54.501
s20.834 -28.167 36.501 -37.5s36.5 -14 62.5 -14c24 0 43.667 5 59 15s27.333 23 36 39s14.667 34.167 18 54.5s5 41.166 5 62.499zM429.997 531.001l-159 100l-158 -100l-28 33l152 146h69l153 -145z" />
    <glyph glyph-name="otilde" unicode="&#xf5;" horiz-adv-x="538" 
d="M498 244c0 -32.667 -4.00195 -64.1689 -12.002 -94.502s-21.167 -57.166 -39.5 -80.499s-42.333 -42 -72 -56s-66.5 -21 -110.5 -21c-41.333 0 -76.166 6.66699 -104.499 20s-51.333 31.5 -69 54.5s-30.5 49.5 -38.5 79.5s-12 62 -12 96c0 33.333 4.33301 65.5 13 96.5
s22.334 58.333 41.001 82s42.667 42.667 72 57s64.666 21.5 105.999 21.5c42 0 77.5 -7.16699 106.5 -21.5s52.333 -33.166 70 -56.499s30.334 -50.5 38.001 -81.5s11.5 -62.833 11.5 -95.5zM388.998 241.998c0 20.667 -1.50098 41.5029 -4.50098 62.5029
s-8.66699 40 -17 57s-20 30.833 -35 41.5s-34.5 16 -58.5 16c-24.667 0 -45 -5.16699 -61 -15.5s-28.667 -23.833 -38 -40.5s-15.833 -35.5 -19.5 -56.5s-5.5 -42.5 -5.5 -64.5c0 -22.667 1.5 -44.334 4.5 -65.001s8.83301 -38.834 17.5 -54.501
s20.834 -28.167 36.501 -37.5s36.5 -14 62.5 -14c24 0 43.667 5 59 15s27.333 23 36 39s14.667 34.167 18 54.5s5 41.166 5 62.499zM356.997 568.001c-16 0 -31.3311 1.99902 -45.998 5.99902s-28.5 8.5 -41.5 13.5s-25.333 9.5 -37 13.5s-22.5 6 -32.5 6l-57 -39l-33 26
c9.33301 26.667 22.166 47 38.499 61s34.833 21 55.5 21c12.667 0 26 -2 40 -6s27.833 -8.33301 41.5 -13s27 -9 40 -13s24.5 -6 34.5 -6l56 40l33 -26c-8.66699 -25.333 -20.834 -45.666 -36.501 -60.999s-34.167 -23 -55.5 -23z" />
    <glyph glyph-name="odieresis" unicode="&#xf6;" horiz-adv-x="538" 
d="M498 244c0 -32.667 -4.00195 -64.1689 -12.002 -94.502s-21.167 -57.166 -39.5 -80.499s-42.333 -42 -72 -56s-66.5 -21 -110.5 -21c-41.333 0 -76.166 6.66699 -104.499 20s-51.333 31.5 -69 54.5s-30.5 49.5 -38.5 79.5s-12 62 -12 96c0 33.333 4.33301 65.5 13 96.5
s22.334 58.333 41.001 82s42.667 42.667 72 57s64.666 21.5 105.999 21.5c42 0 77.5 -7.16699 106.5 -21.5s52.333 -33.166 70 -56.499s30.334 -50.5 38.001 -81.5s11.5 -62.833 11.5 -95.5zM388.998 241.998c0 20.667 -1.50098 41.5029 -4.50098 62.5029
s-8.66699 40 -17 57s-20 30.833 -35 41.5s-34.5 16 -58.5 16c-24.667 0 -45 -5.16699 -61 -15.5s-28.667 -23.833 -38 -40.5s-15.833 -35.5 -19.5 -56.5s-5.5 -42.5 -5.5 -64.5c0 -22.667 1.5 -44.334 4.5 -65.001s8.83301 -38.834 17.5 -54.501
s20.834 -28.167 36.501 -37.5s36.5 -14 62.5 -14c24 0 43.667 5 59 15s27.333 23 36 39s14.667 34.167 18 54.5s5 41.166 5 62.499zM419.997 605.001c0 -14 -5.16699 -25.833 -15.5 -35.5s-23.166 -14.5 -38.499 -14.5c-14 0 -25.667 4.83301 -35 14.5s-14 21.5 -14 35.5
s4.83301 25.833 14.5 35.5s21.167 14.5 34.5 14.5c15.333 0 28.166 -4.66699 38.499 -14s15.5 -21.333 15.5 -36zM226.997 605.001c0 -14 -4.83203 -25.833 -14.499 -35.5s-22.167 -14.5 -37.5 -14.5c-14.667 0 -26.834 4.83301 -36.501 14.5s-14.5 21.5 -14.5 35.5
s5 25.833 15 35.5s21.667 14.5 35 14.5c15.333 0 28 -4.66699 38 -14s15 -21.333 15 -36z" />
    <glyph glyph-name="divide" unicode="&#xf7;" horiz-adv-x="575" 
d="M345 464c0 -15.333 -5.5 -28.666 -16.5 -39.999s-24.167 -17 -39.5 -17c-16 0 -29.667 5.66699 -41 17s-17 24.666 -17 39.999c0 16 5.5 29.5 16.5 40.5s24.5 16.5 40.5 16.5s29.5 -5.5 40.5 -16.5s16.5 -24.5 16.5 -40.5zM87 266v69h401v-69h-401zM345 136
c0 -15.333 -5.5 -28.666 -16.5 -39.999s-24.167 -17 -39.5 -17c-16 0 -29.667 5.66699 -41 17s-17 24.666 -17 39.999c0 16 5.5 29.333 16.5 40s24.5 16 40.5 16s29.5 -5.33301 40.5 -16s16.5 -24 16.5 -40z" />
    <glyph glyph-name="oslash" unicode="&#xf8;" horiz-adv-x="538" 
d="M271 499c32 0 59.835 -4.16504 83.502 -12.498s44.167 -19.833 61.5 -34.5c6 8 12.167 15.667 18.5 23s12.5 15 18.5 23c7.33301 0 15 0.166992 23 0.5s16 0.5 24 0.5l-58 -71c20 -24 34.333 -52 43 -84s13 -65.667 13 -101c0 -32.667 -4 -64 -12 -94
s-21.167 -56.5 -39.5 -79.5s-42.5 -41.5 -72.5 -55.5s-67 -21 -111 -21c-62 0 -110 14 -144 42l-34 -41c-8.66699 0 -17 -0.166992 -25 -0.5s-16 -0.5 -24 -0.5l56 67c-19.333 23.333 -32.833 50.666 -40.5 81.999s-11.5 64.666 -11.5 99.999c0 33.333 4.33301 65.5 13 96.5
s22.167 58.333 40.5 82s42.166 42.667 71.499 57s64.666 21.5 105.999 21.5zM387.002 242.002c0 17.333 -1.16504 35.333 -3.49805 54s-7.16602 35.667 -14.499 51l-93.5 -121.5l-93.5 -121.5c9.33301 -10.667 21.166 -19.167 35.499 -25.5s32.166 -9.5 53.499 -9.5
c24 0 43.667 5 59 15s27.166 23.167 35.499 39.5s14 34.833 17 55.5s4.5 41.667 4.5 63zM271.004 420.002c-23.333 0 -42.833 -4.99902 -58.5 -14.999s-28.167 -23.167 -37.5 -39.5s-16 -34.833 -20 -55.5s-6 -41.334 -6 -62.001c0 -18 1 -36.333 3 -55
s6.66699 -35.667 14 -51l93 120l94 120c-9.33301 11.333 -20.5 20.5 -33.5 27.5s-29.167 10.5 -48.5 10.5z" />
    <glyph glyph-name="ugrave" unicode="&#xf9;" horiz-adv-x="601" 
d="M238 -11c-31.333 0 -56.5 4.33105 -75.5 12.998s-33.667 20.334 -44 35.001s-17.333 31.334 -21 50.001s-5.5 38 -5.5 58v267h-70v77h177v-326c0 -14 0.666992 -26.333 2 -37s4.5 -19.667 9.5 -27s12.167 -12.833 21.5 -16.5s22 -5.5 38 -5.5s36.167 4 60.5 12
s47.5 22.333 69.5 43v280h-63v77h170v-413h69v-63c-18.667 -7.33301 -36.667 -12.333 -54 -15s-31.666 -4 -42.999 -4c-24.667 0 -42.834 4.5 -54.501 13.5s-18.834 25.5 -21.501 49.5c-30 -27.333 -59.667 -45.5 -89 -54.5s-54.666 -13.5 -75.999 -13.5zM143 672.998l63 63
l134 -165l-39 -37z" />
    <glyph glyph-name="uacute" unicode="&#xfa;" horiz-adv-x="601" 
d="M238 -11c-31.333 0 -56.5 4.33105 -75.5 12.998s-33.667 20.334 -44 35.001s-17.333 31.334 -21 50.001s-5.5 38 -5.5 58v267h-70v77h177v-326c0 -14 0.666992 -26.333 2 -37s4.5 -19.667 9.5 -27s12.167 -12.833 21.5 -16.5s22 -5.5 38 -5.5s36.167 4 60.5 12
s47.5 22.333 69.5 43v280h-63v77h170v-413h69v-63c-18.667 -7.33301 -36.667 -12.333 -54 -15s-31.666 -4 -42.999 -4c-24.667 0 -42.834 4.5 -54.501 13.5s-18.834 25.5 -21.501 49.5c-30 -27.333 -59.667 -45.5 -89 -54.5s-54.666 -13.5 -75.999 -13.5zM263 533.998
l-40 37l133 165l64 -63z" />
    <glyph glyph-name="ucircumflex" unicode="&#xfb;" horiz-adv-x="601" 
d="M238 -11c-31.333 0 -56.5 4.33105 -75.5 12.998s-33.667 20.334 -44 35.001s-17.333 31.334 -21 50.001s-5.5 38 -5.5 58v267h-70v77h177v-326c0 -14 0.666992 -26.333 2 -37s4.5 -19.667 9.5 -27s12.167 -12.833 21.5 -16.5s22 -5.5 38 -5.5s36.167 4 60.5 12
s47.5 22.333 69.5 43v280h-63v77h170v-413h69v-63c-18.667 -7.33301 -36.667 -12.333 -54 -15s-31.666 -4 -42.999 -4c-24.667 0 -42.834 4.5 -54.501 13.5s-18.834 25.5 -21.501 49.5c-30 -27.333 -59.667 -45.5 -89 -54.5s-54.666 -13.5 -75.999 -13.5zM449 530.998
l-159 100l-158 -100l-28 33l152 146h69l153 -145z" />
    <glyph glyph-name="udieresis" unicode="&#xfc;" horiz-adv-x="601" 
d="M238 -11c-31.333 0 -56.5 4.33105 -75.5 12.998s-33.667 20.334 -44 35.001s-17.333 31.334 -21 50.001s-5.5 38 -5.5 58v267h-70v77h177v-326c0 -14 0.666992 -26.333 2 -37s4.5 -19.667 9.5 -27s12.167 -12.833 21.5 -16.5s22 -5.5 38 -5.5s36.167 4 60.5 12
s47.5 22.333 69.5 43v280h-63v77h170v-413h69v-63c-18.667 -7.33301 -36.667 -12.333 -54 -15s-31.666 -4 -42.999 -4c-24.667 0 -42.834 4.5 -54.501 13.5s-18.834 25.5 -21.501 49.5c-30 -27.333 -59.667 -45.5 -89 -54.5s-54.666 -13.5 -75.999 -13.5zM437 604.998
c0 -14 -5.16699 -25.833 -15.5 -35.5s-23.166 -14.5 -38.499 -14.5c-14 0 -25.667 4.83301 -35 14.5s-14 21.5 -14 35.5s4.83301 25.833 14.5 35.5s21.167 14.5 34.5 14.5c15.333 0 28.166 -4.66699 38.499 -14s15.5 -21.333 15.5 -36zM244 604.998
c0 -14 -4.83203 -25.833 -14.499 -35.5s-22.167 -14.5 -37.5 -14.5c-14.667 0 -26.834 4.83301 -36.501 14.5s-14.5 21.5 -14.5 35.5s5 25.833 15 35.5s21.667 14.5 35 14.5c15.333 0 28 -4.66699 38 -14s15 -21.333 15 -36z" />
    <glyph glyph-name="yacute" unicode="&#xfd;" horiz-adv-x="561" 
d="M277 70c1.33301 4.66699 4.83496 15.498 10.502 32.498l19.5 60l24 74l24.5 75l20.5 63c6 18.333 10.333 30.833 13 37.5h-59v77h208v-77h-49l-178 -518c-6.66699 -17.333 -13.834 -32.666 -21.501 -45.999s-16.834 -24.5 -27.501 -33.5s-23.5 -16 -38.5 -21
s-33.5 -7.5 -55.5 -7.5c-7.33301 0 -21.333 0.833008 -42 2.5s-44.667 6.83398 -72 15.501l16 84c14.667 -3.33301 28.667 -5.83301 42 -7.5s25.666 -2.5 36.999 -2.5c16 0 28.5 2 37.5 6s16.5 10.833 22.5 20.5s12 22.667 18 39l24 62.5h-53l-65.5 201.5l-65.5 202.5h-50
v79h129c2.66699 -8 7.33398 -23.167 14.001 -45.5l23.5 -78l28.5 -93.5l27.5 -91.5l21.5 -73l11 -37.5h5zM266.002 533.998l-40 37l133 165l64 -63z" />
    <glyph glyph-name="thorn" unicode="&#xfe;" horiz-adv-x="568" 
d="M11 -137l72.998 -0.000976562v750h-75v73h180v-242l1 -1c20 16 43.5 28.667 70.5 38s52.5 14 76.5 14c36 0 66.333 -6.5 91 -19.5s44.334 -30.5 59.001 -52.5s25.167 -47.667 31.5 -77s9.5 -60.333 9.5 -93c0 -38 -3.66699 -73 -11 -105s-19 -59.667 -35 -83
s-36.833 -41.666 -62.5 -54.999s-57.167 -20 -94.5 -20c-9.33301 0 -19.666 0.666992 -30.999 2s-23 3.33301 -35 6s-23.833 6 -35.5 10s-22.5 9 -32.5 15v-160h78v-71h-258v71zM190.998 100.999c5.33301 -4 12.333 -7.83496 21 -11.502s18.167 -7 28.5 -10s21 -5.5 32 -7.5
s21.5 -3 31.5 -3c15.333 0 30 2.83301 44 8.5s26.333 15.667 37 30s19.167 33.333 25.5 57s9.5 53.5 9.5 89.5c0 32 -2.83301 58.333 -8.5 79s-13.5 37.167 -23.5 49.5s-21.833 21 -35.5 26s-28.5 7.5 -44.5 7.5c-9.33301 0 -19.5 -1.33301 -30.5 -4s-22 -6.16699 -33 -10.5
s-21.167 -9.16602 -30.5 -14.499s-17 -10.666 -23 -15.999v-270z" />
    <glyph glyph-name="ydieresis" unicode="&#xff;" horiz-adv-x="561" 
d="M277 70c1.33301 4.66699 4.83496 15.498 10.502 32.498l19.5 60l24 74l24.5 75l20.5 63c6 18.333 10.333 30.833 13 37.5h-59v77h208v-77h-49l-178 -518c-6.66699 -17.333 -13.834 -32.666 -21.501 -45.999s-16.834 -24.5 -27.501 -33.5s-23.5 -16 -38.5 -21
s-33.5 -7.5 -55.5 -7.5c-7.33301 0 -21.333 0.833008 -42 2.5s-44.667 6.83398 -72 15.501l16 84c14.667 -3.33301 28.667 -5.83301 42 -7.5s25.666 -2.5 36.999 -2.5c16 0 28.5 2 37.5 6s16.5 10.833 22.5 20.5s12 22.667 18 39l24 62.5h-53l-65.5 201.5l-65.5 202.5h-50
v79h129c2.66699 -8 7.33398 -23.167 14.001 -45.5l23.5 -78l28.5 -93.5l27.5 -91.5l21.5 -73l11 -37.5h5zM419.002 604.998c0 -14 -5.16699 -25.833 -15.5 -35.5s-23.166 -14.5 -38.499 -14.5c-14 0 -25.667 4.83301 -35 14.5s-14 21.5 -14 35.5s4.83301 25.833 14.5 35.5
s21.167 14.5 34.5 14.5c15.333 0 28.166 -4.66699 38.499 -14s15.5 -21.333 15.5 -36zM226.002 604.998c0 -14 -4.83203 -25.833 -14.499 -35.5s-22.167 -14.5 -37.5 -14.5c-14.667 0 -26.834 4.83301 -36.501 14.5s-14.5 21.5 -14.5 35.5s5 25.833 15 35.5
s21.667 14.5 35 14.5c15.333 0 28 -4.66699 38 -14s15 -21.333 15 -36z" />
    <glyph glyph-name="Amacron" unicode="&#x100;" horiz-adv-x="697" 
d="M510 76l-18 57.5l-18 55.5h-257l-17 -53l-18 -60h68v-76h-230v76h56l207 610h137l101 -305l101 -305h56v-76h-234v76h66zM451 265l-41 134.5l-43 134.5c-2.66699 10 -5.5 20 -8.5 30s-6.16699 20 -9.5 30h-2l-19 -61l-20 -61.5l-23 -71l-23 -72l-19 -63.5h208zM186 823
h338v-76h-338v76z" />
    <glyph glyph-name="amacron" unicode="&#x101;" horiz-adv-x="537" 
d="M230 220c-28 -2 -49.334 -10.166 -64.001 -24.499s-22 -31.833 -22 -52.5c0 -26 6.33301 -45.167 19 -57.5s33.334 -18.5 62.001 -18.5c18 0 37.5 4.66699 58.5 14s39.5 21.666 55.5 36.999v110zM441.999 75.001l75.9951 -0.000976562l6 -60
c-6.66699 -4 -15 -7.33301 -25 -10s-20.333 -4.83398 -31 -6.50098s-21 -2.83398 -31 -3.50098s-18.333 -1 -25 -1c-19.333 0 -35.166 3.66699 -47.499 11s-18.833 24 -19.5 50c-0.666992 0 -1 0.166992 -1 0.5s-0.333008 0.5 -1 0.5c-18 -16 -35.333 -28.333 -52 -37
s-32.167 -15.167 -46.5 -19.5s-27.166 -6.83301 -38.499 -7.5s-20.666 -1 -27.999 -1c-29.333 0 -53.333 4.66699 -72 14s-33.5 21 -44.5 35s-18.5 29.333 -22.5 46s-6 32 -6 46c0 20 3.5 38.333 10.5 55s18.167 31.334 33.5 44.001s35 23.167 59 31.5s53 13.5 87 15.5
l118 8v29c0 36.667 -7 62.667 -21 78s-39.667 23 -77 23c-24 0 -49.167 -2.33301 -75.5 -7s-51.166 -11 -74.499 -19l-10 34l-10 34c28 12.667 59.5 22.334 94.5 29.001s68.5 10 100.5 10c54.667 0 97.334 -12.167 128.001 -36.5s46 -67.166 46 -128.499v-257zM83.9941 664
h344v-76h-344v76z" />
    <glyph glyph-name="Abreve" unicode="&#x102;" horiz-adv-x="697" 
d="M510 76l-18 57.5l-18 55.5h-257l-17 -53l-18 -60h68v-76h-230v76h56l207 610h137l101 -305l101 -305h56v-76h-234v76h66zM451 265l-41 134.5l-43 134.5c-2.66699 10 -5.5 20 -8.5 30s-6.16699 20 -9.5 30h-2l-19 -61l-20 -61.5l-23 -71l-23 -72l-19 -63.5h208zM347 733
c-18.667 0 -35.999 3.33398 -51.999 10.001s-31 15.5 -45 26.5s-27.167 23.667 -39.5 38s-23.833 29.166 -34.5 44.499l52 38c19.333 -26 39.833 -46.667 61.5 -62s42.167 -23 61.5 -23c6 0 13.333 0.666992 22 2s19 4.5 31 9.5s25.667 12.833 41 23.5
s32.666 25.334 51.999 44.001l32 -31c-30 -44.667 -60.833 -75.834 -92.5 -93.501s-61.5 -26.5 -89.5 -26.5z" />
    <glyph glyph-name="abreve" unicode="&#x103;" horiz-adv-x="537" 
d="M230 220c-28 -2 -49.334 -10.166 -64.001 -24.499s-22 -31.833 -22 -52.5c0 -26 6.33301 -45.167 19 -57.5s33.334 -18.5 62.001 -18.5c18 0 37.5 4.66699 58.5 14s39.5 21.666 55.5 36.999v110zM441.999 75.001l75.9951 -0.000976562l6 -60
c-6.66699 -4 -15 -7.33301 -25 -10s-20.333 -4.83398 -31 -6.50098s-21 -2.83398 -31 -3.50098s-18.333 -1 -25 -1c-19.333 0 -35.166 3.66699 -47.499 11s-18.833 24 -19.5 50c-0.666992 0 -1 0.166992 -1 0.5s-0.333008 0.5 -1 0.5c-18 -16 -35.333 -28.333 -52 -37
s-32.167 -15.167 -46.5 -19.5s-27.166 -6.83301 -38.499 -7.5s-20.666 -1 -27.999 -1c-29.333 0 -53.333 4.66699 -72 14s-33.5 21 -44.5 35s-18.5 29.333 -22.5 46s-6 32 -6 46c0 20 3.5 38.333 10.5 55s18.167 31.334 33.5 44.001s35 23.167 59 31.5s53 13.5 87 15.5
l118 8v29c0 36.667 -7 62.667 -21 78s-39.667 23 -77 23c-24 0 -49.167 -2.33301 -75.5 -7s-51.166 -11 -74.499 -19l-10 34l-10 34c28 12.667 59.5 22.334 94.5 29.001s68.5 10 100.5 10c54.667 0 97.334 -12.167 128.001 -36.5s46 -67.166 46 -128.499v-257zM260.994 551
c-18 0 -35.167 3.33398 -51.5 10.001s-31.5 15.5 -45.5 26.5s-27.167 23.667 -39.5 38s-23.833 29.166 -34.5 44.499l52 39c19.333 -27.333 39.833 -48.333 61.5 -63s41.834 -22 60.501 -22c6 0 13.5 0.5 22.5 1.5s19.5 4 31.5 9s25.667 12.667 41 23
s32.666 25.166 51.999 44.499l32 -31c-30 -45.333 -60.833 -76.666 -92.5 -93.999s-61.5 -26 -89.5 -26z" />
    <glyph glyph-name="Aogonek" unicode="&#x104;" horiz-adv-x="697" 
d="M510 76l-17.999 57.498l-18 55.5h-257l-17 -53l-18 -60h68v-76h-230v76h56l207 610h137l101 -305l101 -305h56v-76h-69c-14 -18 -25.333 -37.333 -34 -58s-13 -38.667 -13 -54c0 -19.333 5.16699 -32.5 15.5 -39.5s24.166 -10.5 41.499 -10.5
c13.333 0 26.666 1.33301 39.999 4s24.666 5.33398 33.999 8.00098l8 -37c-17.333 -9.33301 -35.666 -16.333 -54.999 -21s-38.666 -7 -57.999 -7c-32.667 0 -57.5 6.83301 -74.5 20.5s-25.5 32.167 -25.5 55.5c0 8.66699 1 18.334 3 29.001s5.66699 22 11 34
s12.5 24.333 21.5 37s20.833 25.667 35.5 39h-115v76h66zM451.001 264.998l-41 134.5l-43 134.5c-2.66699 10 -5.5 20 -8.5 30s-6.16699 20 -9.5 30h-2l-19 -61l-20 -61.5l-23 -71l-23 -72l-19 -63.5h208z" />
    <glyph glyph-name="aogonek" unicode="&#x105;" horiz-adv-x="537" 
d="M442 75l75.9971 -0.00390625l6 -60c-10 -5.33301 -22.833 -9.5 -38.5 -12.5s-30.834 -5.16699 -45.501 -6.5c-12 -17.333 -21.667 -35.5 -29 -54.5s-11 -35.5 -11 -49.5c0 -19.333 5.16699 -32.5 15.5 -39.5s24.166 -10.5 41.499 -10.5c13.333 0 26.666 1.33301 39.999 4
s24.666 5.33398 33.999 8.00098l8 -37c-17.333 -9.33301 -35.666 -16.333 -54.999 -21s-38.666 -7 -57.999 -7c-32.667 0 -57.5 6.83301 -74.5 20.5s-25.5 32.167 -25.5 55.5c0 16 4 35.667 12 59s24.667 47.333 50 72c-13.333 2 -23.666 7.16699 -30.999 15.5
s-11.333 22.833 -12 43.5c-0.666992 0 -1 0.166992 -1 0.5s-0.333008 0.5 -1 0.5c-18 -16 -35.333 -28.333 -52 -37s-32.167 -15.167 -46.5 -19.5s-27.166 -6.83301 -38.499 -7.5s-20.666 -1 -27.999 -1c-29.333 0 -53.333 4.66699 -72 14s-33.5 21 -44.5 35
s-18.5 29.333 -22.5 46s-6 32 -6 46c0 20 3.5 38.333 10.5 55s18.167 31.334 33.5 44.001s35 23.167 59 31.5s53 13.5 87 15.5l118 8v29c0 36.667 -7 62.667 -21 78s-39.667 23 -77 23c-24 0 -49.167 -2.33301 -75.5 -7s-51.166 -11 -74.499 -19l-10 34l-10 34
c28 12.667 59.5 22.334 94.5 29.001s68.5 10 100.5 10c54.667 0 97.334 -12.167 128.001 -36.5s46 -67.166 46 -128.499v-257zM229.997 219.996c-28 -2 -49.334 -10.166 -64.001 -24.499s-22 -31.833 -22 -52.5c0 -26 6.33301 -45.167 19 -57.5s33.334 -18.5 62.001 -18.5
c18 0 37.5 4.66699 58.5 14s39.5 21.666 55.5 36.999v110z" />
    <glyph glyph-name="Cacute" unicode="&#x106;" horiz-adv-x="593" 
d="M165 341c0 -40 3.33398 -76 10.001 -108s18.167 -59.333 34.5 -82s38.333 -40 66 -52s62.5 -18 104.5 -18c8.66699 0 19.5 0.333008 32.5 1s26.833 2 41.5 4s29.667 4.33301 45 7s29.666 6 42.999 10l18 -78c-13.333 -5.33301 -28.166 -10 -44.499 -14
s-33.5 -7.5 -51.5 -10.5s-36.167 -5.33301 -54.5 -7s-35.833 -2.5 -52.5 -2.5c-58 0 -106.667 8.83301 -146 26.5s-70.833 42 -94.5 73s-40.667 67.833 -51 110.5s-15.5 89 -15.5 139c0 38 4.5 78.167 13.5 120.5s25.167 81 48.5 116s55.333 64 96 87s92.667 34.5 156 34.5
c37.333 0 70.666 -2.66699 99.999 -8s55.333 -12 78 -20v-174h-80v105c-15.333 4 -31.333 6.83301 -48 8.5s-32.334 2.5 -47.001 2.5c-36 0 -66.667 -6.5 -92 -19.5s-46.166 -31.333 -62.499 -55s-28.333 -52.167 -36 -85.5s-11.5 -70.333 -11.5 -111zM351.001 732l-40 38
l134 164l64 -63z" />
    <glyph glyph-name="cacute" unicode="&#x107;" horiz-adv-x="471" 
d="M272 500c27.333 0 53.668 -2.16797 79.001 -6.50098s48.666 -10.833 69.999 -19.5v-137h-76v71c-6 1.33301 -13.167 2.5 -21.5 3.5s-15.5 1.5 -21.5 1.5c-54.667 0 -94.167 -13.5 -118.5 -40.5s-36.5 -70.833 -36.5 -131.5c0 -57.333 11.167 -99.666 33.5 -126.999
s55.166 -41 98.499 -41c24.667 0 48.334 2.33301 71.001 7s45.667 11.667 69 21l23 -70c-22.667 -12.667 -49.5 -22.334 -80.5 -29.001s-62.833 -10 -95.5 -10c-44 0 -80.5 6.33301 -109.5 19s-52.167 30.167 -69.5 52.5s-29.5 48.5 -36.5 78.5s-10.5 62.333 -10.5 97
c0 26.667 3 55.334 9 86.001s17.5 59 34.5 85s40.667 47.5 71 64.5s69.5 25.5 117.5 25.5zM233.002 533.999l-40 37l133 165l64 -63z" />
    <glyph glyph-name="Ccircumflex" unicode="&#x108;" horiz-adv-x="593" 
d="M165 341c0 -40 3.33398 -76 10.001 -108s18.167 -59.333 34.5 -82s38.333 -40 66 -52s62.5 -18 104.5 -18c8.66699 0 19.5 0.333008 32.5 1s26.833 2 41.5 4s29.667 4.33301 45 7s29.666 6 42.999 10l18 -78c-13.333 -5.33301 -28.166 -10 -44.499 -14
s-33.5 -7.5 -51.5 -10.5s-36.167 -5.33301 -54.5 -7s-35.833 -2.5 -52.5 -2.5c-58 0 -106.667 8.83301 -146 26.5s-70.833 42 -94.5 73s-40.667 67.833 -51 110.5s-15.5 89 -15.5 139c0 38 4.5 78.167 13.5 120.5s25.167 81 48.5 116s55.333 64 96 87s92.667 34.5 156 34.5
c37.333 0 70.666 -2.66699 99.999 -8s55.333 -12 78 -20v-174h-80v105c-15.333 4 -31.333 6.83301 -48 8.5s-32.334 2.5 -47.001 2.5c-36 0 -66.667 -6.5 -92 -19.5s-46.166 -31.333 -62.499 -55s-28.333 -52.167 -36 -85.5s-11.5 -70.333 -11.5 -111zM505.001 733l-159 99
l-158 -100l-27 33l151 142h69l154 -140z" />
    <glyph glyph-name="ccircumflex" unicode="&#x109;" horiz-adv-x="471" 
d="M272 500c27.333 0 53.668 -2.16797 79.001 -6.50098s48.666 -10.833 69.999 -19.5v-137h-76v71c-6 1.33301 -13.167 2.5 -21.5 3.5s-15.5 1.5 -21.5 1.5c-54.667 0 -94.167 -13.5 -118.5 -40.5s-36.5 -70.833 -36.5 -131.5c0 -57.333 11.167 -99.666 33.5 -126.999
s55.166 -41 98.499 -41c24.667 0 48.334 2.33301 71.001 7s45.667 11.667 69 21l23 -70c-22.667 -12.667 -49.5 -22.334 -80.5 -29.001s-62.833 -10 -95.5 -10c-44 0 -80.5 6.33301 -109.5 19s-52.167 30.167 -69.5 52.5s-29.5 48.5 -36.5 78.5s-10.5 62.333 -10.5 97
c0 26.667 3 55.334 9 86.001s17.5 59 34.5 85s40.667 47.5 71 64.5s69.5 25.5 117.5 25.5zM420.002 530.999l-159 100l-158 -100l-28 33l152 146h69l153 -145z" />
    <glyph glyph-name="Cdotaccent" unicode="&#x10a;" horiz-adv-x="593" 
d="M165 341c0 -40 3.33398 -76 10.001 -108s18.167 -59.333 34.5 -82s38.333 -40 66 -52s62.5 -18 104.5 -18c8.66699 0 19.5 0.333008 32.5 1s26.833 2 41.5 4s29.667 4.33301 45 7s29.666 6 42.999 10l18 -78c-13.333 -5.33301 -28.166 -10 -44.499 -14
s-33.5 -7.5 -51.5 -10.5s-36.167 -5.33301 -54.5 -7s-35.833 -2.5 -52.5 -2.5c-58 0 -106.667 8.83301 -146 26.5s-70.833 42 -94.5 73s-40.667 67.833 -51 110.5s-15.5 89 -15.5 139c0 38 4.5 78.167 13.5 120.5s25.167 81 48.5 116s55.333 64 96 87s92.667 34.5 156 34.5
c37.333 0 70.666 -2.66699 99.999 -8s55.333 -12 78 -20v-174h-80v105c-15.333 4 -31.333 6.83301 -48 8.5s-32.334 2.5 -47.001 2.5c-36 0 -66.667 -6.5 -92 -19.5s-46.166 -31.333 -62.499 -55s-28.333 -52.167 -36 -85.5s-11.5 -70.333 -11.5 -111zM417.001 827
c0 -19.333 -6.83301 -35.5 -20.5 -48.5s-29.834 -19.5 -48.501 -19.5c-19.333 0 -35.5 6.5 -48.5 19.5s-19.5 29.167 -19.5 48.5s6.5 35.666 19.5 48.999s29.167 20 48.5 20c18.667 0 34.834 -6.66699 48.501 -20s20.5 -29.666 20.5 -48.999z" />
    <glyph glyph-name="cdotaccent" unicode="&#x10b;" horiz-adv-x="471" 
d="M272 500c27.333 0 53.668 -2.16797 79.001 -6.50098s48.666 -10.833 69.999 -19.5v-137h-76v71c-6 1.33301 -13.167 2.5 -21.5 3.5s-15.5 1.5 -21.5 1.5c-54.667 0 -94.167 -13.5 -118.5 -40.5s-36.5 -70.833 -36.5 -131.5c0 -57.333 11.167 -99.666 33.5 -126.999
s55.166 -41 98.499 -41c24.667 0 48.334 2.33301 71.001 7s45.667 11.667 69 21l23 -70c-22.667 -12.667 -49.5 -22.334 -80.5 -29.001s-62.833 -10 -95.5 -10c-44 0 -80.5 6.33301 -109.5 19s-52.167 30.167 -69.5 52.5s-29.5 48.5 -36.5 78.5s-10.5 62.333 -10.5 97
c0 26.667 3 55.334 9 86.001s17.5 59 34.5 85s40.667 47.5 71 64.5s69.5 25.5 117.5 25.5zM331.002 627.999c0 -18.667 -6 -34.334 -18 -47.001s-26.333 -19 -43 -19c-17.333 0 -31.833 6.33301 -43.5 19s-17.5 28.334 -17.5 47.001s5.83301 34.334 17.5 47.001
s26.167 19 43.5 19c16.667 0 31 -6.33301 43 -19s18 -28.334 18 -47.001z" />
    <glyph glyph-name="Ccaron" unicode="&#x10c;" horiz-adv-x="593" 
d="M165 341c0 -40 3.33398 -76 10.001 -108s18.167 -59.333 34.5 -82s38.333 -40 66 -52s62.5 -18 104.5 -18c8.66699 0 19.5 0.333008 32.5 1s26.833 2 41.5 4s29.667 4.33301 45 7s29.666 6 42.999 10l18 -78c-13.333 -5.33301 -28.166 -10 -44.499 -14
s-33.5 -7.5 -51.5 -10.5s-36.167 -5.33301 -54.5 -7s-35.833 -2.5 -52.5 -2.5c-58 0 -106.667 8.83301 -146 26.5s-70.833 42 -94.5 73s-40.667 67.833 -51 110.5s-15.5 89 -15.5 139c0 38 4.5 78.167 13.5 120.5s25.167 81 48.5 116s55.333 64 96 87s92.667 34.5 156 34.5
c37.333 0 70.666 -2.66699 99.999 -8s55.333 -12 78 -20v-174h-80v105c-15.333 4 -31.333 6.83301 -48 8.5s-32.334 2.5 -47.001 2.5c-36 0 -66.667 -6.5 -92 -19.5s-46.166 -31.333 -62.499 -55s-28.333 -52.167 -36 -85.5s-11.5 -70.333 -11.5 -111zM535.001 877
l-154 -139h-68l-152 141l27 32l159 -100l159 101z" />
    <glyph glyph-name="ccaron" unicode="&#x10d;" horiz-adv-x="471" 
d="M272 500c27.333 0 53.668 -2.16797 79.001 -6.50098s48.666 -10.833 69.999 -19.5v-137h-76v71c-6 1.33301 -13.167 2.5 -21.5 3.5s-15.5 1.5 -21.5 1.5c-54.667 0 -94.167 -13.5 -118.5 -40.5s-36.5 -70.833 -36.5 -131.5c0 -57.333 11.167 -99.666 33.5 -126.999
s55.166 -41 98.499 -41c24.667 0 48.334 2.33301 71.001 7s45.667 11.667 69 21l23 -70c-22.667 -12.667 -49.5 -22.334 -80.5 -29.001s-62.833 -10 -95.5 -10c-44 0 -80.5 6.33301 -109.5 19s-52.167 30.167 -69.5 52.5s-29.5 48.5 -36.5 78.5s-10.5 62.333 -10.5 97
c0 26.667 3 55.334 9 86.001s17.5 59 34.5 85s40.667 47.5 71 64.5s69.5 25.5 117.5 25.5zM459.002 688.999l-153 -144h-69l-152 146l28 33l158 -100l160 99z" />
    <glyph glyph-name="Dcaron" unicode="&#x10e;" horiz-adv-x="692" 
d="M42 0l-0.000976562 77.001h70v530h-66v79h304c58 0 105.833 -9.16699 143.5 -27.5s67.5 -43.166 89.5 -74.499s37.333 -67.5 46 -108.5s13 -84.5 13 -130.5c0 -46.667 -4.83301 -90.834 -14.5 -132.501s-26 -78.334 -49 -110.001s-53.667 -56.667 -92 -75
s-86.166 -27.5 -143.499 -27.5h-301zM223.999 607.001l0.000976562 -529.999h106c16.667 0 36.334 2.5 59.001 7.5s44.167 16.5 64.5 34.5s37.666 44.333 51.999 79s21.5 81.667 21.5 141c0 60 -6.5 107.833 -19.5 143.5s-29.167 62.667 -48.5 81s-40.333 30.166 -63 35.499
s-43.334 8 -62.001 8h-110zM492 877.002l-154 -139h-68l-152 141l27 32l159 -100l159 101z" />
    <glyph glyph-name="dcaron" unicode="&#x10f;" horiz-adv-x="697" 
d="M558 686c0 15.333 5.83301 28.5 17.5 39.5s26.167 16.5 43.5 16.5c20 0 35.5 -6.66699 46.5 -20s16.167 -29.333 15.5 -48c-0.666992 -28 -9.5 -54 -26.5 -78s-39.5 -42.667 -67.5 -56l-25 31c23.333 20 35.333 41.333 36 64c-13.333 3.33301 -23.333 9.33301 -30 18
s-10 19.667 -10 33zM381 45c-20.667 -16.667 -44.832 -29.667 -72.499 -39s-53.5 -14 -77.5 -14c-36 0 -66.333 6.5 -91 19.5s-44.334 30.5 -59.001 52.5s-25.167 47.667 -31.5 77s-9.5 60.666 -9.5 93.999c0 38 3.66699 73.167 11 105.5s19 60.333 35 84
s36.833 42.334 62.5 56.001s57.167 20.5 94.5 20.5c18 0 39.167 -2.16699 63.5 -6.5s47.833 -12.5 70.5 -24.5v167h-78v76h185v-638h73v-75h-174v44zM264.002 419c-15.333 0 -29.999 -2.66602 -43.999 -7.99902s-26.333 -14.833 -37 -28.5s-19.167 -32.334 -25.5 -56.001
s-9.5 -53.834 -9.5 -90.501c0 -32 2.83301 -58.5 8.5 -79.5s13.5 -37.667 23.5 -50s21.833 -21 35.5 -26s28.5 -7.5 44.5 -7.5c21.333 0 43.166 4.83301 65.499 14.5s39.5 19.834 51.5 30.501v269c-5.33301 4 -12.333 7.83301 -21 11.5s-18.167 7 -28.5 10s-21 5.5 -32 7.5
s-21.5 3 -31.5 3z" />
    <glyph glyph-name="Dcroat" unicode="&#x110;" horiz-adv-x="692" 
d="M42 0l-0.000976562 75.001h70v262h-66v55h66v219h-66v75h304c58 0 105.833 -9.16699 143.5 -27.5s67.5 -43.166 89.5 -74.499s37.333 -67.5 46 -108.5s13 -84.5 13 -130.5c0 -46.667 -4.83301 -90.834 -14.5 -132.501s-26 -78.334 -49 -110.001s-53.667 -56.667 -92 -75
s-86.166 -27.5 -143.499 -27.5h-301zM223.999 611.001l0.000976562 -219h133v-55h-133v-261h106c16.667 0 36.334 2.66699 59.001 8s44.167 17 64.5 35s37.666 44.333 51.999 79s21.5 81.667 21.5 141c0 60 -6.5 108 -19.5 144s-29.167 63.5 -48.5 82.5
s-40.333 31.333 -63 37s-43.334 8.5 -62.001 8.5h-110z" />
    <glyph glyph-name="dcroat" unicode="&#x111;" horiz-adv-x="572" 
d="M379 46c-20 -16.667 -43.667 -29.834 -71 -39.501s-53 -14.5 -77 -14.5c-36 0 -66.333 6.33301 -91 19s-44.334 29.834 -59.001 51.501s-25.167 47 -31.5 76s-9.5 60.167 -9.5 93.5c0 36.667 3.66699 70.5 11 101.5s19 57.667 35 80s36.833 39.833 62.5 52.5
s57.167 19 94.5 19c8.66699 0 18.834 -0.666992 30.501 -2s23.5 -3.5 35.5 -6.5s23.833 -6.66699 35.5 -11s22.5 -9.5 32.5 -15.5v80h-141v49h141v65h-78v69h185v-134h71v-49h-71v-458h73v-72h-176v43zM264 406c-15.333 0 -30.001 -2.49902 -44.001 -7.49902
s-26.333 -14 -37 -27s-19.167 -30.667 -25.5 -53s-9.5 -50.833 -9.5 -85.5c0 -32 2.83301 -58.5 8.5 -79.5s13.5 -37.5 23.5 -49.5s21.833 -20.333 35.5 -25s28.5 -7 44.5 -7c8.66699 0 18.667 1.33301 30 4s22.333 6 33 10s20.834 8.66699 30.501 14
s17.5 10.666 23.5 15.999v257c-5.33301 4 -12.333 8 -21 12s-18.167 7.5 -28.5 10.5s-21 5.5 -32 7.5s-21.5 3 -31.5 3z" />
    <glyph glyph-name="Emacron" unicode="&#x112;" horiz-adv-x="607" 
d="M42 0v78h68v530h-66v77h519v-179h-81v102h-262v-215l243 5v-79l-243 4v-245h275v105h82v-183h-535zM164 823h338v-76h-338v76z" />
    <glyph glyph-name="emacron" unicode="&#x113;" horiz-adv-x="505" 
d="M264 422c-19.333 0 -36 -3.83301 -50 -11.5s-25.5 -17.667 -34.5 -30s-16 -26.333 -21 -42s-7.83301 -31.5 -8.5 -47.5h218c-0.666992 18 -2.66699 34.833 -6 50.5s-9 29.5 -17 41.5s-18.5 21.5 -31.5 28.5s-29.5 10.5 -49.5 10.5zM265 500
c47.333 0 84.5 -8.83105 111.5 -26.498s47.333 -39 61 -64s22.167 -50.833 25.5 -77.5s5 -49 5 -67v-48h-320c0 -22 2 -42 6 -60s11 -33.333 21 -46s23.5 -22.5 40.5 -29.5s38.167 -10.5 63.5 -10.5c28 0 53.667 2.66699 77 8s48.333 13.666 75 24.999l27 -67
c-30.667 -16 -62.167 -27.667 -94.5 -35s-64.833 -11 -97.5 -11c-46 0 -83.5 7 -112.5 21s-52 32.667 -69 56s-28.667 50.166 -35 80.499s-9.5 61.833 -9.5 94.5c0 24 3 50.833 9 80.5s17.333 57.667 34 84s39.667 48.333 69 66s67 26.5 113 26.5zM96 664.002h344v-76h-344
v76z" />
    <glyph glyph-name="Ebreve" unicode="&#x114;" horiz-adv-x="607" 
d="M42 0v78h68v530h-66v77h519v-179h-81v102h-262v-215l243 5v-79l-243 4v-245h275v105h82v-183h-535zM325 733c-18.667 0 -35.999 3.33398 -51.999 10.001s-31 15.5 -45 26.5s-27.167 23.667 -39.5 38s-23.833 29.166 -34.5 44.499l52 38
c19.333 -26 39.833 -46.667 61.5 -62s42.167 -23 61.5 -23c6 0 13.333 0.666992 22 2s19 4.5 31 9.5s25.667 12.833 41 23.5s32.666 25.334 51.999 44.001l32 -31c-30 -44.667 -60.833 -75.834 -92.5 -93.501s-61.5 -26.5 -89.5 -26.5z" />
    <glyph glyph-name="ebreve" unicode="&#x115;" horiz-adv-x="505" 
d="M264 422c-19.333 0 -36 -3.83301 -50 -11.5s-25.5 -17.667 -34.5 -30s-16 -26.333 -21 -42s-7.83301 -31.5 -8.5 -47.5h218c-0.666992 18 -2.66699 34.833 -6 50.5s-9 29.5 -17 41.5s-18.5 21.5 -31.5 28.5s-29.5 10.5 -49.5 10.5zM265 500
c47.333 0 84.5 -8.83105 111.5 -26.498s47.333 -39 61 -64s22.167 -50.833 25.5 -77.5s5 -49 5 -67v-48h-320c0 -22 2 -42 6 -60s11 -33.333 21 -46s23.5 -22.5 40.5 -29.5s38.167 -10.5 63.5 -10.5c28 0 53.667 2.66699 77 8s48.333 13.666 75 24.999l27 -67
c-30.667 -16 -62.167 -27.667 -94.5 -35s-64.833 -11 -97.5 -11c-46 0 -83.5 7 -112.5 21s-52 32.667 -69 56s-28.667 50.166 -35 80.499s-9.5 61.833 -9.5 94.5c0 24 3 50.833 9 80.5s17.333 57.667 34 84s39.667 48.333 69 66s67 26.5 113 26.5zM261 551.002
c-18 0 -35.167 3.33398 -51.5 10.001s-31.5 15.5 -45.5 26.5s-27.167 23.667 -39.5 38s-23.833 29.166 -34.5 44.499l52 39c19.333 -27.333 39.833 -48.333 61.5 -63s41.834 -22 60.501 -22c6 0 13.5 0.5 22.5 1.5s19.5 4 31.5 9s25.667 12.667 41 23
s32.666 25.166 51.999 44.499l32 -31c-30 -45.333 -60.833 -76.666 -92.5 -93.999s-61.5 -26 -89.5 -26z" />
    <glyph glyph-name="Edotaccent" unicode="&#x116;" horiz-adv-x="607" 
d="M42 0v78h68v530h-66v77h519v-179h-81v102h-262v-215l243 5v-79l-243 4v-245h275v105h82v-183h-535zM393 821c0 -19.333 -6.83301 -35.5 -20.5 -48.5s-29.834 -19.5 -48.501 -19.5c-19.333 0 -35.5 6.5 -48.5 19.5s-19.5 29.167 -19.5 48.5s6.5 35.666 19.5 48.999
s29.167 20 48.5 20c18.667 0 34.834 -6.66699 48.501 -20s20.5 -29.666 20.5 -48.999z" />
    <glyph glyph-name="edotaccent" unicode="&#x117;" horiz-adv-x="505" 
d="M264 422c-19.333 0 -36 -3.83301 -50 -11.5s-25.5 -17.667 -34.5 -30s-16 -26.333 -21 -42s-7.83301 -31.5 -8.5 -47.5h218c-0.666992 18 -2.66699 34.833 -6 50.5s-9 29.5 -17 41.5s-18.5 21.5 -31.5 28.5s-29.5 10.5 -49.5 10.5zM265 500
c47.333 0 84.5 -8.83105 111.5 -26.498s47.333 -39 61 -64s22.167 -50.833 25.5 -77.5s5 -49 5 -67v-48h-320c0 -22 2 -42 6 -60s11 -33.333 21 -46s23.5 -22.5 40.5 -29.5s38.167 -10.5 63.5 -10.5c28 0 53.667 2.66699 77 8s48.333 13.666 75 24.999l27 -67
c-30.667 -16 -62.167 -27.667 -94.5 -35s-64.833 -11 -97.5 -11c-46 0 -83.5 7 -112.5 21s-52 32.667 -69 56s-28.667 50.166 -35 80.499s-9.5 61.833 -9.5 94.5c0 24 3 50.833 9 80.5s17.333 57.667 34 84s39.667 48.333 69 66s67 26.5 113 26.5zM337 627.002
c0 -19.333 -6.83301 -35.5 -20.5 -48.5s-29.834 -19.5 -48.501 -19.5c-19.333 0 -35.5 6.5 -48.5 19.5s-19.5 29.167 -19.5 48.5s6.5 35.666 19.5 48.999s29.167 20 48.5 20c18.667 0 34.834 -6.66699 48.501 -20s20.5 -29.666 20.5 -48.999z" />
    <glyph glyph-name="Eogonek" unicode="&#x118;" horiz-adv-x="607" 
d="M521 0c-13.333 -18 -24.166 -36.999 -32.499 -56.999s-12.5 -37.667 -12.5 -53c0 -19.333 5.16699 -32.5 15.5 -39.5s24.166 -10.5 41.499 -10.5c13.333 0 26.666 1.33301 39.999 4s24.666 5.33398 33.999 8.00098l8 -37c-17.333 -9.33301 -35.666 -16.333 -54.999 -21
s-38.666 -7 -57.999 -7c-32.667 0 -57.5 6.83301 -74.5 20.5s-25.5 32.167 -25.5 55.5c0 17.333 4.5 38.166 13.5 62.499s27.5 49.166 55.5 74.499h-429v78h68v530h-66v77h519v-179h-81v102h-262v-215l243 5v-79l-243 4v-245h275v105h82v-183h-56z" />
    <glyph glyph-name="eogonek" unicode="&#x119;" horiz-adv-x="505" 
d="M265 500c47.333 0 84.5 -8.83008 111.5 -26.4971s47.333 -39 61 -64s22.167 -50.833 25.5 -77.5s5 -49 5 -67v-48h-320c0 -22 2 -42 6 -60s11 -33.333 21 -46s23.5 -22.5 40.5 -29.5s38.167 -10.5 63.5 -10.5c28 0 53.667 2.66699 77 8s48.333 13.666 75 24.999l27 -67
c-9.33301 -4.66699 -18.166 -8.83398 -26.499 -12.501s-17.166 -7.16699 -26.499 -10.5c-10.667 -16 -19.167 -32.5 -25.5 -49.5s-9.5 -32.167 -9.5 -45.5c0 -19.333 5.16699 -32.5 15.5 -39.5s24.166 -10.5 41.499 -10.5c13.333 0 26.666 1.33301 39.999 4
s24.666 5.33398 33.999 8.00098l8 -37c-17.333 -9.33301 -35.666 -16.333 -54.999 -21s-38.666 -7 -57.999 -7c-32.667 0 -57.5 6.83301 -74.5 20.5s-25.5 32.167 -25.5 55.5c0 13.333 2.66699 29.166 8 47.499s15.666 37.5 30.999 57.5c-23.333 -4 -46.333 -6 -69 -6
c-46 0 -83.5 7 -112.5 21s-52 32.667 -69 56s-28.667 50.166 -35 80.499s-9.5 61.833 -9.5 94.5c0 24 3 50.833 9 80.5s17.333 57.667 34 84s39.667 48.333 69 66s67 26.5 113 26.5zM264 422.003c-19.333 0 -36 -3.83301 -50 -11.5s-25.5 -17.667 -34.5 -30
s-16 -26.333 -21 -42s-7.83301 -31.5 -8.5 -47.5h218c-0.666992 18 -2.66699 34.833 -6 50.5s-9 29.5 -17 41.5s-18.5 21.5 -31.5 28.5s-29.5 10.5 -49.5 10.5z" />
    <glyph glyph-name="Ecaron" unicode="&#x11a;" horiz-adv-x="607" 
d="M42 0v78h68v530h-66v77h519v-179h-81v102h-262v-215l243 5v-79l-243 4v-245h275v105h82v-183h-535zM523 877l-154 -139h-68l-152 141l27 32l159 -100l159 101z" />
    <glyph glyph-name="ecaron" unicode="&#x11b;" horiz-adv-x="505" 
d="M264 422c-19.333 0 -36 -3.83301 -50 -11.5s-25.5 -17.667 -34.5 -30s-16 -26.333 -21 -42s-7.83301 -31.5 -8.5 -47.5h218c-0.666992 18 -2.66699 34.833 -6 50.5s-9 29.5 -17 41.5s-18.5 21.5 -31.5 28.5s-29.5 10.5 -49.5 10.5zM265 500
c47.333 0 84.5 -8.83105 111.5 -26.498s47.333 -39 61 -64s22.167 -50.833 25.5 -77.5s5 -49 5 -67v-48h-320c0 -22 2 -42 6 -60s11 -33.333 21 -46s23.5 -22.5 40.5 -29.5s38.167 -10.5 63.5 -10.5c28 0 53.667 2.66699 77 8s48.333 13.666 75 24.999l27 -67
c-30.667 -16 -62.167 -27.667 -94.5 -35s-64.833 -11 -97.5 -11c-46 0 -83.5 7 -112.5 21s-52 32.667 -69 56s-28.667 50.166 -35 80.499s-9.5 61.833 -9.5 94.5c0 24 3 50.833 9 80.5s17.333 57.667 34 84s39.667 48.333 69 66s67 26.5 113 26.5zM447 689.002l-153 -144
h-69l-152 146l28 33l158 -100l160 99z" />
    <glyph glyph-name="Gcircumflex" unicode="&#x11c;" horiz-adv-x="657" 
d="M377 698c37.333 0 71.668 -2.66699 103.001 -8s58.333 -12 81 -20v-171h-80v100c-13.333 3.33301 -29 6.16602 -47 8.49902s-35.667 3.5 -53 3.5c-38 0 -70.5 -6.5 -97.5 -19.5s-49.333 -31.167 -67 -54.5s-30.667 -51.666 -39 -84.999s-12.5 -70.333 -12.5 -111
c0 -38 3.16699 -73 9.5 -105s17 -59.5 32 -82.5s35.167 -41 60.5 -54s57.333 -19.5 96 -19.5c16 0 34.667 1.16699 56 3.5s39.333 5.83301 54 10.5v192h-99v75h250v-75h-50v-261c-36 -11.333 -72.667 -19.833 -110 -25.5s-73.333 -8.5 -108 -8.5
c-57.333 0 -105.5 8.83301 -144.5 26.5s-70.5 42 -94.5 73s-41.167 67.833 -51.5 110.5s-15.5 89 -15.5 139c0 38 4.5 78 13.5 120s25.667 80.667 50 116s57.666 64.5 99.999 87.5s96.833 34.5 163.5 34.5zM525.002 733l-159 99l-158 -100l-27 33l151 142h69l154 -140z" />
    <glyph glyph-name="gcircumflex" unicode="&#x11d;" horiz-adv-x="540" 
d="M441 428c10.667 -12 18.835 -27.332 24.502 -45.999s8.5 -37.334 8.5 -56.001c0 -27.333 -5.5 -51.333 -16.5 -72s-26 -38.167 -45 -52.5s-41.5 -25.333 -67.5 -33s-54.333 -11.5 -85 -11.5h-55c-23.333 0 -41 -2.33301 -53 -7s-18 -13.667 -18 -27
c0 -20.667 15.333 -31 46 -31h132c60.667 0 108 -12.167 142 -36.5s51 -60.833 51 -109.5c0 -23.333 -5.16699 -44.833 -15.5 -64.5s-26.333 -36.834 -48 -51.501s-48.667 -26.167 -81 -34.5s-70.5 -12.5 -114.5 -12.5c-42 0 -76.833 3.83301 -104.5 11.5
s-49.834 17.667 -66.501 30s-28.334 26.833 -35.001 43.5s-10 34 -10 52c0 28 6.83301 52 20.5 72s28.167 34.333 43.5 43c-19.333 4 -34 12.667 -44 26s-15 29.666 -15 48.999c0 14 2.66699 25.833 8 35.5s12 17.834 20 24.501s16.833 12 26.5 16s19.167 7 28.5 9
c-18 8 -34 22.167 -48 42.5s-21 48.5 -21 84.5c0 32 6 59.333 18 82s27.833 41.167 47.5 55.5s42 24.833 67 31.5s50.167 10 75.5 10c17.333 0 34.5 -1.16699 51.5 -3.5s32.167 -5.16602 45.5 -8.49902h165v-59h-75zM187.001 21.001c-6 -2 -12.166 -5.66699 -18.499 -11
s-12 -11.5 -17 -18.5s-9 -14.667 -12 -23s-4.5 -16.5 -4.5 -24.5c0 -10 1.83301 -20 5.5 -30s10.167 -18.667 19.5 -26s22.166 -13.333 38.499 -18s37.5 -7 63.5 -7c44 0 77.167 7.5 99.5 22.5s33.5 34.5 33.5 58.5c0 9.33301 -1.66699 18.5 -5 27.5s-9 17.167 -17 24.5
s-18.5 13.333 -31.5 18s-29.167 7 -48.5 7h-106zM366.002 327.001c0 10 -1.66699 20.667 -5 32s-9 21.833 -17 31.5s-18.833 17.667 -32.5 24s-30.834 9.5 -51.501 9.5c-34 0 -59.667 -8.83301 -77 -26.5s-26 -41.5 -26 -71.5c0 -29.333 8.33301 -52.333 25 -69
s40 -25 70 -25c32.667 0 59.834 7.83301 81.501 23.5s32.5 39.5 32.5 71.5zM420.002 531.001l-159 100l-158 -100l-28 33l152 146h69l153 -145z" />
    <glyph glyph-name="Gbreve" unicode="&#x11e;" horiz-adv-x="657" 
d="M377 698c37.333 0 71.668 -2.66699 103.001 -8s58.333 -12 81 -20v-171h-80v100c-13.333 3.33301 -29 6.16602 -47 8.49902s-35.667 3.5 -53 3.5c-38 0 -70.5 -6.5 -97.5 -19.5s-49.333 -31.167 -67 -54.5s-30.667 -51.666 -39 -84.999s-12.5 -70.333 -12.5 -111
c0 -38 3.16699 -73 9.5 -105s17 -59.5 32 -82.5s35.167 -41 60.5 -54s57.333 -19.5 96 -19.5c16 0 34.667 1.16699 56 3.5s39.333 5.83301 54 10.5v192h-99v75h250v-75h-50v-261c-36 -11.333 -72.667 -19.833 -110 -25.5s-73.333 -8.5 -108 -8.5
c-57.333 0 -105.5 8.83301 -144.5 26.5s-70.5 42 -94.5 73s-41.167 67.833 -51.5 110.5s-15.5 89 -15.5 139c0 38 4.5 78 13.5 120s25.667 80.667 50 116s57.666 64.5 99.999 87.5s96.833 34.5 163.5 34.5zM356.002 733c-18.667 0 -35.999 3.33398 -51.999 10.001
s-31 15.5 -45 26.5s-27.167 23.667 -39.5 38s-23.833 29.166 -34.5 44.499l52 38c19.333 -26 39.833 -46.667 61.5 -62s42.167 -23 61.5 -23c6 0 13.333 0.666992 22 2s19 4.5 31 9.5s25.667 12.833 41 23.5s32.666 25.334 51.999 44.001l32 -31
c-30 -44.667 -60.833 -75.834 -92.5 -93.501s-61.5 -26.5 -89.5 -26.5z" />
    <glyph glyph-name="gbreve" unicode="&#x11f;" horiz-adv-x="540" 
d="M441 428c10.667 -12 18.835 -27.332 24.502 -45.999s8.5 -37.334 8.5 -56.001c0 -27.333 -5.5 -51.333 -16.5 -72s-26 -38.167 -45 -52.5s-41.5 -25.333 -67.5 -33s-54.333 -11.5 -85 -11.5h-55c-23.333 0 -41 -2.33301 -53 -7s-18 -13.667 -18 -27
c0 -20.667 15.333 -31 46 -31h132c60.667 0 108 -12.167 142 -36.5s51 -60.833 51 -109.5c0 -23.333 -5.16699 -44.833 -15.5 -64.5s-26.333 -36.834 -48 -51.501s-48.667 -26.167 -81 -34.5s-70.5 -12.5 -114.5 -12.5c-42 0 -76.833 3.83301 -104.5 11.5
s-49.834 17.667 -66.501 30s-28.334 26.833 -35.001 43.5s-10 34 -10 52c0 28 6.83301 52 20.5 72s28.167 34.333 43.5 43c-19.333 4 -34 12.667 -44 26s-15 29.666 -15 48.999c0 14 2.66699 25.833 8 35.5s12 17.834 20 24.501s16.833 12 26.5 16s19.167 7 28.5 9
c-18 8 -34 22.167 -48 42.5s-21 48.5 -21 84.5c0 32 6 59.333 18 82s27.833 41.167 47.5 55.5s42 24.833 67 31.5s50.167 10 75.5 10c17.333 0 34.5 -1.16699 51.5 -3.5s32.167 -5.16602 45.5 -8.49902h165v-59h-75zM187.001 21.001c-6 -2 -12.166 -5.66699 -18.499 -11
s-12 -11.5 -17 -18.5s-9 -14.667 -12 -23s-4.5 -16.5 -4.5 -24.5c0 -10 1.83301 -20 5.5 -30s10.167 -18.667 19.5 -26s22.166 -13.333 38.499 -18s37.5 -7 63.5 -7c44 0 77.167 7.5 99.5 22.5s33.5 34.5 33.5 58.5c0 9.33301 -1.66699 18.5 -5 27.5s-9 17.167 -17 24.5
s-18.5 13.333 -31.5 18s-29.167 7 -48.5 7h-106zM366.002 327.001c0 10 -1.66699 20.667 -5 32s-9 21.833 -17 31.5s-18.833 17.667 -32.5 24s-30.834 9.5 -51.501 9.5c-34 0 -59.667 -8.83301 -77 -26.5s-26 -41.5 -26 -71.5c0 -29.333 8.33301 -52.333 25 -69
s40 -25 70 -25c32.667 0 59.834 7.83301 81.501 23.5s32.5 39.5 32.5 71.5zM255.002 551.001c-18 0 -35.167 3.33398 -51.5 10.001s-31.5 15.5 -45.5 26.5s-27.167 23.667 -39.5 38s-23.833 29.166 -34.5 44.499l52 39c19.333 -27.333 39.833 -48.333 61.5 -63
s41.834 -22 60.501 -22c6 0 13.5 0.5 22.5 1.5s19.5 4 31.5 9s25.667 12.667 41 23s32.666 25.166 51.999 44.499l32 -31c-30 -45.333 -60.833 -76.666 -92.5 -93.999s-61.5 -26 -89.5 -26z" />
    <glyph glyph-name="Gdotaccent" unicode="&#x120;" horiz-adv-x="657" 
d="M377 698c37.333 0 71.668 -2.66699 103.001 -8s58.333 -12 81 -20v-171h-80v100c-13.333 3.33301 -29 6.16602 -47 8.49902s-35.667 3.5 -53 3.5c-38 0 -70.5 -6.5 -97.5 -19.5s-49.333 -31.167 -67 -54.5s-30.667 -51.666 -39 -84.999s-12.5 -70.333 -12.5 -111
c0 -38 3.16699 -73 9.5 -105s17 -59.5 32 -82.5s35.167 -41 60.5 -54s57.333 -19.5 96 -19.5c16 0 34.667 1.16699 56 3.5s39.333 5.83301 54 10.5v192h-99v75h250v-75h-50v-261c-36 -11.333 -72.667 -19.833 -110 -25.5s-73.333 -8.5 -108 -8.5
c-57.333 0 -105.5 8.83301 -144.5 26.5s-70.5 42 -94.5 73s-41.167 67.833 -51.5 110.5s-15.5 89 -15.5 139c0 38 4.5 78 13.5 120s25.667 80.667 50 116s57.666 64.5 99.999 87.5s96.833 34.5 163.5 34.5zM449.002 821c0 -19.333 -6.83301 -35.5 -20.5 -48.5
s-29.834 -19.5 -48.501 -19.5c-19.333 0 -35.5 6.5 -48.5 19.5s-19.5 29.167 -19.5 48.5s6.5 35.666 19.5 48.999s29.167 20 48.5 20c18.667 0 34.834 -6.66699 48.501 -20s20.5 -29.666 20.5 -48.999z" />
    <glyph glyph-name="gdotaccent" unicode="&#x121;" horiz-adv-x="540" 
d="M441 428c10.667 -12 18.835 -27.332 24.502 -45.999s8.5 -37.334 8.5 -56.001c0 -27.333 -5.5 -51.333 -16.5 -72s-26 -38.167 -45 -52.5s-41.5 -25.333 -67.5 -33s-54.333 -11.5 -85 -11.5h-55c-23.333 0 -41 -2.33301 -53 -7s-18 -13.667 -18 -27
c0 -20.667 15.333 -31 46 -31h132c60.667 0 108 -12.167 142 -36.5s51 -60.833 51 -109.5c0 -23.333 -5.16699 -44.833 -15.5 -64.5s-26.333 -36.834 -48 -51.501s-48.667 -26.167 -81 -34.5s-70.5 -12.5 -114.5 -12.5c-42 0 -76.833 3.83301 -104.5 11.5
s-49.834 17.667 -66.501 30s-28.334 26.833 -35.001 43.5s-10 34 -10 52c0 28 6.83301 52 20.5 72s28.167 34.333 43.5 43c-19.333 4 -34 12.667 -44 26s-15 29.666 -15 48.999c0 14 2.66699 25.833 8 35.5s12 17.834 20 24.501s16.833 12 26.5 16s19.167 7 28.5 9
c-18 8 -34 22.167 -48 42.5s-21 48.5 -21 84.5c0 32 6 59.333 18 82s27.833 41.167 47.5 55.5s42 24.833 67 31.5s50.167 10 75.5 10c17.333 0 34.5 -1.16699 51.5 -3.5s32.167 -5.16602 45.5 -8.49902h165v-59h-75zM187.001 21.001c-6 -2 -12.166 -5.66699 -18.499 -11
s-12 -11.5 -17 -18.5s-9 -14.667 -12 -23s-4.5 -16.5 -4.5 -24.5c0 -10 1.83301 -20 5.5 -30s10.167 -18.667 19.5 -26s22.166 -13.333 38.499 -18s37.5 -7 63.5 -7c44 0 77.167 7.5 99.5 22.5s33.5 34.5 33.5 58.5c0 9.33301 -1.66699 18.5 -5 27.5s-9 17.167 -17 24.5
s-18.5 13.333 -31.5 18s-29.167 7 -48.5 7h-106zM366.002 327.001c0 10 -1.66699 20.667 -5 32s-9 21.833 -17 31.5s-18.833 17.667 -32.5 24s-30.834 9.5 -51.501 9.5c-34 0 -59.667 -8.83301 -77 -26.5s-26 -41.5 -26 -71.5c0 -29.333 8.33301 -52.333 25 -69
s40 -25 70 -25c32.667 0 59.834 7.83301 81.501 23.5s32.5 39.5 32.5 71.5zM344.002 627.001c0 -19.333 -6.83301 -35.5 -20.5 -48.5s-29.834 -19.5 -48.501 -19.5c-19.333 0 -35.5 6.5 -48.5 19.5s-19.5 29.167 -19.5 48.5s6.5 35.666 19.5 48.999s29.167 20 48.5 20
c18.667 0 34.834 -6.66699 48.501 -20s20.5 -29.666 20.5 -48.999z" />
    <glyph glyph-name="Gcommaaccent" unicode="&#x122;" horiz-adv-x="657" 
d="M377 698c37.333 0 71.668 -2.66699 103.001 -8s58.333 -12 81 -20v-171h-80v100c-13.333 3.33301 -29 6.16602 -47 8.49902s-35.667 3.5 -53 3.5c-38 0 -70.5 -6.5 -97.5 -19.5s-49.333 -31.167 -67 -54.5s-30.667 -51.666 -39 -84.999s-12.5 -70.333 -12.5 -111
c0 -38 3.16699 -73 9.5 -105s17 -59.5 32 -82.5s35.167 -41 60.5 -54s57.333 -19.5 96 -19.5c16 0 34.667 1.16699 56 3.5s39.333 5.83301 54 10.5v192h-99v75h250v-75h-50v-261c-36 -11.333 -72.667 -19.833 -110 -25.5s-73.333 -8.5 -108 -8.5
c-57.333 0 -105.5 8.83301 -144.5 26.5s-70.5 42 -94.5 73s-41.167 67.833 -51.5 110.5s-15.5 89 -15.5 139c0 38 4.5 78 13.5 120s25.667 80.667 50 116s57.666 64.5 99.999 87.5s96.833 34.5 163.5 34.5zM300.002 -96c0 15.333 5.83301 28.5 17.5 39.5
s26.167 16.5 43.5 16.5c20 0 35.5 -6.66699 46.5 -20s16.167 -29.333 15.5 -48c-0.666992 -28 -9.5 -54 -26.5 -78s-39.5 -42.667 -67.5 -56l-25 31c23.333 20 35.333 41.333 36 64c-13.333 3.33301 -23.333 9.33301 -30 18s-10 19.667 -10 33z" />
    <glyph glyph-name="gcommaaccent" unicode="&#x123;" horiz-adv-x="540" 
d="M340 602c0 -15.333 -6 -28.5029 -18 -39.5029s-27.333 -16.5 -46 -16.5c-20.667 0 -36.667 6.5 -48 19.5s-17 28.833 -17 47.5v2c1.33301 28.667 11 54.834 29 78.501s41 42.5 69 56.5c4.66699 -5.33301 9 -10.666 13 -15.999s8.33301 -10.666 13 -15.999
c-11.333 -10.667 -20 -20.834 -26 -30.501s-9.33301 -20.167 -10 -31.5c13.333 -3.33301 23.5 -9.66602 30.5 -18.999s10.5 -21 10.5 -35zM441 427.997c10.667 -12 18.835 -27.332 24.502 -45.999s8.5 -37.334 8.5 -56.001c0 -27.333 -5.5 -51.333 -16.5 -72
s-26 -38.167 -45 -52.5s-41.5 -25.333 -67.5 -33s-54.333 -11.5 -85 -11.5h-55c-23.333 0 -41 -2.33301 -53 -7s-18 -13.667 -18 -27c0 -20.667 15.333 -31 46 -31h132c60.667 0 108 -12.167 142 -36.5s51 -60.833 51 -109.5c0 -23.333 -5.16699 -44.833 -15.5 -64.5
s-26.333 -36.834 -48 -51.501s-48.667 -26.167 -81 -34.5s-70.5 -12.5 -114.5 -12.5c-42 0 -76.833 3.83301 -104.5 11.5s-49.834 17.667 -66.501 30s-28.334 26.833 -35.001 43.5s-10 34 -10 52c0 28 6.83301 52 20.5 72s28.167 34.333 43.5 43
c-19.333 4 -34 12.667 -44 26s-15 29.666 -15 48.999c0 14 2.66699 25.833 8 35.5s12 17.834 20 24.501s16.833 12 26.5 16s19.167 7 28.5 9c-18 8 -34 22.167 -48 42.5s-21 48.5 -21 84.5c0 32 6 59.333 18 82s27.833 41.167 47.5 55.5s42 24.833 67 31.5
s50.167 10 75.5 10c17.333 0 34.5 -1.16699 51.5 -3.5s32.167 -5.16602 45.5 -8.49902h165v-59h-75zM187.001 20.998c-6 -2 -12.166 -5.66699 -18.499 -11s-12 -11.5 -17 -18.5s-9 -14.667 -12 -23s-4.5 -16.5 -4.5 -24.5c0 -10 1.83301 -20 5.5 -30
s10.167 -18.667 19.5 -26s22.166 -13.333 38.499 -18s37.5 -7 63.5 -7c44 0 77.167 7.5 99.5 22.5s33.5 34.5 33.5 58.5c0 9.33301 -1.66699 18.5 -5 27.5s-9 17.167 -17 24.5s-18.5 13.333 -31.5 18s-29.167 7 -48.5 7h-106zM366.002 326.998c0 10 -1.66699 20.667 -5 32
s-9 21.833 -17 31.5s-18.833 17.667 -32.5 24s-30.834 9.5 -51.501 9.5c-34 0 -59.667 -8.83301 -77 -26.5s-26 -41.5 -26 -71.5c0 -29.333 8.33301 -52.333 25 -69s40 -25 70 -25c32.667 0 59.834 7.83301 81.501 23.5s32.5 39.5 32.5 71.5z" />
    <glyph glyph-name="Hcircumflex" unicode="&#x124;" horiz-adv-x="739" 
d="M457 0v77h62v244h-301v-244h63v-77h-240v77h67v531h-67v77h240v-77h-63v-213h301v213h-62v77h240v-77h-67v-531h67v-77h-240zM519 733l-159 99l-158 -100l-27 33l151 142h69l154 -140z" />
    <glyph glyph-name="hcircumflex" unicode="&#x125;" horiz-adv-x="608" 
d="M90 0l0.000976562 637h-70v76h176v-268c28 17.333 56.667 30.833 86 40.5s56.666 14.5 81.999 14.5c35.333 0 63 -5.83301 83 -17.5s34.833 -25.834 44.5 -42.501s15.667 -34.5 18 -53.5s3.5 -35.5 3.5 -49.5v-261h74v-63c-14 -6.66699 -30.667 -11.5 -50 -14.5
s-35.666 -4.5 -48.999 -4.5c-20 0 -35.333 3.66699 -46 11s-18.667 16 -24 26s-8.5 19.833 -9.5 29.5s-1.5 17.167 -1.5 22.5v234c0 16.667 -1 31 -3 43s-5.66699 22 -11 30s-13.333 14 -24 18s-24.334 6 -41.001 6c-20.667 0 -43.167 -4.66699 -67.5 -14
s-45.833 -19.666 -64.5 -30.999v-369h-106zM293.001 764l-159 99l-158 -100l-27 33l151 142h69l154 -140z" />
    <glyph glyph-name="Hbar" unicode="&#x126;" horiz-adv-x="739" 
d="M457 0v76h62v242h-301v-242h63v-76h-240v76h67v393h-68v51h68v91h-67v74h240v-74h-63v-91h301v91h-62v74h240v-74h-67v-91h67v-51h-67v-393h67v-76h-240zM519 384v85h-301v-85h301z" />
    <glyph glyph-name="hbar" unicode="&#x127;" horiz-adv-x="608" 
d="M22 513l-0.000976562 51.999h68v81h-70v67h177v-148h175v-52h-175v-105c27.333 18 56 31.833 86 41.5s57.333 14.5 82 14.5c32.667 0 58.834 -4.66699 78.501 -14s34.834 -21.666 45.501 -36.999s17.667 -32.666 21 -51.999s5 -39 5 -59v-225h69v-64
c-15.333 -6.66699 -31.666 -11.667 -48.999 -15s-32.666 -5 -45.999 -5c-28 0 -48.333 5.83301 -61 17.5s-19 32.167 -19 61.5v206c0 16 -0.833008 30.167 -2.5 42.5s-5.33398 22.666 -11.001 30.999s-13.834 14.833 -24.501 19.5s-24.667 7 -42 7
c-20 0 -42.333 -4.33301 -67 -13s-46.334 -18.667 -65.001 -30v-335h-107v513h-68z" />
    <glyph glyph-name="Itilde" unicode="&#x128;" horiz-adv-x="381" 
d="M70 0v77h65v531h-65v78h241v-78h-66v-531h66v-77h-241zM271 752c-16 0 -31.3311 1.99902 -45.998 5.99902s-28.5 8.5 -41.5 13.5s-25.333 9.5 -37 13.5s-22.5 6 -32.5 6l-57 -39l-33 26c9.33301 26.667 22.166 47 38.499 61s34.833 21 55.5 21c12.667 0 26 -2 40 -6
s27.833 -8.33301 41.5 -13s27 -9 40 -13s24.5 -6 34.5 -6l56 40l33 -26c-8.66699 -25.333 -20.834 -45.666 -36.501 -60.999s-34.167 -23 -55.5 -23z" />
    <glyph glyph-name="itilde" unicode="&#x129;" horiz-adv-x="315" 
d="M49 417l-0.000976562 72h161v-412h72v-64c-14 -6.66699 -30.167 -11.667 -48.5 -15s-34.166 -5 -47.499 -5c-28.667 0 -49.167 5.83301 -61.5 17.5s-18.833 32.167 -19.5 61.5v345h-56zM218.999 574c-16 0 -31.3311 1.99902 -45.998 5.99902s-28.5 8.5 -41.5 13.5
s-25.333 9.5 -37 13.5s-22.5 6 -32.5 6l-57 -39l-33 26c9.33301 26.667 22.166 47 38.499 61s34.833 21 55.5 21c12.667 0 26 -2 40 -6s27.833 -8.33301 41.5 -13s27 -9 40 -13s24.5 -6 34.5 -6l56 40l33 -26c-8.66699 -25.333 -20.834 -45.666 -36.501 -60.999
s-34.167 -23 -55.5 -23z" />
    <glyph glyph-name="Imacron" unicode="&#x12a;" horiz-adv-x="381" 
d="M70 0v77h65v531h-65v78h241v-78h-66v-531h66v-77h-241zM23 823h338v-76h-338v76z" />
    <glyph glyph-name="imacron" unicode="&#x12b;" horiz-adv-x="326" 
d="M49 417l-0.000976562 72h161v-412h72v-64c-14 -6.66699 -30.167 -11.667 -48.5 -15s-34.166 -5 -47.499 -5c-28.667 0 -49.167 5.83301 -61.5 17.5s-18.833 32.167 -19.5 61.5v345h-56zM-28.001 664h344v-76h-344v76z" />
    <glyph glyph-name="Ibreve" unicode="&#x12c;" horiz-adv-x="381" 
d="M188 736c-18.667 0 -35.999 3.33398 -51.999 10.001s-31 15.5 -45 26.5s-27.167 23.667 -39.5 38s-23.833 29.166 -34.5 44.499l52 38c19.333 -26 39.833 -46.667 61.5 -62s42.167 -23 61.5 -23c6 0 13.333 0.666992 22 2s19 4.5 31 9.5s25.667 12.833 41 23.5
s32.666 25.334 51.999 44.001l32 -31c-30 -44.667 -60.833 -75.834 -92.5 -93.501s-61.5 -26.5 -89.5 -26.5zM70.001 0.000976562v77h65v531h-65v78h241v-78h-66v-531h66v-77h-241z" />
    <glyph glyph-name="ibreve" unicode="&#x12d;" horiz-adv-x="325" 
d="M49 417l-0.000976562 72h161v-412h72v-64c-14 -6.66699 -30.167 -11.667 -48.5 -15s-34.166 -5 -47.499 -5c-28.667 0 -49.167 5.83301 -61.5 17.5s-18.833 32.167 -19.5 61.5v345h-56zM142.999 551c-18 0 -35.167 3.33398 -51.5 10.001s-31.5 15.5 -45.5 26.5
s-27.167 23.667 -39.5 38s-23.833 29.166 -34.5 44.499l52 39c19.333 -27.333 39.833 -48.333 61.5 -63s41.834 -22 60.501 -22c6 0 13.5 0.5 22.5 1.5s19.5 4 31.5 9s25.667 12.667 41 23s32.666 25.166 51.999 44.499l32 -31c-30 -45.333 -60.833 -76.666 -92.5 -93.999
s-61.5 -26 -89.5 -26z" />
    <glyph glyph-name="Iogonek" unicode="&#x12e;" horiz-adv-x="381" 
d="M213 0c-13.333 -18 -23.999 -36.833 -31.999 -56.5s-12 -37.167 -12 -52.5c0 -19.333 5.16699 -32.5 15.5 -39.5s24.166 -10.5 41.499 -10.5c13.333 0 26.666 1.33301 39.999 4s24.666 5.33398 33.999 8.00098l8 -37c-17.333 -9.33301 -35.666 -16.333 -54.999 -21
s-38.666 -7 -57.999 -7c-32.667 0 -57.5 6.83301 -74.5 20.5s-25.5 32.167 -25.5 55.5c0 16.667 4.5 37.167 13.5 61.5s27.167 49.166 54.5 74.499h-93v77h65v531h-65v78h241v-78h-66v-531h66v-77h-98z" />
    <glyph glyph-name="iogonek" unicode="&#x12f;" horiz-adv-x="315" 
d="M53 412l0.000976562 75.999h157v-411h72v-64c-8 -4 -17 -7.33301 -27 -10s-20 -4.66699 -30 -6c-11.333 -17.333 -20.5 -35 -27.5 -53s-10.5 -33.667 -10.5 -47c0 -19.333 5.16699 -32.5 15.5 -39.5s24.166 -10.5 41.499 -10.5c13.333 0 26.666 1.33301 39.999 4
s24.666 5.33398 33.999 8.00098l8 -37c-17.333 -9.33301 -35.666 -16.333 -54.999 -21s-38.666 -7 -57.999 -7c-32.667 0 -57.5 6.83301 -74.5 20.5s-25.5 32.167 -25.5 55.5c0 15.333 3.66699 34 11 56s22 44.667 44 68c-22 2 -38 9 -48 21s-15.333 31 -16 57v340h-51z
M220.001 624.999c0 -18 -6.5 -33.5 -19.5 -46.5s-28.833 -19.5 -47.5 -19.5c-18 0 -33.333 6.5 -46 19.5s-19 28.5 -19 46.5c0 18.667 6.33301 34.334 19 47.001s28 19 46 19c18.667 0 34.5 -6.33301 47.5 -19s19.5 -28.334 19.5 -47.001z" />
    <glyph glyph-name="Idotaccent" unicode="&#x130;" horiz-adv-x="381" 
d="M70 0v77h65v531h-65v78h241v-78h-66v-531h66v-77h-241zM271 819c0 -19.333 -6.83301 -35.5 -20.5 -48.5s-29.834 -19.5 -48.501 -19.5c-19.333 0 -35.5 6.5 -48.5 19.5s-19.5 29.167 -19.5 48.5s6.5 35.666 19.5 48.999s29.167 20 48.5 20
c18.667 0 34.834 -6.66699 48.501 -20s20.5 -29.666 20.5 -48.999z" />
    <glyph glyph-name="dotlessi" unicode="&#x131;" horiz-adv-x="315" 
d="M49 417l-0.000976562 72h161v-412h72v-64c-14 -6.66699 -30.167 -11.667 -48.5 -15s-34.166 -5 -47.499 -5c-28.667 0 -49.167 5.83301 -61.5 17.5s-18.833 32.167 -19.5 61.5v345h-56z" />
    <glyph glyph-name="IJ" unicode="&#x132;" horiz-adv-x="762" 
d="M70 0v77h65v531h-65v78h241v-78h-66v-531h66v-77h-241zM434 686h275v-78h-77l-1 -463c0 -44.667 -5.5 -84.334 -16.5 -119.001s-27.333 -65 -49 -91s-48.5 -48.333 -80.5 -67s-69 -34 -111 -46l-29 71c36 19.333 65.5 37.833 88.5 55.5s41 36.334 54 56.001
s21.833 41 26.5 64s7 49.5 7 79.5v460h-87v78z" />
    <glyph glyph-name="ij" unicode="&#x133;" horiz-adv-x="606" 
d="M53 412l0.000976562 76h157v-411h72v-64c-14 -6.66699 -30.167 -11.667 -48.5 -15s-34.166 -5 -47.499 -5c-28.667 0 -49.334 5.83301 -62.001 17.5s-19.334 32.167 -20.001 61.5v340h-51zM220.001 625c0 -18 -6.5 -33.5 -19.5 -46.5s-28.833 -19.5 -47.5 -19.5
c-18 0 -33.333 6.5 -46 19.5s-19 28.5 -19 46.5c0 18.667 6.33301 34.334 19 47.001s28 19 46 19c18.667 0 34.5 -6.33301 47.5 -19s19.5 -28.334 19.5 -47.001zM343.001 488l171.998 -0.000976562v-447c0 -36.667 -3.33301 -69 -10 -97s-17.667 -52.667 -33 -74
s-35.666 -40.166 -60.999 -56.499s-56.666 -30.833 -93.999 -43.5l-32 68c26.667 16 48.167 31 64.5 45s28.833 28.5 37.5 43.5s14.5 31.167 17.5 48.5s4.5 37 4.5 59v378h-66v76zM524.999 624.999c0 -18 -6.66699 -33.5 -20 -46.5s-28.666 -19.5 -45.999 -19.5
c-18.667 0 -34.334 6.5 -47.001 19.5s-19 28.5 -19 46.5c0 18.667 6.33301 34.334 19 47.001s28.334 19 47.001 19c17.333 0 32.666 -6.33301 45.999 -19s20 -28.334 20 -47.001z" />
    <glyph glyph-name="Jcircumflex" unicode="&#x134;" horiz-adv-x="393" 
d="M65 687h275v-78h-77l-1 -463c0 -44.667 -5.5 -84.334 -16.5 -119.001s-27.333 -65 -49 -91s-48.5 -48.333 -80.5 -67s-69 -34 -111 -46l-29 71c36 19.333 65.5 37.833 88.5 55.5s41 36.334 54 56.001s21.833 41 26.5 64s7 49.5 7 79.5v460h-87v78zM365 733l-159 99
l-158 -100l-27 33l151 142h69l154 -140z" />
    <glyph glyph-name="jcircumflex" unicode="&#x135;" horiz-adv-x="300" 
d="M37 489l171.998 0.000976562v-453c0 -36.667 -3.33301 -68.5 -10 -95.5s-17.667 -50.5 -33 -70.5s-35.666 -37.167 -60.999 -51.5s-56.666 -27.5 -93.999 -39.5l-27 66c25.333 14 45.833 27 61.5 39s27.667 24.833 36 38.5s14 28.667 17 45s4.5 36.166 4.5 59.499v390
h-66v72zM291.998 533.001l-160 101l-158 -100l-28 33l152 145h69l153 -144z" />
    <glyph glyph-name="Kcommaaccent" unicode="&#x136;" horiz-adv-x="681" 
d="M375 416l228 -339h58v-77h-245l-1 77h63l-182 272l-80 -76v-197h63v-76h-237v76h66v535h-66v74h238v-74h-64v-239l250 238h-63v75h237v-75h-58zM285 -96c0 15.333 5.83301 28.5 17.5 39.5s26.167 16.5 43.5 16.5c20 0 35.5 -6.66699 46.5 -20s16.167 -29.333 15.5 -48
c-0.666992 -28 -9.5 -54 -26.5 -78s-39.5 -42.667 -67.5 -56l-25 31c23.333 20 35.333 41.333 36 64c-13.333 3.33301 -23.333 9.33301 -30 18s-10 19.667 -10 33z" />
    <glyph glyph-name="kcommaaccent" unicode="&#x137;" horiz-adv-x="555" 
d="M303 488h211.999v-72h-45l-131 -112l142 -232l64 -9v-57c-12.667 -4.66699 -26.5 -8 -41.5 -10s-27.833 -3 -38.5 -3c-13.333 0 -26.166 2 -38.499 6s-23.5 14.333 -33.5 31l-129 217l-32.5 -28l-32.5 -28v-120h62v-71h-236v71h68v569h-75v71h181v-422l148 127h-44v72z
M254.999 -96c0 15.333 5.83301 28.5 17.5 39.5s26.167 16.5 43.5 16.5c20 0 35.5 -6.66699 46.5 -20s16.167 -29.333 15.5 -48c-0.666992 -28 -9.5 -54 -26.5 -78s-39.5 -42.667 -67.5 -56l-25 31c23.333 20 35.333 41.333 36 64c-13.333 3.33301 -23.333 9.33301 -30 18
s-10 19.667 -10 33z" />
    <glyph glyph-name="kgreenlandic" unicode="&#x138;" horiz-adv-x="555" 
d="M303 488h211.999v-72h-45l-131 -112l142 -232l64 -9v-57c-12.667 -4.66699 -26.5 -8 -41.5 -10s-27.833 -3 -38.5 -3c-13.333 0 -26.166 2 -38.499 6s-23.5 14.333 -33.5 31l-129 217l-32.5 -28l-32.5 -28v-120h62v-71h-236v71h68v345h-75v71h181v-198l148 127h-44v72z
" />
    <glyph glyph-name="Lacute" unicode="&#x139;" horiz-adv-x="591" 
d="M42 0v77h68v531h-66v77h249v-77h-72v-531h279v122h82v-199h-540zM175 732l-40 38l134 164l64 -63z" />
    <glyph glyph-name="lacute" unicode="&#x13a;" horiz-adv-x="320" 
d="M218 75h69v-75h-243v75h68v562h-75v76h181v-638zM156 742l-40 38l134 164l64 -63z" />
    <glyph glyph-name="Lcommaaccent" unicode="&#x13b;" horiz-adv-x="591" 
d="M42 0v77h68v531h-66v77h249v-77h-72v-531h279v122h82v-199h-540zM239 -96c0 15.333 5.83301 28.5 17.5 39.5s26.167 16.5 43.5 16.5c20 0 35.5 -6.66699 46.5 -20s16.167 -29.333 15.5 -48c-0.666992 -28 -9.5 -54 -26.5 -78s-39.5 -42.667 -67.5 -56l-25 31
c23.333 20 35.333 41.333 36 64c-13.333 3.33301 -23.333 9.33301 -30 18s-10 19.667 -10 33z" />
    <glyph glyph-name="lcommaaccent" unicode="&#x13c;" horiz-adv-x="320" 
d="M218 75h69v-75h-243v75h68v562h-75v76h181v-638zM109 -96c0 15.333 5.83301 28.5 17.5 39.5s26.167 16.5 43.5 16.5c20 0 35.5 -6.66699 46.5 -20s16.167 -29.333 15.5 -48c-0.666992 -28 -9.5 -54 -26.5 -78s-39.5 -42.667 -67.5 -56l-25 31
c23.333 20 35.333 41.333 36 64c-13.333 3.33301 -23.333 9.33301 -30 18s-10 19.667 -10 33z" />
    <glyph glyph-name="Lcaron" unicode="&#x13d;" horiz-adv-x="591" 
d="M42 0v77h68v531h-66v77h249v-77h-72v-531h279v122h82v-199h-540zM410 625c0 15.333 5.83301 28.5 17.5 39.5s26.167 16.5 43.5 16.5c20 0 35.5 -6.66699 46.5 -20s16.167 -29.333 15.5 -48c-0.666992 -28 -9.5 -54 -26.5 -78s-39.5 -42.667 -67.5 -56l-25 31
c23.333 20 35.333 41.333 36 64c-13.333 3.33301 -23.333 9.33301 -30 18s-10 19.667 -10 33z" />
    <glyph glyph-name="lcaron" unicode="&#x13e;" horiz-adv-x="437" 
d="M295 662c0 15.333 5.83301 28.5 17.5 39.5s26.167 16.5 43.5 16.5c20 0 35.5 -6.66699 46.5 -20s16.167 -29.333 15.5 -48c-0.666992 -28 -9.5 -54 -26.5 -78s-39.5 -42.667 -67.5 -56l-25 31c23.333 20 35.333 41.333 36 64c-13.333 3.33301 -23.333 9.33301 -30 18
s-10 19.667 -10 33zM218 75h69v-75h-243v75h68v562h-75v76h181v-638z" />
    <glyph glyph-name="Ldot" unicode="&#x13f;" horiz-adv-x="591" 
d="M42 0v77h68v531h-66v77h249v-77h-72v-531h279v122h82v-199h-540zM504 398c0 -19.333 -6.83301 -35.5 -20.5 -48.5s-29.834 -19.5 -48.501 -19.5c-19.333 0 -35.5 6.5 -48.5 19.5s-19.5 29.167 -19.5 48.5s6.5 35.666 19.5 48.999s29.167 20 48.5 20
c18.667 0 34.834 -6.66699 48.501 -20s20.5 -29.666 20.5 -48.999z" />
    <glyph glyph-name="ldot" unicode="&#x140;" horiz-adv-x="437" 
d="M426 359c0 -19.333 -6.83301 -35.5 -20.5 -48.5s-29.834 -19.5 -48.501 -19.5c-19.333 0 -35.5 6.5 -48.5 19.5s-19.5 29.167 -19.5 48.5s6.5 35.666 19.5 48.999s29.167 20 48.5 20c18.667 0 34.834 -6.66699 48.501 -20s20.5 -29.666 20.5 -48.999zM218 75h69v-75h-243
v75h68v562h-75v76h181v-638z" />
    <glyph glyph-name="Lslash" unicode="&#x141;" horiz-adv-x="584" 
d="M42 0v75h68v158l-65 -38l-31 48l96 56v312h-66v74h249v-74h-72v-249l115 66l30 -47l-145 -83v-223h268v124h82v-199h-529z" />
    <glyph glyph-name="lslash" unicode="&#x142;" horiz-adv-x="320" 
d="M217 71h69.002v-71h-242v71h68v215l-83 -48l-29 48l55.5 32l56.5 32v290h-77v73h182v-301l88 50c5.33301 -8 10.166 -16 14.499 -24s9.16602 -15.667 14.499 -23l-58.5 -34l-58.5 -34v-276z" />
    <glyph glyph-name="Nacute" unicode="&#x143;" horiz-adv-x="770" 
d="M558 169v439h-69v77h238v-77h-66v-608h-106l-160 246l-60.5 92.5l-60.5 94.5l-30 48.5l-31 48.5c-0.666992 0 -1 -0.166992 -1 -0.5s-0.333008 -0.5 -1 -0.5v-453h68c0 -12.667 0.166992 -25.334 0.5 -38.001s0.5 -25.334 0.5 -38.001h-240
c0 12.667 -0.166992 25.334 -0.5 38.001s-0.5 25.334 -0.5 38.001h69c0 89.333 0.166992 178 0.5 266s0.5 176.667 0.5 266h-69v77h186l83.5 -131.5l64.5 -100.5l111 -175l34 -54l34 -55h5zM383 732l-40 38l134 164l64 -63z" />
    <glyph glyph-name="nacute" unicode="&#x144;" horiz-adv-x="611" 
d="M365 500c35.333 0 63 -5.83398 83 -17.501s34.833 -25.834 44.5 -42.501s15.667 -34.5 18 -53.5s3.5 -35.5 3.5 -49.5v-261h74v-63c-14 -6.66699 -30.667 -11.5 -50 -14.5s-35.666 -4.5 -48.999 -4.5c-20 0 -35.333 3.16699 -46 9.5s-18.667 13.833 -24 22.5
s-8.5 17.334 -9.5 26.001s-1.5 15.667 -1.5 21v244c0 16.667 -1 31 -3 43s-5.66699 22 -11 30s-13.333 14 -24 18s-24.334 6 -41.001 6c-20.667 0 -43.167 -4.66699 -67.5 -14s-45.833 -19.666 -64.5 -30.999v-369h-106v413h-70v76h176v-43l5 -1c28 18 56 31.667 84 41
s54.333 14 79 14zM250 533.999l-40 37l133 165l64 -63z" />
    <glyph glyph-name="Ncommaaccent" unicode="&#x145;" horiz-adv-x="770" 
d="M558 169v439h-69v77h238v-77h-66v-608h-106l-160 246l-60.5 92.5l-60.5 94.5l-30 48.5l-31 48.5c-0.666992 0 -1 -0.166992 -1 -0.5s-0.333008 -0.5 -1 -0.5v-453h68c0 -12.667 0.166992 -25.334 0.5 -38.001s0.5 -25.334 0.5 -38.001h-240
c0 12.667 -0.166992 25.334 -0.5 38.001s-0.5 25.334 -0.5 38.001h69c0 89.333 0.166992 178 0.5 266s0.5 176.667 0.5 266h-69v77h186l83.5 -131.5l64.5 -100.5l111 -175l34 -54l34 -55h5zM329 -96c0 15.333 5.83301 28.5 17.5 39.5s26.167 16.5 43.5 16.5
c20 0 35.5 -6.66699 46.5 -20s16.167 -29.333 15.5 -48c-0.666992 -28 -9.5 -54 -26.5 -78s-39.5 -42.667 -67.5 -56l-25 31c23.333 20 35.333 41.333 36 64c-13.333 3.33301 -23.333 9.33301 -30 18s-10 19.667 -10 33z" />
    <glyph glyph-name="ncommaaccent" unicode="&#x146;" horiz-adv-x="611" 
d="M365 500c35.333 0 63 -5.83398 83 -17.501s34.833 -25.834 44.5 -42.501s15.667 -34.5 18 -53.5s3.5 -35.5 3.5 -49.5v-261h74v-63c-14 -6.66699 -30.667 -11.5 -50 -14.5s-35.666 -4.5 -48.999 -4.5c-20 0 -35.333 3.16699 -46 9.5s-18.667 13.833 -24 22.5
s-8.5 17.334 -9.5 26.001s-1.5 15.667 -1.5 21v244c0 16.667 -1 31 -3 43s-5.66699 22 -11 30s-13.333 14 -24 18s-24.334 6 -41.001 6c-20.667 0 -43.167 -4.66699 -67.5 -14s-45.833 -19.666 -64.5 -30.999v-369h-106v413h-70v76h176v-43l5 -1c28 18 56 31.667 84 41
s54.333 14 79 14zM256 -96.001c0 15.333 5.83301 28.5 17.5 39.5s26.167 16.5 43.5 16.5c20 0 35.5 -6.66699 46.5 -20s16.167 -29.333 15.5 -48c-0.666992 -28 -9.5 -54 -26.5 -78s-39.5 -42.667 -67.5 -56l-25 31c23.333 20 35.333 41.333 36 64
c-13.333 3.33301 -23.333 9.33301 -30 18s-10 19.667 -10 33z" />
    <glyph glyph-name="Ncaron" unicode="&#x147;" horiz-adv-x="770" 
d="M558 169v439h-69v77h238v-77h-66v-608h-106l-160 246l-60.5 92.5l-60.5 94.5l-30 48.5l-31 48.5c-0.666992 0 -1 -0.166992 -1 -0.5s-0.333008 -0.5 -1 -0.5v-453h68c0 -12.667 0.166992 -25.334 0.5 -38.001s0.5 -25.334 0.5 -38.001h-240
c0 12.667 -0.166992 25.334 -0.5 38.001s-0.5 25.334 -0.5 38.001h69c0 89.333 0.166992 178 0.5 266s0.5 176.667 0.5 266h-69v77h186l83.5 -131.5l64.5 -100.5l111 -175l34 -54l34 -55h5zM562 877l-154 -139h-68l-152 141l27 32l159 -100l159 101z" />
    <glyph glyph-name="ncaron" unicode="&#x148;" horiz-adv-x="611" 
d="M365 500c35.333 0 63 -5.83398 83 -17.501s34.833 -25.834 44.5 -42.501s15.667 -34.5 18 -53.5s3.5 -35.5 3.5 -49.5v-261h74v-63c-14 -6.66699 -30.667 -11.5 -50 -14.5s-35.666 -4.5 -48.999 -4.5c-20 0 -35.333 3.16699 -46 9.5s-18.667 13.833 -24 22.5
s-8.5 17.334 -9.5 26.001s-1.5 15.667 -1.5 21v244c0 16.667 -1 31 -3 43s-5.66699 22 -11 30s-13.333 14 -24 18s-24.334 6 -41.001 6c-20.667 0 -43.167 -4.66699 -67.5 -14s-45.833 -19.666 -64.5 -30.999v-369h-106v413h-70v76h176v-43l5 -1c28 18 56 31.667 84 41
s54.333 14 79 14zM462 688.999l-153 -144h-69l-152 146l28 33l158 -100l160 99z" />
    <glyph glyph-name="napostrophe" unicode="&#x149;" horiz-adv-x="749" 
d="M503 500c35.333 0 63 -5.83398 83 -17.501s34.833 -25.834 44.5 -42.501s15.667 -34.5 18 -53.5s3.5 -35.5 3.5 -49.5v-261h74v-63c-14 -6.66699 -30.667 -11.5 -50 -14.5s-35.666 -4.5 -48.999 -4.5c-20 0 -35.333 3.16699 -46 9.5s-18.667 13.833 -24 22.5
s-8.5 17.334 -9.5 26.001s-1.5 15.667 -1.5 21v244c0 16.667 -1 31 -3 43s-5.66699 22 -11 30s-13.333 14 -24 18s-24.334 6 -41.001 6c-20.667 0 -43.167 -4.66699 -67.5 -14s-45.833 -19.666 -64.5 -30.999v-369h-106v413h-70v76h176v-43l5 -1c28 18 56 31.667 84 41
s54.333 14 79 14zM10 618.999c0 15.333 5.83301 28.5 17.5 39.5s26.167 16.5 43.5 16.5c20 0 35.5 -6.66699 46.5 -20s16.167 -29.333 15.5 -48c-0.666992 -28 -9.5 -54 -26.5 -78s-39.5 -42.667 -67.5 -56l-25 31c23.333 20 35.333 41.333 36 64
c-13.333 3.33301 -23.333 9.33301 -30 18s-10 19.667 -10 33z" />
    <glyph glyph-name="Eng" unicode="&#x14a;" horiz-adv-x="770" 
d="M403 -111c11.333 -1.33301 23.001 -2.5 35.001 -3.5s23.333 -1.5 34 -1.5c11.333 0 22.333 1.16699 33 3.5s20.167 6.5 28.5 12.5s15 13.667 20 23s7.5 21 7.5 35v42l-36 56.5l-52 80.5l-62 96.5l-67 104l-68 104l-63 95.5h-2v-462h69v-75h-240v75h69v535h-69v75h182
l39.5 -60.5l60 -92l70 -108l69 -107.5l57.5 -90.5c16.667 -26.333 28.334 -45.5 35.001 -57.5h5v441h-69v75h238v-75h-66v-549v-57c0 -18.667 -0.666992 -37.667 -2 -57c-2 -46.667 -17.333 -82.5 -46 -107.5s-70.334 -37.5 -125.001 -37.5c-14 0 -29.833 1 -47.5 3
s-33.834 4.66699 -48.501 8l11 76v0z" />
    <glyph glyph-name="eng" unicode="&#x14b;" horiz-adv-x="577" 
d="M366 500c32.667 0 58.999 -4.66602 78.999 -13.999s35.333 -21.5 46 -36.5s17.667 -32.333 21 -52s5 -39.5 5 -59.5v-284c0 -34 -1.66699 -64.667 -5 -92s-10.833 -50.5 -22.5 -69.5s-29.167 -33.667 -52.5 -44s-55 -15.5 -95 -15.5
c-13.333 0 -29.166 0.833008 -47.499 2.5s-34.833 4.16699 -49.5 7.5l11 79c10.667 -0.666992 21.5 -1.5 32.5 -2.5s22.167 -1.5 33.5 -1.5c12 0 23.333 1 34 3s20.167 6 28.5 12s14.833 14.167 19.5 24.5s7 23.833 7 40.5v316c0 33.333 -5.33301 58.666 -16 75.999
s-32 26 -64 26c-20.667 0 -43.167 -4.5 -67.5 -13.5s-45.833 -19.167 -64.5 -30.5v-372h-107v417h-70v72h176v-42l3 -2c27.333 17.333 55.833 30.833 85.5 40.5s56.167 14.5 79.5 14.5z" />
    <glyph glyph-name="Omacron" unicode="&#x14c;" horiz-adv-x="705" 
d="M655 342c0 -50 -6.33203 -96.333 -18.999 -139s-31.5 -79.834 -56.5 -111.501s-56.167 -56.334 -93.5 -74.001s-80.666 -26.5 -129.999 -26.5c-54 0 -100.333 8.33301 -139 25s-70.334 40.167 -95.001 70.5s-42.834 66.833 -54.501 109.5s-17.5 90.334 -17.5 143.001
c0 48 5.5 93.667 16.5 137s28.833 81.333 53.5 114s56.334 58.667 95.001 78s85.667 29 141 29c56 0 103.167 -9.66699 141.5 -29s69.166 -45.166 92.499 -77.499s40 -70 50 -113s15 -88.167 15 -135.5zM539.001 339c0 32.667 -2.33301 65.499 -7 98.499
s-13.667 62.5 -27 88.5s-32 47.167 -56 63.5s-55 24.5 -93 24.5s-69.333 -7.66699 -94 -23s-44.167 -35.833 -58.5 -61.5s-24.333 -55.167 -30 -88.5s-8.5 -67.666 -8.5 -102.999c0 -86 14.833 -151.5 44.5 -196.5s78.5 -67.5 146.5 -67.5c32 0 59.5 6.83301 82.5 20.5
s42 32.334 57 56.001s26 51.667 33 84s10.5 67.166 10.5 104.499zM192.001 822.999h338v-76h-338v76z" />
    <glyph glyph-name="omacron" unicode="&#x14d;" horiz-adv-x="538" 
d="M498 244c0 -32.667 -4.00195 -64.1689 -12.002 -94.502s-21.167 -57.166 -39.5 -80.499s-42.333 -42 -72 -56s-66.5 -21 -110.5 -21c-41.333 0 -76.166 6.66699 -104.499 20s-51.333 31.5 -69 54.5s-30.5 49.5 -38.5 79.5s-12 62 -12 96c0 33.333 4.33301 65.5 13 96.5
s22.334 58.333 41.001 82s42.667 42.667 72 57s64.666 21.5 105.999 21.5c42 0 77.5 -7.16699 106.5 -21.5s52.333 -33.166 70 -56.499s30.334 -50.5 38.001 -81.5s11.5 -62.833 11.5 -95.5zM388.998 241.998c0 20.667 -1.50098 41.5029 -4.50098 62.5029
s-8.66699 40 -17 57s-20 30.833 -35 41.5s-34.5 16 -58.5 16c-24.667 0 -45 -5.16699 -61 -15.5s-28.667 -23.833 -38 -40.5s-15.833 -35.5 -19.5 -56.5s-5.5 -42.5 -5.5 -64.5c0 -22.667 1.5 -44.334 4.5 -65.001s8.83301 -38.834 17.5 -54.501
s20.834 -28.167 36.501 -37.5s36.5 -14 62.5 -14c24 0 43.667 5 59 15s27.333 23 36 39s14.667 34.167 18 54.5s5 41.166 5 62.499zM96.9971 664.001h344v-76h-344v76z" />
    <glyph glyph-name="Obreve" unicode="&#x14e;" horiz-adv-x="705" 
d="M655 342c0 -50 -6.33203 -96.333 -18.999 -139s-31.5 -79.834 -56.5 -111.501s-56.167 -56.334 -93.5 -74.001s-80.666 -26.5 -129.999 -26.5c-54 0 -100.333 8.33301 -139 25s-70.334 40.167 -95.001 70.5s-42.834 66.833 -54.501 109.5s-17.5 90.334 -17.5 143.001
c0 48 5.5 93.667 16.5 137s28.833 81.333 53.5 114s56.334 58.667 95.001 78s85.667 29 141 29c56 0 103.167 -9.66699 141.5 -29s69.166 -45.166 92.499 -77.499s40 -70 50 -113s15 -88.167 15 -135.5zM539.001 339c0 32.667 -2.33301 65.499 -7 98.499
s-13.667 62.5 -27 88.5s-32 47.167 -56 63.5s-55 24.5 -93 24.5s-69.333 -7.66699 -94 -23s-44.167 -35.833 -58.5 -61.5s-24.333 -55.167 -30 -88.5s-8.5 -67.666 -8.5 -102.999c0 -86 14.833 -151.5 44.5 -196.5s78.5 -67.5 146.5 -67.5c32 0 59.5 6.83301 82.5 20.5
s42 32.334 57 56.001s26 51.667 33 84s10.5 67.166 10.5 104.499zM346.001 732.999c-18.667 0 -35.999 3.33398 -51.999 10.001s-31 15.5 -45 26.5s-27.167 23.667 -39.5 38s-23.833 29.166 -34.5 44.499l52 38c19.333 -26 39.833 -46.667 61.5 -62s42.167 -23 61.5 -23
c6 0 13.333 0.666992 22 2s19 4.5 31 9.5s25.667 12.833 41 23.5s32.666 25.334 51.999 44.001l32 -31c-30 -44.667 -60.833 -75.834 -92.5 -93.501s-61.5 -26.5 -89.5 -26.5z" />
    <glyph glyph-name="obreve" unicode="&#x14f;" horiz-adv-x="538" 
d="M498 244c0 -32.667 -4.00195 -64.1689 -12.002 -94.502s-21.167 -57.166 -39.5 -80.499s-42.333 -42 -72 -56s-66.5 -21 -110.5 -21c-41.333 0 -76.166 6.66699 -104.499 20s-51.333 31.5 -69 54.5s-30.5 49.5 -38.5 79.5s-12 62 -12 96c0 33.333 4.33301 65.5 13 96.5
s22.334 58.333 41.001 82s42.667 42.667 72 57s64.666 21.5 105.999 21.5c42 0 77.5 -7.16699 106.5 -21.5s52.333 -33.166 70 -56.499s30.334 -50.5 38.001 -81.5s11.5 -62.833 11.5 -95.5zM388.998 241.998c0 20.667 -1.50098 41.5029 -4.50098 62.5029
s-8.66699 40 -17 57s-20 30.833 -35 41.5s-34.5 16 -58.5 16c-24.667 0 -45 -5.16699 -61 -15.5s-28.667 -23.833 -38 -40.5s-15.833 -35.5 -19.5 -56.5s-5.5 -42.5 -5.5 -64.5c0 -22.667 1.5 -44.334 4.5 -65.001s8.83301 -38.834 17.5 -54.501
s20.834 -28.167 36.501 -37.5s36.5 -14 62.5 -14c24 0 43.667 5 59 15s27.333 23 36 39s14.667 34.167 18 54.5s5 41.166 5 62.499zM266.997 551.001c-18 0 -35.167 3.33398 -51.5 10.001s-31.5 15.5 -45.5 26.5s-27.167 23.667 -39.5 38s-23.833 29.166 -34.5 44.499l52 39
c19.333 -27.333 39.833 -48.333 61.5 -63s41.834 -22 60.501 -22c6 0 13.5 0.5 22.5 1.5s19.5 4 31.5 9s25.667 12.667 41 23s32.666 25.166 51.999 44.499l32 -31c-30 -45.333 -60.833 -76.666 -92.5 -93.999s-61.5 -26 -89.5 -26z" />
    <glyph glyph-name="Ohungarumlaut" unicode="&#x150;" horiz-adv-x="705" 
d="M655 342c0 -50 -6.33203 -96.333 -18.999 -139s-31.5 -79.834 -56.5 -111.501s-56.167 -56.334 -93.5 -74.001s-80.666 -26.5 -129.999 -26.5c-54 0 -100.333 8.33301 -139 25s-70.334 40.167 -95.001 70.5s-42.834 66.833 -54.501 109.5s-17.5 90.334 -17.5 143.001
c0 48 5.5 93.667 16.5 137s28.833 81.333 53.5 114s56.334 58.667 95.001 78s85.667 29 141 29c56 0 103.167 -9.66699 141.5 -29s69.166 -45.166 92.499 -77.499s40 -70 50 -113s15 -88.167 15 -135.5zM539.001 339c0 32.667 -2.33301 65.499 -7 98.499
s-13.667 62.5 -27 88.5s-32 47.167 -56 63.5s-55 24.5 -93 24.5s-69.333 -7.66699 -94 -23s-44.167 -35.833 -58.5 -61.5s-24.333 -55.167 -30 -88.5s-8.5 -67.666 -8.5 -102.999c0 -86 14.833 -151.5 44.5 -196.5s78.5 -67.5 146.5 -67.5c32 0 59.5 6.83301 82.5 20.5
s42 32.334 57 56.001s26 51.667 33 84s10.5 67.166 10.5 104.499zM301.001 733.999l-44 34l123 174l69 -56zM438.001 733.999l-43 34l122 174l70 -56z" />
    <glyph glyph-name="ohungarumlaut" unicode="&#x151;" horiz-adv-x="538" 
d="M498 244c0 -32.667 -4.00195 -64.1689 -12.002 -94.502s-21.167 -57.166 -39.5 -80.499s-42.333 -42 -72 -56s-66.5 -21 -110.5 -21c-41.333 0 -76.166 6.66699 -104.499 20s-51.333 31.5 -69 54.5s-30.5 49.5 -38.5 79.5s-12 62 -12 96c0 33.333 4.33301 65.5 13 96.5
s22.334 58.333 41.001 82s42.667 42.667 72 57s64.666 21.5 105.999 21.5c42 0 77.5 -7.16699 106.5 -21.5s52.333 -33.166 70 -56.499s30.334 -50.5 38.001 -81.5s11.5 -62.833 11.5 -95.5zM388.998 241.998c0 20.667 -1.50098 41.5029 -4.50098 62.5029
s-8.66699 40 -17 57s-20 30.833 -35 41.5s-34.5 16 -58.5 16c-24.667 0 -45 -5.16699 -61 -15.5s-28.667 -23.833 -38 -40.5s-15.833 -35.5 -19.5 -56.5s-5.5 -42.5 -5.5 -64.5c0 -22.667 1.5 -44.334 4.5 -65.001s8.83301 -38.834 17.5 -54.501
s20.834 -28.167 36.501 -37.5s36.5 -14 62.5 -14c24 0 43.667 5 59 15s27.333 23 36 39s14.667 34.167 18 54.5s5 41.166 5 62.499zM186.997 533.001l-43 33l123 175l70 -57zM327.997 533.001l-43 33l122 175l70 -57z" />
    <glyph glyph-name="OE" unicode="&#x152;" horiz-adv-x="846" 
d="M353 697c18 0 35.1699 -1.16699 51.5029 -3.5s31.833 -5.5 46.5 -9.5h350v-173h-80v97h-234v-215c36 0.666992 72.167 1.16699 108.5 1.5s72.5 1.16602 108.5 2.49902v-78c-36 0.666992 -72.167 1.16699 -108.5 1.5s-72.5 0.5 -108.5 0.5v-245h247v101h82v-177h-386
c-12 -2 -24.5 -3.66699 -37.5 -5s-26.167 -2 -39.5 -2c-54.667 0 -101.334 8.16699 -140.001 24.5s-70.334 39.5 -95.001 69.5s-42.834 66.333 -54.501 109s-17.5 90.334 -17.5 143.001c0 48 5.5 93.667 16.5 137s28.833 81.333 53.5 114s56.5 58.667 95.5 78
s86.167 29 141.5 29zM353.003 71l10.999 -0.000976562c4 0 8 0.333008 12 1v543c-3.33301 0 -7 0.166992 -11 0.5s-8.66699 0.5 -14 0.5c-38 0 -69.333 -8 -94 -24s-44 -37 -58 -63s-23.833 -55.667 -29.5 -89s-8.5 -67.666 -8.5 -102.999
c0 -86.667 14.833 -152.667 44.5 -198s78.834 -68 147.501 -68z" />
    <glyph glyph-name="oe" unicode="&#x153;" horiz-adv-x="853" 
d="M806 41c-30 -16 -60.8301 -27.666 -92.4971 -34.999s-63.834 -11 -96.501 -11c-46 0 -83 7.33301 -111 22s-49.667 34.667 -65 60c-17.333 -25.333 -40.333 -45.833 -69 -61.5s-65 -23.5 -109 -23.5c-41.333 0 -76.333 6.66699 -105 20s-51.834 31.5 -69.501 54.5
s-30.5 49.5 -38.5 79.5s-12 62 -12 96c0 33.333 4.33301 65.5 13 96.5s22.334 58.333 41.001 82s42.667 42.667 72 57s64.666 21.5 105.999 21.5c43.333 0 78.666 -8.16699 105.999 -24.5s49 -37.833 65 -64.5c15.333 25.333 36.833 46.833 64.5 64.5
s64.167 26.5 109.5 26.5c47.333 0 84.666 -8.83301 111.999 -26.5s47.833 -39 61.5 -64s22.167 -50.667 25.5 -77s5 -48.5 5 -66.5v-38h-321c0 -21.333 2.16699 -41.5 6.5 -60.5s11.5 -35.5 21.5 -49.5s23.5 -25.167 40.5 -33.5s38.167 -12.5 63.5 -12.5
c27.333 0 52.833 2.66699 76.5 8s48.834 13.666 75.501 24.999zM387.003 242.001c0 20.667 -1.49902 41.667 -4.49902 63s-8.83301 40.5 -17.5 57.5s-20.5 31 -35.5 42s-34.833 16.5 -59.5 16.5s-44.834 -5.33301 -60.501 -16s-28 -24.5 -37 -41.5
s-15.333 -36.167 -19 -57.5s-5.5 -42.666 -5.5 -63.999c0 -22.667 1.5 -44.5 4.5 -65.5s9 -39.5 18 -55.5s21.333 -28.667 37 -38s36.5 -14 62.5 -14c24 0 43.667 5 59 15s27.333 23.333 36 40s14.5 35.167 17.5 55.5s4.5 41.166 4.5 62.499zM721.004 281.001
c0 21.333 -1.83398 40.833 -5.50098 58.5s-9.5 32.834 -17.5 45.501s-18.667 22.5 -32 29.5s-30 10.5 -50 10.5c-20.667 0 -38.167 -4 -52.5 -12s-26 -18.5 -35 -31.5s-15.667 -28.333 -20 -46s-7.16602 -35.834 -8.49902 -54.501h221z" />
    <glyph glyph-name="Racute" unicode="&#x154;" horiz-adv-x="648" 
d="M460 491c0 21.333 -3.33203 39.5 -9.99902 54.5s-15.5 27.167 -26.5 36.5s-24 16 -39 20s-30.5 6 -46.5 6h-121v-239h121c13.333 0 27.166 1.66699 41.499 5s27.5 9.5 39.5 18.5s21.833 21.333 29.5 37s11.5 36.167 11.5 61.5zM217.001 294l-0.000976562 -216h77v-78
h-251v78h64v530h-64v78h313c70 0 124 -16.667 162 -50s57 -81.333 57 -144c0 -16 -2 -33 -6 -51s-10.833 -35.5 -20.5 -52.5s-22.5 -32.333 -38.5 -46s-35.667 -24.167 -59 -31.5l108 -236l74 -10v-60c-13.333 -5.33301 -28.833 -9.33301 -46.5 -12s-32.167 -4 -43.5 -4
c-24 0 -41.667 5.33301 -53 16s-21.666 26 -30.999 46l-107 243h-135zM278 732l-40 38l134 164l64 -63z" />
    <glyph glyph-name="racute" unicode="&#x155;" horiz-adv-x="416" 
d="M208 419c10 8.66699 21.999 17.833 35.999 27.5s29 18.5 45 26.5s32.333 14.667 49 20s32.667 8 48 8c9.33301 0 16.333 -2.5 21 -7.5s7 -13.833 7 -26.5c0 -13.333 -2.66699 -29.333 -8 -48s-13.666 -34 -24.999 -46l-174 -1v-297h73v-75h-248v75h68v338h-66v76h171v-69
zM187.999 533.999l-40 37l133 165l64 -63z" />
    <glyph glyph-name="Rcommaaccent" unicode="&#x156;" horiz-adv-x="648" 
d="M460 491c0 21.333 -3.33203 39.5 -9.99902 54.5s-15.5 27.167 -26.5 36.5s-24 16 -39 20s-30.5 6 -46.5 6h-121v-239h121c13.333 0 27.166 1.66699 41.499 5s27.5 9.5 39.5 18.5s21.833 21.333 29.5 37s11.5 36.167 11.5 61.5zM217.001 294l-0.000976562 -216h77v-78
h-251v78h64v530h-64v78h313c70 0 124 -16.667 162 -50s57 -81.333 57 -144c0 -16 -2 -33 -6 -51s-10.833 -35.5 -20.5 -52.5s-22.5 -32.333 -38.5 -46s-35.667 -24.167 -59 -31.5l108 -236l74 -10v-60c-13.333 -5.33301 -28.833 -9.33301 -46.5 -12s-32.167 -4 -43.5 -4
c-24 0 -41.667 5.33301 -53 16s-21.666 26 -30.999 46l-107 243h-135zM264 -96c0 15.333 5.83301 28.5 17.5 39.5s26.167 16.5 43.5 16.5c20 0 35.5 -6.66699 46.5 -20s16.167 -29.333 15.5 -48c-0.666992 -28 -9.5 -54 -26.5 -78s-39.5 -42.667 -67.5 -56l-25 31
c23.333 20 35.333 41.333 36 64c-13.333 3.33301 -23.333 9.33301 -30 18s-10 19.667 -10 33z" />
    <glyph glyph-name="rcommaaccent" unicode="&#x157;" horiz-adv-x="416" 
d="M208 419c10 8.66699 21.999 17.833 35.999 27.5s29 18.5 45 26.5s32.333 14.667 49 20s32.667 8 48 8c9.33301 0 16.333 -2.5 21 -7.5s7 -13.833 7 -26.5c0 -13.333 -2.66699 -29.333 -8 -48s-13.666 -34 -24.999 -46l-174 -1v-297h73v-75h-248v75h68v338h-66v76h171v-69
zM98.999 -96.001c0 15.333 5.83301 28.5 17.5 39.5s26.167 16.5 43.5 16.5c20 0 35.5 -6.66699 46.5 -20s16.167 -29.333 15.5 -48c-0.666992 -28 -9.5 -54 -26.5 -78s-39.5 -42.667 -67.5 -56l-25 31c23.333 20 35.333 41.333 36 64
c-13.333 3.33301 -23.333 9.33301 -30 18s-10 19.667 -10 33z" />
    <glyph glyph-name="Rcaron" unicode="&#x158;" horiz-adv-x="648" 
d="M460 491c0 21.333 -3.33203 39.5 -9.99902 54.5s-15.5 27.167 -26.5 36.5s-24 16 -39 20s-30.5 6 -46.5 6h-121v-239h121c13.333 0 27.166 1.66699 41.499 5s27.5 9.5 39.5 18.5s21.833 21.333 29.5 37s11.5 36.167 11.5 61.5zM217.001 294l-0.000976562 -216h77v-78
h-251v78h64v530h-64v78h313c70 0 124 -16.667 162 -50s57 -81.333 57 -144c0 -16 -2 -33 -6 -51s-10.833 -35.5 -20.5 -52.5s-22.5 -32.333 -38.5 -46s-35.667 -24.167 -59 -31.5l108 -236l74 -10v-60c-13.333 -5.33301 -28.833 -9.33301 -46.5 -12s-32.167 -4 -43.5 -4
c-24 0 -41.667 5.33301 -53 16s-21.666 26 -30.999 46l-107 243h-135zM496 877l-154 -139h-68l-152 141l27 32l159 -100l159 101z" />
    <glyph glyph-name="rcaron" unicode="&#x159;" horiz-adv-x="416" 
d="M208 419c10 8.66699 21.999 17.833 35.999 27.5s29 18.5 45 26.5s32.333 14.667 49 20s32.667 8 48 8c9.33301 0 16.333 -2.5 21 -7.5s7 -13.833 7 -26.5c0 -13.333 -2.66699 -29.333 -8 -48s-13.666 -34 -24.999 -46l-174 -1v-297h73v-75h-248v75h68v338h-66v76h171v-69
zM383.999 688.999l-153 -144h-69l-152 146l28 33l158 -100l160 99z" />
    <glyph glyph-name="Sacute" unicode="&#x15a;" horiz-adv-x="575" 
d="M117 187l1.00195 -82.0039c24.667 -11.333 49.667 -19.166 75 -23.499s49 -6.5 71 -6.5c26 0 48.667 3.33301 68 10s35.333 15.167 48 25.5s22.167 22.333 28.5 36s9.5 27.5 9.5 41.5c0 20.667 -3.83301 37.334 -11.5 50.001s-18.334 23 -32.001 31
s-29.667 14.833 -48 20.5s-38.5 11.5 -60.5 17.5c-30.667 6.66699 -59.334 15 -86.001 25s-50 22.167 -70 36.5s-35.833 31.833 -47.5 52.5s-17.5 45.334 -17.5 74.001c0.666992 32.667 7.33398 61.5 20.001 86.5s29.834 45.833 51.501 62.5s47 29.334 76 38.001
s60.5 13 94.5 13c14.667 0 30.667 -0.666992 48 -2s34.833 -3.5 52.5 -6.5s35.167 -7.33301 52.5 -13s33.333 -12.5 48 -20.5l1 -143h-81l-1 83c-15.333 6.66699 -34.5 11.334 -57.5 14.001s-43.5 4 -61.5 4c-17.333 0 -33.833 -2.16699 -49.5 -6.5
s-29.334 -10.833 -41.001 -19.5s-21 -19.5 -28 -32.5s-10.5 -27.833 -10.5 -44.5c0 -16 4.16699 -29.833 12.5 -41.5s19.5 -21.834 33.5 -30.501s30.167 -16.167 48.5 -22.5s37.5 -11.833 57.5 -16.5c28 -6.66699 55.5 -14.5 82.5 -23.5s51.167 -21 72.5 -36
s38.5 -34 51.5 -57s19.5 -52.167 19.5 -87.5s-6.5 -65.666 -19.5 -90.999s-31.167 -46.333 -54.5 -63s-51.333 -28.834 -84 -36.501s-68.667 -11.5 -108 -11.5c-38.667 0 -78.334 3.66699 -119.001 11s-78.667 20.333 -114 39c0 24 -0.166992 48.167 -0.5 72.5
s-0.5 48.833 -0.5 73.5h80zM282.002 729.996l-40 38l134 164l64 -63z" />
    <glyph glyph-name="sacute" unicode="&#x15b;" horiz-adv-x="464" 
d="M107 149l3 -62.0059c13.333 -7.33301 29.333 -12.5 48 -15.5s35.667 -4.5 51 -4.5c30 0 55.5 4.83301 76.5 14.5s31.5 26.5 31.5 50.5c0 12 -2.5 22 -7.5 30s-11.833 14.833 -20.5 20.5s-18.834 10.5 -30.501 14.5l-36.5 12l-67 20
c-22 6.66699 -41.667 15.334 -59 26.001s-31.333 23.834 -42 39.501s-16 35.834 -16 60.501c0 25.333 4.83301 47 14.5 65s23 32.833 40 44.5s37.333 20.334 61 26.001s49.5 8.5 77.5 8.5c28.667 0 57.167 -2.83301 85.5 -8.5s53.5 -15.167 75.5 -28.5
c0 -19.333 0.166992 -38.833 0.5 -58.5s0.833008 -39.5 1.5 -59.5h-79l-2 65c-22.667 9.33301 -47.667 14 -75 14c-25.333 0 -46.833 -4.83301 -64.5 -14.5s-26.5 -26.167 -26.5 -49.5c0 -10 3.16699 -18.5 9.5 -25.5s14.333 -13 24 -18s19.834 -9.16699 30.501 -12.5l30 -9
l63 -18.5c22 -6.33301 42.167 -15.166 60.5 -26.499s33.333 -26.166 45 -44.499s17.5 -42.5 17.5 -72.5c0 -24 -5 -44.833 -15 -62.5s-24.167 -32.167 -42.5 -43.5s-40.5 -19.833 -66.5 -25.5s-54.667 -8.5 -86 -8.5c-28.667 0 -60 2.5 -94 7.5s-64.333 15.167 -91 30.5
l-2 119h77zM197 533.994l-40 37l133 165l64 -63z" />
    <glyph glyph-name="Scircumflex" unicode="&#x15c;" horiz-adv-x="575" 
d="M117 187l1.00195 -82.0039c24.667 -11.333 49.667 -19.166 75 -23.499s49 -6.5 71 -6.5c26 0 48.667 3.33301 68 10s35.333 15.167 48 25.5s22.167 22.333 28.5 36s9.5 27.5 9.5 41.5c0 20.667 -3.83301 37.334 -11.5 50.001s-18.334 23 -32.001 31
s-29.667 14.833 -48 20.5s-38.5 11.5 -60.5 17.5c-30.667 6.66699 -59.334 15 -86.001 25s-50 22.167 -70 36.5s-35.833 31.833 -47.5 52.5s-17.5 45.334 -17.5 74.001c0.666992 32.667 7.33398 61.5 20.001 86.5s29.834 45.833 51.501 62.5s47 29.334 76 38.001
s60.5 13 94.5 13c14.667 0 30.667 -0.666992 48 -2s34.833 -3.5 52.5 -6.5s35.167 -7.33301 52.5 -13s33.333 -12.5 48 -20.5l1 -143h-81l-1 83c-15.333 6.66699 -34.5 11.334 -57.5 14.001s-43.5 4 -61.5 4c-17.333 0 -33.833 -2.16699 -49.5 -6.5
s-29.334 -10.833 -41.001 -19.5s-21 -19.5 -28 -32.5s-10.5 -27.833 -10.5 -44.5c0 -16 4.16699 -29.833 12.5 -41.5s19.5 -21.834 33.5 -30.501s30.167 -16.167 48.5 -22.5s37.5 -11.833 57.5 -16.5c28 -6.66699 55.5 -14.5 82.5 -23.5s51.167 -21 72.5 -36
s38.5 -34 51.5 -57s19.5 -52.167 19.5 -87.5s-6.5 -65.666 -19.5 -90.999s-31.167 -46.333 -54.5 -63s-51.333 -28.834 -84 -36.501s-68.667 -11.5 -108 -11.5c-38.667 0 -78.334 3.66699 -119.001 11s-78.667 20.333 -114 39c0 24 -0.166992 48.167 -0.5 72.5
s-0.5 48.833 -0.5 73.5h80zM451.002 732.996l-159 99l-158 -100l-27 33l151 142h69l154 -140z" />
    <glyph glyph-name="scircumflex" unicode="&#x15d;" horiz-adv-x="464" 
d="M107 149l3 -62.0059c13.333 -7.33301 29.333 -12.5 48 -15.5s35.667 -4.5 51 -4.5c30 0 55.5 4.83301 76.5 14.5s31.5 26.5 31.5 50.5c0 12 -2.5 22 -7.5 30s-11.833 14.833 -20.5 20.5s-18.834 10.5 -30.501 14.5l-36.5 12l-67 20
c-22 6.66699 -41.667 15.334 -59 26.001s-31.333 23.834 -42 39.501s-16 35.834 -16 60.501c0 25.333 4.83301 47 14.5 65s23 32.833 40 44.5s37.333 20.334 61 26.001s49.5 8.5 77.5 8.5c28.667 0 57.167 -2.83301 85.5 -8.5s53.5 -15.167 75.5 -28.5
c0 -19.333 0.166992 -38.833 0.5 -58.5s0.833008 -39.5 1.5 -59.5h-79l-2 65c-22.667 9.33301 -47.667 14 -75 14c-25.333 0 -46.833 -4.83301 -64.5 -14.5s-26.5 -26.167 -26.5 -49.5c0 -10 3.16699 -18.5 9.5 -25.5s14.333 -13 24 -18s19.834 -9.16699 30.501 -12.5l30 -9
l63 -18.5c22 -6.33301 42.167 -15.166 60.5 -26.499s33.333 -26.166 45 -44.499s17.5 -42.5 17.5 -72.5c0 -24 -5 -44.833 -15 -62.5s-24.167 -32.167 -42.5 -43.5s-40.5 -19.833 -66.5 -25.5s-54.667 -8.5 -86 -8.5c-28.667 0 -60 2.5 -94 7.5s-64.333 15.167 -91 30.5
l-2 119h77zM382 530.994l-159 100l-158 -100l-28 33l152 146h69l153 -145z" />
    <glyph glyph-name="Scedilla" unicode="&#x15e;" horiz-adv-x="575" 
d="M117 187l0.999023 -82.0059c24.667 -11.333 49.667 -19.166 75 -23.499s49 -6.5 71 -6.5c26 0 48.667 3.33301 68 10s35.333 15.167 48 25.5s22.167 22.333 28.5 36s9.5 27.5 9.5 41.5c0 20.667 -3.83301 37.334 -11.5 50.001s-18.334 23 -32.001 31
s-29.667 14.833 -48 20.5s-38.5 11.5 -60.5 17.5c-30.667 6.66699 -59.334 15 -86.001 25s-50 22.167 -70 36.5s-35.833 31.833 -47.5 52.5s-17.5 45.334 -17.5 74.001c0.666992 32.667 7.33398 61.5 20.001 86.5s29.834 45.833 51.501 62.5s47 29.334 76 38.001
s60.5 13 94.5 13c14.667 0 30.667 -0.666992 48 -2s34.833 -3.5 52.5 -6.5s35.167 -7.33301 52.5 -13s33.333 -12.5 48 -20.5l1 -143h-81l-1 83c-15.333 6.66699 -34.5 11.334 -57.5 14.001s-43.5 4 -61.5 4c-17.333 0 -33.833 -2.16699 -49.5 -6.5
s-29.334 -10.833 -41.001 -19.5s-21 -19.5 -28 -32.5s-10.5 -27.833 -10.5 -44.5c0 -16 4.16699 -29.833 12.5 -41.5s19.5 -21.834 33.5 -30.501s30.167 -16.167 48.5 -22.5s37.5 -11.833 57.5 -16.5c28 -6.66699 55.5 -14.5 82.5 -23.5s51.167 -21 72.5 -36
s38.5 -34 51.5 -57s19.5 -52.167 19.5 -87.5c0 -33.333 -5.83301 -62.166 -17.5 -86.499s-28 -44.666 -49 -60.999s-46.167 -28.833 -75.5 -37.5s-61.666 -14 -96.999 -16l-20 -26c-6.66699 -8.66699 -13 -17.667 -19 -27c32.667 -1.33301 58.834 -8.83301 78.501 -22.5
s29.5 -34.167 29.5 -61.5c-0.666992 -14 -4.66699 -27.167 -12 -39.5s-18.5 -23.166 -33.5 -32.499s-34 -16.666 -57 -21.999s-50.167 -8 -81.5 -8v41c36 3.33301 64.333 9.66602 85 18.999s31 22 31 38c0 8.66699 -3 15.667 -9 21s-13.667 9.33301 -23 12
s-19.833 4.33398 -31.5 5.00098s-23.167 1 -34.5 1l-14 21l30 40l31 40c-36 1.33301 -72 5.66602 -108 12.999s-70 19.666 -102 36.999c0 24 -0.166992 48.167 -0.5 72.5s-0.5 48.833 -0.5 73.5h80z" />
    <glyph glyph-name="scedilla" unicode="&#x15f;" horiz-adv-x="464" 
d="M107 149l2.99902 -62.0088c13.333 -7.33301 29.333 -12.5 48 -15.5s35.667 -4.5 51 -4.5c30 0 55.5 4.83301 76.5 14.5s31.5 26.5 31.5 50.5c0 12 -2.5 22 -7.5 30s-11.833 14.833 -20.5 20.5s-18.834 10.5 -30.501 14.5l-36.5 12l-67 20
c-22 6.66699 -41.667 15.334 -59 26.001s-31.333 23.834 -42 39.501s-16 35.834 -16 60.501c0 25.333 4.83301 47 14.5 65s23 32.833 40 44.5s37.333 20.334 61 26.001s49.5 8.5 77.5 8.5c28.667 0 57.167 -2.83301 85.5 -8.5s53.5 -15.167 75.5 -28.5
c0 -19.333 0.166992 -38.833 0.5 -58.5s0.833008 -39.5 1.5 -59.5h-79l-2 65c-22.667 9.33301 -47.667 14 -75 14c-25.333 0 -46.833 -4.83301 -64.5 -14.5s-26.5 -26.167 -26.5 -49.5c0 -10 3.16699 -18.5 9.5 -25.5s14.333 -13 24 -18s19.834 -9.16699 30.501 -12.5l30 -9
l63 -18.5c22 -6.33301 42.167 -15.166 60.5 -26.499s33.333 -26.166 45 -44.499s17.5 -42.5 17.5 -72.5c0 -43.333 -15.5 -76.166 -46.5 -98.499s-72.5 -35.5 -124.5 -39.5l-21 -27.5l-20 -27.5c32.667 -1.33301 58.834 -8.83301 78.501 -22.5s29.5 -34.167 29.5 -61.5
c-0.666992 -14 -4.66699 -27.167 -12 -39.5s-18.5 -23.166 -33.5 -32.499s-34 -16.666 -57 -21.999s-50.167 -8 -81.5 -8v41c36 3.33301 64.333 9.66602 85 18.999s31 22 31 38c0 8.66699 -3 15.667 -9 21s-13.667 9.33301 -23 12s-19.833 4.33398 -31.5 5.00098
s-23.167 1 -34.5 1l-14 21l31 40.5l30 40.5c-28 0.666992 -57.5 3.66699 -88.5 9s-58.833 15 -83.5 29l-2 119h77z" />
    <glyph glyph-name="Scaron" unicode="&#x160;" horiz-adv-x="575" 
d="M117 187l1.00195 -82.0039c24.667 -11.333 49.667 -19.166 75 -23.499s49 -6.5 71 -6.5c26 0 48.667 3.33301 68 10s35.333 15.167 48 25.5s22.167 22.333 28.5 36s9.5 27.5 9.5 41.5c0 20.667 -3.83301 37.334 -11.5 50.001s-18.334 23 -32.001 31
s-29.667 14.833 -48 20.5s-38.5 11.5 -60.5 17.5c-30.667 6.66699 -59.334 15 -86.001 25s-50 22.167 -70 36.5s-35.833 31.833 -47.5 52.5s-17.5 45.334 -17.5 74.001c0.666992 32.667 7.33398 61.5 20.001 86.5s29.834 45.833 51.501 62.5s47 29.334 76 38.001
s60.5 13 94.5 13c14.667 0 30.667 -0.666992 48 -2s34.833 -3.5 52.5 -6.5s35.167 -7.33301 52.5 -13s33.333 -12.5 48 -20.5l1 -143h-81l-1 83c-15.333 6.66699 -34.5 11.334 -57.5 14.001s-43.5 4 -61.5 4c-17.333 0 -33.833 -2.16699 -49.5 -6.5
s-29.334 -10.833 -41.001 -19.5s-21 -19.5 -28 -32.5s-10.5 -27.833 -10.5 -44.5c0 -16 4.16699 -29.833 12.5 -41.5s19.5 -21.834 33.5 -30.501s30.167 -16.167 48.5 -22.5s37.5 -11.833 57.5 -16.5c28 -6.66699 55.5 -14.5 82.5 -23.5s51.167 -21 72.5 -36
s38.5 -34 51.5 -57s19.5 -52.167 19.5 -87.5s-6.5 -65.666 -19.5 -90.999s-31.167 -46.333 -54.5 -63s-51.333 -28.834 -84 -36.501s-68.667 -11.5 -108 -11.5c-38.667 0 -78.334 3.66699 -119.001 11s-78.667 20.333 -114 39c0 24 -0.166992 48.167 -0.5 72.5
s-0.5 48.833 -0.5 73.5h80zM486.002 876.996l-154 -139h-68l-152 141l27 32l159 -100l159 101z" />
    <glyph glyph-name="scaron" unicode="&#x161;" horiz-adv-x="464" 
d="M107 149l3 -62.0059c13.333 -7.33301 29.333 -12.5 48 -15.5s35.667 -4.5 51 -4.5c30 0 55.5 4.83301 76.5 14.5s31.5 26.5 31.5 50.5c0 12 -2.5 22 -7.5 30s-11.833 14.833 -20.5 20.5s-18.834 10.5 -30.501 14.5l-36.5 12l-67 20
c-22 6.66699 -41.667 15.334 -59 26.001s-31.333 23.834 -42 39.501s-16 35.834 -16 60.501c0 25.333 4.83301 47 14.5 65s23 32.833 40 44.5s37.333 20.334 61 26.001s49.5 8.5 77.5 8.5c28.667 0 57.167 -2.83301 85.5 -8.5s53.5 -15.167 75.5 -28.5
c0 -19.333 0.166992 -38.833 0.5 -58.5s0.833008 -39.5 1.5 -59.5h-79l-2 65c-22.667 9.33301 -47.667 14 -75 14c-25.333 0 -46.833 -4.83301 -64.5 -14.5s-26.5 -26.167 -26.5 -49.5c0 -10 3.16699 -18.5 9.5 -25.5s14.333 -13 24 -18s19.834 -9.16699 30.501 -12.5l30 -9
l63 -18.5c22 -6.33301 42.167 -15.166 60.5 -26.499s33.333 -26.166 45 -44.499s17.5 -42.5 17.5 -72.5c0 -24 -5 -44.833 -15 -62.5s-24.167 -32.167 -42.5 -43.5s-40.5 -19.833 -66.5 -25.5s-54.667 -8.5 -86 -8.5c-28.667 0 -60 2.5 -94 7.5s-64.333 15.167 -91 30.5
l-2 119h77zM419 688.994l-153 -144h-69l-152 146l28 33l158 -100l160 99z" />
    </font>
</defs>
</svg>
