<?xml version="1.0" standalone="no"?>
<!DOCTYPE svg PUBLIC "-//W3C//DTD SVG 1.1//EN" "http://www.w3.org/Graphics/SVG/1.1/DTD/svg11.dtd" >
<svg>
<metadata>
Created by FontForge 20090914 at Mon Aug 11 14:04:07 2014
 By www-data
Copyright (c) 2006 Parachute&#194;&#168;, www.parachute.gr.  All rights reserved.
</metadata>
<defs>
<font id="PFAgoraSlabPro-MediumItalic" horiz-adv-x="1818" >
  <font-face 
    font-family="PF Agora Slab Pro Medium"
    font-weight="500"
    font-style="italic"
    font-stretch="normal"
    units-per-em="1000"
    panose-1="2 0 5 0 0 0 0 9 0 4"
    ascent="750"
    descent="-250"
    x-height="489"
    cap-height="686"
    bbox="-308.001 -263.992 1760 956"
    underline-thickness="50"
    underline-position="-50"
    slope="-12"
    unicode-range="U+0020-U+FB05"
  />
<missing-glyph horiz-adv-x="431" 
d="M0 686h430v-686h-430v686zM353 49l-137 249l-139 -249h276zM353 637h-276l139 -249zM48 92l138 251l-138 252v-503zM382 90v508l-138 -256z" />
    <glyph glyph-name="fj" unicode="fj" horiz-adv-x="561" 
d="M483 94c-4.66699 -41.333 -11.4971 -79.167 -20.4971 -113.5s-22 -64.833 -39 -91.5s-38.833 -49.167 -65.5 -67.5s-60 -31.833 -100 -40.5l-19 65c28 12 50.5 26.167 67.5 42.5s30.333 34.666 40 54.999s16.667 42.5 21 66.5s8.16602 49.667 11.499 77l33 325h-195
c-0.666992 -4 -1.83398 -13.667 -3.50098 -29s-3.83398 -33.666 -6.50098 -54.999s-5.33398 -44.166 -8.00098 -68.499l-7.5 -68.5c-2.33301 -21.333 -4.5 -39.833 -6.5 -55.5s-3 -25.167 -3 -28.5c-5.33301 -43.333 -11.5 -84.666 -18.5 -123.999s-17.833 -74 -32.5 -104
s-34.5 -54 -59.5 -72s-58.5 -27 -100.5 -27c-14.667 0 -30.667 1.16699 -48 3.5s-35.333 6.5 -54 12.5l18 67c15.333 -3.33301 28.166 -5.33301 38.499 -6s20.166 -1 29.499 -1c30.667 0 55.167 11.667 73.5 35s31.5 64.333 39.5 123l17.5 141l12.5 101l8 68.5l5 43.5
c1.33301 11.333 2.33301 20.166 3 26.499s1.33398 12.166 2.00098 17.499h-84l7 54l84 19l12 78c7.33301 55.333 28.333 97.5 63 126.5s84.334 43.5 149.001 43.5c21.333 0 44.333 -1.5 69 -4.5s50.667 -8.5 78 -16.5l-19 -73c-23.333 4.66699 -44.166 8 -62.499 10
s-36.833 3 -55.5 3c-38 0 -66.667 -7.66699 -86 -23s-31.333 -42.666 -36 -81.999l-9 -68h131c15.333 0 37.5 1.66699 66.5 5s58.167 7.66602 87.5 12.999l14 -8z" />
    <glyph glyph-name="ffj" unicode="ffj" horiz-adv-x="853" 
d="M775 124c-4.66699 -40.667 -11.499 -78.1768 -20.499 -112.51s-22 -64.666 -39 -90.999s-38.833 -48.833 -65.5 -67.5s-60 -32.334 -100 -41.001c-3.33301 11.333 -6.33301 22.333 -9 33s-5.66699 21.334 -9 32.001c30 12.667 53.667 28.334 71 47.001
s30.666 39.5 39.999 62.5s16 47.833 20 74.5s7.66699 54.667 11 84l29 265h-191l-17 -146.5l-16 -141.5c-5.33301 -43.333 -11.166 -84.666 -17.499 -123.999s-16.666 -74.166 -30.999 -104.499s-33.833 -54.5 -58.5 -72.5s-58 -27 -100 -27c-17.333 0 -33.5 1 -48.5 3
s-30.5 5.66699 -46.5 11l19 68c12 -2 22.667 -3.33301 32 -4s18.333 -1 27 -1c18.667 0 34.5 4 47.5 12s23.833 19 32.5 33s15.5 31 20.5 51s8.83301 42 11.5 66c0.666992 8.66699 2.33398 23.667 5.00098 45s5.5 45.833 8.5 73.5s6.33301 56.334 10 86.001l10 82.5l7.5 63
c2 16.667 3 25.667 3 27h-189l-37 -307c-5.33301 -42.667 -11.333 -83.5 -18 -122.5s-17.334 -73.5 -32.001 -103.5s-34.334 -54 -59.001 -72s-57.667 -27 -99 -27c-19.333 0 -37.166 1.33301 -53.499 4s-32.833 6.66699 -49.5 12l10 34.5
c3.33301 11.667 6.33301 23.167 9 34.5c16.667 -3.33301 30 -5.33301 40 -6s20 -1 30 -1c18 0 33.5 4.5 46.5 13.5s23.667 21.333 32 37s15.166 34.334 20.499 56.001s9.66602 45.5 12.999 71.5c2.66699 18.667 5.5 40.834 8.5 66.501l9.5 80l10 81.5l9 72.5l6.5 53
c1.66699 13.667 2.5 21.167 2.5 22.5h-84c1.33301 9.33301 2.5 18.5 3.5 27.5s2.16699 18.167 3.5 27.5l85 19l4 30c7.33301 72.667 30 124.834 68 156.501s92.333 47.5 163 47.5c19.333 0 41 -1.66699 65 -5s44.667 -8 62 -14c19.333 15.333 41.166 26.833 65.499 34.5
s54.833 11.5 91.5 11.5c23.333 0 47.333 -1.66699 72 -5s48.667 -8 72 -14l-9.5 -37.5l-9.5 -37.5c-19.333 4 -38.166 7.33301 -56.499 10s-36.166 4 -53.499 4c-41.333 0 -72.833 -7.66699 -94.5 -23s-34.834 -43 -39.501 -83l-9 -80h127c16 0 38.333 1.5 67 4.5
s57.667 7.16699 87 12.5c2.66699 -1.33301 5.16699 -2.66602 7.5 -3.99902s4.83301 -2.66602 7.5 -3.99902zM365.001 637.99c-16 0 -31.334 -1.33105 -46.001 -3.99805s-27.834 -8.33398 -39.501 -17.001s-21.5 -21.334 -29.5 -38.001s-13.333 -39 -16 -67l-4 -33h189
l6 48.5c2 16.333 4.33301 32.833 7 49.5c1.33301 9.33301 3 18.5 5 27.5s4.66699 17.167 8 24.5c-6.66699 1.33301 -14 2.5 -22 3.5l-23 3c-7.33301 1 -14.166 1.66699 -20.499 2s-11.166 0.5 -14.499 0.5z" />
    <glyph glyph-name="ff" unicode="ff" horiz-adv-x="661" 
d="M515 410l-15.9951 -151.994c-5.33301 -49.333 -11.333 -98 -18 -146c-5.33301 -42 -11.5 -82.167 -18.5 -120.5s-17.833 -72.333 -32.5 -102s-34.667 -53.334 -60 -71.001s-58.666 -26.5 -99.999 -26.5c-12.667 0 -26.834 1 -42.501 3s-31.5 5.66699 -47.5 11l19 69
c12 -3.33301 22.333 -5.33301 31 -6s17 -1 25 -1c16 0 30.167 2.66699 42.5 8s23.166 14.166 32.499 26.499s17.166 28.666 23.499 48.999s11.5 45.166 15.5 74.499l47 384h-196l-36 -307c-5.33301 -42.667 -11.333 -83.5 -18 -122.5s-17.334 -73.5 -32.001 -103.5
s-34.5 -54 -59.5 -72s-58.167 -27 -99.5 -27c-19.333 0.666992 -37.166 2 -53.499 4s-32.5 5.66699 -48.5 11l19 68c15.333 -3.33301 28 -5.33301 38 -6s20 -1 30 -1c18.667 0 34.334 3.33301 47.001 10s23.5 17 32.5 31s16.167 31.667 21.5 53
s9.66602 46.666 12.999 75.999c2 14.667 4.5 34 7.5 58l9.5 76.5l10 82.5l9.5 77.5c3 23.667 5.33301 43.834 7 60.501s2.83398 27 3.50098 31h-84c0.666992 9.33301 1.5 18.5 2.5 27.5s1.83301 18.167 2.5 27.5l88 19l11 69c4.66699 32 13.667 58.5 27 79.5
s29.666 37.667 48.999 50s41.5 21.166 66.5 26.499s51.833 8 80.5 8c18.667 0 39.167 -1.33301 61.5 -4s45.166 -7.66699 68.499 -15c15.333 15.333 35.5 26.666 60.5 33.999s49.5 11 73.5 11c15.333 0 31.333 -1.33301 48 -4s33.667 -6.66699 51 -12l-18 -72
c-13.333 3.33301 -26.5 5.5 -39.5 6.5s-24.167 1.5 -33.5 1.5c-10.667 0 -21.334 -1.33301 -32.001 -4s-20.5 -7 -29.5 -13s-16.833 -13.667 -23.5 -23s-11.334 -20.333 -14.001 -33c-3.33301 -16.667 -5.83301 -33 -7.5 -49l-6.5 -62h136l-4 -34.5l-4 -34.5h-136z
M422.005 479.006c2.66699 17.333 5.00195 34.834 7.00195 52.501s4.66699 34.5 8 50.5s7.66602 30.667 12.999 44c-14 3.33301 -29.167 6.16602 -45.5 8.49902s-29.5 3.5 -39.5 3.5c-19.333 0 -36 -1.66699 -50 -5s-25.833 -8.5 -35.5 -15.5s-17.5 -16.333 -23.5 -28
s-11 -25.5 -15 -41.5c-2.66699 -9.33301 -4.83398 -19.833 -6.50098 -31.5l-5.5 -37.5h193z" />
    <glyph glyph-name="fi" unicode="fi" horiz-adv-x="584" 
d="M356 479c8 0 17.6631 0.325195 28.9961 0.992188s23.833 1.83398 37.5 3.50098s27.834 3.5 42.501 5.5s29.334 4.33301 44.001 7c2.66699 -1.33301 5 -2.66602 7 -3.99902s4.33301 -2.66602 7 -3.99902l-25.5 -219l-23.5 -193c13.333 1.33301 26.833 3.83301 40.5 7.5
s26.834 8.83398 39.501 15.501l23 -44c-24.667 -24 -50.5 -41 -77.5 -51s-49.167 -15 -66.5 -15c-25.333 0 -42.333 5.83301 -51 17.5s-13 26.834 -13 45.501c0 15.333 1.33301 31 4 47s4.66699 31.667 6 47l32 264h-195l-36 -304
c-5.33301 -42.667 -11.333 -83.667 -18 -123s-17.167 -74 -31.5 -104s-34 -54 -59 -72s-58.167 -27 -99.5 -27c-32.667 0 -67 5.33301 -103 16l21 76c16.667 -3.33301 30 -5.33301 40 -6s20 -1 30 -1c18.667 0 34.334 4.33301 47.001 13s23.167 20.5 31.5 35.5
s14.833 32.167 19.5 51.5s8.33398 40 11.001 62l23.5 193.5l13 110.5c3 26 5.16699 44.167 6.5 54.5s2.33301 18.5 3 24.5h-83c1.33301 9.33301 2.5 18.5 3.5 27.5s2.16699 18.167 3.5 27.5l84 19l8 59c0 2.66699 0.666992 6.66699 2 12c6 36.667 15.167 66.5 27.5 89.5
s27.833 40.833 46.5 53.5s40.667 21.334 66 26.001s54 7 86 7c22 -0.666992 44.5 -2.66699 67.5 -6s45.167 -7.66602 66.5 -12.999l-19 -74c-23.333 4.66699 -44 8 -62 10s-36.333 3 -55 3c-25.333 0 -45.333 -2.33301 -60 -7s-26.167 -11.5 -34.5 -20.5
s-14.333 -19.667 -18 -32s-6.83398 -26.166 -9.50098 -41.499l-4.5 -28.5c-1.66699 -10.333 -3.5 -24.5 -5.5 -42.5h131v0z" />
    <glyph glyph-name="fl" unicode="fl" horiz-adv-x="584" 
d="M526 734l22 -13l-17.5 -152.5l-19 -168l-19 -169l-17.5 -155.5c26.667 2 53.334 9.66699 80.001 23l24 -47c-24.667 -23.333 -49.667 -39.833 -75 -49.5s-47.333 -14.5 -66 -14.5c-26 0 -43.667 6.16699 -53 18.5s-14 29.166 -14 50.499c0 2 1.16699 13 3.5 33l9 77.5
l12.5 107.5l14.5 123.5l14.5 125.5c4.66699 41.333 8.66699 79 12 113c-28.667 5.33301 -56 8 -82 8c-24 0 -43.667 -2.5 -59 -7.5s-27.666 -13.833 -36.999 -26.5s-16.5 -29.667 -21.5 -51s-9.16699 -48.333 -12.5 -81h132l-4 -34.5l-4 -34.5h-133l-36 -304
c-5.33301 -42.667 -11.333 -83.667 -18 -123s-17.167 -74 -31.5 -104s-34 -54 -59 -72s-58.167 -27 -99.5 -27c-17.333 0 -34.5 1.66699 -51.5 5s-34.167 7 -51.5 11l20 74c16.667 -3.33301 30 -5.33301 40 -6s20 -1 30 -1c18 0 33.167 3.33301 45.5 10
s22.666 16.834 30.999 30.501s15 30.834 20 51.501s9.5 45 13.5 73c2 13.333 4.33301 31.333 7 54l9 74.5l10 83l9 78.5l7 61c2 16.667 3.33301 27 4 31h-81c0.666992 9.33301 1.5 18.5 2.5 27.5s2.16699 18.167 3.5 27.5l83 19l4 36c1.33301 12 3 24.333 5 37
c10 61.333 34.167 105.666 72.5 132.999s86.166 41 143.499 41c30 0 63.333 -3.66699 100 -11z" />
    <glyph glyph-name="ffi" unicode="ffi" horiz-adv-x="873" 
d="M814 487l-50.001 -410.996c26.667 2 53.334 9.66699 80.001 23l23 -44c-24 -23.333 -49.667 -40.166 -77 -50.499s-50 -15.5 -68 -15.5c-25.333 0 -42 6.83301 -50 20.5s-12 30.167 -12 49.5v10l9 91l15.5 125.5l14.5 124.5h-187l-16 -146.5l-16 -142.5
c-5.33301 -43.333 -11.5 -85 -18.5 -125s-17.833 -75.167 -32.5 -105.5s-34.667 -54.5 -60 -72.5s-59 -27 -101 -27c-12.667 0 -26.834 1 -42.501 3s-31.5 5.33301 -47.5 10l18 72c12.667 -2.66699 23.5 -4.33398 32.5 -5.00098s17.5 -1 25.5 -1
c20 0 36.5 4.16699 49.5 12.5s23.667 19.666 32 33.999s14.833 30.833 19.5 49.5s8.66699 38 12 58l7.5 58.5l9.5 76c3.33301 27 6.5 54.5 9.5 82.5l8 77l6 60c1.66699 16.667 2.83398 27.334 3.50098 32.001h-189l-18 -153.5c-6 -52.333 -12.333 -103.5 -19 -153.5
c-4.66699 -42.667 -10.5 -83.5 -17.5 -122.5s-17.667 -73.5 -32 -103.5s-34 -54 -59 -72s-58.167 -27 -99.5 -27c-19.333 0.666992 -37.166 2.16699 -53.499 4.5s-32.833 6.16602 -49.5 11.499l19 70c16.667 -3.33301 30 -5.5 40 -6.5s20 -1.5 30 -1.5
c16.667 0 31 2.83301 43 8.5s22.333 14.667 31 27s15.834 28.666 21.501 48.999s10.5 45.5 14.5 75.5l7.5 59.5l9.5 78l10.5 84c3.66699 28.333 6.83398 54.5 9.50098 78.5l7 61.5c2 17 3.33301 27.833 4 32.5h-84c1.33301 9.33301 2.5 18.5 3.5 27.5
s2.16699 18.167 3.5 27.5l85 19l5 39c4 38.667 13.667 70.834 29 96.501s34.5 46 57.5 61s48.333 25.167 76 30.5s56.167 7.66602 85.5 6.99902c19.333 -0.666992 38.333 -2.83398 57 -6.50098s36 -7.83398 52 -12.501c38.667 30.667 91.667 46 159 46
c23.333 0 47 -1.66699 71 -5s47.667 -8 71 -14c-3.33301 -12 -6.5 -24.333 -9.5 -37s-6.16699 -25 -9.5 -37c-18.667 3.33301 -36.834 6.33301 -54.501 9s-34.834 4 -51.501 4c-18 0 -34.833 -1.5 -50.5 -4.5s-29.5 -8.5 -41.5 -16.5s-22.167 -19 -30.5 -33
s-13.833 -32 -16.5 -54l-8 -78h119c7.33301 0 17.5 0.166992 30.5 0.5s27.167 1 42.5 2s30.666 2.5 45.999 4.5s29 4.33301 41 7zM364.999 638.004c-16 0 -31.334 -1.33203 -46.001 -3.99902s-27.834 -8.33398 -39.501 -17.001s-21.5 -21.334 -29.5 -38.001
s-13.333 -39 -16 -67l-4 -33h189c2 16 3.83301 32.167 5.5 48.5s3.83398 32.833 6.50098 49.5c2.66699 18.667 7.33398 36 14.001 52c-14 2.66699 -29 4.83398 -45 6.50098s-27.667 2.5 -35 2.5z" />
    <glyph glyph-name="ffl" unicode="ffl" horiz-adv-x="876" 
d="M644 747c9.33301 0 22.5029 -0.501953 39.5029 -1.50195s34.833 -3.16699 53.5 -6.5l84 15l22 -13c-6 -48 -12.167 -100.333 -18.5 -157l-20 -173.5l-20.5 -174.5l-19 -160c26 2 53 9.66699 81 23l22 -44c-18.667 -17.333 -37.5 -31 -56.5 -41s-36.167 -16.667 -51.5 -20
c-8 -2 -15.5 -3.33301 -22.5 -4s-13.5 -1 -19.5 -1c-23.333 1.33301 -38.666 8.5 -45.999 21.5s-11 29.833 -11 50.5c0 3.33301 0.5 9.33301 1.5 18s2.16699 19.667 3.5 33l9 78c3.33301 30 7.16602 61.833 11.499 95.5l13 103.5l12.5 102.5l11 93
c3.33301 29 6 53.833 8 74.5c-14 2.66699 -26.833 4.5 -38.5 5.5s-24.167 1.5 -37.5 1.5c-34 0 -62.333 -7.83301 -85 -23.5s-36.667 -44.167 -42 -85.5c-0.666992 -6.66699 -1.33398 -12.5 -2.00098 -17.5l-2 -15.5c-0.666992 -5.33301 -1.33398 -11.5 -2.00098 -18.5
s-1.33398 -15.833 -2.00098 -26.5h133l-4 -34.5l-4 -34.5h-134c-4 -29.333 -7.83301 -59.666 -11.5 -90.999l-10.5 -94c-3.33301 -31.333 -6.83301 -61.5 -10.5 -90.5s-6.83398 -55.5 -9.50098 -79.5c-4.66699 -36 -9.83398 -70.167 -15.501 -102.5
s-15.334 -60.666 -29.001 -84.999s-32.667 -43.5 -57 -57.5s-57.5 -21 -99.5 -21c-12 0 -25.667 1 -41 3s-31 5.66699 -47 11c3.33301 11.333 6.5 22.666 9.5 33.999s5.83301 22.666 8.5 33.999c12.667 -2 23.334 -3.33301 32.001 -4s17 -1 25 -1
c16.667 0 30.834 1.83301 42.501 5.5s21.5 10 29.5 19s14.667 20.833 20 35.5s10 33.334 14 56.001c2 11.333 4.5 28.666 7.5 51.999s6.16699 49.5 9.5 78.5l10.5 90.5l10 89c3 28 5.5 52.5 7.5 73.5s3.66699 35.833 5 44.5h-189l-37 -307c-6 -50 -12.5 -95 -19.5 -135
s-17.5 -74 -31.5 -102s-33.333 -49.667 -58 -65s-57.667 -23 -99 -23c-19.333 0.666992 -37.166 2.16699 -53.499 4.5s-32.833 6.16602 -49.5 11.499l18 67c16.667 -3.33301 30 -5.33301 40 -6s20 -1 30 -1c16 0 30 2.33301 42 7s22.333 13.167 31 25.5s16 29 22 50
s11.333 47.5 16 79.5c1.33301 9.33301 3.33301 24.833 6 46.5l9 74l10.5 87l10.5 84.5c3.33301 26 6 48.333 8 67s3.33301 30.334 4 35.001h-84c1.33301 9.33301 2.5 18.5 3.5 27.5s2.16699 18.167 3.5 27.5l85 19c1.33301 16 2.5 25.833 3.5 29.5s1.5 6.16699 1.5 7.5
c7.33301 62.667 29.833 111.334 67.5 146.001s92.834 52 165.501 52c21.333 0 42.166 -2 62.499 -6s40.833 -8.66699 61.5 -14c19.333 16.667 41.833 28.834 67.5 36.501s54.167 11.5 85.5 11.5zM420.003 478.998c2 16 3.83203 32.167 5.49902 48.5
s3.83398 32.833 6.50098 49.5c1.33301 9.33301 3 18.5 5 27.5s4.66699 17.167 8 24.5c-14 2.66699 -28.333 5 -43 7s-28.667 3 -42 3c-15.333 0 -30 -1.83301 -44 -5.5s-26.5 -10.334 -37.5 -20.001s-20.5 -22.667 -28.5 -39s-13.333 -37.166 -16 -62.499l-4 -33h190z" />
    <glyph glyph-name="ft" unicode="ft" horiz-adv-x="678" 
d="M404 648c-12 3.33301 -23.832 5.49805 -35.499 6.49805s-22.167 1.5 -31.5 1.5c-13.333 0 -25.833 -2 -37.5 -6s-22 -11.167 -31 -21.5s-16.833 -24.666 -23.5 -42.999s-11.334 -41.5 -14.001 -69.5l-4 -37h191c2.66699 8 6.16699 17.5 10.5 28.5l13.5 34l13.5 33
c4.33301 10.333 7.83301 19.166 10.5 26.499c4 0.666992 9.16699 1.33398 15.5 2.00098l19.5 2l19.5 2c6.33301 0.666992 11.166 1.33398 14.499 2.00098l-16 -130h142l-7 -68h-142l-16 -130l-16 -130c-0.666992 -3.33301 -1 -6.5 -1 -9.5v-9.5c0 -18 3.66699 -32 11 -42
s22 -15 44 -15c9.33301 0 22.666 0.833008 39.999 2.5s35.333 5.16699 54 10.5l13 -68c-10 -4 -21.5 -7.66699 -34.5 -11s-25.833 -6.16602 -38.5 -8.49902s-24.834 -4 -36.501 -5s-21.5 -1.5 -29.5 -1.5c-43.333 0 -75.666 9 -96.999 27s-32 44 -32 78
c0 3.33301 0.166992 6.83301 0.5 10.5s0.5 7.16699 0.5 10.5l18 146.5l17 144.5h-192l-35 -313c-6 -48.667 -12.5 -92.334 -19.5 -131.001s-17.5 -71.5 -31.5 -98.5s-33.5 -47.833 -58.5 -62.5s-58.5 -22 -100.5 -22c-11.333 0 -26.166 1 -44.499 3s-37.166 6 -56.499 12
l18 69c16 -3.33301 29 -5.33301 39 -6s20 -1 30 -1c16.667 0 31 2.5 43 7.5s22.333 13.667 31 26s16.167 29 22.5 50s11.833 47.5 16.5 79.5l6 49.5l9 74l10 84l9.5 81l7.5 64.5c2 18 3.33301 29.333 4 34h-83l7 54l83 20l5 34c4 30 10.333 58.167 19 84.5
s20.5 49.333 35.5 69s34.167 35.167 57.5 46.5s52 17 86 17c13.333 0 28 -1 44 -3s32.667 -5.66699 50 -11z" />
    <glyph glyph-name=".notdef" horiz-adv-x="431" 
d="M0 686h430v-686h-430v686zM353 49l-137 249l-139 -249h276zM353 637h-276l139 -249zM48 92l138 251l-138 252v-503zM382 90v508l-138 -256z" />
    <glyph glyph-name="space" unicode=" " horiz-adv-x="273" 
 />
    <glyph glyph-name="exclam" unicode="!" horiz-adv-x="242" 
d="M107 108c17.333 0 30.668 -5.5 40.001 -16.5s14 -25.5 14 -43.5c0 -17.333 -7 -31.333 -21 -42s-29.667 -16 -47 -16c-15.333 0 -27.833 4.5 -37.5 13.5s-14.5 20.5 -14.5 34.5c0 20 6.16699 36.667 18.5 50s28.166 20 47.499 20zM82.002 178l49 521h99l-76 -521h-72z
" />
    <glyph glyph-name="quotedbl" unicode="&#x22;" horiz-adv-x="302" 
d="M231 467l12 220h88l-41 -220h-59zM116 467l12 220h88l-43 -220h-57z" />
    <glyph glyph-name="numbersign" unicode="#" horiz-adv-x="539" 
d="M442 404l-53 -153h76l-14 -55h-81l-65 -196h-60l64 196h-128l-66 -196h-60l65 196h-72l14 55h77l53 153h-79l13 54h84l60 174h60l-59 -174h129l60 174h60l-60 -174h70l-14 -54h-74zM201 251h128l51 153h-128z" />
    <glyph glyph-name="dollar" unicode="$" horiz-adv-x="558" 
d="M256 -75l50.499 403.498l49.5 405.5h38l-8 -65c18 -2 38.167 -6 60.5 -12s42.166 -14.667 59.499 -26c-3.33301 -22 -6.33301 -44.333 -9 -67l-8 -68h-64l11 81c-8.66699 4.66699 -18 8.33398 -28 11.001s-20.333 4.66699 -31 6l-27 -221
c18.667 -7.33301 36.834 -15.5 54.501 -24.5s33.5 -19.667 47.5 -32s25.167 -27.166 33.5 -44.499s12.5 -38.333 12.5 -63c0 -30 -4.83301 -56.833 -14.5 -80.5s-23.167 -43.834 -40.5 -60.501s-37.666 -30 -60.999 -40s-49 -17 -77 -21
c-2 -12.667 -3.83301 -26.167 -5.5 -40.5s-3.5 -28.166 -5.5 -41.499h-38zM322.999 733.998l-99 -809.002h-39c2 13.333 3.83301 26.833 5.5 40.5s3.5 26.5 5.5 38.5c-25.333 3.33301 -50.833 8.66602 -76.5 15.999s-49.167 18 -70.5 32
c3.33301 22.667 6.33301 45.334 9 68.001s5.66699 45.334 9 68.001h63l-9 -82c14 -7.33301 28 -12.5 42 -15.5s28 -5.5 42 -7.5l29 236c-18.667 6.66699 -36 14.5 -52 23.5s-29.667 19.5 -41 31.5s-20.333 26.167 -27 42.5s-10 35.5 -10 57.5
c0 28.667 4.66699 54.167 14 76.5s22 41.333 38 57s34.333 28.334 55 38.001s42.667 16.5 66 20.5l8 68h38zM313.999 86.9961c28.667 5.33301 52 17.166 70 35.499s27 44.5 27 78.5c0 22.667 -6.5 40.334 -19.5 53.001s-30.833 23.667 -53.5 33zM266.999 587.996
c-21.333 -5.33301 -39.667 -16.167 -55 -32.5s-23.333 -39.833 -24 -70.5v-1c0.666992 -22 6 -38.333 16 -49s23.667 -19.667 41 -27z" />
    <glyph glyph-name="percent" unicode="%" horiz-adv-x="830" 
d="M248 671c28 0 51.3301 -4.32812 69.9971 -12.9951s33.334 -20.334 44.001 -35.001s18.167 -31.5 22.5 -50.5s6.5 -38.833 6.5 -59.5c0 -27.333 -2.83301 -55.833 -8.5 -85.5s-15.667 -56.834 -30 -81.501s-33.666 -44.834 -57.999 -60.501s-54.833 -23.5 -91.5 -23.5
c-28 0 -51.333 4 -70 12s-33.5 19 -44.5 33s-18.833 30.333 -23.5 49s-7 38.667 -7 60s2.5 46.666 7.5 75.999s14.333 57.166 28 83.499s32.834 48.833 57.501 67.5s57 28 97 28zM245.997 609.005c-25.333 0 -45.168 -8.16797 -59.501 -24.501s-25.166 -35.5 -32.499 -57.5
s-12 -44.167 -14 -66.5s-3 -39.166 -3 -50.499c0 -26 5.16699 -47 15.5 -63s29.5 -24 57.5 -24c20 0 36.5 6 49.5 18s23.333 27 31 45s13.167 37.833 16.5 59.5s5 42.5 5 62.5c0 12.667 -0.833008 25 -2.5 37s-5 22.667 -10 32s-11.833 17 -20.5 23s-19.667 9 -33 9z
M306.995 -20.9961h-66l388 725h64zM708.995 405.004c28 0 51.332 -4.5 69.999 -13.5s33.334 -20.667 44.001 -35s18.167 -31 22.5 -50s6.5 -38.5 6.5 -58.5c0 -28 -3 -57 -9 -87s-16.167 -57.167 -30.5 -81.5s-33.5 -44.333 -57.5 -60s-54.333 -23.5 -91 -23.5
c-28 0 -51.333 4 -70 12s-33.667 19 -45 33s-19.333 30.333 -24 49s-7 38.334 -7 59.001c0 22 2.5 47.667 7.5 77s14.5 57.166 28.5 83.499s33.333 48.833 58 67.5s57 28 97 28zM706.994 343.004c-25.333 0 -45.168 -8.16699 -59.501 -24.5s-25.166 -35.5 -32.499 -57.5
s-12 -44.167 -14 -66.5s-3 -39.5 -3 -51.5c0 -25.333 5.16699 -45.833 15.5 -61.5s29.5 -23.5 57.5 -23.5c20 0 36.5 5.83301 49.5 17.5s23.333 26.5 31 44.5s13.167 37.833 16.5 59.5s5 42.5 5 62.5c0 12.667 -0.833008 25 -2.5 37s-5 22.667 -10 32s-11.833 17 -20.5 23
s-19.667 9 -33 9z" />
    <glyph glyph-name="ampersand" unicode="&#x26;" horiz-adv-x="874" 
d="M440 306c28.667 6 55.667 8.99902 81 8.99902c19.333 0 40 -1.33301 62 -4s44.667 -6.66699 68 -12c4.66699 15.333 7.66699 30.5 9 45.5s2 29.833 2 44.5c0 33.333 -4.5 64.333 -13.5 93s-23 53.334 -42 74.001s-43.167 36.834 -72.5 48.501s-64 17.5 -104 17.5
c-48 0 -90.667 -8.83301 -128 -26.5s-69.5 -40.834 -96.5 -69.501s-49 -61.334 -66 -98.001s-29.167 -74.334 -36.5 -113.001l-35.5 4l-34.5 4c6 42 18.5 84.833 37.5 128.5s45 83.167 78 118.5s73.333 64.333 121 87s103.5 34 167.5 34c56 0 103.5 -8.33301 142.5 -25
s70.667 -38.834 95 -66.501s42.166 -59.167 53.499 -94.5s17 -71.666 17 -108.999c0 -17.333 -1.16699 -35 -3.5 -53s-5.5 -35.667 -9.5 -53c18.667 0 34.834 1 48.501 3s25.5 5.16699 35.5 9.5s18.833 10 26.5 17s15.167 15.5 22.5 25.5
c5.33301 -6.66699 11.166 -13.167 17.499 -19.5l19.5 -19.5c-17.333 -27.333 -39.166 -47.666 -65.499 -60.999s-61.166 -20 -104.499 -20c-3.33301 0 -6.83301 0.166992 -10.5 0.5s-7.5 0.5 -11.5 0.5c-14 -33.333 -32.333 -64.5 -55 -93.5s-48.834 -54.5 -78.501 -76.5
s-62.167 -39.333 -97.5 -52s-73 -19 -113 -19c-38.667 0 -71.5 5.33301 -98.5 16s-49 25.334 -66 44.001s-29.333 40 -37 64s-11.5 49.667 -11.5 77c0 50 6.83301 94 20.5 132s31.167 69.667 52.5 95s45 44.333 71 57s51.333 19 76 19c17.333 0 32.833 -2.83301 46.5 -8.5
s25.167 -12.834 34.5 -21.501s16.5 -18.667 21.5 -30s7.5 -22.333 7.5 -33c0 -12.667 -2.5 -26.667 -7.5 -42s-16.833 -30.666 -35.5 -45.999v-2zM367 228.999c-7.33301 4 -12.666 11.4971 -15.999 22.4971s-7 21.167 -11 30.5c40 28.667 60 55.334 60 80.001
c0 13.333 -4 23.666 -12 30.999s-17.667 11 -29 11c-12 0 -25 -3.66699 -39 -11s-26.833 -19.166 -38.5 -35.499s-21.5 -37.666 -29.5 -63.999s-12 -58.166 -12 -95.499c0 -48 12.333 -84.167 37 -108.5s60 -36.5 106 -36.5c23.333 0 47 4.5 71 13.5s47 21.5 69 37.5
s42.167 35.333 60.5 58s33.166 47.667 44.499 75c-44 11.333 -85 17 -123 17c-44 0 -90 -8.33301 -138 -25z" />
    <glyph glyph-name="quotesingle" unicode="'" horiz-adv-x="206" 
d="M106 467l12 220h89l-43 -220h-58z" />
    <glyph glyph-name="parenleft" unicode="(" horiz-adv-x="296" 
d="M151 161c0 -40 2.33691 -75.832 7.00391 -107.499s10.167 -59.834 16.5 -84.501s13 -45.834 20 -63.501s13.167 -32.167 18.5 -43.5l-49 -32c-10.667 14.667 -21.834 33.5 -33.501 56.5s-22.5 49.667 -32.5 80s-18.333 64 -25 101s-10 77.167 -10 120.5
c0 66.667 7.33301 127.834 22 183.501s32.667 105.5 54 149.5s44.166 82 68.499 114s46.166 58 65.499 78l39 -31c-10.667 -14 -25 -36 -43 -66s-35.833 -67.167 -53.5 -111.5s-32.834 -95.333 -45.501 -153s-19 -121.167 -19 -190.5z" />
    <glyph glyph-name="parenright" unicode=")" horiz-adv-x="297" 
d="M157 387c0 38.667 -2.33301 73.8311 -7 105.498s-10.5 59.834 -17.5 84.501s-14.167 45.834 -21.5 63.501l-18 42.5l47 30c11.333 -16 23.166 -35.5 35.499 -58.5s23.5 -49.333 33.5 -79s18.333 -62.5 25 -98.5s10 -74.333 10 -115
c0 -68.667 -7.83301 -131.667 -23.5 -189s-34.5 -108.5 -56.5 -153.5s-45.167 -83.333 -69.5 -115s-45.166 -56.5 -62.499 -74.5l-40 33c10 14 24.333 35.667 43 65s37 66 55 110s33.667 95.167 47 153.5s20 123.5 20 195.5z" />
    <glyph glyph-name="asterisk" unicode="*" horiz-adv-x="391" 
d="M273 530l36.0039 -39.5l36 -39.5c-8.66699 -10 -20.834 -20.5 -36.501 -31.5s-29.5 -18.833 -41.5 -23.5l-35 107l-61 -106c-10.667 4 -22.667 11.333 -36 22s-23.333 21.334 -30 32.001l93 81l-111 15c2.66699 13.333 8 29 16 47s15.667 32 23 42l93 -58
c-0.666992 8 -1.33398 17 -2.00098 27l-2 30.5l-2 30.5c-0.666992 10 -1.33398 19 -2.00098 27c5.33301 1.33301 12.166 2.33301 20.499 3s16.833 1 25.5 1s17 -0.333008 25 -1s14.667 -1.66699 20 -3c-2.66699 -8 -5.5 -17 -8.5 -27l-9.5 -30.5l-10 -30.5l-9 -27l110 53
c6 -10.667 10.5 -24.834 13.5 -42.501s3.83301 -34.167 2.5 -49.5z" />
    <glyph glyph-name="plus" unicode="+" horiz-adv-x="558" 
d="M327 266l-21 -169h-69l20 169h-159l9 69h159l20 163h69l-20 -163h157l-8 -69h-157z" />
    <glyph glyph-name="comma" unicode="," horiz-adv-x="226" 
d="M97 117c18 0 31.999 -6.33301 41.999 -19s15 -28.334 15 -47.001c0 -16 -3.66699 -32.333 -11 -49s-17 -32.667 -29 -48s-25.667 -29.166 -41 -41.499s-31 -22.5 -47 -30.5l-21 34c15.333 12.667 27.833 25.167 37.5 37.5s16.834 27.833 21.501 46.5
c-11.333 2.66699 -20 8.16699 -26 16.5s-9 18.5 -9 30.5c0 18 6.16699 34.167 18.5 48.5s28.833 21.5 49.5 21.5z" />
    <glyph glyph-name="hyphen" unicode="-" horiz-adv-x="366" 
d="M56 225l10 82h258l-11 -82h-257z" />
    <glyph glyph-name="period" unicode="." horiz-adv-x="224" 
d="M97 116c16 0 28.999 -5.5 38.999 -16.5s15 -24.5 15 -40.5c0 -10 -2 -19.167 -6 -27.5s-9.16699 -15.5 -15.5 -21.5s-13.5 -10.833 -21.5 -14.5s-16.333 -5.5 -25 -5.5c-15.333 0 -28.166 5.33301 -38.499 16s-15.5 23.667 -15.5 39c0 20 6.83301 36.833 20.5 50.5
s29.5 20.5 47.5 20.5z" />
    <glyph glyph-name="slash" unicode="/" horiz-adv-x="339" 
d="M52 -30h-70l340 733h70z" />
    <glyph glyph-name="zero" unicode="0" horiz-adv-x="558" 
d="M327 675c44 0 80.166 -8 108.499 -24s50.5 -37 66.5 -63s27 -55.667 33 -89s9 -67 9 -101c0 -45.333 -4.66699 -91.833 -14 -139.5s-24.833 -91.167 -46.5 -130.5s-50.5 -71.666 -86.5 -96.999s-80.667 -38 -134 -38c-42 0 -77 6.66699 -105 20s-50.5 31.333 -67.5 54
s-29.167 49.167 -36.5 79.5s-11.333 62.166 -12 95.499c0 24 1.5 51.5 4.5 82.5s8.33301 62.5 16 94.5s18.167 63.333 31.5 94s30.5 58 51.5 82s46.333 43.333 76 58s64.834 22 105.501 22zM322.999 594c-28 0 -52 -7 -72 -21s-36.5 -32 -49.5 -54s-23.333 -46.667 -31 -74
s-13.5 -54.333 -17.5 -81s-6.5 -51.5 -7.5 -74.5s-1.5 -41.167 -1.5 -54.5c0.666992 -23.333 3.16699 -45 7.5 -65s11.333 -37.333 21 -52s22.5 -26 38.5 -34s36 -12 60 -12c32.667 0 60 10.5 82 31.5s39.5 47.667 52.5 80s22.167 68 27.5 107s8 76.5 8 112.5
c0 22.667 -1.5 45.334 -4.5 68.001s-8.83301 43.167 -17.5 61.5s-20.667 33.166 -36 44.499s-35.333 17 -60 17z" />
    <glyph glyph-name="one" unicode="1" horiz-adv-x="558" 
d="M78 73h139l62 495l-154 -22l-4 60l179 59h92l-73 -592h134l-9 -73h-374z" />
    <glyph glyph-name="two" unicode="2" horiz-adv-x="558" 
d="M165 73l228.001 -0.00195312l10 86h79l-19 -159h-448l7 67l73.5 61l81.5 69.5l80.5 74.5c26.333 25.333 49.5 50.833 69.5 76.5s36.167 51 48.5 76s18.5 48.833 18.5 71.5c0 31.333 -10 54.833 -30 70.5s-47.333 23.5 -82 23.5c-16 0 -38.333 -3.16699 -67 -9.5
s-63 -20.833 -103 -43.5l-31 65c44 29.333 85 49 123 59s71 15 99 15c58 0 105.167 -13.5 141.5 -40.5s54.5 -67.833 54.5 -122.5c0 -27.333 -5.33301 -54.666 -16 -81.999s-25 -54.166 -43 -80.499s-38.667 -52 -62 -77s-47.333 -49 -72 -72s-49.334 -44.833 -74.001 -65.5
l-68 -57z" />
    <glyph glyph-name="three" unicode="3" horiz-adv-x="558" 
d="M354 373c40 -7.33301 72.5029 -25.166 97.5029 -53.499s37.5 -62.5 37.5 -102.5c0 -30.667 -6.33301 -59.667 -19 -87s-30.834 -51.333 -54.501 -72s-52.334 -37.167 -86.001 -49.5s-71.5 -18.5 -113.5 -18.5c-36 0 -72.5 3.33301 -109.5 10s-68.5 17.334 -94.5 32.001
c2 4 4.33301 9 7 15l8.5 19.5l8.5 19.5c2.66699 6 5 11 7 15c20 -6.66699 37.833 -12 53.5 -16s30 -7.16699 43 -9.5s25 -3.83301 36 -4.5s21.833 -1 32.5 -1c23.333 0 45.666 3.16699 66.999 9.5s40.166 15.5 56.499 27.5s29.333 26.667 39 44s14.5 37 14.5 59
c0 36.667 -13 64.834 -39 84.501s-59 29.5 -99 29.5c-7.33301 0 -15.5 -0.333008 -24.5 -1s-19.167 -1.66699 -30.5 -3l-12 66c70 12 122 30.667 156 56s51 51.666 51 78.999c0 20.667 -7.83301 38.834 -23.5 54.501s-42.167 23.5 -79.5 23.5
c-22.667 0 -47.334 -3.16699 -74.001 -9.5s-58 -17.5 -94 -33.5l-5.5 14c-2.33301 6 -4.66602 12.333 -6.99902 19s-4.66602 13 -6.99902 19s-4.5 10.667 -6.5 14c38 20 75.167 34.667 111.5 44s71.166 14 104.499 14c32.667 0 60.667 -3.66699 84 -11
s42.333 -17.333 57 -30s25.334 -27.334 32.001 -44.001s10 -34 10 -52c0 -14.667 -2.5 -29.834 -7.5 -45.501s-12.833 -30.834 -23.5 -45.501s-24.667 -28.5 -42 -41.5s-38 -23.833 -62 -32.5v-5z" />
    <glyph glyph-name="four" unicode="4" horiz-adv-x="558" 
d="M491 665l-12.501 -95.5l-13 -105.5l-13 -106c-4.33301 -34.667 -8.16602 -66.667 -11.499 -96h95c-1.33301 -8.66699 -3 -21 -5 -37s-3.33301 -28.333 -4 -37h-95c-2 -18 -4.33301 -37.333 -7 -58s-5.33398 -40 -8.00098 -58h67l-8 -72h-229
c0.666992 4 1.33398 9.16699 2.00098 15.5s1.5 13 2.5 20s1.83301 13.833 2.5 20.5s1 12 1 16h63l15 116h-305l8 68l81.5 97l90.5 107.5l90 107.5l81 97h112zM373.999 556l-50 -63l-97.5 -115.5l-96.5 -115.5h213l36 294h-5z" />
    <glyph glyph-name="five" unicode="5" horiz-adv-x="558" 
d="M267 346c-17.333 0 -35.6689 -2.33594 -55.002 -7.00293s-38.666 -11 -57.999 -19l-51 34l49 311h366l-18 -149h-79l9 74h-202l-27 -185c8.66699 2.66699 21.5 6.33398 38.5 11.001s38.167 7 63.5 7c27.333 0 53 -3.5 77 -10.5s44.833 -18 62.5 -33s31.667 -34 42 -57
s15.5 -50.5 15.5 -82.5c0 -42 -7.66699 -78.667 -23 -110s-35.666 -57.166 -60.999 -77.499s-54.166 -35.666 -86.499 -45.999s-65.5 -15.5 -99.5 -15.5c-33.333 0 -68 3 -104 9s-68.667 17.333 -98 34l31 74c37.333 -14 68 -22.833 92 -26.5s46 -5.5 66 -5.5
c25.333 0 49 3 71 9s41 15.5 57 28.5s28.667 29.5 38 49.5s14 43.667 14 71c0 18.667 -3.5 35.167 -10.5 49.5s-16.333 26 -28 35s-25.334 15.833 -41.001 20.5s-32.5 7 -50.5 7z" />
    <glyph glyph-name="six" unicode="6" horiz-adv-x="558" 
d="M174 373c10 6 21.5029 11.665 34.5029 16.998s26.833 10.333 41.5 15s29.5 8.33398 44.5 11.001s29.5 4 43.5 4c24 0 46.5 -3.33301 67.5 -10s39.333 -17.167 55 -31.5s28 -32.666 37 -54.999s13.5 -48.833 13.5 -79.5c0 -39.333 -6.5 -74.5 -19.5 -105.5
s-30.833 -57.167 -53.5 -78.5s-49.334 -37.833 -80.001 -49.5s-64 -17.5 -100 -17.5c-38.667 0 -71 5.83301 -97 17.5s-46.833 28 -62.5 49s-26.834 46 -33.501 75s-10 60.5 -10 94.5c0 62 6.66699 120.167 20 174.5s33 101.5 59 141.5s58.667 71.667 98 95s85 35 137 35
c34 0 64.833 -3.33301 92.5 -10s47.167 -13 58.5 -19l-26 -72c-22.667 9.33301 -45.667 15.333 -69 18s-42.333 4 -57 4c-33.333 0 -61.833 -8 -85.5 -24s-43.334 -35.5 -59.001 -58.5s-27.667 -47.167 -36 -72.5s-13.833 -47 -16.5 -65zM307.003 342.998
c-21.333 0 -40.333 -2.33301 -57 -7s-31.334 -9.66699 -44.001 -15s-22.667 -10.5 -30 -15.5s-12 -7.83301 -14 -8.5l-4 -36c-1.33301 -12 -2 -24.333 -2 -37c0 -18 1.33301 -35.667 4 -53s8.16699 -33 16.5 -47s19.833 -25.333 34.5 -34s34 -13 58 -13c22.667 0 43 4 61 12
s33 19.167 45 33.5s21.167 31.333 27.5 51s9.5 41.5 9.5 65.5c0 30.667 -7.66699 55.667 -23 75s-42.666 29 -81.999 29z" />
    <glyph glyph-name="seven" unicode="7" horiz-adv-x="558" 
d="M111 491c4 29.333 7.66602 58.333 10.999 87s7 57.667 11 87h409l-6 -66l-338 -599h-101l168 295l169 295h-230c-2 -17.333 -4.16699 -34 -6.5 -50s-4.16602 -32.333 -5.49902 -49h-81z" />
    <glyph glyph-name="eight" unicode="8" horiz-adv-x="558" 
d="M330 597c-24 0 -43.667 -3.99902 -59 -11.999s-27.5 -17.5 -36.5 -28.5s-15.167 -22.333 -18.5 -34s-5 -21.167 -5 -28.5c0 -13.333 3.33301 -25 10 -35s15.5 -19 26.5 -27s24 -15.667 39 -23l48.5 -24c36 24 61 46.5 75 67.5s21 40.5 21 58.5
c0 10 -1.66699 20.167 -5 30.5s-8.83301 19.666 -16.5 27.999s-18 15 -31 20s-29.167 7.5 -48.5 7.5zM259 71.001c24.667 0 46.166 3.33496 64.499 10.002s33.5 15.667 45.5 27s20.833 24.166 26.5 38.499s8.5 29.166 8.5 44.499c0 16 -3 30.333 -9 43
s-15.167 24.334 -27.5 35.001s-28.333 21 -48 31s-43.167 20.333 -70.5 31c-20 -12.667 -36.833 -26 -50.5 -40s-24.667 -28.167 -33 -42.5s-14.166 -28.5 -17.499 -42.5s-5 -27 -5 -39c0 -26.667 9.5 -49.334 28.5 -68.001s48.167 -28 87.5 -28zM341.999 677.003
c24 0 47.333 -3.16699 70 -9.5s42.667 -16 60 -29s31.166 -29.5 41.499 -49.5s15.5 -43.333 15.5 -70c0 -28 -9 -56.5 -27 -85.5s-47.333 -57.167 -88 -84.5c27.333 -15.333 49.5 -35.666 66.5 -60.999s25.5 -56.666 25.5 -93.999c0 -24.667 -5.33301 -49.167 -16 -73.5
s-26.667 -46 -48 -65s-47.833 -34.333 -79.5 -46s-68.5 -17.5 -110.5 -17.5c-35.333 0 -66.333 4.33301 -93 13s-49 20.5 -67 35.5s-31.5 32.667 -40.5 53s-13.5 42.5 -13.5 66.5c0 17.333 2.66699 35.666 8 54.999s13.666 38.333 24.999 57s25.833 36.5 43.5 53.5
s39.167 31.5 64.5 43.5c-23.333 15.333 -40.833 32.333 -52.5 51s-17.5 40.667 -17.5 66c0 26.667 5.83301 51.667 17.5 75s27.834 43.666 48.501 60.999s45.334 30.833 74.001 40.5s59.667 14.5 93 14.5z" />
    <glyph glyph-name="nine" unicode="9" horiz-adv-x="558" 
d="M407 295c-10 -6 -21.501 -11.6641 -34.501 -16.9971s-26.833 -10.333 -41.5 -15s-29.5 -8.33398 -44.5 -11.001s-29.5 -4 -43.5 -4c-24 0 -46.5 3.33301 -67.5 10s-39.333 17.167 -55 31.5s-28 32.666 -37 54.999s-13.5 48.833 -13.5 79.5c0 38.667 6.5 73.667 19.5 105
s30.833 57.666 53.5 78.999s49.334 37.833 80.001 49.5s64 17.5 100 17.5c38.667 0 71 -5.83301 97 -17.5s46.833 -28 62.5 -49s26.834 -46 33.501 -75s10 -60.5 10 -94.5c0 -62 -6.66699 -120.167 -20 -174.5s-33 -101.5 -59 -141.5s-58.667 -71.667 -98 -95
s-85 -35 -137 -35c-34 0 -64.167 3.33301 -90.5 10s-45.166 13 -56.499 19l5 15.5c2 6.33301 4 13 6 20l6 20.5c2 6.66699 3.66699 12 5 16c22.667 -9.33301 45.667 -15.333 69 -18s42.333 -4 57 -4c33.333 0 61.833 8 85.5 24s43.167 35.5 58.5 58.5
s27.166 47.167 35.499 72.5s14.166 47 17.499 65zM273.999 325.003c20.667 0 39.501 2.33301 56.501 7s31.833 9.66699 44.5 15s22.667 10.5 30 15.5s12 7.83301 14 8.5l4 36c1.33301 12 2 24.333 2 37c0 18 -1.33301 35.667 -4 53s-8.16699 33 -16.5 47
s-19.833 25.333 -34.5 34s-34 13 -58 13c-23.333 0 -43.833 -4 -61.5 -12s-32.5 -19.167 -44.5 -33.5s-21.167 -31.333 -27.5 -51s-9.5 -41.5 -9.5 -65.5c0 -31.333 7.66699 -56.5 23 -75.5s42.666 -28.5 81.999 -28.5z" />
    <glyph glyph-name="colon" unicode=":" horiz-adv-x="221" 
d="M101 117c16 0 28.834 -5.33203 38.501 -15.999s14.5 -23.667 14.5 -39c0 -19.333 -6.5 -36 -19.5 -50s-28.833 -21 -47.5 -21c-16.667 0 -29.834 5.5 -39.501 16.5s-14.5 24.5 -14.5 40.5c0 19.333 6.83301 35.666 20.5 48.999s29.5 20 47.5 20zM139.001 424.001
c16 0 28.834 -5.16797 38.501 -15.501s14.5 -23.166 14.5 -38.499c0 -20 -6.83301 -37 -20.5 -51s-29.5 -21 -47.5 -21c-16 0 -29 5.66699 -39 17s-15 25 -15 41c0 10 2 19.167 6 27.5s9.16699 15.5 15.5 21.5s13.666 10.667 21.999 14s16.833 5 25.5 5z" />
    <glyph glyph-name="semicolon" unicode=";" horiz-adv-x="221" 
d="M99 117c18 0 32 -6.33301 42 -19s15 -28.334 15 -47.001c0 -16 -3.66699 -32.333 -11 -49s-17 -32.667 -29 -48s-25.667 -29.166 -41 -41.499s-31 -22.5 -47 -30.5l-22 34c15.333 12.667 28 25.167 38 37.5s17.333 27.833 22 46.5c-11.333 2.66699 -20 8.16699 -26 16.5
s-9 18.5 -9 30.5c0 18 6.16699 34.167 18.5 48.5s28.833 21.5 49.5 21.5zM139 424c16 0 28.834 -5.16797 38.501 -15.501s14.5 -23.166 14.5 -38.499c0 -20 -6.83301 -37 -20.5 -51s-29.5 -21 -47.5 -21c-16 0 -29 5.66699 -39 17s-15 25 -15 41c0 10 2 19.167 6 27.5
s9.16699 15.5 15.5 21.5s13.666 10.667 21.999 14s16.833 5 25.5 5z" />
    <glyph glyph-name="less" unicode="&#x3c;" horiz-adv-x="558" 
d="M466 61l-381 207l7 60l431 207l-10 -84l-332 -154c4.66699 -2.66699 14.5 -8 29.5 -16l53 -28l64.5 -34.5l64.5 -34.5l53 -28.5c15 -8.33301 24.833 -13.5 29.5 -15.5z" />
    <glyph glyph-name="equal" unicode="=" horiz-adv-x="558" 
d="M95 343l9 68h399l-8 -68h-400zM77 191l8 67h400l-9 -67h-399z" />
    <glyph glyph-name="greater" unicode="&#x3e;" horiz-adv-x="558" 
d="M70 144l334 154.999c-4.66699 2.66699 -14.667 8 -30 16l-53.5 28l-65 34l-65 34l-53 27.5c-15 7.66699 -24.833 12.834 -29.5 15.501l10 81l381 -207l-8 -60l-431 -207z" />
    <glyph glyph-name="question" unicode="?" horiz-adv-x="451" 
d="M290 706c56 0 99.0029 -12.0029 129.003 -36.0029s45 -55 45 -93c0 -37.333 -9 -69 -27 -95s-41.333 -50 -70 -72l-65.5 -51c-18.333 -14.667 -33.5 -28.834 -45.5 -42.501s-20.833 -27.667 -26.5 -42s-8.5 -30.5 -8.5 -48.5c0 -6 0.166992 -12.333 0.5 -19
s0.5 -14 0.5 -22c-13.333 -1.33301 -27.666 -3.16602 -42.999 -5.49902l-43 -6.5c-1.33301 11.333 -2.33301 21.833 -3 31.5s-1 18.834 -1 27.501c0 22.667 3.16699 43.334 9.5 62.001s15.666 36.5 27.999 53.5s27.666 33.667 45.999 50s39.5 33.5 63.5 51.5
c21.333 16.667 39.666 34 54.999 52s23 38 23 60c0 16 -6.66699 30.333 -20 43s-37 19 -71 19c-14.667 0 -30.834 -1.16699 -48.501 -3.5s-35.167 -6.16602 -52.5 -11.499l-11 -87h-74l18 151c35.333 12 69.833 20.667 103.5 26s63.167 8 88.5 8zM189.003 106.997
c16 0 28.833 -5 38.5 -15s14.5 -22.667 14.5 -38c0 -19.333 -6.83301 -34.833 -20.5 -46.5s-29.167 -17.5 -46.5 -17.5c-15.333 0 -28 4.66699 -38 14s-15 21.333 -15 36c0 17.333 6.33301 32.833 19 46.5s28.667 20.5 48 20.5z" />
    <glyph glyph-name="at" unicode="@" horiz-adv-x="906" 
d="M627 157c-38.667 0 -65.666 10.8408 -80.999 32.5078s-23 50.167 -23 85.5v4h-3c-6 -15.333 -12.333 -28.333 -19 -39s-13.667 -19.667 -21 -27c-17.333 -21.333 -35.333 -35.333 -54 -42s-34.667 -10 -48 -10c-32 0 -57.833 11.167 -77.5 33.5
s-29.5 56.166 -29.5 101.499c0 35.333 4.16699 68.666 12.5 99.999s20.666 58.833 36.999 82.5s36.833 42.334 61.5 56.001s53.334 20.5 86.001 20.5c14 0 28.833 -1.66699 44.5 -5s31.5 -8 47.5 -14l19 22l51 -6c-5.33301 -23.333 -10.333 -48 -15 -74
s-8.83398 -51.333 -12.501 -76s-6.66699 -47.334 -9 -68.001s-3.5 -37.334 -3.5 -50.001c0 -20 3.83301 -36.167 11.5 -48.5s21.834 -18.5 42.501 -18.5c12.667 0 26.834 3.66699 42.501 11s30.334 19 44.001 35s25.167 36.667 34.5 62s14 56.333 14 93
c0 76 -22.833 134.833 -68.5 176.5s-109.167 62.5 -190.5 62.5c-52 0 -100.5 -9.16699 -145.5 -27.5s-84.167 -43.333 -117.5 -75s-59.5 -69 -78.5 -112s-28.5 -89.167 -28.5 -138.5c0 -41.333 6.16699 -78.833 18.5 -112.5s30 -62.834 53 -87.501s51.167 -43.667 84.5 -57
s71 -20 113 -20c15.333 0.666992 33.666 2 54.999 4s44.666 7.33301 69.999 16l15 -48c-22 -10.667 -46.667 -18.167 -74 -22.5s-52.666 -6.5 -75.999 -6.5c-52 0 -98 8.16699 -138 24.5s-73.833 39.166 -101.5 68.499s-48.667 64.166 -63 104.499
s-21.5 84.166 -21.5 131.499c0 59.333 11.5 114.5 34.5 165.5s54.167 95.167 93.5 132.5s85.666 66.666 138.999 87.999s110 32 170 32c49.333 0 94 -6.83301 134 -20.5s74 -33.167 102 -58.5s49.667 -56 65 -92s23 -76.333 23 -121c0 -43.333 -6.33301 -81.5 -19 -114.5
s-29.334 -61 -50.001 -84s-44.167 -40.333 -70.5 -52s-52.833 -17.5 -79.5 -17.5zM403.001 221.008c8.66699 0 18.1631 2.66797 28.4961 8.00098s20.833 14.333 31.5 27s21.5 29.667 32.5 51s21.5 47.666 31.5 78.999l17 95c-15.333 6 -29.166 10 -41.499 12
s-23.166 3 -32.499 3c-23.333 0 -42.666 -6.33301 -57.999 -19s-27.666 -28.5 -36.999 -47.5s-15.833 -39.667 -19.5 -62s-5.5 -42.833 -5.5 -61.5c0 -28.667 4.83301 -50 14.5 -64s22.5 -21 38.5 -21z" />
    <glyph glyph-name="A" unicode="A" horiz-adv-x="676" 
d="M408 0l8 75h65l-21 114h-249l-49 -114h66l-8 -75h-226l7 75h57l275 611h132l123 -611h53l-9 -75h-224zM411 464l-22 134h-3l-53 -126l-88 -207h202z" />
    <glyph glyph-name="B" unicode="B" horiz-adv-x="628" 
d="M427 685c30.667 0 57.168 -3.83301 79.501 -11.5s40.833 -18.334 55.5 -32.001s25.5 -30 32.5 -49s10.5 -39.833 10.5 -62.5c0 -16 -1.83301 -32 -5.5 -48s-9.66699 -31.5 -18 -46.5s-19.666 -29 -33.999 -42s-32.166 -24.5 -53.499 -34.5v-1
c18.667 -6 34.167 -14.333 46.5 -25s22.166 -22.667 29.499 -36s12.333 -27.333 15 -42s4 -29 4 -43c0 -35.333 -6.16699 -66.166 -18.5 -92.499s-28.833 -48.333 -49.5 -66s-44.334 -31 -71.001 -40s-54.334 -13.5 -83.001 -13.5h-353c2 12.667 3.66699 25.167 5 37.5
l4 37.5h68l66 535h-65l9 75h326zM227.001 317l-28.999 -241.999h140c47.333 0 82.333 13.167 105 39.5s34 59.5 34 99.5c0 14 -2.16699 27.167 -6.5 39.5s-11 23.166 -20 32.499s-20.333 16.833 -34 22.5s-29.834 8.5 -48.501 8.5h-141zM264.002 610.001
c-5.33301 -37.333 -10 -74.332 -14 -110.999s-8.66699 -73.334 -14 -110.001h126c42 0 74.833 12 98.5 36s35.5 54.333 35.5 91c0 28 -8.33301 50.667 -25 68s-44 26 -82 26h-125z" />
    <glyph glyph-name="C" unicode="C" horiz-adv-x="575" 
d="M412 698c36 0 68.168 -2.66406 96.501 -7.99707s53.166 -12 74.499 -20l-21 -174h-79l12 104c-11.333 3.33301 -24.833 6.16602 -40.5 8.49902s-31.834 3.5 -48.501 3.5c-39.333 0 -73.5 -8.33301 -102.5 -25s-53 -39.667 -72 -69s-33.333 -64.666 -43 -105.999
s-14.5 -86.333 -14.5 -135c0 -62 14.333 -109 43 -141s77 -48 145 -48c8 0 18.167 0.333008 30.5 1s25.5 2 39.5 4s28.333 4.33301 43 7s28.667 6 42 10l16 -85c-13.333 -5.33301 -28.333 -10 -45 -14s-34 -7.5 -52 -10.5s-36.167 -5.33301 -54.5 -7s-35.5 -2.5 -51.5 -2.5
c-49.333 0 -91 6.5 -125 19.5s-61.667 31.667 -83 56s-36.833 53.666 -46.5 87.999s-14.5 72.5 -14.5 114.5c0 28 1.83301 58.167 5.5 90.5s10.334 64.333 20.001 96s22.834 62.167 39.501 91.5s38 55.166 64 77.499s57.167 40.166 93.5 53.499s79.166 20 128.499 20z" />
    <glyph glyph-name="D" unicode="D" horiz-adv-x="671" 
d="M16 0l8.00195 74.999h69l65 536h-64l9 75h282c49.333 0 90.5 -7.16699 123.5 -21.5s59.5 -34.166 79.5 -59.499s34.167 -55 42.5 -89s12.5 -70.667 12.5 -110c0 -54 -6 -105.5 -18 -154.5s-31.333 -92.167 -58 -129.5s-61.334 -67 -104.001 -89s-94.334 -33 -155.001 -33
h-292zM267.002 610.999l-65.998 -534.999h96c11.333 0 25.166 1.33301 41.499 4s33 8 50 16s34 19.333 51 34s32.167 34 45.5 58s24.166 53.333 32.499 88s12.5 76 12.5 124c0 47.333 -5.66699 85 -17 113s-25.333 49.167 -42 63.5s-34.667 23.666 -54 27.999
s-37.333 6.5 -54 6.5h-96z" />
    <glyph glyph-name="E" unicode="E" horiz-adv-x="589" 
d="M16 0l8 75h66l66 536h-63l8 74h500l-22 -173h-78l12 99h-250l-27 -218l236 5l-8 -79l-237 4l-30 -248h270l13 102h80l-22 -177h-522z" />
    <glyph glyph-name="F" unicode="F" horiz-adv-x="569" 
d="M16 0l8 75h67l65 536h-63l8 74h495l-22 -173h-77l12 99h-246l-27 -218l234 5l-10 -79l-233 4l-30 -248h92l-9 -75h-264z" />
    <glyph glyph-name="G" unicode="G" horiz-adv-x="638" 
d="M425 698c36 0 68.8369 -2.66699 98.5039 -8s54.834 -12 75.501 -20l-20 -171h-79l13 102c-12 3.33301 -26.333 6.16602 -43 8.49902s-33.334 3.5 -50.001 3.5c-41.333 0 -77.5 -8.5 -108.5 -25.5s-56.667 -40.5 -77 -70.5s-35.5 -65.333 -45.5 -106s-15 -85 -15 -133
c0 -30 2.83301 -57.167 8.5 -81.5s15.167 -45.333 28.5 -63s30.833 -31.167 52.5 -40.5s48.5 -14 80.5 -14c15.333 0 32.166 1.16699 50.499 3.5s35.166 5.83301 50.499 10.5l24 193h-88l8 70h235l-8 -70h-50l-32 -261c-70 -22.667 -139.333 -34 -208 -34
c-48.667 0 -89.834 6.83301 -123.501 20.5s-61 32.834 -82 57.501s-36.167 54 -45.5 88s-14 71.333 -14 112c0 28.667 2.16699 59.167 6.5 91.5s11.666 64.333 21.999 96s24.333 62.167 42 91.5s40 55 67 77s59 39.667 96 53s80.5 20 130.5 20z" />
    <glyph glyph-name="H" unicode="H" horiz-adv-x="717" 
d="M419 0l9 76h60l30 245h-292l-30 -245h61l-9 -76h-232l8 76h64l66 535h-64l9 75h232l-9 -75h-61l-26 -215h292l26 215h-60l9 75h233l-9 -75h-64l-66 -535h64l-8 -76h-233z" />
    <glyph glyph-name="I" unicode="I" horiz-adv-x="370" 
d="M43 0l9 75h63l65 536h-63l9 75h234l-9 -75h-64l-66 -536h64l-8 -75h-234z" />
    <glyph glyph-name="J" unicode="J" horiz-adv-x="380" 
d="M107 686l293 0.000976562l-9 -75h-87l-58 -466c-5.33301 -44.667 -14.5 -84.834 -27.5 -120.501s-30.833 -66.834 -53.5 -93.501s-51 -49 -85 -67s-74.667 -32 -122 -42l-18 73c38 14 69 29 93 45s43.167 33.667 57.5 53s24.833 40.833 31.5 64.5s12 49.834 16 78.501
l59 475h-99z" />
    <glyph glyph-name="K" unicode="K" horiz-adv-x="657" 
d="M385 413l191 -336h56l-9 -77h-227l9 77h60l-157 275l-91 -79l-24 -197h61l-9 -76h-229l8 76h64l66 535h-64l9 74h231l-9 -74h-63l-27 -231l268 230h-56l9 75h227l-9 -75h-57z" />
    <glyph glyph-name="L" unicode="L" horiz-adv-x="567" 
d="M16 0l8 75h67l65 536h-63l8 74h243l-10 -74h-70l-67 -536h261l15 124h80l-24 -199h-513z" />
    <glyph glyph-name="M" unicode="M" horiz-adv-x="882" 
d="M443 198l57 110l202 377h199l-10 -75h-61l-65 -535h60l-9 -75h-223l8 75h60l55 454h-2l-50 -94l-190 -348h-92l-138 442h-3l-54 -454h62l-9 -75h-226l9 75h65l65 535h-64l9 75h192l107 -344l40 -143h6z" />
    <glyph glyph-name="N" unicode="N" horiz-adv-x="747" 
d="M536 165l27.499 222.501l27.5 222.5h-67l9 75h231c-2 -12.667 -3.66699 -25.167 -5 -37.5l-4 -37.5h-64l-37 -305.5c-12 -101 -24.667 -202.5 -38 -304.5h-102l-108 218.5c-34 71 -70.667 143.833 -110 218.5l-24.5 49.5c-8.33301 16.333 -16.166 33.166 -23.499 50.499
c-0.666992 0 -1.16699 -0.166992 -1.5 -0.5s-0.833008 -0.5 -1.5 -0.5l-57 -461h68l-9 -75h-233c2 12.667 3.66699 25.167 5 37.5l4 37.5h66l32.5 267.5l33.5 267.5h-66l9 75h180l93.5 -190.5l107.5 -220.5l52 -109h5z" />
    <glyph glyph-name="O" unicode="O" horiz-adv-x="684" 
d="M398 697c48 0 88.334 -7.33203 121.001 -21.999s59 -35 79 -61s34.5 -56.333 43.5 -91s13.5 -72 13.5 -112c0 -58.667 -7.16699 -113.5 -21.5 -164.5s-35.5 -95.5 -63.5 -133.5s-62.5 -67.833 -103.5 -89.5s-88.167 -32.5 -141.5 -32.5c-46.667 0 -86.667 6.5 -120 19.5
s-60.666 31.5 -81.999 55.5s-37 53 -47 87s-15 72 -15 114c0 54 6.5 106.833 19.5 158.5s33.167 97.667 60.5 138s62.166 72.666 104.499 96.999s93.166 36.5 152.499 36.5zM395.001 617.001c-42.667 0 -78.1689 -10.666 -106.502 -31.999s-51.166 -48.833 -68.499 -82.5
s-29.666 -71.334 -36.999 -113.001s-11 -83.167 -11 -124.5c0 -63.333 12.333 -111.333 37 -144s65 -49 121 -49c38 0 70.5 9.33301 97.5 28s49 43.834 66 75.501s29.5 68.167 37.5 109.5s12 84.666 12 129.999c0 26.667 -2.16699 52.167 -6.5 76.5s-12 45.833 -23 64.5
s-26 33.5 -45 44.5s-43.5 16.5 -73.5 16.5z" />
    <glyph glyph-name="P" unicode="P" horiz-adv-x="580" 
d="M395 686c62.667 0 110.502 -15.1689 143.502 -45.502s49.5 -74.833 49.5 -133.5c0 -26.667 -4.16699 -53.667 -12.5 -81s-21.833 -52.166 -40.5 -74.499s-42.834 -40.666 -72.501 -54.999s-65.834 -21.5 -108.501 -21.5h-135l-25 -200h84l-8 -75h-254l8 75h64l65 536h-63
l9 75h296zM260.002 610.998l-32 -262.998h111c16.667 0 33.167 2.83301 49.5 8.5s31 14.5 44 26.5s23.5 27.667 31.5 47s12 42.666 12 69.999c0 37.333 -9.5 65.166 -28.5 83.499s-44.5 27.5 -76.5 27.5h-111z" />
    <glyph glyph-name="Q" unicode="Q" horiz-adv-x="685" 
d="M398 697c48 0 88.335 -7.33594 121.002 -22.0029s59 -35 79 -61s34.5 -56.333 43.5 -91s13.5 -72 13.5 -112c0 -44 -4 -85.833 -12 -125.5s-19.667 -76.167 -35 -109.5s-34.5 -62.666 -57.5 -87.999s-49.5 -45.666 -79.5 -60.999l142 -38l-47 -91l-267 96
c-42 2 -78.167 9.83301 -108.5 23.5s-55 32.334 -74 56.001s-33 51.834 -42 84.501s-13.5 69 -13.5 109c0 54 6.5 106.833 19.5 158.5s33.167 97.667 60.5 138s62.166 72.666 104.499 96.999s93.166 36.5 152.499 36.5zM395.002 616.997
c-42.667 0 -78.1689 -10.666 -106.502 -31.999s-51.166 -48.833 -68.499 -82.5s-29.666 -71.334 -36.999 -113.001s-11 -83.167 -11 -124.5c0 -63.333 12.333 -111.333 37 -144s65 -49 121 -49c38 0 70.5 9.33301 97.5 28s49 43.834 66 75.501s29.5 68.167 37.5 109.5
s12 84.666 12 129.999c0 26.667 -2.16699 52.167 -6.5 76.5s-12 45.833 -23 64.5s-26 33.5 -45 44.5s-43.5 16.5 -73.5 16.5z" />
    <glyph glyph-name="R" unicode="R" horiz-adv-x="629" 
d="M259 611l-29 -244.002h117c16 0 32 2.16699 48 6.5s30.5 11.833 43.5 22.5s23.5 24.834 31.5 42.501s12 39.834 12 66.501c0 38 -9.33301 65.167 -28 81.5s-44 24.5 -76 24.5h-119zM220 293.998l-26.0029 -219.002h75l-9 -75h-243l8 75h63l65 536h-61l9 75h304
c62.667 0 109.834 -14.667 141.501 -44s47.5 -71.666 47.5 -126.999c0 -20.667 -2.5 -41.5 -7.5 -62.5s-13.167 -40.833 -24.5 -59.5s-26.166 -35.167 -44.499 -49.5s-40.833 -25.166 -67.5 -32.499l76 -236l74 -10l3 -60c-7.33301 -2.66699 -16 -5 -26 -7
s-19.833 -3.66699 -29.5 -5s-19 -2.33301 -28 -3s-16.167 -1 -21.5 -1c-23.333 0 -39.666 5.33301 -48.999 16s-17.333 26 -24 46l-75 243h-130z" />
    <glyph glyph-name="S" unicode="S" horiz-adv-x="558" 
d="M331 615c-19.333 0 -37.333 -2.50098 -54 -7.50098s-31.334 -12.333 -44.001 -22s-22.667 -21.834 -30 -36.501s-11 -32 -11 -52c0 -15.333 3.83301 -28.333 11.5 -39s17.834 -20 30.501 -28s27 -15 43 -21s32 -11.333 48 -16c25.333 -7.33301 50 -15.166 74 -23.499
s45.167 -19 63.5 -32s33.166 -29.5 44.499 -49.5s17 -45.667 17 -77c0 -38.667 -7.33301 -71.834 -22 -99.501s-34.834 -50.5 -60.501 -68.5s-56 -31.167 -91 -39.5s-72.5 -12.5 -112.5 -12.5c-35.333 0 -72.666 3.83301 -111.999 11.5s-74.666 21.167 -105.999 40.5l17 144
h79l-12 -85c20.667 -10 43.334 -17 68.001 -21s47 -6 67 -6c52 0 93 10.5 123 31.5s45 50.833 45 89.5c0 18 -3.33301 33 -10 45s-16.5 22.167 -29.5 30.5s-28.833 15.5 -47.5 21.5s-39.667 12 -63 18c-26 7.33301 -49.833 15.666 -71.5 24.999s-40.334 20.5 -56.001 33.5
s-27.834 28.667 -36.501 47s-13 40.5 -13 66.5c0 34.667 6.5 65.334 19.5 92.001s30.833 49 53.5 67s49.334 31.5 80.001 40.5s63.667 13.5 99 13.5c13.333 0 28.5 -0.666992 45.5 -2s34.167 -3.66602 51.5 -6.99902s34.5 -7.66602 51.5 -12.999s32.5 -12 46.5 -20l-18 -144
h-79l12 86c-19.333 7.33301 -38.333 12.333 -57 15s-36.667 4 -54 4z" />
    <glyph glyph-name="T" unicode="T" horiz-adv-x="569" 
d="M128 0l9 75h79l66 536h-139l-12 -106h-78l22 181h537l-22 -181h-79l13 106h-137l-65 -536h80l-8 -75h-266z" />
    <glyph glyph-name="U" unicode="U" horiz-adv-x="706" 
d="M621 249c-5.33301 -39.333 -14.6689 -74.835 -28.002 -106.502s-31.5 -58.667 -54.5 -81s-51.333 -39.5 -85 -51.5s-72.834 -18 -117.501 -18c-48.667 0 -89.667 6.16699 -123 18.5s-59.666 30 -78.999 53s-32.166 50.833 -38.499 83.5s-7.16602 69.334 -2.49902 110.001
l44 354h-57l9 75h228l-8 -75h-66l-45 -365c-14 -116 32.667 -174 140 -174c50 0 90.5 14.333 121.5 43s50.167 72.334 57.5 131.001l45 365h-65l9 75h228l-9 -75h-59z" />
    <glyph glyph-name="V" unicode="V" horiz-adv-x="652" 
d="M379 249l152 361h-60l9 76h223l-9 -76h-57l-269 -610h-129l-123 610h-55l9 76h224l-9 -76h-61l66 -362l25 -147h4z" />
    <glyph glyph-name="W" unicode="W" horiz-adv-x="951" 
d="M506 432l-41 -102l-136 -330h-131l-81 610h-56l9 76h233l-9 -76h-65l42 -373l13 -129h2l52 129l134 333l-7 40h-63l9 76h234l-8 -76h-69l65 -379l19 -115h2l45 127l128 367h-65l9 76h232l-10 -76h-58l-31.5 -85l-39.5 -105l-43.5 -115l-43.5 -114.5l-39 -105l-31 -85.5
h-126l-57 333l-15 99h-3z" />
    <glyph glyph-name="X" unicode="X" horiz-adv-x="647" 
d="M453 686h225l-9 -76h-55l-207 -258l141 -276h62l-8 -76h-248l9 76h64l-107 215l-162 -215h72l-9 -76h-228l8 76h47l220 288l-123 246h-66l9 76h243l-9 -76h-60l93 -190l148 190h-59z" />
    <glyph glyph-name="Y" unicode="Y" horiz-adv-x="603" 
d="M482 610h-62l9 76h221l-9 -76h-50l-225 -323l-25 -212h76l-8 -75h-268l8 75h78l25 209l-141 326h-50l9 76h217l-9 -76h-60l98 -246h4z" />
    <glyph glyph-name="Z" unicode="Z" horiz-adv-x="548" 
d="M139 76h290l16 119h79l-24 -195h-503l9 75l419 536h-251l-14 -107h-78l23 182h462l-8 -73z" />
    <glyph glyph-name="bracketleft" unicode="[" horiz-adv-x="274" 
d="M10 -159l106 855.998h183l-4 -32l-4 -32h-93l-90 -727h93c-1.33301 -11.333 -2.5 -22.166 -3.5 -32.499s-2.5 -21.166 -4.5 -32.499h-183z" />
    <glyph glyph-name="backslash" unicode="\" horiz-adv-x="339" 
d="M72 703h70l160 -733h-71z" />
    <glyph glyph-name="bracketright" unicode="]" horiz-adv-x="274" 
d="M-10 -159l8 65h91l45 362.5l45 364.5h-93l7 64h184l-105 -856h-182z" />
    <glyph glyph-name="asciicircum" unicode="^" horiz-adv-x="448" 
d="M371 371l-99 230l-156 -230h-76l213 310h54l135 -310h-71z" />
    <glyph glyph-name="underscore" unicode="_" horiz-adv-x="485" 
d="M-42 -138l7 57h485l-7 -57h-485z" />
    <glyph glyph-name="grave" unicode="`" horiz-adv-x="508" 
d="M182 688l68 59l112 -171l-42 -35z" />
    <glyph glyph-name="a" unicode="a" horiz-adv-x="571" 
d="M295 497c19.333 0 38.668 -2.33301 58.001 -7s39.333 -11.334 60 -20.001l24 27l69 -4l-17.5 -114.5l-16 -111c-5 -35.667 -9.5 -69.667 -13.5 -102s-7.33301 -61.833 -10 -88.5c13.333 1.33301 27 4.5 41 9.5s27.667 11.167 41 18.5l11 -23
c4.66699 -10 8.66699 -17.667 12 -23c-10 -10 -21.167 -19.167 -33.5 -27.5s-24.833 -15.833 -37.5 -22.5s-25 -11.834 -37 -15.501s-23 -5.5 -33 -5.5c-22.667 0 -38.5 6 -47.5 18s-14.167 27.667 -15.5 47c0 13.333 0.833008 26.833 2.5 40.5s3.83398 28.167 6.50098 43.5
h-5c-14.667 -29.333 -29.667 -53.333 -45 -72s-30.833 -33.667 -46.5 -45s-31.334 -19.166 -47.001 -23.499s-31.167 -6.5 -46.5 -6.5c-38.667 0 -69.834 14 -93.501 42s-35.5 70.667 -35.5 128c0 46 5.33301 89.333 16 130s26.667 76.334 48 107.001s48 55 80 73
s69 27 111 27zM211.002 66c12 0 24.502 3.33398 37.502 10.001s26.5 18.167 40.5 34.5s27.833 38 41.5 65s27.167 60.5 40.5 100.5l20 123c-19.333 7.33301 -37 12.166 -53 14.499s-29.667 3.5 -41 3.5c-30 0 -54.833 -8.16699 -74.5 -24.5s-35.334 -36.5 -47.001 -60.5
s-19.834 -50 -24.501 -78s-7 -54 -7 -78c0 -37.333 6.16699 -65 18.5 -83s28.5 -27 48.5 -27z" />
    <glyph glyph-name="b" unicode="b" horiz-adv-x="535" 
d="M188 358c14 27.333 28.834 50.167 44.501 68.5s31.167 32.833 46.5 43.5s30.666 18.167 45.999 22.5s30 6.5 44 6.5c38.667 0 70 -14 94 -42s36 -71 36 -129c0 -45.333 -5.5 -88.333 -16.5 -129s-27.5 -76.334 -49.5 -107.001s-49.5 -55 -82.5 -73s-71.5 -27 -115.5 -27
c-24 0 -52.5 3.33301 -85.5 10s-67.167 18.334 -102.5 35.001l-6 12l20 149c6.66699 48.667 13 97.167 19 145.5s11.667 96.833 17 145.5l16 150l-97 15l4 50c28 7.33301 54.5 12.666 79.5 15.999s47.167 5 66.5 5c22 0 36.667 -4.33301 44 -13s11 -20.667 11 -36
c0 -4 -0.666992 -12.833 -2 -26.5l-5 -50c-2 -19.667 -4.33301 -41 -7 -64l-8 -68c-2.66699 -22.333 -5.5 -43.166 -8.5 -62.499l-7.5 -47h5zM326.001 420.001c-12 0 -24.668 -3.5 -38.001 -10.5s-26.833 -18.5 -40.5 -34.5s-27.5 -37.333 -41.5 -64s-27.333 -60 -40 -100
l-17 -121c18.667 -7.33301 35.334 -12.166 50.001 -14.499s27.667 -3.5 39 -3.5c30 0 55 8 75 24s36 36 48 60s20.5 50 25.5 78s7.5 54 7.5 78c0 37.333 -6.33301 64.666 -19 81.999s-29 26 -49 26z" />
    <glyph glyph-name="c" unicode="c" horiz-adv-x="462" 
d="M300 499c9.33301 0 19.167 -0.50293 29.5 -1.50293s20.5 -2.5 30.5 -4.5s19 -4 27 -6s14.333 -4 19 -6c12 -5.33301 20.833 -11.333 26.5 -18s8.5 -16 8.5 -28c0 -4.66699 -1 -11.667 -3 -21s-4.5 -19.5 -7.5 -30.5s-6.5 -22.167 -10.5 -33.5s-8 -21.666 -12 -30.999
c-9.33301 0.666992 -18.5 1.16699 -27.5 1.5s-18.167 1.16602 -27.5 2.49902c1.33301 14.667 2.16602 29.5 2.49902 44.5s0.833008 30.167 1.5 45.5c-7.33301 2.66699 -16.333 4.66699 -27 6s-21.667 2 -33 2c-26 0 -48.667 -6.5 -68 -19.5s-35.166 -30.167 -47.499 -51.5
s-21.666 -46.166 -27.999 -74.499s-9.5 -57.5 -9.5 -87.5c0 -36 7.66699 -64 23 -84s42 -30 80 -30c22 0 42.667 2.16699 62 6.5s42.666 10.5 69.999 18.5c3.33301 -11.333 7.33301 -22.333 12 -33s8.66699 -21.667 12 -33c-23.333 -11.333 -51.333 -20.833 -84 -28.5
s-65 -11.5 -97 -11.5c-33.333 0 -61.5 4.16699 -84.5 12.5s-41.667 20.333 -56 36s-24.833 34.334 -31.5 56.001s-10 45.834 -10 72.501c0 40 4.16699 79.667 12.5 119s22.5 74.5 42.5 105.5s46.667 56.167 80 75.5s75 29 125 29z" />
    <glyph glyph-name="d" unicode="d" horiz-adv-x="574" 
d="M301 496c15.333 0 31.1699 -1.83008 47.5029 -5.49707s33.166 -8.16699 50.499 -13.5l9.5 79l9.5 82l-99 15l3 51c28.667 7.33301 55.334 12.666 80.001 15.999s46.667 5 66 5c23.333 0 38.666 -5.33301 45.999 -16s11 -24.334 11 -41.001
c0 -5.33301 -2.33301 -25.833 -7 -61.5l-17.5 -136.5l-23.5 -185.5l-26 -207.5c28 4 55.667 13.333 83 28l24 -44c-9.33301 -10 -20 -19.333 -32 -28s-24.5 -16.334 -37.5 -23.001s-26.167 -12 -39.5 -16s-26.333 -6 -39 -6c-21.333 0 -36.166 5.5 -44.499 16.5
s-12.833 25.5 -13.5 43.5c-0.666992 15.333 -0.166992 30 1.5 44s4.16699 29 7.5 45h-5c-14.667 -29.333 -29.834 -53.5 -45.501 -72.5s-31.5 -34 -47.5 -45s-31.833 -18.667 -47.5 -23s-31.167 -6.5 -46.5 -6.5c-38.667 0 -69.834 14 -93.501 42s-35.5 70.667 -35.5 128
c0 47.333 5.5 91.5 16.5 132.5s27.5 76.5 49.5 106.5s49.167 53.667 81.5 71s70.166 26 113.499 26zM211.004 66.0029c12 0 24.668 3.33398 38.001 10.001s27 18.167 41 34.5s28.167 38 42.5 65s28.166 60.5 41.499 100.5l17 123
c-19.333 7.33301 -36.833 12.166 -52.5 14.499s-29.167 3.5 -40.5 3.5c-30 0 -55 -8.16699 -75 -24.5s-36 -36.5 -48 -60.5s-20.333 -50 -25 -78s-7 -54 -7 -78c0 -37.333 6.16699 -65 18.5 -83s28.833 -27 49.5 -27z" />
    <glyph glyph-name="e" unicode="e" horiz-adv-x="481" 
d="M308 501c46 0 81.3359 -11.668 106.003 -35.001s37 -54 37 -92c0 -56.667 -26.833 -99.167 -80.5 -127.5s-129.5 -45.166 -227.5 -50.499c-0.666992 -4 -1 -8 -1 -12v-11c0 -13.333 1.33301 -26.333 4 -39s7.66699 -24 15 -34s17.5 -18.167 30.5 -24.5
s29.833 -9.5 50.5 -9.5c24.667 0 49.5 3.16699 74.5 9.5s49.5 14.5 73.5 24.5l21 -60c-12 -7.33301 -25.667 -13.833 -41 -19.5s-31.333 -10.667 -48 -15s-33.834 -7.66602 -51.501 -9.99902s-34.834 -3.5 -51.501 -3.5c-36.667 0 -66.5 5.16699 -89.5 15.5
s-41.167 24.166 -54.5 41.499s-22.5 37.833 -27.5 61.5s-7.5 48.5 -7.5 74.5c0 34 4.16699 69.5 12.5 106.5s22.666 71 42.999 102s47.833 56.667 82.5 77s78 30.5 130 30.5zM293.003 423.999c-42.667 0 -76.333 -15.332 -101 -45.999s-40 -72.667 -46 -126
c68.667 3.33301 120.667 13.666 156 30.999s53 44 53 80c0 18 -4.83301 32.667 -14.5 44s-25.5 17 -47.5 17z" />
    <glyph glyph-name="f" unicode="f" horiz-adv-x="362" 
d="M322 731c15.333 0 31.832 -1.16699 49.499 -3.5s36.167 -6.16602 55.5 -11.499l-17 -73c-14 3.33301 -27.333 5.66602 -40 6.99902s-24 2 -34 2c-13.333 0 -25.833 -2 -37.5 -6s-22 -11.167 -31 -21.5s-16.667 -24.666 -23 -42.999s-10.833 -41.5 -13.5 -69.5l-4 -33h134
c0 -4 -0.333008 -9 -1 -15s-1.5 -12.333 -2.5 -19s-1.83301 -13 -2.5 -19s-1.33398 -11 -2.00098 -15h-136c-6.66699 -54 -12.834 -107.167 -18.501 -159.5l-16.5 -159.5c-5.33301 -40.667 -11.666 -79.5 -18.999 -116.5s-18.333 -69.667 -33 -98s-34.5 -50.833 -59.5 -67.5
s-57.5 -25 -97.5 -25c-15.333 0 -31.5 1.16699 -48.5 3.5s-34.833 6.16602 -53.5 11.499l18 68c16 -3.33301 29 -5.33301 39 -6s20 -1 30 -1c35.333 0 61 13.167 77 39.5s28 67.5 36 123.5l17 134l14 117.5l10 88.5c2.66699 24 4.33398 39.667 5.00098 47h-83l7 54l84 20
l7 52c4.66699 28.667 11.334 55 20.001 79s20.5 44.5 35.5 61.5s33.5 30.167 55.5 39.5s48.333 14 79 14z" />
    <glyph glyph-name="g" unicode="g" horiz-adv-x="534" 
d="M303 496c28 -0.666992 58.1699 -4.1709 90.5029 -10.5039s65.166 -17.166 98.499 -32.499l5 -12l-58 -446c-3.33301 -23.333 -8.83301 -47.833 -16.5 -73.5s-20.5 -49 -38.5 -70s-42.5 -38.333 -73.5 -52s-71.5 -20.5 -121.5 -20.5c-31.333 0 -61.5 4.16699 -90.5 12.5
s-52.167 16.833 -69.5 25.5c2 4 4.33301 9.5 7 16.5l8 21.5l8 21.5c2.66699 7 5 12.5 7 16.5c21.333 -9.33301 43.833 -16.666 67.5 -21.999s45.834 -8 66.501 -8c29.333 0 53.166 4.33301 71.499 13s32.833 20.834 43.5 36.501s18.667 34.334 24 56.001
s9.66602 45.5 12.999 71.5c0 0.666992 0.666992 5.83398 2 15.501s2.66602 20.167 3.99902 31.5s2.66602 21.833 3.99902 31.5l2 14.5c0 0.666992 -1.33301 1 -4 1c-14 -27.333 -28.833 -50 -44.5 -68s-31.167 -32.333 -46.5 -43s-30.833 -18.167 -46.5 -22.5
s-30.5 -6.5 -44.5 -6.5c-38.667 0 -70 13.833 -94 41.5s-36 70.5 -36 128.5c0 45.333 5.5 88.166 16.5 128.499s27.333 75.5 49 105.5s48.834 53.833 81.501 71.5s71 26.5 115 26.5zM213.003 70.9961c12 0 24.665 3.50293 37.998 10.5029s27 18.5 41 34.5
s27.833 37.5 41.5 64.5s26.834 60.5 39.501 100.5l17 118c-19.333 7.33301 -36.5 12.166 -51.5 14.499s-28.167 3.5 -39.5 3.5c-30 0 -55 -7.83301 -75 -23.5s-36 -35.334 -48 -59.001s-20.333 -49.334 -25 -77.001s-7 -53.5 -7 -77.5c0 -37.333 6.33301 -64.833 19 -82.5
s29.334 -26.5 50.001 -26.5z" />
    <glyph glyph-name="h" unicode="h" horiz-adv-x="596" 
d="M404 500c38 0 64.501 -9.66602 79.501 -28.999s22.5 -45.666 22.5 -78.999c0 -7.33301 -0.666992 -18.333 -2 -33s-3.33301 -34.5 -6 -59.5l-10 -92l-15 -130.5c26.667 2 53 10 79 24l22 -45c-24 -23.333 -48.833 -40.666 -74.5 -51.999s-47.834 -17 -66.501 -17
c-25.333 0 -42.5 5.5 -51.5 16.5s-13.5 26.5 -13.5 46.5c0 4.66699 0.166992 9.16699 0.5 13.5s0.833008 9.16602 1.5 14.499c7.33301 60 13 107.833 17 143.5l9 82c2 19 3.16699 32.333 3.5 40s0.5 13.5 0.5 17.5c0 16.667 -3.33301 30.334 -10 41.001s-17.667 16 -33 16
c-11.333 0 -24.166 -3.66699 -38.499 -11s-28.666 -19 -42.999 -35s-28.666 -37 -42.999 -63s-27.166 -57.667 -38.499 -95l-30 -214h-103c3.33301 28.667 7.33301 61 12 97l14 112.5l14.5 119l14 117l12 106l9.5 86.5l-96 15l5 50c28 7.33301 54.333 12.666 79 15.999
s46.667 5 66 5c21.333 0 36.166 -3.5 44.499 -10.5s12.5 -18.167 12.5 -33.5c0 -4.66699 -0.666992 -14 -2 -28l-5 -51c-2 -20 -4.33301 -41.667 -7 -65s-5.5 -46.333 -8.5 -69s-5.66699 -43.834 -8 -63.501s-4.5 -35.834 -6.5 -48.501l4 -1c14.667 28 30.667 51.333 48 70
s34.666 33.667 51.999 45s33.666 19.333 48.999 24s28.666 7 39.999 7z" />
    <glyph glyph-name="i" unicode="i" horiz-adv-x="318" 
d="M184 500c21.333 0 35.833 -3.33301 43.5 -10s11.5 -17 11.5 -31c0 -2 -1 -12.167 -3 -30.5s-4.66699 -40.666 -8 -66.999l-11 -86l-11 -88l-9 -72l-5 -38.5c27.333 2 54 10 80 24l23 -45c-23.333 -23.333 -48 -40.666 -74 -51.999s-48.667 -17 -68 -17
c-25.333 0 -42.833 6 -52.5 18s-14.5 27.333 -14.5 46c0 4 0.166992 8.16699 0.5 12.5s0.833008 9.16602 1.5 14.499l43 335l-85 15l3 51c28 7.33301 53.5 12.666 76.5 15.999s42.5 5 58.5 5zM199 691c16 0 29.667 -5.66797 41 -17.001s17 -25.666 17 -42.999
c0 -19.333 -6.33301 -36 -19 -50s-29.334 -21 -50.001 -21c-15.333 0 -28.666 5.5 -39.999 16.5s-17 24.5 -17 40.5c0 21.333 6.5 39 19.5 53s29.167 21 48.5 21z" />
    <glyph glyph-name="j" unicode="j" horiz-adv-x="291" 
d="M179 500c21.333 0 36.335 -3.33496 45.002 -10.002s13 -17 13 -31c0 -1.33301 -0.833008 -9.83301 -2.5 -25.5l-6 -59c-2.33301 -23.667 -5.16602 -49.667 -8.49902 -78l-9.5 -82.5l-8 -73c-2.33301 -22 -4.16602 -38.333 -5.49902 -49
c-4.66699 -41.333 -11.834 -79.333 -21.501 -114s-23.5 -65.5 -41.5 -92.5s-40.833 -49.667 -68.5 -68s-61.834 -31.833 -102.501 -40.5l-17 64c29.333 12.667 52.833 27.334 70.5 44.001s31.667 35.334 42 56.001s17.666 43 21.999 67s8.16602 49.667 11.499 77l35 328
l-86 15l5 51c56 14 100.333 21 133 21zM195.002 690.998c16 0 29.667 -5.66797 41 -17.001s17 -25.666 17 -42.999c0 -19.333 -6.33301 -36 -19 -50s-29.334 -21 -50.001 -21c-15.333 0 -28.666 5.5 -39.999 16.5s-17 24.5 -17 40.5c0 21.333 6.5 39 19.5 53
s29.167 21 48.5 21z" />
    <glyph glyph-name="k" unicode="k" horiz-adv-x="499" 
d="M414 500c20 0 36.002 -5.99902 48.002 -17.999s20.667 -27 26 -45l-35 -36c-20 10.667 -38.667 16 -56 16c-14 0 -27.333 -2.66699 -40 -8s-24.667 -12.5 -36 -21.5s-22 -19.333 -32 -31l-30 -35.5c10.667 -22.667 22.834 -47.167 36.501 -73.5l41 -75.5l37 -64
c11 -18.667 19.5 -31 25.5 -37c16 4.66699 29.667 10.5 41 17.5s21.666 13.833 30.999 20.5l29 -37c-26.667 -34 -50.667 -56.667 -72 -68s-38.666 -17 -51.999 -17c-16 0 -30.333 4.66699 -43 14s-25.667 24 -39 44s-27.666 46.167 -42.999 78.5l-54 117.5l-16.5 -23.5
c-4.33301 -6.33301 -8.33301 -12.5 -12 -18.5s-7 -12.333 -10 -19l-10.5 -23c-4 -26 -7.66699 -51.5 -11 -76.5s-6.66602 -51.833 -9.99902 -80.5h-102l44.5 321.5c14.333 106.333 27.5 212.5 39.5 318.5l-87 11l3 50c26 7.33301 51.5 13.5 76.5 18.5s47.167 7.5 66.5 7.5
s33.166 -4.5 41.499 -13.5s11.833 -21.167 10.5 -36.5c-8 -64.667 -16.667 -128.167 -26 -190.5s-18.333 -125.833 -27 -190.5h3c15.333 24.667 32.666 49.167 51.999 73.5s39.666 46.166 60.999 65.499s43.166 35 65.499 47s44.166 18 65.499 18z" />
    <glyph glyph-name="l" unicode="l" horiz-adv-x="300" 
d="M190 725c20 0 34.333 -3.16602 43 -9.49902s13 -16.833 13 -31.5c0 -8 -1.33301 -25.5 -4 -52.5s-6.33398 -59 -11.001 -96l-15 -121.5c-5.33301 -44 -10.833 -87.167 -16.5 -129.5l-15.5 -118.5c-4.66699 -36.667 -8.33398 -66.334 -11.001 -89.001
c27.333 2 54 10 80 24l23 -45c-23.333 -23.333 -47.833 -40.666 -73.5 -51.999s-48.167 -17 -67.5 -17c-24.667 0 -42 5.33301 -52 16s-15 26.334 -15 47.001c0 4.66699 0.166992 9.16699 0.5 13.5s0.833008 9.16602 1.5 14.499l68 561l-96 15l3 50
c28.667 7.33301 55.834 12.666 81.501 15.999s46.834 5 63.501 5z" />
    <glyph glyph-name="m" unicode="m" horiz-adv-x="862" 
d="M497 344c14 28.667 29.3311 52.8301 45.998 72.4971s33.167 35.834 49.5 48.501s31.833 21.834 46.5 27.501s27.667 8.5 39 8.5c35.333 0 60.833 -9.83301 76.5 -29.5s23.5 -45.834 23.5 -78.501c0 -7.33301 -0.666992 -18.333 -2 -33s-3.33301 -34.334 -6 -59.001
l-10 -91.5l-15 -130.5c14 0.666992 27 2.83398 39 6.50098s24.667 9.16699 38 16.5l22 -44c-23.333 -23.333 -47.666 -40.833 -72.999 -52.5s-47.666 -17.5 -66.999 -17.5c-24.667 0 -41.5 5.33301 -50.5 16s-13.5 26 -13.5 46c0 3.33301 0.166992 7.66602 0.5 12.999
s0.833008 10.666 1.5 15.999l16 135c4 34.667 7 62.167 9 82.5s3.33301 35.5 4 45.5s1 17.667 1 23c0 15.333 -3 28.166 -9 38.499s-16.667 15.5 -32 15.5c-24 0 -49.167 -16.5 -75.5 -49.5s-50.833 -85.833 -73.5 -158.5l-26 -211h-102l15 121l14 119.5
c3.33301 29.667 5.83301 52.834 7.5 69.501s2.5 28.667 2.5 36v18c0 14.667 -3.16699 27.167 -9.5 37.5s-17.166 15.5 -32.499 15.5c-23.333 0 -48 -16 -74 -48s-50.333 -84.667 -73 -158l-28 -211h-103c6 42.667 11.167 81.834 15.5 117.501l12.5 102
c4 32.333 7.66699 64 11 95l11 98.5l-91 15l3 50c28.667 8 54.334 13.667 77.001 17s43.667 5 63 5c21.333 0 35.666 -3.66699 42.999 -11s11 -17.666 11 -30.999c0 -11.333 -1.33301 -26.666 -4 -45.999l-9 -66h5c15.333 30 31.166 55 47.499 75s32.333 35.833 48 47.5
s30.667 19.834 45 24.501s27.166 7 38.499 7c34.667 0 59.334 -9.5 74.001 -28.5s22 -43.833 22 -74.5c0 -6 -0.166992 -13.167 -0.5 -21.5s-0.833008 -18.5 -1.5 -30.5z" />
    <glyph glyph-name="n" unicode="n" horiz-adv-x="601" 
d="M417 499c38 0 64.166 -10.999 78.499 -32.999s21.5 -50.667 21.5 -86c0 -14 -2.83301 -45.833 -8.5 -95.5l-23.5 -207.5c13.333 0.666992 26 2.83398 38 6.50098s24.667 9.16699 38 16.5c3.33301 -4.66699 7.33301 -12 12 -22l11 -23
c-12.667 -12 -25.667 -22.167 -39 -30.5s-26.5 -15.166 -39.5 -20.499s-25.333 -9.33301 -37 -12s-21.834 -4 -30.501 -4c-23.333 0 -38.833 5.16699 -46.5 15.5s-11.5 25.166 -11.5 44.499c0 3.33301 0.333008 9.33301 1 18s1.33398 15.667 2.00098 21
c8 78.667 14.667 141.5 20 188.5s8 76.167 8 87.5c0 15.333 -3.33301 28.166 -10 38.499s-17.667 15.5 -33 15.5c-12 0 -25.167 -3.83301 -39.5 -11.5s-28.833 -19.834 -43.5 -36.501s-29 -38.167 -43 -64.5s-26.667 -57.833 -38 -94.5l-29 -210h-102l15 117l13 101.5
l11.5 95l11.5 98.5l-92 15l3 51c28.667 7.33301 54.334 12.666 77.001 15.999s43.667 5 63 5c21.333 0 35.5 -3.5 42.5 -10.5s10.5 -18.5 10.5 -34.5c0 -12.667 -1.16699 -28.334 -3.5 -47.001s-5.16602 -39 -8.49902 -61h4c15.333 30 32.166 54.833 50.499 74.5
s36.5 35.334 54.5 47.001s35 19.834 51 24.501s29.667 7 41 7z" />
    <glyph glyph-name="o" unicode="o" horiz-adv-x="521" 
d="M296 499c35.333 0 65.332 -5.3291 89.999 -15.9961s44.834 -25.334 60.501 -44.001s27 -40.334 34 -65.001s10.5 -51 10.5 -79c0 -34 -4.33301 -68.833 -13 -104.5s-23 -68.334 -43 -98.001s-46.5 -53.834 -79.5 -72.501s-73.833 -28 -122.5 -28
c-36 0 -66.167 5 -90.5 15s-44.166 23.833 -59.499 41.5s-26.333 38.5 -33 62.5s-10 50 -10 78c0 36.667 4.83301 73.5 14.5 110.5s24.667 70.333 45 100s46.666 53.667 78.999 72s71.5 27.5 117.5 27.5zM290.999 420.004c-30 0 -54.501 -8.33398 -73.501 -25.001
s-34 -37.167 -45 -61.5s-18.5 -50.5 -22.5 -78.5s-6 -53 -6 -75c0 -15.333 1.5 -29.666 4.5 -42.999s8.33301 -25.333 16 -36s17.834 -19 30.501 -25s28.667 -9 48 -9c28.667 0 52.167 7.83301 70.5 23.5s32.833 35.167 43.5 58.5s18 48.333 22 75s6 50.667 6 72
c0 16.667 -1.5 32.5 -4.5 47.5s-8 28.167 -15 39.5s-16.5 20.333 -28.5 27s-27.333 10 -46 10z" />
    <glyph glyph-name="p" unicode="p" horiz-adv-x="561" 
d="M47 -135l32.4961 274.999l32.5 272l-93 14l4 51c24 7.33301 48.333 12.833 73 16.5s47.667 5.5 69 5.5c23.333 0 38 -4.5 44 -13.5s8.33301 -21.833 7 -38.5l-13 -103h5c14.667 28.667 29.834 52.834 45.501 72.501s31.667 35.167 48 46.5s32.5 19.5 48.5 24.5
s31.333 7.5 46 7.5c38 0 68.667 -14.167 92 -42.5s35 -71.833 35 -130.5c0 -46.667 -5.5 -90.167 -16.5 -130.5s-27.167 -75.5 -48.5 -105.5s-48.166 -53.5 -80.499 -70.5s-69.833 -25.5 -112.5 -25.5c-15.333 0 -31.166 1.66699 -47.499 5s-33.166 7.33301 -50.499 12
l-19 -142h86l-8 -73h-255l9 73h67zM352.996 412.999c-12 0 -24.835 -3.33496 -38.502 -10.002s-27.5 -18 -41.5 -34s-28.167 -37.5 -42.5 -64.5s-27.833 -60.5 -40.5 -100.5l-16 -118c18.667 -7.33301 36 -12.166 52 -14.499s29.667 -3.5 41 -3.5
c30 0 54.833 7.83301 74.5 23.5s35.334 35.334 47.001 59.001s19.834 49 24.501 76s7 52.167 7 75.5c0 38 -6.16699 66 -18.5 84s-28.5 27 -48.5 27z" />
    <glyph glyph-name="q" unicode="q" horiz-adv-x="541" 
d="M245 -136l79.001 -0.00195312c7.33301 69.333 13.666 125.833 18.999 169.5s10 75.834 14 96.501l-4 1c-14.667 -27.333 -29.667 -50.166 -45 -68.499s-30.833 -32.833 -46.5 -43.5s-31.334 -18.167 -47.001 -22.5s-30.5 -6.5 -44.5 -6.5c-38.667 0 -70 13.833 -94 41.5
s-36 70.5 -36 128.5c0 45.333 5.5 88.5 16.5 129.5s27.5 76.833 49.5 107.5s49.5 55 82.5 73s71.5 27 115.5 27c24 0 52.833 -3.16699 86.5 -9.5s67.834 -17.833 102.501 -34.5l5 -11c-1.33301 -8.66699 -3.83301 -27.834 -7.5 -57.501l-12.5 -105l-15.5 -128.5l-15.5 -128
l-12 -104c-3.33301 -29.333 -5.33301 -47.666 -6 -54.999h70l-8 -74h-254zM212.001 66.998c12 0 24.667 3.50098 38 10.501s27 18.5 41 34.5s28 37.5 42 64.5s27.333 60.5 40 100.5l17 122c-19.333 7.33301 -36.5 12.166 -51.5 14.499s-28.167 3.5 -39.5 3.5
c-30 0 -55 -8 -75 -24s-35.833 -36 -47.5 -60s-20 -50 -25 -78s-7.5 -54 -7.5 -78c0 -38 6.33301 -65.833 19 -83.5s29 -26.5 49 -26.5z" />
    <glyph glyph-name="r" unicode="r" horiz-adv-x="441" 
d="M177 499c21.333 0 35.6631 -3.5 42.9961 -10.5s11 -18.833 11 -35.5c0 -11.333 -1.16699 -25.833 -3.5 -43.5s-5.16602 -37.5 -8.49902 -59.5h3c12 32.667 24.5 58.834 37.5 78.501s26 34.834 39 45.501s25.667 17.667 38 21s24.166 5 35.499 5
c23.333 0 41 -6.66699 53 -20s18.667 -29 20 -47l-45 -52c-11.333 6 -21.833 9.83301 -31.5 11.5s-18.5 2.5 -26.5 2.5c-26.667 0 -52.667 -17.333 -78 -52s-46.666 -87.334 -63.999 -158.001c-5.33301 -38 -9.66602 -71.333 -12.999 -100s-7 -57 -11 -85h-101l27.5 219
l24.5 193l-84 15c0 5.33301 0.333008 13.833 1 25.5s1.33398 20.167 2.00098 25.5c28.667 7.33301 52.834 12.666 72.501 15.999s39.167 5 58.5 5z" />
    <glyph glyph-name="s" unicode="s" horiz-adv-x="455" 
d="M192 -8c-54.667 0 -95.834 6.49902 -123.501 19.499s-41.5 30.833 -41.5 53.5c0 13.333 3.5 30 10.5 50s15.833 38.667 26.5 56l51 -2l-4 -96c10 -4.66699 22 -8.16699 36 -10.5s28 -3.5 42 -3.5c14.667 0 29.167 1.5 43.5 4.5s27 7.66699 38 14s19.833 14.333 26.5 24
s10 21.5 10 35.5c0 11.333 -3 21 -9 29s-13.833 15.333 -23.5 22s-20.667 12.667 -33 18l-38.5 16c-20 8.66699 -38.667 17.5 -56 26.5s-32.5 18.667 -45.5 29s-23.167 22 -30.5 35s-11 27.5 -11 43.5c0 24 5.33301 45.167 16 63.5s25.334 33.5 44.001 45.5
s40.167 21 64.5 27s50.166 9 77.499 9c18 0 35.833 -1.5 53.5 -4.5s33.834 -7.33301 48.501 -13s26.5 -12.667 35.5 -21s13.5 -18.166 13.5 -29.499c0 -6 -1.16699 -13.667 -3.5 -23s-5.33301 -19 -9 -29s-7.66699 -20 -12 -30s-8.83301 -19 -13.5 -27l-49 3l4 91
c-17.333 9.33301 -39.666 14 -66.999 14c-12 0 -23.833 -1.16699 -35.5 -3.5s-22 -6.16602 -31 -11.499s-16.167 -12.5 -21.5 -21.5s-8 -19.833 -8 -32.5c0 -9.33301 3.33301 -18 10 -26s15.167 -15.167 25.5 -21.5s21.833 -12.333 34.5 -18l36 -15.5
c17.333 -7.33301 34.166 -15.166 50.499 -23.499s31 -18 44 -29s23.667 -23.667 32 -38s12.5 -30.833 12.5 -49.5c0 -24.667 -5.66699 -46.334 -17 -65.001s-26.833 -34.334 -46.5 -47.001s-43 -22.167 -70 -28.5s-55.833 -9.5 -86.5 -9.5z" />
    <glyph glyph-name="t" unicode="t" horiz-adv-x="381" 
d="M183 156c-0.666992 -4 -1.16895 -7.83203 -1.50195 -11.499s-0.5 -7.16699 -0.5 -10.5c0 -18 4.5 -31 13.5 -39s23.5 -12 43.5 -12c9.33301 0 22 1 38 3s33 5.66699 51 11l17 -77c-10.667 -4.66699 -22.667 -8.66699 -36 -12s-26.666 -6 -39.999 -8
s-25.666 -3.5 -36.999 -4.5s-20.333 -1.5 -27 -1.5c-20 0 -38 1.66699 -54 5s-29.5 9.16602 -40.5 17.499s-19.333 19.5 -25 33.5s-8.5 31.667 -8.5 53c0 12 1 25.667 3 41l34 276h-70l6 56l78 19l44 113l68 9l-15 -128h142l-8 -69h-141z" />
    <glyph glyph-name="u" unicode="u" horiz-adv-x="598" 
d="M179 499c21.333 0 35.499 -3.99902 42.499 -11.999s10.5 -20.667 10.5 -38v-9.5c0 -3 -0.333008 -6.16699 -1 -9.5l-5 -44l-6.5 -56.5c-2.33301 -20.333 -4.83301 -41 -7.5 -62s-5 -40.833 -7 -59.5s-3.66699 -35.167 -5 -49.5s-2 -24.833 -2 -31.5
c0 -17.333 3.33301 -30.666 10 -39.999s17.667 -14 33 -14c12 0 25 3.66699 39 11s28.333 19.333 43 36s29 38.167 43 64.5s26.667 58.5 38 96.5l29 208h98c-9.33301 -66.667 -18.5 -135.834 -27.5 -207.501s-17.167 -140.167 -24.5 -205.5c14.667 1.33301 28.167 4 40.5 8
s24.833 9 37.5 15l23 -44c-24 -23.333 -49.167 -40.166 -75.5 -50.499s-48.166 -15.5 -65.499 -15.5c-12 0 -21.833 1.83301 -29.5 5.5s-13.5 8.5 -17.5 14.5s-6.66699 12.833 -8 20.5s-2 15.834 -2 24.501c0 12 0.833008 25.833 2.5 41.5s3.16699 29.167 4.5 40.5h-5
c-15.333 -28.667 -31.5 -52.334 -48.5 -71.001s-34.167 -33.5 -51.5 -44.5s-34 -18.667 -50 -23s-30 -6.5 -42 -6.5c-35.333 0 -61 8.66699 -77 26s-24 42 -24 74v17.5c0 6.33301 0.666992 14.166 2 23.499c2.66699 27.333 6.5 63.166 11.5 107.499l20.5 174.5l-92 14l4 49
c28 8 53.833 13.667 77.5 17s45.167 5 64.5 5z" />
    <glyph glyph-name="v" unicode="v" horiz-adv-x="528" 
d="M126 501c13.333 0 23.8359 -2.50098 31.5029 -7.50098s13.667 -11.667 18 -20s7.5 -18.166 9.5 -29.499s3.66699 -23.333 5 -36l36 -316h5c19.333 22 38.5 46.333 57.5 73s36.167 54.167 51.5 82.5s28.166 57 38.499 86s16.5 56.5 18.5 82.5l-70 -16l-17 45
c21.333 16.667 43.666 30.167 66.999 40.5s44 15.5 62 15.5c40.667 0 61 -20.667 61 -62c-0.666992 -37.333 -9.5 -77.333 -26.5 -120s-38.5 -84.5 -64.5 -125.5s-54.167 -78.833 -84.5 -113.5s-58.833 -62.667 -85.5 -84h-97l-52 414l-69 -18l-19 44
c24.667 22 47.667 38.333 69 49s39.666 16 54.999 16z" />
    <glyph glyph-name="w" unicode="w" horiz-adv-x="755" 
d="M369 198c-0.666992 0 -1.00293 0.166016 -1.00293 0.499023s-0.333008 0.5 -1 0.5c-10 -21.333 -21.5 -42.333 -34.5 -63s-26.167 -40 -39.5 -58s-26.166 -34.167 -38.499 -48.5s-22.833 -25.5 -31.5 -33.5h-95c-6.66699 68.667 -12.667 137.834 -18 207.501
s-12 138.5 -20 206.5l-69 -19l-16 43c26 22 50.833 38.5 74.5 49.5s44.5 16.5 62.5 16.5c15.333 0 27.333 -6.5 36 -19.5s14 -35.5 16 -67.5l21 -311h5c12.667 15.333 25.834 32.666 39.501 51.999s26.5 39.5 38.5 60.5s23.167 41.833 33.5 62.5s19.166 39.667 26.499 57
c-1.33301 14.667 -2.33301 27.334 -3 38.001s-1.66699 23.667 -3 39l-66 -19l-18 44c24.667 20.667 48.334 36.667 71.001 48s42.667 17 60 17c10 -0.666992 18.167 -2.83398 24.5 -6.50098s11.333 -9.16699 15 -16.5s6.16699 -17 7.5 -29s2.66602 -27 3.99902 -45
c3.33301 -52 6.5 -104 9.5 -156s6.16699 -104 9.5 -156h5c18.667 22 36.834 46.333 54.501 73s33.5 54.167 47.5 82.5s25.5 56.833 34.5 85.5s14.5 56.334 16.5 83.001l-68 -17l-14 45c23.333 17.333 45.833 31.166 67.5 41.499s42.167 15.833 61.5 16.5
c6.66699 0 13.167 -0.833008 19.5 -2.5s12 -5 17 -10s9 -12 12 -21s4.5 -20.167 4.5 -33.5c0 -35.333 -7.83301 -74.166 -23.5 -116.499s-35.667 -84 -60 -125s-50.833 -79 -79.5 -114s-56 -62.833 -82 -83.5h-97c-2.66699 32.667 -5.16699 66 -7.5 100
s-5.16602 68 -8.49902 102z" />
    <glyph glyph-name="x" unicode="x" horiz-adv-x="509" 
d="M85 -16c-1.33301 0 -2.8291 -0.166016 -4.49609 -0.499023s-3.5 -0.5 -5.5 -0.5l-28.5 28.5l-29.5 29.5c0 2 0.166992 4 0.5 6s0.5 4 0.5 6l89 95.5l90 95.5l-35.5 81l-34.5 81l-78 -22l-21 43c24.667 22.667 48 39.667 70 51s40.667 17 56 17
c11.333 0 22.666 -2 33.999 -6s21.666 -15.333 30.999 -34c10.667 -22.667 20 -45 28 -67s17.667 -45 29 -69l64 88l64 88h11l61 -57v-11l-168 -176c13.333 -28.667 25.833 -56.834 37.5 -84.501l36.5 -85.5c15.333 1.33301 29.5 4.83301 42.5 10.5s26.167 12.167 39.5 19.5
c5.33301 -7.33301 10.666 -14.166 15.999 -20.499l17 -20.5c-13.333 -16.667 -26.5 -30.334 -39.5 -41.001s-25.833 -19.167 -38.5 -25.5s-24.334 -10.666 -35.001 -12.999s-20 -3.5 -28 -3.5c-21.333 0 -37 6.16699 -47 18.5s-20 30.166 -30 53.499l-50 117l-71 -97z" />
    <glyph glyph-name="y" unicode="y" horiz-adv-x="532" 
d="M442 500c20 0 34.501 -6.5 43.501 -19.5s13.5 -34.167 13.5 -63.5c0 -38.667 -6.66699 -81.667 -20 -129s-32 -95 -56 -143s-52.5 -94.5 -85.5 -139.5s-69 -85 -108 -120s-80.5 -63.167 -124.5 -84.5s-89 -32 -135 -32c-15.333 0 -29.666 2 -42.999 6s-24.5 10 -33.5 18
s-15.333 18.167 -19 30.5s-3.16699 26.833 1.5 43.5l43 26c10 -8.66699 19.167 -15.334 27.5 -20.001s16.5 -8.16699 24.5 -10.5s15.667 -3.66602 23 -3.99902s15 -0.5 23 -0.5c25.333 0 54.166 7.66699 86.499 23s64.833 41 97.5 77l-22.5 116l-25.5 125l-25 116.5
c-8 36.333 -15.333 66.5 -22 90.5l-74 -18l-16 44c25.333 22.667 49.333 39 72 49s40.667 15 54 15c15.333 0 27.166 -2.5 35.499 -7.5s14.5 -17.167 18.5 -36.5l16.5 -81.5l21.5 -112l21.5 -118.5c7 -39.333 12.833 -73.333 17.5 -102c20 24.667 38 53.334 54 86.001
s29.667 66.167 41 100.5s20 67.833 26 100.5s9 61.667 9 87l-71 -17l-16 48c22.667 19.333 45 33.666 67 42.999s41.667 14 59 14z" />
    <glyph glyph-name="z" unicode="z" horiz-adv-x="481" 
d="M12 58l314 361h-181l-38 -99l-51 5l11 119c0.666992 10 3 18 7 24s8.66699 10.5 14 13.5s10.833 5 16.5 6s10.834 1.5 15.501 1.5h327l11 -59l-315 -361h218l43 104l46 -3l-15 -127c-1.33301 -9.33301 -4 -16.833 -8 -22.5s-8.66699 -10 -14 -13s-10.833 -5 -16.5 -6
s-10.834 -1.5 -15.501 -1.5h-360z" />
    <glyph glyph-name="braceleft" unicode="{" horiz-adv-x="274" 
d="M152 -168c-22 0 -39.333 3.33105 -52 9.99805s-22 15.834 -28 27.501s-9.16699 25.334 -9.5 41.001s0.5 32.5 2.5 50.5l24 201c3.33301 25.333 1.5 47.5 -5.5 66.5s-22.833 30.167 -47.5 33.5l7 57c25.333 4.66699 44 16.334 56 35.001s19.667 42.334 23 71.001l16 133
c2 15.333 4.83301 31.5 8.5 48.5s9.66699 32.5 18 46.5s19.5 25.667 33.5 35s32.333 14 55 14h70l-8 -64h-24c-19.333 0 -33.666 -6.33301 -42.999 -19s-15 -28.334 -17 -47.001l-19 -154c-2 -14.667 -4.5 -28.834 -7.5 -42.501s-7.33301 -26 -13 -37
s-13.167 -20.5 -22.5 -28.5s-21 -13.667 -35 -17v-1c13.333 -7.33301 23.666 -15.5 30.999 -24.5s12.333 -19.333 15 -31s3.66699 -25.167 3 -40.5s-2.33398 -32.333 -5.00098 -51l-22 -184c-2.66699 -17.333 -1.66699 -32.5 3 -45.5s17.334 -19.5 38.001 -19.5h27l-8 -64
h-64z" />
    <glyph glyph-name="bar" unicode="|" horiz-adv-x="264" 
d="M98 -142v845h71v-845h-71z" />
    <glyph glyph-name="braceright" unicode="}" horiz-adv-x="282" 
d="M146 702c22 0 39.333 -3.33105 52 -9.99805s22 -15.834 28 -27.501s9.16699 -25.334 9.5 -41.001s-0.5 -32.5 -2.5 -50.5l-22 -162c-3.33301 -25.333 -1.5 -47.5 5.5 -66.5s22.833 -30.167 47.5 -33.5l-7 -57c-25.333 -4.66699 -44 -16.334 -56 -35.001
s-19.667 -42.334 -23 -71.001l-18 -172c-2 -15.333 -4.83301 -31.5 -8.5 -48.5s-9.66699 -32.5 -18 -46.5s-19.5 -25.667 -33.5 -35s-32.333 -14 -55 -14h-70l8 64h24c19.333 0 33.666 6.33301 42.999 19s15 28.334 17 47.001l21 193c2 14.667 4.5 28.834 7.5 42.501
s7.33301 26 13 37s13.167 20.5 22.5 28.5s21 13.667 35 17v1c-13.333 6.66699 -23.666 14.667 -30.999 24s-12.333 19.833 -15 31.5s-3.66699 25 -3 40s2.33398 32.167 5.00098 51.5l20 145c2.66699 17.333 1.66699 32.5 -3 45.5s-17.334 19.5 -38.001 19.5h-27l8 64h64z
" />
    <glyph glyph-name="asciitilde" unicode="~" horiz-adv-x="558" 
d="M389 240c-20 0 -39.166 2.5 -57.499 7.5s-35.833 10.333 -52.5 16l-47.5 16c-15 5 -29.167 7.5 -42.5 7.5l-75 -47l-35 32c16 30.667 35 54 57 70s45.667 24 71 24c16 0 33 -2.33301 51 -7s36 -10 54 -16s35.5 -11.333 52.5 -16s32.5 -7 46.5 -7l71 48l35 -31
c-15.333 -30 -33.833 -53.667 -55.5 -71s-45.834 -26 -72.501 -26z" />
    <glyph glyph-name="exclamdown" unicode="&#xa1;" horiz-adv-x="242" 
d="M20 -213l38 292l38 228h71l-17 -228l-31 -292h-99zM141 378c-16.667 0 -29.833 5.16797 -39.5 15.501s-14.167 23.166 -13.5 38.499c1.33301 18 8.5 33.5 21.5 46.5s28.5 19.5 46.5 19.5c16.667 0 30 -5.33301 40 -16s14.667 -23.667 14 -39
c-0.666992 -17.333 -7.5 -32.5 -20.5 -45.5s-29.167 -19.5 -48.5 -19.5z" />
    <glyph glyph-name="cent" unicode="&#xa2;" horiz-adv-x="558" 
d="M251 -6c-29.333 1.33301 -54.166 6.49902 -74.499 15.499s-36.833 21.167 -49.5 36.5s-22 33.5 -28 54.5s-9 44.167 -9 69.5c0 38 3.66699 75.5 11 112.5s19.666 70.5 36.999 100.5s40.333 55.333 69 76s64.334 33.334 107.001 38.001l12 96h43l-12 -94
c18 -0.666992 36.833 -3 56.5 -7s33.834 -7.66699 42.501 -11c12 -5.33301 20.833 -11.333 26.5 -18s8.5 -16 8.5 -28c0 -4.66699 -1 -11.667 -3 -21s-4.5 -19.5 -7.5 -30.5s-6.5 -22.167 -10.5 -33.5s-8 -21.666 -12 -30.999c-9.33301 0.666992 -18.5 1.16699 -27.5 1.5
s-18.167 1.16602 -27.5 2.49902c1.33301 14.667 2.16602 29.5 2.49902 44.5s0.833008 30.167 1.5 45.5c-7.33301 2.66699 -16.333 4.66699 -27 6s-21.334 2 -32.001 2l-43 -347c20 0.666992 39.333 3.16699 58 7.5s40.667 10.166 66 17.499
c3.33301 -11.333 7.33301 -22.333 12 -33s8.66699 -21.667 12 -33c-20.667 -10 -45 -18.667 -73 -26s-56.333 -11.666 -85 -12.999l-9 -76h-44zM194 187.999c0 -30 5.16797 -54.334 15.501 -73.001s27.833 -31 52.5 -37l41 336
c-18.667 -6.66699 -34.834 -17.5 -48.501 -32.5s-25 -32.5 -34 -52.5s-15.667 -42.167 -20 -66.5s-6.5 -49.166 -6.5 -74.499z" />
    <glyph glyph-name="sterling" unicode="&#xa3;" horiz-adv-x="558" 
d="M156 368l16.001 100.999c4.66699 30.667 12 58.667 22 84s23.5 47.166 40.5 65.499s37.667 32.5 62 42.5s53.166 15 86.499 15c32.667 0 64 -3.33301 94 -10s54.667 -15.334 74 -26.001l-14 -139h-75l9 80c-12 3.33301 -24.667 6.5 -38 9.5s-29 4.5 -47 4.5
c-20 0 -36.833 -3.16699 -50.5 -9.5s-25 -15.166 -34 -26.499s-16.167 -25.166 -21.5 -41.499s-10 -34.5 -14 -54.5l-15 -95h168l-7 -61h-171l-12 -72c-5.33301 -31.333 -13 -62.166 -23 -92.499s-24.667 -53.166 -44 -68.499h332l-7 -74h-451l5 73
c15.333 7.33301 28.333 17.166 39 29.499s19.5 26 26.5 41s12.667 30.667 17 47s7.83301 32.5 10.5 48.5l12 68h-64l7 61h67z" />
    <glyph glyph-name="currency" unicode="&#xa4;" horiz-adv-x="547" 
d="M164 306c0 -17.333 3.16699 -33.666 9.5 -48.999s15.166 -28.666 26.499 -39.999s24.333 -20.333 39 -27s30.667 -10 48 -10c16.667 0 32.5 3.33301 47.5 10s28.167 15.667 39.5 27s20.333 24.666 27 39.999s10 31.666 10 48.999s-3.33301 33.666 -10 48.999
s-15.5 28.666 -26.5 39.999s-24.167 20.333 -39.5 27s-31.333 10 -48 10c-17.333 0 -33.333 -3.33301 -48 -10s-27.667 -15.667 -39 -27s-20.166 -24.666 -26.499 -39.999s-9.5 -31.666 -9.5 -48.999zM70 482l44 47l64 -64c15.333 11.333 32.5 20.166 51.5 26.499
s38.5 9.5 58.5 9.5c40.667 0 77.334 -12.333 110.001 -37l63 65l46 -48l-64 -62c12.667 -17.333 21.667 -35.333 27 -54s8 -38 8 -58c0 -20.667 -3 -40.5 -9 -59.5s-14.333 -36.833 -25 -53.5l63 -61l-46 -48l-64 63c-17.333 -13.333 -35 -22.666 -53 -27.999
s-36.667 -8 -56 -8s-38 2.66699 -56 8s-35.667 14.666 -53 27.999l-64 -64l-46 48l63 62c-14 18.667 -23.5 37.5 -28.5 56.5s-7.5 37.167 -7.5 54.5c0 19.333 2.66699 38.833 8 58.5s14.666 37.834 27.999 54.501z" />
    <glyph glyph-name="yen" unicode="&#xa5;" horiz-adv-x="558" 
d="M76 294l6 44h120l-92 253h-48l10 74h204l-10 -74h-57l82 -245h3l142 245h-58l8 74h207l-9 -74h-47l-156 -253h123l-6 -44h-422zM492 247l-5 -47h-163l-15 -127h77l-9 -73h-254l9 73h75l16 127h-158l6 47h421z" />
    <glyph glyph-name="brokenbar" unicode="&#xa6;" horiz-adv-x="264" 
d="M123 346v357h70v-357h-70zM193 242v-384h-70v384h70z" />
    <glyph glyph-name="section" unicode="&#xa7;" horiz-adv-x="480" 
d="M301 613c-26.667 0 -49.6738 -6.83496 -69.0068 -20.502s-29 -32.834 -29 -57.501c0 -12 3.16699 -23 9.5 -33s14.833 -19 25.5 -27s22.334 -15.333 35.001 -22l39 -20c14.667 -7.33301 29.334 -15.166 44.001 -23.499s27.834 -18 39.501 -29s21.167 -23.5 28.5 -37.5
s11 -30.333 11 -49c0 -19.333 -5.83301 -41.5 -17.5 -66.5s-32.834 -50.167 -63.501 -75.5c22 -14 37.333 -32 46 -54s13 -43 13 -63c0 -26 -5.66699 -49.167 -17 -69.5s-26.666 -37.333 -45.999 -51s-41.666 -24.167 -66.999 -31.5s-52 -11 -80 -11
c-29.333 0 -59.333 2.66699 -90 8s-56.334 12 -77.001 20l17 129h70l-10 -77c13.333 -4 27.5 -7 42.5 -9s29.833 -3 44.5 -3c41.333 0 71.5 9 90.5 27s28.5 41 28.5 69c0 22 -9.66699 40 -29 54s-46.666 29 -81.999 45c-17.333 8 -34.333 16.333 -51 25
s-31.5 18.834 -44.5 30.501s-23.5 24.834 -31.5 39.501s-12 32 -12 52c0 27.333 6.83301 53.333 20.5 78s33.834 46 60.501 64c-15.333 13.333 -27.166 27.833 -35.499 43.5s-12.5 33.834 -12.5 54.501c0 26.667 5.5 50 16.5 70s26 36.833 45 50.5
s40.833 23.834 65.5 30.501s51 10 79 10c34 0 63.333 -2.83301 88 -8.5s45.334 -11.834 62.001 -18.501c-3.33301 -22 -6.33301 -44 -9 -66l-8 -66h-72l10 77c-12 3.33301 -24 6.16602 -36 8.49902s-26 3.5 -42 3.5zM210.993 388.998
c-17.333 -13.333 -30.835 -28.168 -40.502 -44.501s-14.5 -32.833 -14.5 -49.5c0 -14 4.33301 -26 13 -36s19.667 -19 33 -27s28.333 -15.5 45 -22.5s33 -14.833 49 -23.5c17.333 16 30.5 32.333 39.5 49s13.5 31.334 13.5 44.001c0 14.667 -4.33301 27.167 -13 37.5
s-19.667 19.5 -33 27.5s-28.166 15.5 -44.499 22.5s-32.166 14.5 -47.499 22.5z" />
    <glyph glyph-name="dieresis" unicode="&#xa8;" horiz-adv-x="512" 
d="M406 670c14.667 0 26.5 -4.16797 35.5 -12.501s13.5 -19.833 13.5 -34.5c0 -17.333 -5.83301 -32.166 -17.5 -44.499s-26.5 -18.5 -44.5 -18.5c-13.333 0 -24.333 4.5 -33 13.5s-13 20.5 -13 34.5c0 17.333 6.16699 32 18.5 44s25.833 18 40.5 18zM218 669.999
c15.333 0 27.499 -4.16797 36.499 -12.501s13.5 -19.833 13.5 -34.5c0 -17.333 -6 -32.166 -18 -44.499s-26.667 -18.5 -44 -18.5c-14 0 -25.5 4.5 -34.5 13.5s-13.5 20.5 -13.5 34.5c0 17.333 6.33301 32 19 44s26.334 18 41.001 18z" />
    <glyph glyph-name="copyright" unicode="&#xa9;" horiz-adv-x="827" 
d="M784 332c0 -51.333 -9.6709 -99.333 -29.0039 -144s-45.5 -83.834 -78.5 -117.501s-71.667 -60.167 -116 -79.5s-91.5 -29 -141.5 -29c-56 0 -106.5 9.66699 -151.5 29s-83.333 45.833 -115 79.5s-56 72.834 -73 117.501s-25.5 92.667 -25.5 144
c0 50.667 9.33301 98.334 28 143.001s44.334 83.834 77.001 117.501s71.334 60.167 116.001 79.5s92.667 29 144 29c52.667 0 101.334 -9.66699 146.001 -29s83.334 -45.833 116.001 -79.5s58 -72.834 76 -117.501s27 -92.334 27 -143.001zM733.996 332
c0 44 -7.83398 85.333 -23.501 124s-37.5 72.5 -65.5 101.5s-61.167 51.833 -99.5 68.5s-80.5 25 -126.5 25c-44 0 -85.333 -8.33301 -124 -25s-72.167 -39.5 -100.5 -68.5s-50.666 -62.833 -66.999 -101.5s-24.5 -80 -24.5 -124s7.33301 -85.5 22 -124.5
s35.667 -73 63 -102s60.5 -52 99.5 -69s82.833 -25.5 131.5 -25.5c44 0 85 8.5 123 25.5s71.333 40 100 69s51.167 63 67.5 102s24.5 80.5 24.5 124.5zM292.995 325c0 -28 2.33301 -53.332 7 -75.999s12.834 -42 24.501 -58s27 -28.333 46 -37s42.833 -13 71.5 -13
c12.667 0 30.167 1.16699 52.5 3.5s42.166 6.16602 59.499 11.499l12 -55c-8.66699 -3.33301 -18.667 -6.5 -30 -9.5s-23.166 -5.5 -35.499 -7.5s-25 -3.5 -38 -4.5s-25.5 -1.5 -37.5 -1.5c-40 0 -73.333 6.16699 -100 18.5s-48.334 29.333 -65.001 51
s-28.5 47.5 -35.5 77.5s-10.5 63 -10.5 99c0 26.667 3.16699 55 9.5 85s17.833 57.5 34.5 82.5s39.167 45.667 67.5 62s64.5 24.5 108.5 24.5c26.667 0 50 -2 70 -6s37.333 -8.66699 52 -14v-122h-54v72c-8.66699 2 -19 3.83301 -31 5.5s-23.667 2.5 -35 2.5
c-49.333 0 -85.5 -17.167 -108.5 -51.5s-34.5 -80.833 -34.5 -139.5z" />
    <glyph glyph-name="ordfeminine" unicode="&#xaa;" horiz-adv-x="394" 
d="M259 361c-18 -32.667 -38.3311 -55.998 -60.998 -69.998s-43.667 -21 -63 -21c-28 0 -50.667 10 -68 30s-26 50 -26 90c0 30.667 3.83301 59 11.5 85s19.167 48.5 34.5 67.5s34.333 33.833 57 44.5s49.334 16 80.001 16c12 0 23.833 -1.5 35.5 -4.5
s23.5 -7.16699 35.5 -12.5l15 18l55 -3l-12.5 -89.5c-3.66699 -25.667 -6.83398 -48.834 -9.50098 -69.501l-7.5 -57c-2.33301 -17.333 -4.5 -34.333 -6.5 -51c8.66699 1.33301 17.5 3.66602 26.5 6.99902s17.833 7.33301 26.5 12c3.33301 -5.33301 6.66602 -11 9.99902 -17
s6.66602 -11.667 9.99902 -17c-15.333 -14 -32.5 -26 -51.5 -36s-35.167 -15 -48.5 -15c-17.333 0 -29 5.83301 -35 17.5s-9 24.167 -9 37.5c0 11.333 1 24 3 38h-2zM163.002 328.002c6.66699 0 14.667 2.33301 24 7s18.833 12.5 28.5 23.5s19 25.667 28 44
s16.833 41.166 23.5 68.499l11 61c-12 4.66699 -23.333 8 -34 10s-19.667 3 -27 3c-18.667 0 -34.334 -4.66699 -47.001 -14s-22.667 -21.166 -30 -35.499s-12.666 -30 -15.999 -47s-5 -32.833 -5 -47.5c0 -25.333 4 -43.833 12 -55.5s18.667 -17.5 32 -17.5z" />
    <glyph glyph-name="guillemotleft" unicode="&#xab;" horiz-adv-x="445" 
d="M54 211l170 168l39 -32l-119 -155l80 -154l-46 -32l-129 167zM213 211l170 168l38 -32l-117 -155l79 -154l-45 -32l-130 167z" />
    <glyph glyph-name="logicalnot" unicode="&#xac;" horiz-adv-x="558" 
d="M464 97h-69l20 169h-317l9 69h385z" />
    <glyph glyph-name="sfthyphen" unicode="&#xad;" horiz-adv-x="366" 
d="M56 225l10 82h258l-11 -82h-257z" />
    <glyph glyph-name="registered" unicode="&#xae;" horiz-adv-x="580" 
d="M558 469c0 -34 -5.99902 -66 -17.999 -96s-28.833 -56 -50.5 -78s-47.334 -39.5 -77.001 -52.5s-62.5 -19.5 -98.5 -19.5c-35.333 0 -67.833 6.5 -97.5 19.5s-55.334 30.5 -77.001 52.5s-38.5 48 -50.5 78s-18 62 -18 96s6 66 18 96s28.667 56.167 50 78.5
s47 39.833 77 52.5s62.667 19 98 19c36 0 68.833 -6.33301 98.5 -19s55.334 -30.167 77.001 -52.5s38.5 -48.5 50.5 -78.5s18 -62 18 -96zM519.001 469c0 28.667 -5 55.5 -15 80.5s-24 47 -42 66s-39.667 34 -65 45s-53 16.5 -83 16.5s-57.5 -5.5 -82.5 -16.5
s-46.5 -26 -64.5 -45s-32 -41 -42 -66s-15 -51.833 -15 -80.5c0 -28 5 -54.667 15 -80s24 -47.333 42 -66s39.5 -33.5 64.5 -44.5s52.5 -16.5 82.5 -16.5c32 0 60.667 5.5 86 16.5s46.833 25.833 64.5 44.5s31.167 40.667 40.5 66s14 52 14 80zM278.001 450
l-0.000976562 -84.998h31v-37h-109v37h26v216h-26v38h132c30 0 52.833 -7.33301 68.5 -22s23.5 -35.334 23.5 -62.001c0 -12.667 -4 -26.667 -12 -42s-21 -27 -39 -35l44 -93l31 -4v-32c-6 -1.33301 -13.167 -2.5 -21.5 -3.5s-15.166 -1.5 -20.499 -1.5
c-10 0 -17.5 2.16699 -22.5 6.5s-9.83301 11.166 -14.5 20.499l-47 99h-44zM371 535.002c0 17.333 -4.66797 29.501 -14.001 36.501s-20 10.5 -32 10.5h-47v-95h45c12.667 0 23.834 3.16699 33.501 9.5s14.5 19.166 14.5 38.499z" />
    <glyph glyph-name="macron" unicode="&#xaf;" horiz-adv-x="512" 
d="M147 658h328l-10 -75h-327z" />
    <glyph glyph-name="degree" unicode="&#xb0;" horiz-adv-x="355" 
d="M323 544c-0.666992 -19.333 -4.67285 -37.001 -12.0059 -53.001s-17.166 -30 -29.499 -42s-26.833 -21.333 -43.5 -28s-34.334 -10 -53.001 -10c-20 0 -38.167 3.33301 -54.5 10s-30.166 15.834 -41.499 27.501s-20 25.667 -26 42s-8.33301 34.166 -7 53.499
c0.666992 19.333 4.83398 37.166 12.501 53.499s17.834 30.5 30.501 42.5s27.334 21.5 44.001 28.5s34.334 10.5 53.001 10.5s35.834 -3.66699 51.501 -11s29.167 -17.166 40.5 -29.499s20 -26.666 26 -42.999s9 -33.5 9 -51.5zM266.994 540.999
c0.666992 23.333 -6.66699 42.833 -22 58.5s-34 23.5 -56 23.5s-40.333 -8 -55 -24s-22.334 -35.333 -23.001 -58c-0.666992 -10.667 0.833008 -20.834 4.5 -30.501s8.83398 -18 15.501 -25s14.5 -12.5 23.5 -16.5s19.167 -6 30.5 -6c22 0 41 7.33301 57 22
s24.333 33.334 25 56.001z" />
    <glyph glyph-name="plusminus" unicode="&#xb1;" horiz-adv-x="558" 
d="M327 272l-20 -158h-69l19 158h-158l8 69h159l19 154h69l-19 -154h157l-8 -69h-157zM459 64l-8 -64h-385l8 64h385z" />
    <glyph glyph-name="twosuperior" unicode="&#xb2;" horiz-adv-x="364" 
d="M205 763c40 0 72 -8.33008 96 -24.9971s36 -42 36 -76c0 -24 -6.66699 -47.333 -20 -70s-30.166 -44.5 -50.499 -65.5s-42.333 -40.667 -66 -59l-66.5 -49.5h127c1.33301 7.33301 2.16602 15.166 2.49902 23.499s0.833008 16.166 1.5 23.499h66l-10 -110h-301l6 55
l66 50.5c26 19.667 51 40.5 75 62.5s44.5 43.833 61.5 65.5s25.5 41.5 25.5 59.5c0 17.333 -5.5 29.666 -16.5 36.999s-26.5 11 -46.5 11c-10 0 -24 -2 -42 -6s-40.333 -13.333 -67 -28l-29 52c31.333 20 60 33.167 86 39.5s48 9.5 66 9.5z" />
    <glyph glyph-name="threesuperior" unicode="&#xb3;" horiz-adv-x="364" 
d="M205 761c43.333 0 74.8301 -8.33105 94.4971 -24.998s29.5 -36.334 29.5 -59.001c0 -18 -7 -36.167 -21 -54.5s-32 -32.166 -54 -41.499c25.333 -7.33301 44.166 -19.333 56.499 -36s18.5 -35 18.5 -55c0 -19.333 -4.16699 -37.333 -12.5 -54
s-20.5 -31.334 -36.5 -44.001s-35.167 -22.667 -57.5 -30s-47.5 -11 -75.5 -11c-26 0 -51.167 2.5 -75.5 7.5s-44.166 11.833 -59.499 20.5l23 56c28.667 -10 50.667 -16 66 -18s29.333 -3 42 -3c13.333 0 26.333 1.66699 39 5s23.834 8 33.501 14s17.334 13.333 23.001 22
s8.5 18.667 8.5 30c0 20 -7.16699 34.5 -21.5 43.5s-32.833 13.5 -55.5 13.5c-6.66699 0 -13.667 -0.333008 -21 -1s-15.666 -1.66699 -24.999 -3l-8 52c44 7.33301 77 17.833 99 31.5s33 28.167 33 43.5c0 9.33301 -4.33301 17.166 -13 23.499s-23.334 9.5 -44.001 9.5
c-11.333 0 -26.333 -1.66699 -45 -5s-41 -10.333 -67 -21l-21 52c28 14 54.333 23.667 79 29s47.334 8 68.001 8z" />
    <glyph glyph-name="acute" unicode="&#xb4;" horiz-adv-x="512" 
d="M290 539l-36 35l144 172l57 -60z" />
    <glyph glyph-name="mu" unicode="&#xb5;" horiz-adv-x="589" 
d="M171 499c20.667 0 34.3311 -5.66699 40.998 -17s10 -25.333 10 -42c0 -6.66699 -0.833008 -18 -2.5 -34l-6 -55l-7.5 -65.5l-7.5 -66c-2.33301 -21 -4.33301 -39.833 -6 -56.5s-2.5 -28.667 -2.5 -36c0 -17.333 3.16699 -30.666 9.5 -39.999s17.5 -14 33.5 -14
c12 0 25 3.66699 39 11s28.167 19.333 42.5 36s28.5 38.167 42.5 64.5s26.667 58.5 38 96.5l29 208h99l-26 -208l-26 -205c14.667 1.33301 28.167 4 40.5 8s24.833 9 37.5 15l22 -44c-25.333 -24 -50.833 -41 -76.5 -51s-47.167 -15 -64.5 -15
c-13.333 0 -23.666 2 -30.999 6s-12.833 9.33301 -16.5 16s-5.83398 14.667 -6.50098 24s-1 19.666 -1 30.999s0.5 23 1.5 35s2.16699 23 3.5 33h-4c-28.667 -48.667 -55.667 -83.167 -81 -103.5s-52 -30.5 -80 -30.5c-13.333 0 -27.333 2 -42 6l-16 -143h63l-9 -71h-220
l4 35.5l4 35.5h57l60 550c-15.333 2 -30.666 4.16699 -45.999 6.5s-30.666 4.83301 -45.999 7.5c1.33301 8 2 16.333 2 25s0.666992 17 2 25c28 8 54 13.667 78 17s45.667 5 65 5z" />
    <glyph glyph-name="mu" unicode="&#x3bc;" horiz-adv-x="589" 
d="M171 499c20.667 0 34.3311 -5.66699 40.998 -17s10 -25.333 10 -42c0 -6.66699 -0.833008 -18 -2.5 -34l-6 -55l-7.5 -65.5l-7.5 -66c-2.33301 -21 -4.33301 -39.833 -6 -56.5s-2.5 -28.667 -2.5 -36c0 -17.333 3.16699 -30.666 9.5 -39.999s17.5 -14 33.5 -14
c12 0 25 3.66699 39 11s28.167 19.333 42.5 36s28.5 38.167 42.5 64.5s26.667 58.5 38 96.5l29 208h99l-26 -208l-26 -205c14.667 1.33301 28.167 4 40.5 8s24.833 9 37.5 15l22 -44c-25.333 -24 -50.833 -41 -76.5 -51s-47.167 -15 -64.5 -15
c-13.333 0 -23.666 2 -30.999 6s-12.833 9.33301 -16.5 16s-5.83398 14.667 -6.50098 24s-1 19.666 -1 30.999s0.5 23 1.5 35s2.16699 23 3.5 33h-4c-28.667 -48.667 -55.667 -83.167 -81 -103.5s-52 -30.5 -80 -30.5c-13.333 0 -27.333 2 -42 6l-16 -143h63l-9 -71h-220
l4 35.5l4 35.5h57l60 550c-15.333 2 -30.666 4.16699 -45.999 6.5s-30.666 4.83301 -45.999 7.5c1.33301 8 2 16.333 2 25s0.666992 17 2 25c28 8 54 13.667 78 17s45.667 5 65 5z" />
    <glyph glyph-name="paragraph" unicode="&#xb6;" horiz-adv-x="546" 
d="M243 312c-25.333 0 -48.165 4.16699 -68.498 12.5s-37.833 20 -52.5 35s-25.834 33 -33.501 54s-11.5 44.167 -11.5 69.5c0 30.667 5.5 59 16.5 85s25.833 48.5 44.5 67.5s40.667 34 66 45s52.666 16.5 81.999 16.5h291l-9 -73h-65l-101 -823h-72l102 823h-63l-101 -823
h-154l9 70h81l53 441h-14z" />
    <glyph glyph-name="periodcentered" unicode="&#xb7;" horiz-adv-x="221" 
d="M127 345c15.333 0 28.167 -5.16797 38.5 -15.501s15.5 -23.166 15.5 -38.499c0 -20 -7.16699 -37 -21.5 -51s-30.5 -21 -48.5 -21c-15.333 0 -28 5.66699 -38 17s-15 25 -15 41c0 19.333 7 35.5 21 48.5s30 19.5 48 19.5z" />
    <glyph glyph-name="cedilla" unicode="&#xb8;" horiz-adv-x="456" 
d="M200 -59c29.333 -2.66699 52.3301 -9.99414 68.9971 -21.9941s25 -29 25 -51c0 -14 -3.5 -27.833 -10.5 -41.5s-18.333 -26 -34 -37s-35.667 -20.167 -60 -27.5s-53.833 -11 -88.5 -11c0 7.33301 0.166992 14.666 0.5 21.999s0.5 14.666 0.5 21.999
c36.667 3.33301 66.334 10.166 89.001 20.499s34 24.166 34 41.499c0 7.33301 -3 13.166 -9 17.499s-13.5 7.66602 -22.5 9.99902s-18.667 3.83301 -29 4.5s-20.166 1 -29.499 1l-11 22c36.667 44 74.334 86.667 113.001 128c5.33301 -4 10.5 -7.66699 15.5 -11l15.5 -10z
" />
    <glyph glyph-name="onesuperior" unicode="&#xb9;" horiz-adv-x="364" 
d="M59 418h88l33 264c-13.333 -1.33301 -29.5 -3.5 -48.5 -6.5s-34.833 -5.16699 -47.5 -6.5l-4 52l119 36h72l-41 -339h83l-5 -62h-254z" />
    <glyph glyph-name="ordmasculine" unicode="&#xba;" horiz-adv-x="360" 
d="M212 606c24.667 0 45.835 -3.5 63.502 -10.5s32 -16.667 43 -29s19.167 -26.666 24.5 -42.999s8 -33.833 8 -52.5c0 -20.667 -2.83301 -42.667 -8.5 -66s-15.334 -44.833 -29.001 -64.5s-31.834 -36 -54.501 -49s-51 -19.5 -85 -19.5c-24.667 0 -45.667 3.33301 -63 10
s-31.5 16 -42.5 28s-19 26 -24 42s-7.5 33.333 -7.5 52c0 23.333 3.16699 47 9.5 71s16.333 45.667 30 65s31.667 35.166 54 47.499s49.5 18.5 81.5 18.5zM209.001 548c-19.333 0 -35.1699 -5.16797 -47.5029 -15.501s-21.833 -23.166 -28.5 -38.499
s-11.167 -31.833 -13.5 -49.5s-3.5 -33.5 -3.5 -47.5c0.666992 -17.333 5.33398 -32.833 14.001 -46.5s25.334 -20.5 50.001 -20.5c18.667 0 34 4.83301 46 14.5s21.333 21.667 28 36s11 29.833 13 46.5s3 31.667 3 45c-0.666992 20.667 -5.16699 38.5 -13.5 53.5
s-24.166 22.5 -47.499 22.5z" />
    <glyph glyph-name="guillemotright" unicode="&#xbb;" horiz-adv-x="445" 
d="M393 173l-171 -167l-37 32l116 154l-79 155l47 32l129 -168zM235 173l-171 -167l-39 32l118 154l-80 155l47 32l130 -168z" />
    <glyph glyph-name="onequarter" unicode="&#xbc;" horiz-adv-x="830" 
d="M778 402l-27 -232h60l-5 -58h-62l-6 -55h43l-5 -56h-163l7 56h42l6 55h-192l5 48l83.5 91.5l62 68.5l44 49l29.5 33h78zM104 328h88l33 264c-13.333 -1.33301 -29.5 -3.5 -48.5 -6.5s-34.833 -5.16699 -47.5 -6.5l-4 52l119 36h72l-41 -339h83l-5 -62h-254zM325 -21h-66
l388 725h64zM693 317l-65.5 -74.5l-67.5 -72.5h115l19 147h-1z" />
    <glyph glyph-name="onehalf" unicode="&#xbd;" horiz-adv-x="830" 
d="M696 408c40 0 72.0029 -8.49902 96.0029 -25.499s36 -43.167 36 -78.5c0 -23.333 -6.83301 -46.333 -20.5 -69s-30.5 -44.334 -50.5 -65.001s-41.833 -40 -65.5 -58l-65.5 -49h126c1.33301 6 2.16602 13.333 2.49902 22s0.833008 16 1.5 22h65l-10 -107h-300l5 54
l69.5 53c26.333 20 51.166 40.667 74.499 62s43.166 42.666 59.499 63.999s24.833 41 25.5 59c0 16.667 -5.5 28.834 -16.5 36.501s-26.5 11.5 -46.5 11.5c-10 0 -24.167 -2 -42.5 -6s-40.833 -13.667 -67.5 -29l-28 54c30.667 19.333 59 32.333 85 39s48.333 10 67 10z
M88.0029 328.001h88l33 264c-13.333 -1.33301 -29.5 -3.5 -48.5 -6.5s-34.833 -5.16699 -47.5 -6.5l-4 52l119 36h72l-41 -339h83l-5 -62h-254zM303.003 -20.999h-66l388 725h64z" />
    <glyph glyph-name="threequarters" unicode="&#xbe;" horiz-adv-x="830" 
d="M796 402l-27 -232h60l-5 -58h-62l-6 -55h43l-5 -56h-163l7 56h42l6 55h-192l5 48l83.5 91.5l62 68.5l44 49l29.5 33h78zM274 671c43.333 0 74.8301 -8.33105 94.4971 -24.998s29.5 -36.334 29.5 -59.001c0 -18 -7 -36.167 -21 -54.5s-32 -32.166 -54 -41.499
c25.333 -7.33301 44.166 -19.333 56.499 -36s18.5 -35 18.5 -55c0 -19.333 -4.16699 -37.333 -12.5 -54s-20.5 -31.334 -36.5 -44.001s-35.167 -22.667 -57.5 -30s-47.5 -11 -75.5 -11c-26 0 -51.167 2.5 -75.5 7.5s-44.166 11.833 -59.499 20.5l23 56
c28.667 -10 50.667 -16 66 -18s29.333 -3 42 -3c13.333 0 26.333 1.66699 39 5s23.834 8 33.501 14s17.334 13.333 23.001 22s8.5 18.667 8.5 30c0 20 -7.16699 34.5 -21.5 43.5s-32.833 13.5 -55.5 13.5c-6.66699 0 -13.667 -0.333008 -21 -1s-15.666 -1.66699 -24.999 -3
l-8 52c44 7.33301 77 17.833 99 31.5s33 28.167 33 43.5c0 9.33301 -4.33301 17.166 -13 23.499s-23.334 9.5 -44.001 9.5c-11.333 0 -26.333 -1.66699 -45 -5s-41 -10.333 -67 -21l-21 52c28 14 54.333 23.667 79 29s47.334 8 68.001 8zM327.997 -20.998h-66l388 725h64z
M710.997 317.002l-65.5 -74.5l-67.5 -72.5h115l19 147h-1z" />
    <glyph glyph-name="questiondown" unicode="&#xbf;" horiz-adv-x="451" 
d="M185 -220c-56.667 0 -99.833 11.0039 -129.5 33.0039s-44.5 52.667 -44.5 92c0 37.333 9.5 69.5 28.5 96.5s42.167 51.167 69.5 72.5c26 18.667 48.167 35.667 66.5 51s33.5 30 45.5 44s20.667 28.167 26 42.5s8 30.166 8 47.499c0 5.33301 -0.166992 11.333 -0.5 18
s-0.5 14 -0.5 22c14 2 27.833 4.16699 41.5 6.5s27.167 4.16602 40.5 5.49902c1.33301 -11.333 2.33301 -21.833 3 -31.5s1 -18.834 1 -27.501c0 -23.333 -3 -44 -9 -62s-14.833 -35.167 -26.5 -51.5s-26.5 -32.333 -44.5 -48s-39 -32.5 -63 -50.5
c-22.667 -16.667 -41.167 -32.5 -55.5 -47.5s-21.5 -33.5 -21.5 -55.5c0 -26 7 -44.833 21 -56.5s36.667 -17.5 68 -17.5c15.333 0 31.833 1.16699 49.5 3.5s35.5 6.16602 53.5 11.499l9 87h75c-2.66699 -25.333 -5.5 -50.5 -8.5 -75.5s-5.83301 -50.167 -8.5 -75.5
c-36 -12 -70.833 -20.667 -104.5 -26s-63.5 -8 -89.5 -8zM287.001 378.004c-15.333 0 -28 5 -38 15s-15 22.667 -15 38c0 19.333 7 35 21 47s29.333 18 46 18c15.333 0 28 -5 38 -15s15 -22 15 -36c0 -18 -6.33301 -33.667 -19 -47s-28.667 -20 -48 -20z" />
    <glyph glyph-name="Agrave" unicode="&#xc0;" horiz-adv-x="676" 
d="M408 0l8 75h65l-21 114h-249l-49 -114h66l-8 -75h-226l7 75h57l275 611h132l123 -611h53l-9 -75h-224zM411 464l-22 134h-3l-53 -126l-88 -207h202zM249 825l53 76l157 -129l-31 -45z" />
    <glyph glyph-name="Aacute" unicode="&#xc1;" horiz-adv-x="676" 
d="M408 0l8 75h65l-21 114h-249l-49 -114h66l-8 -75h-226l7 75h57l275 611h132l123 -611h53l-9 -75h-224zM411 464l-22 134h-3l-53 -126l-88 -207h202zM379 726l-27 43l182 127l43 -71z" />
    <glyph glyph-name="Acircumflex" unicode="&#xc2;" horiz-adv-x="676" 
d="M408 0l8 75h65l-21 114h-249l-49 -114h66l-8 -75h-226l7 75h57l275 611h132l123 -611h53l-9 -75h-224zM411 464l-22 134h-3l-53 -126l-88 -207h202zM550 714l-142 100l-166 -100l-25 33l165 146h67l132 -144z" />
    <glyph glyph-name="Atilde" unicode="&#xc3;" horiz-adv-x="676" 
d="M408 0l8 75h65l-21 114h-249l-49 -114h66l-8 -75h-226l7 75h57l275 611h132l123 -611h53l-9 -75h-224zM411 464l-22 134h-3l-53 -126l-88 -207h202zM473 737c-15.333 0 -29.8311 2 -43.498 6s-26.667 8.5 -39 13.5s-24 9.5 -35 13.5s-21.167 6 -30.5 6l-59 -39l-30 25
c13.333 27.333 28.666 47.833 45.999 61.5s35.666 20.5 54.999 20.5c12.667 0 25.667 -2 39 -6s26.333 -8.16699 39 -12.5l37 -12.5c12 -4 23 -6 33 -6l60 39l27 -26c-11.333 -25.333 -25.5 -45.5 -42.5 -60.5s-35.833 -22.5 -56.5 -22.5z" />
    <glyph glyph-name="Adieresis" unicode="&#xc4;" horiz-adv-x="676" 
d="M408 0l8 75h65l-21 114h-249l-49 -114h66l-8 -75h-226l7 75h57l275 611h132l123 -611h53l-9 -75h-224zM411 464l-22 134h-3l-53 -126l-88 -207h202zM554 789c-1.33301 -16.667 -7.66699 -30.5 -19 -41.5s-25.333 -16.5 -42 -16.5c-14 0 -25.167 4.66699 -33.5 14
s-11.833 21 -10.5 35c0.666992 16 6.66699 29.5 18 40.5s24.333 16.5 39 16.5s26.667 -4.5 36 -13.5s13.333 -20.5 12 -34.5zM369.999 789c-1.33301 -16.667 -7.83105 -30.5 -19.498 -41.5s-25.167 -16.5 -40.5 -16.5c-14.667 0 -26.334 4.83301 -35.001 14.5
s-12.667 21.5 -12 35.5c0.666992 15.333 7.16699 28.5 19.5 39.5s25.166 16.5 38.499 16.5c15.333 0 27.5 -4.5 36.5 -13.5s13.167 -20.5 12.5 -34.5z" />
    <glyph glyph-name="Aring" unicode="&#xc5;" horiz-adv-x="676" 
d="M408 0l8 75h65l-21 114h-249l-49 -114h66l-8 -75h-226l7 75h57l275 611h132l123 -611h53l-9 -75h-224zM411 464l-22 134h-3l-53 -126l-88 -207h202zM398 711c-15.333 0 -29.502 3.00098 -42.502 9.00098s-24 14 -33 24s-15.5 21.667 -19.5 35s-5 27.666 -3 42.999
s6.5 29.833 13.5 43.5s16 25.5 27 35.5s23.833 18 38.5 24s30.334 9 47.001 9c15.333 0 29.166 -3 41.499 -9s22.833 -14 31.5 -24s14.834 -21.833 18.501 -35.5s4.5 -28.167 2.5 -43.5c-1.33301 -15.333 -5.66602 -29.833 -12.999 -43.5s-16.5 -25.5 -27.5 -35.5
s-23.5 -17.833 -37.5 -23.5s-28.667 -8.5 -44 -8.5zM418.998 882.001c-18 0 -33.167 -6 -45.5 -18s-19.5 -26.667 -21.5 -44c-2 -16.667 1.5 -31 10.5 -43s22.833 -18 41.5 -18c17.333 0 31.833 6 43.5 18s18.5 26.333 20.5 43c2.66699 17.333 -0.5 32 -9.5 44
s-22.167 18 -39.5 18z" />
    <glyph glyph-name="AE" unicode="&#xc6;" horiz-adv-x="956" 
d="M496 75l5 129h-242l-84 -129h67l-3 -75h-234l3 75h55l391 609h468l-9 -173h-77l6 97l-217 2l-9 -217l212 4l-3 -78l-212 2l-11 -246h238l5 102h80l-9 -177h-490l3 75h67zM304 280h201l15 326h-6z" />
    <glyph glyph-name="Ccedilla" unicode="&#xc7;" horiz-adv-x="575" 
d="M412 698c36 0 68.167 -2.6582 96.5 -7.99121s53.166 -12 74.499 -20l-21 -174h-79l12 104c-11.333 3.33301 -24.833 6.16602 -40.5 8.49902s-31.834 3.5 -48.501 3.5c-39.333 0 -73.5 -8.33301 -102.5 -25s-53 -39.667 -72 -69s-33.333 -64.666 -43 -105.999
s-14.5 -86.333 -14.5 -135c0 -62 14.333 -109 43 -141s77 -48 145 -48c8 0 18.167 0.333008 30.5 1s25.5 2 39.5 4s28.333 4.33301 43 7s28.667 6 42 10l16 -85c-12 -4.66699 -25.5 -9 -40.5 -13s-30.667 -7.5 -47 -10.5s-33 -5.33301 -50 -7
s-33.167 -2.83398 -48.5 -3.50098l-28 -32l-28 -33c29.333 -2.66699 52.333 -10 69 -22s25 -29 25 -51c0 -14 -3.5 -27.833 -10.5 -41.5s-18.333 -26 -34 -37s-35.667 -20.167 -60 -27.5s-53.833 -11 -88.5 -11c0 7.33301 0.166992 14.666 0.5 21.999s0.5 14.666 0.5 21.999
c36.667 3.33301 66.334 10.166 89.001 20.499s34 24.166 34 41.499c0 7.33301 -3 13.166 -9 17.499s-13.5 7.66602 -22.5 9.99902s-18.667 3.83301 -29 4.5s-20.166 1 -29.499 1l-11 22l41 49l42 47c-43.333 2.66699 -80 11 -110 25s-54.333 33 -73 57
s-32.334 52.333 -41.001 85s-13 69 -13 109c0 28 1.83301 58.167 5.5 90.5s10.334 64.333 20.001 96s22.834 62.167 39.501 91.5s38 55.166 64 77.499s57.167 40.166 93.5 53.499s79.166 20 128.499 20z" />
    <glyph glyph-name="Egrave" unicode="&#xc8;" horiz-adv-x="589" 
d="M16 0l8 75h66l66 536h-63l8 74h500l-22 -173h-78l12 99h-250l-27 -218l236 5l-8 -79l-237 4l-30 -248h270l13 102h80l-22 -177h-522zM243 825l53 76l157 -129l-31 -45z" />
    <glyph glyph-name="Eacute" unicode="&#xc9;" horiz-adv-x="589" 
d="M16 0l8 75h66l66 536h-63l8 74h500l-22 -173h-78l12 99h-250l-27 -218l236 5l-8 -79l-237 4l-30 -248h270l13 102h80l-22 -177h-522zM326 726l-27 43l182 127l43 -71z" />
    <glyph glyph-name="Ecircumflex" unicode="&#xca;" horiz-adv-x="589" 
d="M16 0l8 75h66l66 536h-63l8 74h500l-22 -173h-78l12 99h-250l-27 -218l236 5l-8 -79l-237 4l-30 -248h270l13 102h80l-22 -177h-522zM527 714l-142 100l-166 -100l-25 33l165 146h67l132 -144z" />
    <glyph glyph-name="Edieresis" unicode="&#xcb;" horiz-adv-x="589" 
d="M16 0l8 75h66l66 536h-63l8 74h500l-22 -173h-78l12 99h-250l-27 -218l236 5l-8 -79l-237 4l-30 -248h270l13 102h80l-22 -177h-522zM528 789c-1.33301 -16.667 -7.66699 -30.5 -19 -41.5s-25.333 -16.5 -42 -16.5c-14 0 -25.167 4.66699 -33.5 14s-11.833 21 -10.5 35
c0.666992 16 6.66699 29.5 18 40.5s24.333 16.5 39 16.5s26.667 -4.5 36 -13.5s13.333 -20.5 12 -34.5zM343.999 789c-1.33301 -16.667 -7.83105 -30.5 -19.498 -41.5s-25.167 -16.5 -40.5 -16.5c-14.667 0 -26.334 4.83301 -35.001 14.5s-12.667 21.5 -12 35.5
c0.666992 15.333 7.16699 28.5 19.5 39.5s25.166 16.5 38.499 16.5c15.333 0 27.5 -4.5 36.5 -13.5s13.167 -20.5 12.5 -34.5z" />
    <glyph glyph-name="Igrave" unicode="&#xcc;" horiz-adv-x="370" 
d="M43 0l9 75h63l65 536h-63l9 75h234l-9 -75h-64l-66 -536h64l-8 -75h-234zM101 825l53 76l157 -129l-31 -45z" />
    <glyph glyph-name="Iacute" unicode="&#xcd;" horiz-adv-x="370" 
d="M43 0l9 75h63l65 536h-63l9 75h234l-9 -75h-64l-66 -536h64l-8 -75h-234zM209 726l-27 43l182 127l43 -71z" />
    <glyph glyph-name="Icircumflex" unicode="&#xce;" horiz-adv-x="370" 
d="M43 0l9 75h63l65 536h-63l9 75h234l-9 -75h-64l-66 -536h64l-8 -75h-234zM401 714l-142 100l-166 -100l-25 33l165 146h67l132 -144z" />
    <glyph glyph-name="Idieresis" unicode="&#xcf;" horiz-adv-x="370" 
d="M43 0l9 75h63l65 536h-63l9 75h234l-9 -75h-64l-66 -536h64l-8 -75h-234zM397 789c-1.33301 -16.667 -7.66699 -30.5 -19 -41.5s-25.333 -16.5 -42 -16.5c-14 0 -25.167 4.66699 -33.5 14s-11.833 21 -10.5 35c0.666992 16 6.66699 29.5 18 40.5s24.333 16.5 39 16.5
s26.667 -4.5 36 -13.5s13.333 -20.5 12 -34.5zM212.999 789c-1.33301 -16.667 -7.83105 -30.5 -19.498 -41.5s-25.167 -16.5 -40.5 -16.5c-14.667 0 -26.334 4.83301 -35.001 14.5s-12.667 21.5 -12 35.5c0.666992 15.333 7.16699 28.5 19.5 39.5s25.166 16.5 38.499 16.5
c15.333 0 27.5 -4.5 36.5 -13.5s13.167 -20.5 12.5 -34.5z" />
    <glyph glyph-name="Eth" unicode="&#xd0;" horiz-adv-x="671" 
d="M16 0l8.00195 74.999h69l30 246h-65l8 55h63l29 235h-64l9 75h282c49.333 0 90.5 -7.16699 123.5 -21.5s59.5 -34.166 79.5 -59.499s34.167 -55 42.5 -89s12.5 -70.667 12.5 -110c0 -54 -6 -105.5 -18 -154.5s-31.333 -92.167 -58 -129.5s-61.334 -67 -104.001 -89
s-94.334 -33 -155.001 -33h-292zM267.002 610.999l-28.998 -234.999h130l-7 -55h-130l-30 -245h96c11.333 0 25.166 1.33301 41.499 4s33 8 50 16s34 19.333 51 34s32.167 34 45.5 58s24.166 53.333 32.499 88s12.5 76 12.5 124c0 47.333 -5.66699 85 -17 113
s-25.333 49.167 -42 63.5s-34.667 23.666 -54 27.999s-37.333 6.5 -54 6.5h-96z" />
    <glyph glyph-name="Ntilde" unicode="&#xd1;" horiz-adv-x="747" 
d="M536 165l27.499 222.501l27.5 222.5h-67l9 75h231c-2 -12.667 -3.66699 -25.167 -5 -37.5l-4 -37.5h-64l-37 -305.5c-12 -101 -24.667 -202.5 -38 -304.5h-102l-108 218.5c-34 71 -70.667 143.833 -110 218.5l-24.5 49.5c-8.33301 16.333 -16.166 33.166 -23.499 50.499
c-0.666992 0 -1.16699 -0.166992 -1.5 -0.5s-0.833008 -0.5 -1.5 -0.5l-57 -461h68l-9 -75h-233c2 12.667 3.66699 25.167 5 37.5l4 37.5h66l32.5 267.5l33.5 267.5h-66l9 75h180l93.5 -190.5l107.5 -220.5l52 -109h5zM502.999 766.001c-15.333 0 -29.8311 2 -43.498 6
s-26.667 8.5 -39 13.5s-24 9.5 -35 13.5s-21.167 6 -30.5 6l-59 -39l-30 25c13.333 27.333 28.666 47.833 45.999 61.5s35.666 20.5 54.999 20.5c12.667 0 25.667 -2 39 -6s26.333 -8.16699 39 -12.5l37 -12.5c12 -4 23 -6 33 -6l60 39l27 -26
c-11.333 -25.333 -25.5 -45.5 -42.5 -60.5s-35.833 -22.5 -56.5 -22.5z" />
    <glyph glyph-name="Ograve" unicode="&#xd2;" horiz-adv-x="684" 
d="M398 697c48 0 88.334 -7.33203 121.001 -21.999s59 -35 79 -61s34.5 -56.333 43.5 -91s13.5 -72 13.5 -112c0 -58.667 -7.16699 -113.5 -21.5 -164.5s-35.5 -95.5 -63.5 -133.5s-62.5 -67.833 -103.5 -89.5s-88.167 -32.5 -141.5 -32.5c-46.667 0 -86.667 6.5 -120 19.5
s-60.666 31.5 -81.999 55.5s-37 53 -47 87s-15 72 -15 114c0 54 6.5 106.833 19.5 158.5s33.167 97.667 60.5 138s62.166 72.666 104.499 96.999s93.166 36.5 152.499 36.5zM395.001 617.001c-42.667 0 -78.1689 -10.666 -106.502 -31.999s-51.166 -48.833 -68.499 -82.5
s-29.666 -71.334 -36.999 -113.001s-11 -83.167 -11 -124.5c0 -63.333 12.333 -111.333 37 -144s65 -49 121 -49c38 0 70.5 9.33301 97.5 28s49 43.834 66 75.501s29.5 68.167 37.5 109.5s12 84.666 12 129.999c0 26.667 -2.16699 52.167 -6.5 76.5s-12 45.833 -23 64.5
s-26 33.5 -45 44.5s-43.5 16.5 -73.5 16.5zM255.999 825.002l53 76l157 -129l-31 -45z" />
    <glyph glyph-name="Oacute" unicode="&#xd3;" horiz-adv-x="684" 
d="M398 697c48 0 88.334 -7.33203 121.001 -21.999s59 -35 79 -61s34.5 -56.333 43.5 -91s13.5 -72 13.5 -112c0 -58.667 -7.16699 -113.5 -21.5 -164.5s-35.5 -95.5 -63.5 -133.5s-62.5 -67.833 -103.5 -89.5s-88.167 -32.5 -141.5 -32.5c-46.667 0 -86.667 6.5 -120 19.5
s-60.666 31.5 -81.999 55.5s-37 53 -47 87s-15 72 -15 114c0 54 6.5 106.833 19.5 158.5s33.167 97.667 60.5 138s62.166 72.666 104.499 96.999s93.166 36.5 152.499 36.5zM395.001 617.001c-42.667 0 -78.1689 -10.666 -106.502 -31.999s-51.166 -48.833 -68.499 -82.5
s-29.666 -71.334 -36.999 -113.001s-11 -83.167 -11 -124.5c0 -63.333 12.333 -111.333 37 -144s65 -49 121 -49c38 0 70.5 9.33301 97.5 28s49 43.834 66 75.501s29.5 68.167 37.5 109.5s12 84.666 12 129.999c0 26.667 -2.16699 52.167 -6.5 76.5s-12 45.833 -23 64.5
s-26 33.5 -45 44.5s-43.5 16.5 -73.5 16.5zM387.999 726.002l-27 43l182 127l43 -71z" />
    <glyph glyph-name="Ocircumflex" unicode="&#xd4;" horiz-adv-x="684" 
d="M398 697c48 0 88.334 -7.33203 121.001 -21.999s59 -35 79 -61s34.5 -56.333 43.5 -91s13.5 -72 13.5 -112c0 -58.667 -7.16699 -113.5 -21.5 -164.5s-35.5 -95.5 -63.5 -133.5s-62.5 -67.833 -103.5 -89.5s-88.167 -32.5 -141.5 -32.5c-46.667 0 -86.667 6.5 -120 19.5
s-60.666 31.5 -81.999 55.5s-37 53 -47 87s-15 72 -15 114c0 54 6.5 106.833 19.5 158.5s33.167 97.667 60.5 138s62.166 72.666 104.499 96.999s93.166 36.5 152.499 36.5zM395.001 617.001c-42.667 0 -78.1689 -10.666 -106.502 -31.999s-51.166 -48.833 -68.499 -82.5
s-29.666 -71.334 -36.999 -113.001s-11 -83.167 -11 -124.5c0 -63.333 12.333 -111.333 37 -144s65 -49 121 -49c38 0 70.5 9.33301 97.5 28s49 43.834 66 75.501s29.5 68.167 37.5 109.5s12 84.666 12 129.999c0 26.667 -2.16699 52.167 -6.5 76.5s-12 45.833 -23 64.5
s-26 33.5 -45 44.5s-43.5 16.5 -73.5 16.5zM567.999 714.002l-142 100l-166 -100l-25 33l165 146h67l132 -144z" />
    <glyph glyph-name="Otilde" unicode="&#xd5;" horiz-adv-x="684" 
d="M398 697c48 0 88.334 -7.33203 121.001 -21.999s59 -35 79 -61s34.5 -56.333 43.5 -91s13.5 -72 13.5 -112c0 -58.667 -7.16699 -113.5 -21.5 -164.5s-35.5 -95.5 -63.5 -133.5s-62.5 -67.833 -103.5 -89.5s-88.167 -32.5 -141.5 -32.5c-46.667 0 -86.667 6.5 -120 19.5
s-60.666 31.5 -81.999 55.5s-37 53 -47 87s-15 72 -15 114c0 54 6.5 106.833 19.5 158.5s33.167 97.667 60.5 138s62.166 72.666 104.499 96.999s93.166 36.5 152.499 36.5zM395.001 617.001c-42.667 0 -78.1689 -10.666 -106.502 -31.999s-51.166 -48.833 -68.499 -82.5
s-29.666 -71.334 -36.999 -113.001s-11 -83.167 -11 -124.5c0 -63.333 12.333 -111.333 37 -144s65 -49 121 -49c38 0 70.5 9.33301 97.5 28s49 43.834 66 75.501s29.5 68.167 37.5 109.5s12 84.666 12 129.999c0 26.667 -2.16699 52.167 -6.5 76.5s-12 45.833 -23 64.5
s-26 33.5 -45 44.5s-43.5 16.5 -73.5 16.5zM491.999 768.002c-15.333 0 -29.8311 2 -43.498 6s-26.667 8.5 -39 13.5s-24 9.5 -35 13.5s-21.167 6 -30.5 6l-59 -39l-30 25c13.333 27.333 28.666 47.833 45.999 61.5s35.666 20.5 54.999 20.5c12.667 0 25.667 -2 39 -6
s26.333 -8.16699 39 -12.5l37 -12.5c12 -4 23 -6 33 -6l60 39l27 -26c-11.333 -25.333 -25.5 -45.5 -42.5 -60.5s-35.833 -22.5 -56.5 -22.5z" />
    <glyph glyph-name="Odieresis" unicode="&#xd6;" horiz-adv-x="684" 
d="M398 697c48 0 88.334 -7.33203 121.001 -21.999s59 -35 79 -61s34.5 -56.333 43.5 -91s13.5 -72 13.5 -112c0 -58.667 -7.16699 -113.5 -21.5 -164.5s-35.5 -95.5 -63.5 -133.5s-62.5 -67.833 -103.5 -89.5s-88.167 -32.5 -141.5 -32.5c-46.667 0 -86.667 6.5 -120 19.5
s-60.666 31.5 -81.999 55.5s-37 53 -47 87s-15 72 -15 114c0 54 6.5 106.833 19.5 158.5s33.167 97.667 60.5 138s62.166 72.666 104.499 96.999s93.166 36.5 152.499 36.5zM395.001 617.001c-42.667 0 -78.1689 -10.666 -106.502 -31.999s-51.166 -48.833 -68.499 -82.5
s-29.666 -71.334 -36.999 -113.001s-11 -83.167 -11 -124.5c0 -63.333 12.333 -111.333 37 -144s65 -49 121 -49c38 0 70.5 9.33301 97.5 28s49 43.834 66 75.501s29.5 68.167 37.5 109.5s12 84.666 12 129.999c0 26.667 -2.16699 52.167 -6.5 76.5s-12 45.833 -23 64.5
s-26 33.5 -45 44.5s-43.5 16.5 -73.5 16.5zM564.999 789.002c-1.33301 -16.667 -7.66699 -30.5 -19 -41.5s-25.333 -16.5 -42 -16.5c-14 0 -25.167 4.66699 -33.5 14s-11.833 21 -10.5 35c0.666992 16 6.66699 29.5 18 40.5s24.333 16.5 39 16.5s26.667 -4.5 36 -13.5
s13.333 -20.5 12 -34.5zM380.998 789.002c-1.33301 -16.667 -7.83105 -30.5 -19.498 -41.5s-25.167 -16.5 -40.5 -16.5c-14.667 0 -26.334 4.83301 -35.001 14.5s-12.667 21.5 -12 35.5c0.666992 15.333 7.16699 28.5 19.5 39.5s25.166 16.5 38.499 16.5
c15.333 0 27.5 -4.5 36.5 -13.5s13.167 -20.5 12.5 -34.5z" />
    <glyph glyph-name="multiply" unicode="&#xd7;" horiz-adv-x="558" 
d="M287 243l-141 -130l-43 51l142 129l-108 128l54 49l107 -129l136 127l44 -51l-138 -126l108 -126l-52 -50z" />
    <glyph glyph-name="Oslash" unicode="&#xd8;" horiz-adv-x="684" 
d="M398 697c42 0 78.167 -5.66504 108.5 -16.998s55.5 -27.333 75.5 -48l59 66h55l-88 -99c16.667 -25.333 28.667 -54 36 -86s11 -66 11 -102c0 -58.667 -7.16699 -113.5 -21.5 -164.5s-35.5 -95.5 -63.5 -133.5s-62.5 -67.833 -103.5 -89.5s-88.167 -32.5 -141.5 -32.5
c-45.333 0 -84.166 6 -116.499 18s-59.166 29 -80.499 51l-58 -65h-51l31.5 34.5l54.5 60.5c-15.333 23.333 -26.5 49.666 -33.5 78.999s-10.5 62 -10.5 98c0 54 6.5 106.833 19.5 158.5s33.167 97.667 60.5 138s62.166 72.666 104.499 96.999s93.166 36.5 152.499 36.5z
M543 415.002c0 17.333 -0.832031 34.168 -2.49902 50.501s-4.83398 32.166 -9.50098 47.499l-333 -375c24.667 -44 68.667 -66 132 -66c38 0 70.5 9.33301 97.5 28s49 43.834 66 75.501s29.5 68.167 37.5 109.5s12 84.666 12 129.999zM395.001 617.004
c-42.667 0 -78.1689 -10.665 -106.502 -31.998s-51.166 -48.833 -68.499 -82.5s-29.666 -71.334 -36.999 -113.001s-11 -83.167 -11 -124.5c0 -34.667 3.33301 -64 10 -88l82 92.5l86.5 98l85.5 97l78 89.5c-11.333 19.333 -26.5 34.666 -45.5 45.999s-43.5 17 -73.5 17z
" />
    <glyph glyph-name="Ugrave" unicode="&#xd9;" horiz-adv-x="706" 
d="M621 249c-5.33301 -39.333 -14.6689 -74.835 -28.002 -106.502s-31.5 -58.667 -54.5 -81s-51.333 -39.5 -85 -51.5s-72.834 -18 -117.501 -18c-48.667 0 -89.667 6.16699 -123 18.5s-59.666 30 -78.999 53s-32.166 50.833 -38.499 83.5s-7.16602 69.334 -2.49902 110.001
l44 354h-57l9 75h228l-8 -75h-66l-45 -365c-14 -116 32.667 -174 140 -174c50 0 90.5 14.333 121.5 43s50.167 72.334 57.5 131.001l45 365h-65l9 75h228l-9 -75h-59zM260.997 824.998l53 76l157 -129l-31 -45z" />
    <glyph glyph-name="Uacute" unicode="&#xda;" horiz-adv-x="706" 
d="M621 249c-5.33301 -39.333 -14.6689 -74.835 -28.002 -106.502s-31.5 -58.667 -54.5 -81s-51.333 -39.5 -85 -51.5s-72.834 -18 -117.501 -18c-48.667 0 -89.667 6.16699 -123 18.5s-59.666 30 -78.999 53s-32.166 50.833 -38.499 83.5s-7.16602 69.334 -2.49902 110.001
l44 354h-57l9 75h228l-8 -75h-66l-45 -365c-14 -116 32.667 -174 140 -174c50 0 90.5 14.333 121.5 43s50.167 72.334 57.5 131.001l45 365h-65l9 75h228l-9 -75h-59zM383.997 725.998l-27 43l182 127l43 -71z" />
    <glyph glyph-name="Ucircumflex" unicode="&#xdb;" horiz-adv-x="706" 
d="M621 249c-5.33301 -39.333 -14.6689 -74.835 -28.002 -106.502s-31.5 -58.667 -54.5 -81s-51.333 -39.5 -85 -51.5s-72.834 -18 -117.501 -18c-48.667 0 -89.667 6.16699 -123 18.5s-59.666 30 -78.999 53s-32.166 50.833 -38.499 83.5s-7.16602 69.334 -2.49902 110.001
l44 354h-57l9 75h228l-8 -75h-66l-45 -365c-14 -116 32.667 -174 140 -174c50 0 90.5 14.333 121.5 43s50.167 72.334 57.5 131.001l45 365h-65l9 75h228l-9 -75h-59zM575.997 714.998l-147 98l-173 -98l-26 32l172 143h69l137 -141z" />
    <glyph glyph-name="Udieresis" unicode="&#xdc;" horiz-adv-x="706" 
d="M621 249c-5.33301 -39.333 -14.6689 -74.835 -28.002 -106.502s-31.5 -58.667 -54.5 -81s-51.333 -39.5 -85 -51.5s-72.834 -18 -117.501 -18c-48.667 0 -89.667 6.16699 -123 18.5s-59.666 30 -78.999 53s-32.166 50.833 -38.499 83.5s-7.16602 69.334 -2.49902 110.001
l44 354h-57l9 75h228l-8 -75h-66l-45 -365c-14 -116 32.667 -174 140 -174c50 0 90.5 14.333 121.5 43s50.167 72.334 57.5 131.001l45 365h-65l9 75h228l-9 -75h-59zM573.997 788.998c-1.33301 -16.667 -7.66699 -30.5 -19 -41.5s-25.333 -16.5 -42 -16.5
c-14 0 -25.167 4.66699 -33.5 14s-11.833 21 -10.5 35c0.666992 16 6.66699 29.5 18 40.5s24.333 16.5 39 16.5s26.667 -4.5 36 -13.5s13.333 -20.5 12 -34.5zM389.996 788.998c-1.33301 -16.667 -7.83105 -30.5 -19.498 -41.5s-25.167 -16.5 -40.5 -16.5
c-14.667 0 -26.334 4.83301 -35.001 14.5s-12.667 21.5 -12 35.5c0.666992 15.333 7.16699 28.5 19.5 39.5s25.166 16.5 38.499 16.5c15.333 0 27.5 -4.5 36.5 -13.5s13.167 -20.5 12.5 -34.5z" />
    <glyph glyph-name="Yacute" unicode="&#xdd;" horiz-adv-x="603" 
d="M482 610h-62l9 76h221l-9 -76h-50l-225 -323l-25 -212h76l-8 -75h-268l8 75h78l25 209l-141 326h-50l9 76h217l-9 -76h-60l98 -246h4zM332 725l-27 43l182 127l43 -71z" />
    <glyph glyph-name="Thorn" unicode="&#xde;" horiz-adv-x="580" 
d="M251 545l128 0.000976562c63.333 0 111.666 -14 144.999 -42s50 -70.333 50 -127c0 -26 -4.33301 -51.833 -13 -77.5s-22.167 -48.834 -40.5 -69.501s-42.166 -37.5 -71.499 -50.5s-65 -19.167 -107 -18.5h-136l-12 -89h76l-8 -71h-248l9 71h65l65 541h-66l9 74h248
l-9 -74h-75zM243 478.001l-30 -251h113c16.667 0 33.167 2.5 49.5 7.5s31 13.333 44 25s23.5 26.667 31.5 45s12 40.833 12 67.5c0 36.667 -9.83301 63.5 -29.5 80.5s-45.5 25.5 -77.5 25.5h-113z" />
    <glyph glyph-name="germandbls" unicode="&#xdf;" horiz-adv-x="601" 
d="M183 110c-5.33301 -42.667 -11.3291 -83.6689 -17.9961 -123.002s-17.334 -74 -32.001 -104s-34.5 -54 -59.5 -72s-58.167 -27 -99.5 -27c-13.333 0 -28.833 1.33301 -46.5 4s-36.167 6.66699 -55.5 12l19 70c15.333 -3.33301 28.166 -5.66602 38.499 -6.99902
s20.166 -2 29.499 -2c28 0 49.833 8.5 65.5 25.5s28.167 45.5 37.5 85.5s17.666 93.167 24.999 159.5s17 148.833 29 247.5h-69l7 63h67c1.33301 6 2.5 14.5 3.5 25.5s2.16699 22.167 3.5 33.5c2.66699 22 7.33398 45.833 14.001 71.5s18.167 49.5 34.5 71.5
s39.166 40.333 68.499 55s68.666 22 117.999 22c26 0 48.667 -3.5 68 -10.5s35.333 -16 48 -27s22.167 -23.333 28.5 -37s9.5 -26.834 9.5 -39.501c0 -23.333 -6.33301 -45 -19 -65s-26.834 -38.5 -42.501 -55.5l-42.5 -47.5c-12.667 -14.667 -19 -29 -19 -43
c0 -12.667 4 -24.667 12 -36s18 -22.666 30 -33.999s25.167 -23.166 39.5 -35.499s27.5 -25.666 39.5 -39.999s22 -30.166 30 -47.499s12 -36.666 12 -57.999c0 -20.667 -4 -40.5 -12 -59.5s-19.667 -35.833 -35 -50.5s-34.833 -26.334 -58.5 -35.001
s-50.834 -13 -81.501 -13c-23.333 0 -47.666 2.16699 -72.999 6.5s-47.333 10.166 -66 17.499l25 69c22.667 -7.33301 41.5 -12.5 56.5 -15.5s30.833 -4.5 47.5 -4.5c24 0 45 6 63 18s27 30.667 27 56c0 16 -3.66699 31 -11 45s-16.666 27.333 -27.999 40
s-23.333 25.167 -36 37.5s-24.667 25.333 -36 39s-20.666 28 -27.999 43s-11 31.833 -11 50.5c0 22.667 6.33301 42.167 19 58.5s26.5 31.666 41.5 45.999s28.833 28.5 41.5 42.5s19 29.667 19 47c0 6 -1 12.5 -3 19.5s-6 13.667 -12 20s-14.167 11.5 -24.5 15.5
s-23.833 6 -40.5 6c-62 0 -97.667 -36.333 -107 -109z" />
    <glyph glyph-name="agrave" unicode="&#xe0;" horiz-adv-x="571" 
d="M295 497c19.333 0 38.668 -2.33301 58.001 -7s39.333 -11.334 60 -20.001l24 27l69 -4l-17.5 -114.5l-16 -111c-5 -35.667 -9.5 -69.667 -13.5 -102s-7.33301 -61.833 -10 -88.5c13.333 1.33301 27 4.5 41 9.5s27.667 11.167 41 18.5l11 -23
c4.66699 -10 8.66699 -17.667 12 -23c-10 -10 -21.167 -19.167 -33.5 -27.5s-24.833 -15.833 -37.5 -22.5s-25 -11.834 -37 -15.501s-23 -5.5 -33 -5.5c-22.667 0 -38.5 6 -47.5 18s-14.167 27.667 -15.5 47c0 13.333 0.833008 26.833 2.5 40.5s3.83398 28.167 6.50098 43.5
h-5c-14.667 -29.333 -29.667 -53.333 -45 -72s-30.833 -33.667 -46.5 -45s-31.334 -19.166 -47.001 -23.499s-31.167 -6.5 -46.5 -6.5c-38.667 0 -69.834 14 -93.501 42s-35.5 70.667 -35.5 128c0 46 5.33301 89.333 16 130s26.667 76.334 48 107.001s48 55 80 73
s69 27 111 27zM211.002 66c12 0 24.502 3.33398 37.502 10.001s26.5 18.167 40.5 34.5s27.833 38 41.5 65s27.167 60.5 40.5 100.5l20 123c-19.333 7.33301 -37 12.166 -53 14.499s-29.667 3.5 -41 3.5c-30 0 -54.833 -8.16699 -74.5 -24.5s-35.334 -36.5 -47.001 -60.5
s-19.834 -50 -24.501 -78s-7 -54 -7 -78c0 -37.333 6.16699 -65 18.5 -83s28.5 -27 48.5 -27zM185.004 688.001l68 59l112 -171l-42 -35z" />
    <glyph glyph-name="aacute" unicode="&#xe1;" horiz-adv-x="571" 
d="M295 497c19.333 0 38.668 -2.33301 58.001 -7s39.333 -11.334 60 -20.001l24 27l69 -4l-17.5 -114.5l-16 -111c-5 -35.667 -9.5 -69.667 -13.5 -102s-7.33301 -61.833 -10 -88.5c13.333 1.33301 27 4.5 41 9.5s27.667 11.167 41 18.5l11 -23
c4.66699 -10 8.66699 -17.667 12 -23c-10 -10 -21.167 -19.167 -33.5 -27.5s-24.833 -15.833 -37.5 -22.5s-25 -11.834 -37 -15.501s-23 -5.5 -33 -5.5c-22.667 0 -38.5 6 -47.5 18s-14.167 27.667 -15.5 47c0 13.333 0.833008 26.833 2.5 40.5s3.83398 28.167 6.50098 43.5
h-5c-14.667 -29.333 -29.667 -53.333 -45 -72s-30.833 -33.667 -46.5 -45s-31.334 -19.166 -47.001 -23.499s-31.167 -6.5 -46.5 -6.5c-38.667 0 -69.834 14 -93.501 42s-35.5 70.667 -35.5 128c0 46 5.33301 89.333 16 130s26.667 76.334 48 107.001s48 55 80 73
s69 27 111 27zM211.002 66c12 0 24.502 3.33398 37.502 10.001s26.5 18.167 40.5 34.5s27.833 38 41.5 65s27.167 60.5 40.5 100.5l20 123c-19.333 7.33301 -37 12.166 -53 14.499s-29.667 3.5 -41 3.5c-30 0 -54.833 -8.16699 -74.5 -24.5s-35.334 -36.5 -47.001 -60.5
s-19.834 -50 -24.501 -78s-7 -54 -7 -78c0 -37.333 6.16699 -65 18.5 -83s28.5 -27 48.5 -27zM306.004 539.001l-36 35l144 172l57 -60z" />
    <glyph glyph-name="acircumflex" unicode="&#xe2;" horiz-adv-x="571" 
d="M295 497c19.333 0 38.668 -2.33301 58.001 -7s39.333 -11.334 60 -20.001l24 27l69 -4l-17.5 -114.5l-16 -111c-5 -35.667 -9.5 -69.667 -13.5 -102s-7.33301 -61.833 -10 -88.5c13.333 1.33301 27 4.5 41 9.5s27.667 11.167 41 18.5l11 -23
c4.66699 -10 8.66699 -17.667 12 -23c-10 -10 -21.167 -19.167 -33.5 -27.5s-24.833 -15.833 -37.5 -22.5s-25 -11.834 -37 -15.501s-23 -5.5 -33 -5.5c-22.667 0 -38.5 6 -47.5 18s-14.167 27.667 -15.5 47c0 13.333 0.833008 26.833 2.5 40.5s3.83398 28.167 6.50098 43.5
h-5c-14.667 -29.333 -29.667 -53.333 -45 -72s-30.833 -33.667 -46.5 -45s-31.334 -19.166 -47.001 -23.499s-31.167 -6.5 -46.5 -6.5c-38.667 0 -69.834 14 -93.501 42s-35.5 70.667 -35.5 128c0 46 5.33301 89.333 16 130s26.667 76.334 48 107.001s48 55 80 73
s69 27 111 27zM211.002 66c12 0 24.502 3.33398 37.502 10.001s26.5 18.167 40.5 34.5s27.833 38 41.5 65s27.167 60.5 40.5 100.5l20 123c-19.333 7.33301 -37 12.166 -53 14.499s-29.667 3.5 -41 3.5c-30 0 -54.833 -8.16699 -74.5 -24.5s-35.334 -36.5 -47.001 -60.5
s-19.834 -50 -24.501 -78s-7 -54 -7 -78c0 -37.333 6.16699 -65 18.5 -83s28.5 -27 48.5 -27zM477.004 533.001l-142 101l-166 -100l-24 33l164 145h67l131 -144z" />
    <glyph glyph-name="atilde" unicode="&#xe3;" horiz-adv-x="571" 
d="M295 497c19.333 0 38.668 -2.33301 58.001 -7s39.333 -11.334 60 -20.001l24 27l69 -4l-17.5 -114.5l-16 -111c-5 -35.667 -9.5 -69.667 -13.5 -102s-7.33301 -61.833 -10 -88.5c13.333 1.33301 27 4.5 41 9.5s27.667 11.167 41 18.5l11 -23
c4.66699 -10 8.66699 -17.667 12 -23c-10 -10 -21.167 -19.167 -33.5 -27.5s-24.833 -15.833 -37.5 -22.5s-25 -11.834 -37 -15.501s-23 -5.5 -33 -5.5c-22.667 0 -38.5 6 -47.5 18s-14.167 27.667 -15.5 47c0 13.333 0.833008 26.833 2.5 40.5s3.83398 28.167 6.50098 43.5
h-5c-14.667 -29.333 -29.667 -53.333 -45 -72s-30.833 -33.667 -46.5 -45s-31.334 -19.166 -47.001 -23.499s-31.167 -6.5 -46.5 -6.5c-38.667 0 -69.834 14 -93.501 42s-35.5 70.667 -35.5 128c0 46 5.33301 89.333 16 130s26.667 76.334 48 107.001s48 55 80 73
s69 27 111 27zM211.002 66c12 0 24.502 3.33398 37.502 10.001s26.5 18.167 40.5 34.5s27.833 38 41.5 65s27.167 60.5 40.5 100.5l20 123c-19.333 7.33301 -37 12.166 -53 14.499s-29.667 3.5 -41 3.5c-30 0 -54.833 -8.16699 -74.5 -24.5s-35.334 -36.5 -47.001 -60.5
s-19.834 -50 -24.501 -78s-7 -54 -7 -78c0 -37.333 6.16699 -65 18.5 -83s28.5 -27 48.5 -27zM400.004 573.001c-15.333 0 -29.8311 2 -43.498 6s-26.667 8.5 -39 13.5s-24 9.5 -35 13.5s-21.167 6 -30.5 6l-59 -39l-30 25c13.333 27.333 28.666 47.833 45.999 61.5
s35.666 20.5 54.999 20.5c12.667 0 25.667 -2 39 -6s26.333 -8.16699 39 -12.5l37 -12.5c12 -4 23 -6 33 -6l60 39l27 -26c-11.333 -25.333 -25.5 -45.5 -42.5 -60.5s-35.833 -22.5 -56.5 -22.5z" />
    <glyph glyph-name="adieresis" unicode="&#xe4;" horiz-adv-x="571" 
d="M295 497c19.333 0 38.668 -2.33301 58.001 -7s39.333 -11.334 60 -20.001l24 27l69 -4l-17.5 -114.5l-16 -111c-5 -35.667 -9.5 -69.667 -13.5 -102s-7.33301 -61.833 -10 -88.5c13.333 1.33301 27 4.5 41 9.5s27.667 11.167 41 18.5l11 -23
c4.66699 -10 8.66699 -17.667 12 -23c-10 -10 -21.167 -19.167 -33.5 -27.5s-24.833 -15.833 -37.5 -22.5s-25 -11.834 -37 -15.501s-23 -5.5 -33 -5.5c-22.667 0 -38.5 6 -47.5 18s-14.167 27.667 -15.5 47c0 13.333 0.833008 26.833 2.5 40.5s3.83398 28.167 6.50098 43.5
h-5c-14.667 -29.333 -29.667 -53.333 -45 -72s-30.833 -33.667 -46.5 -45s-31.334 -19.166 -47.001 -23.499s-31.167 -6.5 -46.5 -6.5c-38.667 0 -69.834 14 -93.501 42s-35.5 70.667 -35.5 128c0 46 5.33301 89.333 16 130s26.667 76.334 48 107.001s48 55 80 73
s69 27 111 27zM211.002 66c12 0 24.502 3.33398 37.502 10.001s26.5 18.167 40.5 34.5s27.833 38 41.5 65s27.167 60.5 40.5 100.5l20 123c-19.333 7.33301 -37 12.166 -53 14.499s-29.667 3.5 -41 3.5c-30 0 -54.833 -8.16699 -74.5 -24.5s-35.334 -36.5 -47.001 -60.5
s-19.834 -50 -24.501 -78s-7 -54 -7 -78c0 -37.333 6.16699 -65 18.5 -83s28.5 -27 48.5 -27zM239.004 670.001c15.333 0 27.499 -4.16797 36.499 -12.501s13.5 -19.833 13.5 -34.5c0 -17.333 -6 -32.166 -18 -44.499s-26.667 -18.5 -44 -18.5c-14 0 -25.5 4.5 -34.5 13.5
s-13.5 20.5 -13.5 34.5c0 17.333 6.33301 32 19 44s26.334 18 41.001 18zM427.003 670c14.667 0 26.5 -4.16797 35.5 -12.501s13.5 -19.833 13.5 -34.5c0 -17.333 -5.83301 -32.166 -17.5 -44.499s-26.5 -18.5 -44.5 -18.5c-13.333 0 -24.333 4.5 -33 13.5
s-13 20.5 -13 34.5c0 17.333 6.16699 32 18.5 44s25.833 18 40.5 18z" />
    <glyph glyph-name="aring" unicode="&#xe5;" horiz-adv-x="571" 
d="M295 497c19.333 0 38.668 -2.33301 58.001 -7s39.333 -11.334 60 -20.001l24 27l69 -4l-17.5 -114.5l-16 -111c-5 -35.667 -9.5 -69.667 -13.5 -102s-7.33301 -61.833 -10 -88.5c13.333 1.33301 27 4.5 41 9.5s27.667 11.167 41 18.5l11 -23
c4.66699 -10 8.66699 -17.667 12 -23c-10 -10 -21.167 -19.167 -33.5 -27.5s-24.833 -15.833 -37.5 -22.5s-25 -11.834 -37 -15.501s-23 -5.5 -33 -5.5c-22.667 0 -38.5 6 -47.5 18s-14.167 27.667 -15.5 47c0 13.333 0.833008 26.833 2.5 40.5s3.83398 28.167 6.50098 43.5
h-5c-14.667 -29.333 -29.667 -53.333 -45 -72s-30.833 -33.667 -46.5 -45s-31.334 -19.166 -47.001 -23.499s-31.167 -6.5 -46.5 -6.5c-38.667 0 -69.834 14 -93.501 42s-35.5 70.667 -35.5 128c0 46 5.33301 89.333 16 130s26.667 76.334 48 107.001s48 55 80 73
s69 27 111 27zM211.002 66c12 0 24.502 3.33398 37.502 10.001s26.5 18.167 40.5 34.5s27.833 38 41.5 65s27.167 60.5 40.5 100.5l20 123c-19.333 7.33301 -37 12.166 -53 14.499s-29.667 3.5 -41 3.5c-30 0 -54.833 -8.16699 -74.5 -24.5s-35.334 -36.5 -47.001 -60.5
s-19.834 -50 -24.501 -78s-7 -54 -7 -78c0 -37.333 6.16699 -65 18.5 -83s28.5 -27 48.5 -27zM324.004 552.001c-15.333 0 -29.502 3.00098 -42.502 9.00098s-24 14 -33 24s-15.5 21.667 -19.5 35s-5 27.666 -3 42.999s6.5 29.833 13.5 43.5s16 25.5 27 35.5
s23.833 18 38.5 24s30.334 9 47.001 9c15.333 0 29.166 -3 41.499 -9s22.833 -14 31.5 -24s14.834 -21.833 18.501 -35.5s4.5 -28.167 2.5 -43.5c-1.33301 -15.333 -5.66602 -29.833 -12.999 -43.5s-16.5 -25.5 -27.5 -35.5s-23.5 -17.833 -37.5 -23.5
s-28.667 -8.5 -44 -8.5zM345.002 723.002c-18 0 -33.167 -6 -45.5 -18s-19.5 -26.667 -21.5 -44c-2 -16.667 1.5 -31 10.5 -43s22.833 -18 41.5 -18c17.333 0 31.833 6 43.5 18s18.5 26.333 20.5 43c2.66699 17.333 -0.5 32 -9.5 44s-22.167 18 -39.5 18z" />
    <glyph glyph-name="ae" unicode="&#xe6;" horiz-adv-x="782" 
d="M609 501c45.333 0 80.502 -11.6699 105.502 -35.0029s37.5 -54 37.5 -92c0 -27.333 -7 -50.5 -21 -69.5s-34.333 -34.833 -61 -47.5s-59.167 -22.334 -97.5 -29.001s-81.5 -10.667 -129.5 -12c0 -6 -0.166992 -12.167 -0.5 -18.5s-0.5 -12.833 -0.5 -19.5
c0 -14.667 1.33301 -28.667 4 -42s7.66699 -25.166 15 -35.499s17.5 -18.666 30.5 -24.999s30.167 -9.5 51.5 -9.5c24.667 0 49.5 3.16699 74.5 9.5s49.5 14.5 73.5 24.5l22 -60c-12 -7.33301 -25.667 -13.833 -41 -19.5s-31.5 -10.667 -48.5 -15
s-34.333 -7.66602 -52 -9.99902s-34.834 -3.5 -51.501 -3.5c-44 0 -78.333 7.5 -103 22.5s-42.667 34.833 -54 59.5c-38.667 -32.667 -76.5 -55.167 -113.5 -67.5s-70.833 -18.5 -101.5 -18.5c-25.333 0 -45.666 3.5 -60.999 10.5s-27.5 16 -36.5 27s-15 23.333 -18 37
s-4.5 27.167 -4.5 40.5c0 22 4 43.333 12 64s23.667 39 47 55s55.833 28.5 97.5 37.5s96.167 12.833 163.5 11.5c1.33301 9.33301 2.83301 20.5 4.5 33.5s2.5 22.833 2.5 29.5c0 33.333 -7.16699 56 -21.5 68s-38.833 18 -73.5 18c-21.333 0 -45.833 -2.5 -73.5 -7.5
s-53.167 -11.5 -76.5 -19.5l-17 66c29.333 12.667 60.5 22.5 93.5 29.5s65.5 10.5 97.5 10.5c12.667 0 26 -0.833008 40 -2.5s27.167 -5.16699 39.5 -10.5s23.666 -13.666 33.999 -24.999s18.166 -26.333 23.499 -45c20.667 26.667 46.167 47.5 76.5 62.5
s67.5 22.5 111.5 22.5zM199.002 58.9971c8 0 17.501 0.832031 28.501 2.49902s22.833 4.83398 35.5 9.50098s26 11.167 40 19.5s28 19.5 42 33.5c-1.33301 9.33301 -2.33301 18.833 -3 28.5s-1 19.5 -1 29.5v17.5c0 7 0.333008 13.833 1 20.5
c-44 -1.33301 -79.333 -4.83301 -106 -10.5s-47.167 -13.167 -61.5 -22.5s-23.833 -19.833 -28.5 -31.5s-7 -23.5 -7 -35.5c0 -17.333 4.66699 -31.833 14 -43.5s24.666 -17.5 45.999 -17.5zM594.003 423.996c-22.667 0 -42.668 -4.16504 -60.001 -12.498
s-32.166 -19.5 -44.499 -33.5s-22.166 -30.5 -29.499 -49.5s-12 -39.167 -14 -60.5c68 1.33301 120.667 9.16602 158 23.499s56 38.166 56 71.499c0 18 -5.33301 32.667 -16 44s-27.334 17 -50.001 17z" />
    <glyph glyph-name="ccedilla" unicode="&#xe7;" horiz-adv-x="462" 
d="M300 499c9.33301 0 19.166 -0.495117 29.499 -1.49512s20.5 -2.5 30.5 -4.5s19 -4 27 -6s14.333 -4 19 -6c12 -5.33301 20.833 -11.333 26.5 -18s8.5 -16 8.5 -28c0 -4.66699 -1 -11.667 -3 -21s-4.5 -19.5 -7.5 -30.5s-6.5 -22.167 -10.5 -33.5s-8 -21.666 -12 -30.999
c-9.33301 0.666992 -18.5 1.16699 -27.5 1.5s-18.167 1.16602 -27.5 2.49902c1.33301 14.667 2.16602 29.5 2.49902 44.5s0.833008 30.167 1.5 45.5c-7.33301 2.66699 -16.333 4.66699 -27 6s-21.667 2 -33 2c-26 0 -48.667 -6.5 -68 -19.5s-35.166 -30.167 -47.499 -51.5
s-21.666 -46.166 -27.999 -74.499s-9.5 -57.5 -9.5 -87.5c0 -36 7.66699 -64 23 -84s42 -30 80 -30c22 0 42.667 2.16699 62 6.5s42.666 10.5 69.999 18.5c3.33301 -11.333 7.33301 -22.333 12 -33s8.66699 -21.667 12 -33c-20 -10 -44 -18.5 -72 -25.5s-56 -11.5 -84 -13.5
l-45 -53c29.333 -2.66699 52.333 -10 69 -22s25 -29 25 -51c0 -14 -3.5 -27.833 -10.5 -41.5s-18.333 -26 -34 -37s-35.667 -20.167 -60 -27.5s-53.833 -11 -88.5 -11c0 7.33301 0.166992 14.666 0.5 21.999s0.5 14.666 0.5 21.999
c36.667 3.33301 66.334 10.166 89.001 20.499s34 24.166 34 41.499c0 7.33301 -3 13.166 -9 17.499s-13.5 7.66602 -22.5 9.99902s-18.667 3.83301 -29 4.5s-20.166 1 -29.499 1l-11 22l34.5 41.5l35.5 40.5c-56.667 4 -96.834 21.833 -120.501 53.5s-35.5 72.5 -35.5 122.5
c0 40 4.16699 79.667 12.5 119s22.5 74.5 42.5 105.5s46.667 56.167 80 75.5s75 29 125 29z" />
    <glyph glyph-name="egrave" unicode="&#xe8;" horiz-adv-x="481" 
d="M308 501c46 0 81.3359 -11.668 106.003 -35.001s37 -54 37 -92c0 -56.667 -26.833 -99.167 -80.5 -127.5s-129.5 -45.166 -227.5 -50.499c-0.666992 -4 -1 -8 -1 -12v-11c0 -13.333 1.33301 -26.333 4 -39s7.66699 -24 15 -34s17.5 -18.167 30.5 -24.5
s29.833 -9.5 50.5 -9.5c24.667 0 49.5 3.16699 74.5 9.5s49.5 14.5 73.5 24.5l21 -60c-12 -7.33301 -25.667 -13.833 -41 -19.5s-31.333 -10.667 -48 -15s-33.834 -7.66602 -51.501 -9.99902s-34.834 -3.5 -51.501 -3.5c-36.667 0 -66.5 5.16699 -89.5 15.5
s-41.167 24.166 -54.5 41.499s-22.5 37.833 -27.5 61.5s-7.5 48.5 -7.5 74.5c0 34 4.16699 69.5 12.5 106.5s22.666 71 42.999 102s47.833 56.667 82.5 77s78 30.5 130 30.5zM293.003 423.999c-42.667 0 -76.333 -15.332 -101 -45.999s-40 -72.667 -46 -126
c68.667 3.33301 120.667 13.666 156 30.999s53 44 53 80c0 18 -4.83301 32.667 -14.5 44s-25.5 17 -47.5 17zM158.004 688l68 59l112 -171l-42 -35z" />
    <glyph glyph-name="eacute" unicode="&#xe9;" horiz-adv-x="481" 
d="M308 501c46 0 81.3359 -11.668 106.003 -35.001s37 -54 37 -92c0 -56.667 -26.833 -99.167 -80.5 -127.5s-129.5 -45.166 -227.5 -50.499c-0.666992 -4 -1 -8 -1 -12v-11c0 -13.333 1.33301 -26.333 4 -39s7.66699 -24 15 -34s17.5 -18.167 30.5 -24.5
s29.833 -9.5 50.5 -9.5c24.667 0 49.5 3.16699 74.5 9.5s49.5 14.5 73.5 24.5l21 -60c-12 -7.33301 -25.667 -13.833 -41 -19.5s-31.333 -10.667 -48 -15s-33.834 -7.66602 -51.501 -9.99902s-34.834 -3.5 -51.501 -3.5c-36.667 0 -66.5 5.16699 -89.5 15.5
s-41.167 24.166 -54.5 41.499s-22.5 37.833 -27.5 61.5s-7.5 48.5 -7.5 74.5c0 34 4.16699 69.5 12.5 106.5s22.666 71 42.999 102s47.833 56.667 82.5 77s78 30.5 130 30.5zM293.003 423.999c-42.667 0 -76.333 -15.332 -101 -45.999s-40 -72.667 -46 -126
c68.667 3.33301 120.667 13.666 156 30.999s53 44 53 80c0 18 -4.83301 32.667 -14.5 44s-25.5 17 -47.5 17zM289.004 539l-36 35l144 172l57 -60z" />
    <glyph glyph-name="ecircumflex" unicode="&#xea;" horiz-adv-x="481" 
d="M308 501c46 0 81.3359 -11.668 106.003 -35.001s37 -54 37 -92c0 -56.667 -26.833 -99.167 -80.5 -127.5s-129.5 -45.166 -227.5 -50.499c-0.666992 -4 -1 -8 -1 -12v-11c0 -13.333 1.33301 -26.333 4 -39s7.66699 -24 15 -34s17.5 -18.167 30.5 -24.5
s29.833 -9.5 50.5 -9.5c24.667 0 49.5 3.16699 74.5 9.5s49.5 14.5 73.5 24.5l21 -60c-12 -7.33301 -25.667 -13.833 -41 -19.5s-31.333 -10.667 -48 -15s-33.834 -7.66602 -51.501 -9.99902s-34.834 -3.5 -51.501 -3.5c-36.667 0 -66.5 5.16699 -89.5 15.5
s-41.167 24.166 -54.5 41.499s-22.5 37.833 -27.5 61.5s-7.5 48.5 -7.5 74.5c0 34 4.16699 69.5 12.5 106.5s22.666 71 42.999 102s47.833 56.667 82.5 77s78 30.5 130 30.5zM293.003 423.999c-42.667 0 -76.333 -15.332 -101 -45.999s-40 -72.667 -46 -126
c68.667 3.33301 120.667 13.666 156 30.999s53 44 53 80c0 18 -4.83301 32.667 -14.5 44s-25.5 17 -47.5 17zM439.004 533l-142 101l-166 -100l-24 33l164 145h67l131 -144z" />
    <glyph glyph-name="edieresis" unicode="&#xeb;" horiz-adv-x="481" 
d="M308 501c46 0 81.3359 -11.668 106.003 -35.001s37 -54 37 -92c0 -56.667 -26.833 -99.167 -80.5 -127.5s-129.5 -45.166 -227.5 -50.499c-0.666992 -4 -1 -8 -1 -12v-11c0 -13.333 1.33301 -26.333 4 -39s7.66699 -24 15 -34s17.5 -18.167 30.5 -24.5
s29.833 -9.5 50.5 -9.5c24.667 0 49.5 3.16699 74.5 9.5s49.5 14.5 73.5 24.5l21 -60c-12 -7.33301 -25.667 -13.833 -41 -19.5s-31.333 -10.667 -48 -15s-33.834 -7.66602 -51.501 -9.99902s-34.834 -3.5 -51.501 -3.5c-36.667 0 -66.5 5.16699 -89.5 15.5
s-41.167 24.166 -54.5 41.499s-22.5 37.833 -27.5 61.5s-7.5 48.5 -7.5 74.5c0 34 4.16699 69.5 12.5 106.5s22.666 71 42.999 102s47.833 56.667 82.5 77s78 30.5 130 30.5zM293.003 423.999c-42.667 0 -76.333 -15.332 -101 -45.999s-40 -72.667 -46 -126
c68.667 3.33301 120.667 13.666 156 30.999s53 44 53 80c0 18 -4.83301 32.667 -14.5 44s-25.5 17 -47.5 17zM406.004 670c14.667 0 26.5 -4.16797 35.5 -12.501s13.5 -19.833 13.5 -34.5c0 -17.333 -5.83301 -32.166 -17.5 -44.499s-26.5 -18.5 -44.5 -18.5
c-13.333 0 -24.333 4.5 -33 13.5s-13 20.5 -13 34.5c0 17.333 6.16699 32 18.5 44s25.833 18 40.5 18zM218.004 669.999c15.333 0 27.499 -4.16797 36.499 -12.501s13.5 -19.833 13.5 -34.5c0 -17.333 -6 -32.166 -18 -44.499s-26.667 -18.5 -44 -18.5
c-14 0 -25.5 4.5 -34.5 13.5s-13.5 20.5 -13.5 34.5c0 17.333 6.33301 32 19 44s26.334 18 41.001 18z" />
    <glyph glyph-name="igrave" unicode="&#xec;" horiz-adv-x="318" 
d="M184 500c21.333 0 35.833 -3.33398 43.5 -10.001s11.5 -17 11.5 -31c0 -2 -1 -12.167 -3 -30.5s-4.66699 -40.666 -8 -66.999l-11 -86l-11 -88l-9 -72l-5 -38.5c27.333 2 54 10 80 24l23 -45c-23.333 -23.333 -48 -40.666 -74 -51.999s-48.667 -17 -68 -17
c-25.333 0 -42.833 6 -52.5 18s-14.5 27.333 -14.5 46c0 4 0.166992 8.16699 0.5 12.5s0.833008 8.83301 1.5 13.5l43 336l-85 15l3 51c28 7.33301 53.5 12.666 76.5 15.999s42.5 5 58.5 5zM46 687.999l68 59l112 -171l-42 -35z" />
    <glyph glyph-name="iacute" unicode="&#xed;" horiz-adv-x="342" 
d="M184 500c21.333 0 35.833 -3.33398 43.5 -10.001s11.5 -17 11.5 -31c0 -2 -1 -12.167 -3 -30.5s-4.66699 -40.666 -8 -66.999l-11 -86l-11 -88l-9 -72l-5 -38.5c27.333 2 54 10 80 24l23 -45c-23.333 -23.333 -48 -40.666 -74 -51.999s-48.667 -17 -68 -17
c-25.333 0 -42.833 6 -52.5 18s-14.5 27.333 -14.5 46c0 4 0.166992 8.16699 0.5 12.5s0.833008 8.83301 1.5 13.5l43 336l-85 15l3 51c28 7.33301 53.5 12.666 76.5 15.999s42.5 5 58.5 5zM187 538.999l-36 35l144 172l57 -60z" />
    <glyph glyph-name="icircumflex" unicode="&#xee;" horiz-adv-x="350" 
d="M184 500c21.333 0 35.833 -3.33398 43.5 -10.001s11.5 -17 11.5 -31c0 -2 -1 -12.167 -3 -30.5s-4.66699 -40.666 -8 -66.999l-11 -86l-11 -88l-9 -72l-5 -38.5c27.333 2 54 10 80 24l23 -45c-23.333 -23.333 -48 -40.666 -74 -51.999s-48.667 -17 -68 -17
c-25.333 0 -42.833 6 -52.5 18s-14.5 27.333 -14.5 46c0 4 0.166992 8.16699 0.5 12.5s0.833008 8.83301 1.5 13.5l43 336l-85 15l3 51c28 7.33301 53.5 12.666 76.5 15.999s42.5 5 58.5 5zM330 532.999l-142 101l-166 -100l-24 33l164 145h67l131 -144z" />
    <glyph glyph-name="idieresis" unicode="&#xef;" horiz-adv-x="329" 
d="M184 500c21.333 0 35.833 -3.33398 43.5 -10.001s11.5 -17 11.5 -31c0 -2 -1 -12.167 -3 -30.5s-4.66699 -40.666 -8 -66.999l-11 -86l-11 -88l-9 -72l-5 -38.5c27.333 2 54 10 80 24l23 -45c-23.333 -23.333 -48 -40.666 -74 -51.999s-48.667 -17 -68 -17
c-25.333 0 -42.833 6 -52.5 18s-14.5 27.333 -14.5 46c0 4 0.166992 8.16699 0.5 12.5s0.833008 8.83301 1.5 13.5l43 336l-85 15l3 51c28 7.33301 53.5 12.666 76.5 15.999s42.5 5 58.5 5zM285 669.999c14.667 0 26.5 -4.16797 35.5 -12.501s13.5 -19.833 13.5 -34.5
c0 -17.333 -5.83301 -32.166 -17.5 -44.499s-26.5 -18.5 -44.5 -18.5c-13.333 0 -24.333 4.5 -33 13.5s-13 20.5 -13 34.5c0 17.333 6.16699 32 18.5 44s25.833 18 40.5 18zM97 669.998c15.333 0 27.499 -4.16797 36.499 -12.501s13.5 -19.833 13.5 -34.5
c0 -17.333 -6 -32.166 -18 -44.499s-26.667 -18.5 -44 -18.5c-14 0 -25.5 4.5 -34.5 13.5s-13.5 20.5 -13.5 34.5c0 17.333 6.33301 32 19 44s26.334 18 41.001 18z" />
    <glyph glyph-name="eth" unicode="&#xf0;" horiz-adv-x="524" 
d="M461 724c3.33301 -6 7.00195 -11.832 11.002 -17.499l12 -17.5l-90 -57c36 -39.333 61.667 -83.5 77 -132.5s23 -100.833 23 -155.5c0 -22 -1.33301 -46 -4 -72s-7.5 -52 -14.5 -78s-16.667 -51.167 -29 -75.5s-28.333 -45.833 -48 -64.5s-43.334 -33.667 -71.001 -45
s-60.167 -17 -97.5 -17c-31.333 0 -58.833 4.5 -82.5 13.5s-43.5 21.5 -59.5 37.5s-28 35 -36 57s-12 46.333 -12 73c0 44 6.33301 83.333 19 118s29.667 64.167 51 88.5s46.333 43 75 56s58.667 19.5 90 19.5c22.667 0 44.667 -2.83301 66 -8.5s38.333 -12.5 51 -20.5
c-3.33301 27.333 -10.333 54.5 -21 81.5s-26.334 53.167 -47.001 78.5l-103 -65l-23 35l96 63c-22 21.333 -48.667 40.666 -80 57.999l33 56c46 -20 84.667 -43.667 116 -71zM282.002 380.001c-25.333 0 -46.6709 -6.83594 -64.0039 -20.5029s-31.5 -30.667 -42.5 -51
s-19 -42.166 -24 -65.499s-7.5 -45 -7.5 -65c0 -14 1.33301 -27.667 4 -41s7.83398 -25.166 15.501 -35.499s17.834 -18.666 30.501 -24.999s29 -9.5 49 -9.5c33.333 0 59.833 10.333 79.5 31s34.5 45.667 44.5 75s16.667 59.833 20 91.5s5 58.167 5 79.5
c-19.333 14 -39.166 23.5 -59.499 28.5s-37.166 7.5 -50.499 7.5z" />
    <glyph glyph-name="ntilde" unicode="&#xf1;" horiz-adv-x="601" 
d="M417 499c38 0 64.166 -10.999 78.499 -32.999s21.5 -50.667 21.5 -86c0 -14 -2.83301 -45.833 -8.5 -95.5l-23.5 -207.5c13.333 0.666992 26 2.83398 38 6.50098s24.667 9.16699 38 16.5c3.33301 -4.66699 7.33301 -12 12 -22l11 -23
c-12.667 -12 -25.667 -22.167 -39 -30.5s-26.5 -15.166 -39.5 -20.499s-25.333 -9.33301 -37 -12s-21.834 -4 -30.501 -4c-23.333 0 -38.833 5.16699 -46.5 15.5s-11.5 25.166 -11.5 44.499c0 3.33301 0.333008 9.33301 1 18s1.33398 15.667 2.00098 21
c8 78.667 14.667 141.5 20 188.5s8 76.167 8 87.5c0 15.333 -3.33301 28.166 -10 38.499s-17.667 15.5 -33 15.5c-12 0 -25.167 -3.83301 -39.5 -11.5s-28.833 -19.834 -43.5 -36.501s-29 -38.167 -43 -64.5s-26.667 -57.833 -38 -94.5l-29 -210h-102l15 117l13 101.5
l11.5 95l11.5 98.5l-92 15l3 51c28.667 7.33301 54.334 12.666 77.001 15.999s43.667 5 63 5c21.333 0 35.5 -3.5 42.5 -10.5s10.5 -18.5 10.5 -34.5c0 -12.667 -1.16699 -28.334 -3.5 -47.001s-5.16602 -39 -8.49902 -61h4c15.333 30 32.166 54.833 50.499 74.5
s36.5 35.334 54.5 47.001s35 19.834 51 24.501s29.667 7 41 7zM379.999 578.001c-15.333 0 -29.8311 2 -43.498 6s-26.667 8.5 -39 13.5s-24 9.5 -35 13.5s-21.167 6 -30.5 6l-59 -39l-30 25c13.333 27.333 28.666 47.833 45.999 61.5s35.666 20.5 54.999 20.5
c12.667 0 25.667 -2 39 -6s26.333 -8.16699 39 -12.5l37 -12.5c12 -4 23 -6 33 -6l60 39l27 -26c-11.333 -25.333 -25.5 -45.5 -42.5 -60.5s-35.833 -22.5 -56.5 -22.5z" />
    <glyph glyph-name="ograve" unicode="&#xf2;" horiz-adv-x="521" 
d="M296 499c35.333 0 65.332 -5.3291 89.999 -15.9961s44.834 -25.334 60.501 -44.001s27 -40.334 34 -65.001s10.5 -51 10.5 -79c0 -34 -4.33301 -68.833 -13 -104.5s-23 -68.334 -43 -98.001s-46.5 -53.834 -79.5 -72.501s-73.833 -28 -122.5 -28
c-36 0 -66.167 5 -90.5 15s-44.166 23.833 -59.499 41.5s-26.333 38.5 -33 62.5s-10 50 -10 78c0 36.667 4.83301 73.5 14.5 110.5s24.667 70.333 45 100s46.666 53.667 78.999 72s71.5 27.5 117.5 27.5zM290.999 420.004c-30 0 -54.501 -8.33398 -73.501 -25.001
s-34 -37.167 -45 -61.5s-18.5 -50.5 -22.5 -78.5s-6 -53 -6 -75c0 -15.333 1.5 -29.666 4.5 -42.999s8.33301 -25.333 16 -36s17.834 -19 30.501 -25s28.667 -9 48 -9c28.667 0 52.167 7.83301 70.5 23.5s32.833 35.167 43.5 58.5s18 48.333 22 75s6 50.667 6 72
c0 16.667 -1.5 32.5 -4.5 47.5s-8 28.167 -15 39.5s-16.5 20.333 -28.5 27s-27.333 10 -46 10zM180.998 688.003l68 59l112 -171l-42 -35z" />
    <glyph glyph-name="oacute" unicode="&#xf3;" horiz-adv-x="521" 
d="M296 499c35.333 0 65.332 -5.3291 89.999 -15.9961s44.834 -25.334 60.501 -44.001s27 -40.334 34 -65.001s10.5 -51 10.5 -79c0 -34 -4.33301 -68.833 -13 -104.5s-23 -68.334 -43 -98.001s-46.5 -53.834 -79.5 -72.501s-73.833 -28 -122.5 -28
c-36 0 -66.167 5 -90.5 15s-44.166 23.833 -59.499 41.5s-26.333 38.5 -33 62.5s-10 50 -10 78c0 36.667 4.83301 73.5 14.5 110.5s24.667 70.333 45 100s46.666 53.667 78.999 72s71.5 27.5 117.5 27.5zM290.999 420.004c-30 0 -54.501 -8.33398 -73.501 -25.001
s-34 -37.167 -45 -61.5s-18.5 -50.5 -22.5 -78.5s-6 -53 -6 -75c0 -15.333 1.5 -29.666 4.5 -42.999s8.33301 -25.333 16 -36s17.834 -19 30.501 -25s28.667 -9 48 -9c28.667 0 52.167 7.83301 70.5 23.5s32.833 35.167 43.5 58.5s18 48.333 22 75s6 50.667 6 72
c0 16.667 -1.5 32.5 -4.5 47.5s-8 28.167 -15 39.5s-16.5 20.333 -28.5 27s-27.333 10 -46 10zM296.998 539.003l-36 35l144 172l57 -60z" />
    <glyph glyph-name="ocircumflex" unicode="&#xf4;" horiz-adv-x="521" 
d="M296 499c35.333 0 65.332 -5.3291 89.999 -15.9961s44.834 -25.334 60.501 -44.001s27 -40.334 34 -65.001s10.5 -51 10.5 -79c0 -34 -4.33301 -68.833 -13 -104.5s-23 -68.334 -43 -98.001s-46.5 -53.834 -79.5 -72.501s-73.833 -28 -122.5 -28
c-36 0 -66.167 5 -90.5 15s-44.166 23.833 -59.499 41.5s-26.333 38.5 -33 62.5s-10 50 -10 78c0 36.667 4.83301 73.5 14.5 110.5s24.667 70.333 45 100s46.666 53.667 78.999 72s71.5 27.5 117.5 27.5zM290.999 420.004c-30 0 -54.501 -8.33398 -73.501 -25.001
s-34 -37.167 -45 -61.5s-18.5 -50.5 -22.5 -78.5s-6 -53 -6 -75c0 -15.333 1.5 -29.666 4.5 -42.999s8.33301 -25.333 16 -36s17.834 -19 30.501 -25s28.667 -9 48 -9c28.667 0 52.167 7.83301 70.5 23.5s32.833 35.167 43.5 58.5s18 48.333 22 75s6 50.667 6 72
c0 16.667 -1.5 32.5 -4.5 47.5s-8 28.167 -15 39.5s-16.5 20.333 -28.5 27s-27.333 10 -46 10zM456.998 533.003l-142 101l-166 -100l-24 33l164 145h67l131 -144z" />
    <glyph glyph-name="otilde" unicode="&#xf5;" horiz-adv-x="521" 
d="M296 499c35.333 0 65.332 -5.3291 89.999 -15.9961s44.834 -25.334 60.501 -44.001s27 -40.334 34 -65.001s10.5 -51 10.5 -79c0 -34 -4.33301 -68.833 -13 -104.5s-23 -68.334 -43 -98.001s-46.5 -53.834 -79.5 -72.501s-73.833 -28 -122.5 -28
c-36 0 -66.167 5 -90.5 15s-44.166 23.833 -59.499 41.5s-26.333 38.5 -33 62.5s-10 50 -10 78c0 36.667 4.83301 73.5 14.5 110.5s24.667 70.333 45 100s46.666 53.667 78.999 72s71.5 27.5 117.5 27.5zM290.999 420.004c-30 0 -54.501 -8.33398 -73.501 -25.001
s-34 -37.167 -45 -61.5s-18.5 -50.5 -22.5 -78.5s-6 -53 -6 -75c0 -15.333 1.5 -29.666 4.5 -42.999s8.33301 -25.333 16 -36s17.834 -19 30.501 -25s28.667 -9 48 -9c28.667 0 52.167 7.83301 70.5 23.5s32.833 35.167 43.5 58.5s18 48.333 22 75s6 50.667 6 72
c0 16.667 -1.5 32.5 -4.5 47.5s-8 28.167 -15 39.5s-16.5 20.333 -28.5 27s-27.333 10 -46 10zM385.998 571.003c-15.333 0 -29.8311 2 -43.498 6s-26.667 8.5 -39 13.5s-24 9.5 -35 13.5s-21.167 6 -30.5 6l-59 -39l-30 25c13.333 27.333 28.666 47.833 45.999 61.5
s35.666 20.5 54.999 20.5c12.667 0 25.667 -2 39 -6s26.333 -8.16699 39 -12.5l37 -12.5c12 -4 23 -6 33 -6l60 39l27 -26c-11.333 -25.333 -25.5 -45.5 -42.5 -60.5s-35.833 -22.5 -56.5 -22.5z" />
    <glyph glyph-name="odieresis" unicode="&#xf6;" horiz-adv-x="521" 
d="M296 499c35.333 0 65.332 -5.3291 89.999 -15.9961s44.834 -25.334 60.501 -44.001s27 -40.334 34 -65.001s10.5 -51 10.5 -79c0 -34 -4.33301 -68.833 -13 -104.5s-23 -68.334 -43 -98.001s-46.5 -53.834 -79.5 -72.501s-73.833 -28 -122.5 -28
c-36 0 -66.167 5 -90.5 15s-44.166 23.833 -59.499 41.5s-26.333 38.5 -33 62.5s-10 50 -10 78c0 36.667 4.83301 73.5 14.5 110.5s24.667 70.333 45 100s46.666 53.667 78.999 72s71.5 27.5 117.5 27.5zM290.999 420.004c-30 0 -54.501 -8.33398 -73.501 -25.001
s-34 -37.167 -45 -61.5s-18.5 -50.5 -22.5 -78.5s-6 -53 -6 -75c0 -15.333 1.5 -29.666 4.5 -42.999s8.33301 -25.333 16 -36s17.834 -19 30.501 -25s28.667 -9 48 -9c28.667 0 52.167 7.83301 70.5 23.5s32.833 35.167 43.5 58.5s18 48.333 22 75s6 50.667 6 72
c0 16.667 -1.5 32.5 -4.5 47.5s-8 28.167 -15 39.5s-16.5 20.333 -28.5 27s-27.333 10 -46 10zM416.998 670.003c14.667 0 26.5 -4.16797 35.5 -12.501s13.5 -19.833 13.5 -34.5c0 -17.333 -5.83301 -32.166 -17.5 -44.499s-26.5 -18.5 -44.5 -18.5
c-13.333 0 -24.333 4.5 -33 13.5s-13 20.5 -13 34.5c0 17.333 6.16699 32 18.5 44s25.833 18 40.5 18zM228.998 670.002c15.333 0 27.499 -4.16797 36.499 -12.501s13.5 -19.833 13.5 -34.5c0 -17.333 -6 -32.166 -18 -44.499s-26.667 -18.5 -44 -18.5
c-14 0 -25.5 4.5 -34.5 13.5s-13.5 20.5 -13.5 34.5c0 17.333 6.33301 32 19 44s26.334 18 41.001 18z" />
    <glyph glyph-name="divide" unicode="&#xf7;" horiz-adv-x="558" 
d="M366 469c-1.33301 -17.333 -8.16602 -32.001 -20.499 -44.001s-25.833 -18 -40.5 -18c-15.333 0 -27.666 5.33301 -36.999 16s-13.666 23.334 -12.999 38.001c1.33301 16 8.16602 30 20.499 42s26.166 18 41.499 18s27.666 -5 36.999 -15s13.333 -22.333 12 -37z
M92 265.999l9 69h388l-9 -69h-388zM326 140.999c-1.33301 -17.333 -8.16504 -31.998 -20.498 -43.998s-26.166 -18 -41.499 -18c-14 0 -26 5.16699 -36 15.5s-14.333 23.166 -13 38.499c1.33301 16.667 8.16602 30.667 20.499 42s26.166 17 41.499 17
c14.667 0 26.667 -4.83301 36 -14.5s13.666 -21.834 12.999 -36.501z" />
    <glyph glyph-name="oslash" unicode="&#xf8;" horiz-adv-x="523" 
d="M295 499c30.667 0 57.3291 -4.16895 79.9961 -12.502s42 -20.166 58 -35.499l20.5 23.5l20.5 23.5h45c-11.333 -11.333 -22.166 -23 -32.499 -35l-31.5 -36c13.333 -19.333 22.666 -41.666 27.999 -66.999s8 -52.333 8 -81c0 -34 -5 -68.167 -15 -102.5
s-25.5 -65 -46.5 -92s-47.667 -49 -80 -66s-71.166 -25.5 -116.499 -25.5c-31.333 0 -58.333 3.66699 -81 11s-41.667 18 -57 32c-13.333 -15.333 -26.333 -29.333 -39 -42c-7.33301 0 -14.666 -0.166992 -21.999 -0.5s-15 -0.5 -23 -0.5l62 67c-10 15.333 -18 33 -24 53
s-9 41 -9 63c0 39.333 4.33301 78.333 13 117s22.834 73.167 42.501 103.5s45.834 55 78.501 74s73 28.5 121 28.5zM241.995 66.998c28 0 51 7.5 69 22.5s32.333 33.5 43 55.5s18.167 45.5 22.5 70.5s6.5 47.5 6.5 67.5c0 11.333 -0.5 22.5 -1.5 33.5
s-3.16699 21.5 -6.5 31.5l-212 -244c7.33301 -11.333 17.333 -20.333 30 -27s29 -10 49 -10zM290.995 419.998c-28.667 0 -52.333 -8.00098 -71 -24.001s-33.5 -35.667 -44.5 -59s-18.833 -48.166 -23.5 -74.499s-7 -50.166 -7 -71.499c0 -20.667 2.33301 -38.334 7 -53.001
l106 122l106 123c-7.33301 11.333 -16.833 20.333 -28.5 27s-26.5 10 -44.5 10z" />
    <glyph glyph-name="ugrave" unicode="&#xf9;" horiz-adv-x="598" 
d="M179 499c21.333 0 35.499 -3.99902 42.499 -11.999s10.5 -20.667 10.5 -38v-9.5c0 -3 -0.333008 -6.16699 -1 -9.5l-5 -44l-6.5 -56.5c-2.33301 -20.333 -4.83301 -41 -7.5 -62s-5 -40.833 -7 -59.5s-3.66699 -35.167 -5 -49.5s-2 -24.833 -2 -31.5
c0 -17.333 3.33301 -30.666 10 -39.999s17.667 -14 33 -14c12 0 25 3.66699 39 11s28.333 19.333 43 36s29 38.167 43 64.5s26.667 58.5 38 96.5l29 208h98c-9.33301 -66.667 -18.5 -135.834 -27.5 -207.501s-17.167 -140.167 -24.5 -205.5c14.667 1.33301 28.167 4 40.5 8
s24.833 9 37.5 15l23 -44c-24 -23.333 -49.167 -40.166 -75.5 -50.499s-48.166 -15.5 -65.499 -15.5c-12 0 -21.833 1.83301 -29.5 5.5s-13.5 8.5 -17.5 14.5s-6.66699 12.833 -8 20.5s-2 15.834 -2 24.501c0 12 0.833008 25.833 2.5 41.5s3.16699 29.167 4.5 40.5h-5
c-15.333 -28.667 -31.5 -52.334 -48.5 -71.001s-34.167 -33.5 -51.5 -44.5s-34 -18.667 -50 -23s-30 -6.5 -42 -6.5c-35.333 0 -61 8.66699 -77 26s-24 42 -24 74v17.5c0 6.33301 0.666992 14.166 2 23.499c2.66699 27.333 6.5 63.166 11.5 107.499l20.5 174.5l-92 14l4 49
c28 8 53.833 13.667 77.5 17s45.167 5 64.5 5zM196.999 688.001l68 59l112 -171l-42 -35z" />
    <glyph glyph-name="uacute" unicode="&#xfa;" horiz-adv-x="598" 
d="M179 499c21.333 0 35.499 -3.99902 42.499 -11.999s10.5 -20.667 10.5 -38v-9.5c0 -3 -0.333008 -6.16699 -1 -9.5l-5 -44l-6.5 -56.5c-2.33301 -20.333 -4.83301 -41 -7.5 -62s-5 -40.833 -7 -59.5s-3.66699 -35.167 -5 -49.5s-2 -24.833 -2 -31.5
c0 -17.333 3.33301 -30.666 10 -39.999s17.667 -14 33 -14c12 0 25 3.66699 39 11s28.333 19.333 43 36s29 38.167 43 64.5s26.667 58.5 38 96.5l29 208h98c-9.33301 -66.667 -18.5 -135.834 -27.5 -207.501s-17.167 -140.167 -24.5 -205.5c14.667 1.33301 28.167 4 40.5 8
s24.833 9 37.5 15l23 -44c-24 -23.333 -49.167 -40.166 -75.5 -50.499s-48.166 -15.5 -65.499 -15.5c-12 0 -21.833 1.83301 -29.5 5.5s-13.5 8.5 -17.5 14.5s-6.66699 12.833 -8 20.5s-2 15.834 -2 24.501c0 12 0.833008 25.833 2.5 41.5s3.16699 29.167 4.5 40.5h-5
c-15.333 -28.667 -31.5 -52.334 -48.5 -71.001s-34.167 -33.5 -51.5 -44.5s-34 -18.667 -50 -23s-30 -6.5 -42 -6.5c-35.333 0 -61 8.66699 -77 26s-24 42 -24 74v17.5c0 6.33301 0.666992 14.166 2 23.499c2.66699 27.333 6.5 63.166 11.5 107.499l20.5 174.5l-92 14l4 49
c28 8 53.833 13.667 77.5 17s45.167 5 64.5 5zM314.999 539.001l-36 35l144 172l57 -60z" />
    <glyph glyph-name="ucircumflex" unicode="&#xfb;" horiz-adv-x="598" 
d="M179 499c21.333 0 35.499 -3.99902 42.499 -11.999s10.5 -20.667 10.5 -38v-9.5c0 -3 -0.333008 -6.16699 -1 -9.5l-5 -44l-6.5 -56.5c-2.33301 -20.333 -4.83301 -41 -7.5 -62s-5 -40.833 -7 -59.5s-3.66699 -35.167 -5 -49.5s-2 -24.833 -2 -31.5
c0 -17.333 3.33301 -30.666 10 -39.999s17.667 -14 33 -14c12 0 25 3.66699 39 11s28.333 19.333 43 36s29 38.167 43 64.5s26.667 58.5 38 96.5l29 208h98c-9.33301 -66.667 -18.5 -135.834 -27.5 -207.501s-17.167 -140.167 -24.5 -205.5c14.667 1.33301 28.167 4 40.5 8
s24.833 9 37.5 15l23 -44c-24 -23.333 -49.167 -40.166 -75.5 -50.499s-48.166 -15.5 -65.499 -15.5c-12 0 -21.833 1.83301 -29.5 5.5s-13.5 8.5 -17.5 14.5s-6.66699 12.833 -8 20.5s-2 15.834 -2 24.501c0 12 0.833008 25.833 2.5 41.5s3.16699 29.167 4.5 40.5h-5
c-15.333 -28.667 -31.5 -52.334 -48.5 -71.001s-34.167 -33.5 -51.5 -44.5s-34 -18.667 -50 -23s-30 -6.5 -42 -6.5c-35.333 0 -61 8.66699 -77 26s-24 42 -24 74v17.5c0 6.33301 0.666992 14.166 2 23.499c2.66699 27.333 6.5 63.166 11.5 107.499l20.5 174.5l-92 14l4 49
c28 8 53.833 13.667 77.5 17s45.167 5 64.5 5zM485.999 533.001l-142 101l-166 -100l-24 33l164 145h67l131 -144z" />
    <glyph glyph-name="udieresis" unicode="&#xfc;" horiz-adv-x="598" 
d="M179 499c21.333 0 35.499 -3.99902 42.499 -11.999s10.5 -20.667 10.5 -38v-9.5c0 -3 -0.333008 -6.16699 -1 -9.5l-5 -44l-6.5 -56.5c-2.33301 -20.333 -4.83301 -41 -7.5 -62s-5 -40.833 -7 -59.5s-3.66699 -35.167 -5 -49.5s-2 -24.833 -2 -31.5
c0 -17.333 3.33301 -30.666 10 -39.999s17.667 -14 33 -14c12 0 25 3.66699 39 11s28.333 19.333 43 36s29 38.167 43 64.5s26.667 58.5 38 96.5l29 208h98c-9.33301 -66.667 -18.5 -135.834 -27.5 -207.501s-17.167 -140.167 -24.5 -205.5c14.667 1.33301 28.167 4 40.5 8
s24.833 9 37.5 15l23 -44c-24 -23.333 -49.167 -40.166 -75.5 -50.499s-48.166 -15.5 -65.499 -15.5c-12 0 -21.833 1.83301 -29.5 5.5s-13.5 8.5 -17.5 14.5s-6.66699 12.833 -8 20.5s-2 15.834 -2 24.501c0 12 0.833008 25.833 2.5 41.5s3.16699 29.167 4.5 40.5h-5
c-15.333 -28.667 -31.5 -52.334 -48.5 -71.001s-34.167 -33.5 -51.5 -44.5s-34 -18.667 -50 -23s-30 -6.5 -42 -6.5c-35.333 0 -61 8.66699 -77 26s-24 42 -24 74v17.5c0 6.33301 0.666992 14.166 2 23.499c2.66699 27.333 6.5 63.166 11.5 107.499l20.5 174.5l-92 14l4 49
c28 8 53.833 13.667 77.5 17s45.167 5 64.5 5zM246.999 670.001c15.333 0 27.499 -4.16797 36.499 -12.501s13.5 -19.833 13.5 -34.5c0 -17.333 -6 -32.166 -18 -44.499s-26.667 -18.5 -44 -18.5c-14 0 -25.5 4.5 -34.5 13.5s-13.5 20.5 -13.5 34.5
c0 17.333 6.33301 32 19 44s26.334 18 41.001 18zM434.998 670c14.667 0 26.5 -4.16797 35.5 -12.501s13.5 -19.833 13.5 -34.5c0 -17.333 -5.83301 -32.166 -17.5 -44.499s-26.5 -18.5 -44.5 -18.5c-13.333 0 -24.333 4.5 -33 13.5s-13 20.5 -13 34.5
c0 17.333 6.16699 32 18.5 44s25.833 18 40.5 18z" />
    <glyph glyph-name="yacute" unicode="&#xfd;" horiz-adv-x="532" 
d="M442 500c20 0 34.501 -6.5 43.501 -19.5s13.5 -34.167 13.5 -63.5c0 -38.667 -6.66699 -81.667 -20 -129s-32 -95 -56 -143s-52.5 -94.5 -85.5 -139.5s-69 -85 -108 -120s-80.5 -63.167 -124.5 -84.5s-89 -32 -135 -32c-15.333 0 -29.666 2 -42.999 6s-24.5 10 -33.5 18
s-15.333 18.167 -19 30.5s-3.16699 26.833 1.5 43.5l43 26c10 -8.66699 19.167 -15.334 27.5 -20.001s16.5 -8.16699 24.5 -10.5s15.667 -3.66602 23 -3.99902s15 -0.5 23 -0.5c25.333 0 54.166 7.66699 86.499 23s64.833 41 97.5 77l-22.5 116l-25.5 125l-25 116.5
c-8 36.333 -15.333 66.5 -22 90.5l-74 -18l-16 44c25.333 22.667 49.333 39 72 49s40.667 15 54 15c15.333 0 27.166 -2.5 35.499 -7.5s14.5 -17.167 18.5 -36.5l16.5 -81.5l21.5 -112l21.5 -118.5c7 -39.333 12.833 -73.333 17.5 -102c20 24.667 38 53.334 54 86.001
s29.667 66.167 41 100.5s20 67.833 26 100.5s9 61.667 9 87l-71 -17l-16 48c22.667 19.333 45 33.666 67 42.999s41.667 14 59 14zM271.001 539l-36 35l144 172l57 -60z" />
    <glyph glyph-name="thorn" unicode="&#xfe;" horiz-adv-x="554" 
d="M39 -135l22 186l24 202l23.5 200.5l20.5 182.5l-92 15l4 51c24 7.33301 48.333 12.833 73 16.5s47.667 5.5 69 5.5c19.333 0 32.666 -3.5 39.999 -10.5s11 -17.833 11 -32.5v-7.5c0 -3 -0.333008 -6.16699 -1 -9.5l-36 -320h4c14.667 28.667 30 52.834 46 72.501
s32 35.167 48 46.5s32 19.5 48 24.5s31.333 7.5 46 7.5c38 0 68.667 -14.333 92 -43s35 -72.334 35 -131.001c0 -46 -5.33301 -89.167 -16 -129.5s-26.834 -75.5 -48.501 -105.5s-48.667 -53.5 -81 -70.5s-69.833 -25.5 -112.5 -25.5c-15.333 0 -31.166 1.66699 -47.499 5
s-33.166 7.33301 -50.499 12c-3.33301 -23.333 -6.5 -46.833 -9.5 -70.5l-9.5 -71.5h86l-4 -36.5l-4 -36.5h-255l4 36.5c1.33301 12.333 3 24.5 5 36.5h66zM345 413c-12 0 -24.666 -3.33398 -37.999 -10.001s-27 -18 -41 -34s-28 -37.5 -42 -64.5s-27.333 -60.5 -40 -100.5
l-17 -118c19.333 -7.33301 36.833 -12.166 52.5 -14.499s29.167 -3.5 40.5 -3.5c30 0 54.833 7.83301 74.5 23.5s35.5 35.167 47.5 58.5s20.333 48.5 25 75.5s7 52.167 7 75.5c0 38 -6.33301 66.167 -19 84.5s-29.334 27.5 -50.001 27.5z" />
    <glyph glyph-name="ydieresis" unicode="&#xff;" horiz-adv-x="532" 
d="M442 500c20 0 34.501 -6.5 43.501 -19.5s13.5 -34.167 13.5 -63.5c0 -38.667 -6.66699 -81.667 -20 -129s-32 -95 -56 -143s-52.5 -94.5 -85.5 -139.5s-69 -85 -108 -120s-80.5 -63.167 -124.5 -84.5s-89 -32 -135 -32c-15.333 0 -29.666 2 -42.999 6s-24.5 10 -33.5 18
s-15.333 18.167 -19 30.5s-3.16699 26.833 1.5 43.5l43 26c10 -8.66699 19.167 -15.334 27.5 -20.001s16.5 -8.16699 24.5 -10.5s15.667 -3.66602 23 -3.99902s15 -0.5 23 -0.5c25.333 0 54.166 7.66699 86.499 23s64.833 41 97.5 77l-22.5 116l-25.5 125l-25 116.5
c-8 36.333 -15.333 66.5 -22 90.5l-74 -18l-16 44c25.333 22.667 49.333 39 72 49s40.667 15 54 15c15.333 0 27.166 -2.5 35.499 -7.5s14.5 -17.167 18.5 -36.5l16.5 -81.5l21.5 -112l21.5 -118.5c7 -39.333 12.833 -73.333 17.5 -102c20 24.667 38 53.334 54 86.001
s29.667 66.167 41 100.5s20 67.833 26 100.5s9 61.667 9 87l-71 -17l-16 48c22.667 19.333 45 33.666 67 42.999s41.667 14 59 14zM213.001 670c15.333 0 27.499 -4.16797 36.499 -12.501s13.5 -19.833 13.5 -34.5c0 -17.333 -6 -32.166 -18 -44.499
s-26.667 -18.5 -44 -18.5c-14 0 -25.5 4.5 -34.5 13.5s-13.5 20.5 -13.5 34.5c0 17.333 6.33301 32 19 44s26.334 18 41.001 18zM401 669.999c14.667 0 26.5 -4.16797 35.5 -12.501s13.5 -19.833 13.5 -34.5c0 -17.333 -5.83301 -32.166 -17.5 -44.499
s-26.5 -18.5 -44.5 -18.5c-13.333 0 -24.333 4.5 -33 13.5s-13 20.5 -13 34.5c0 17.333 6.16699 32 18.5 44s25.833 18 40.5 18z" />
    <glyph glyph-name="Amacron" unicode="&#x100;" horiz-adv-x="676" 
d="M408 0l8 75h65l-21 114h-249l-49 -114h66l-8 -75h-226l7 75h57l275 611h132l123 -611h53l-9 -75h-224zM411 464l-22 134h-3l-53 -126l-88 -207h202zM250 823h334l-9 -76h-335z" />
    <glyph glyph-name="amacron" unicode="&#x101;" horiz-adv-x="571" 
d="M295 497c19.333 0 38.668 -2.33301 58.001 -7s39.333 -11.334 60 -20.001l24 27l69 -4l-17.5 -114.5l-16 -111c-5 -35.667 -9.5 -69.667 -13.5 -102s-7.33301 -61.833 -10 -88.5c13.333 1.33301 27 4.5 41 9.5s27.667 11.167 41 18.5l11 -23
c4.66699 -10 8.66699 -17.667 12 -23c-10 -10 -21.167 -19.167 -33.5 -27.5s-24.833 -15.833 -37.5 -22.5s-25 -11.834 -37 -15.501s-23 -5.5 -33 -5.5c-22.667 0 -38.5 6 -47.5 18s-14.167 27.667 -15.5 47c0 13.333 0.833008 26.833 2.5 40.5s3.83398 28.167 6.50098 43.5
h-5c-14.667 -29.333 -29.667 -53.333 -45 -72s-30.833 -33.667 -46.5 -45s-31.334 -19.166 -47.001 -23.499s-31.167 -6.5 -46.5 -6.5c-38.667 0 -69.834 14 -93.501 42s-35.5 70.667 -35.5 128c0 46 5.33301 89.333 16 130s26.667 76.334 48 107.001s48 55 80 73
s69 27 111 27zM211.002 66c12 0 24.502 3.33398 37.502 10.001s26.5 18.167 40.5 34.5s27.833 38 41.5 65s27.167 60.5 40.5 100.5l20 123c-19.333 7.33301 -37 12.166 -53 14.499s-29.667 3.5 -41 3.5c-30 0 -54.833 -8.16699 -74.5 -24.5s-35.334 -36.5 -47.001 -60.5
s-19.834 -50 -24.501 -78s-7 -54 -7 -78c0 -37.333 6.16699 -65 18.5 -83s28.5 -27 48.5 -27zM183.004 658.001h328l-10 -75h-327z" />
    <glyph glyph-name="Abreve" unicode="&#x102;" horiz-adv-x="676" 
d="M408 0l8 75h65l-21 114h-249l-49 -114h66l-8 -75h-226l7 75h57l275 611h132l123 -611h53l-9 -75h-224zM411 464l-22 134h-3l-53 -126l-88 -207h202zM399 731c-18 0 -34.5 3.33301 -49.5 10s-28.667 15.5 -41 26.5s-23.5 23.667 -33.5 38s-19.333 29.166 -28 44.499l54 39
c16 -26.667 33.833 -47.5 53.5 -62.5s38.5 -22.5 56.5 -22.5c6 0 13.333 0.5 22 1.5s19 4 31 9s26 12.833 42 23.5s34.667 25.334 56 44.001l27 -30c-34 -45.333 -67.5 -76.833 -100.5 -94.5s-62.833 -26.5 -89.5 -26.5z" />
    <glyph glyph-name="abreve" unicode="&#x103;" horiz-adv-x="571" 
d="M295 497c19.333 0 38.668 -2.33301 58.001 -7s39.333 -11.334 60 -20.001l24 27l69 -4l-17.5 -114.5l-16 -111c-5 -35.667 -9.5 -69.667 -13.5 -102s-7.33301 -61.833 -10 -88.5c13.333 1.33301 27 4.5 41 9.5s27.667 11.167 41 18.5l11 -23
c4.66699 -10 8.66699 -17.667 12 -23c-10 -10 -21.167 -19.167 -33.5 -27.5s-24.833 -15.833 -37.5 -22.5s-25 -11.834 -37 -15.501s-23 -5.5 -33 -5.5c-22.667 0 -38.5 6 -47.5 18s-14.167 27.667 -15.5 47c0 13.333 0.833008 26.833 2.5 40.5s3.83398 28.167 6.50098 43.5
h-5c-14.667 -29.333 -29.667 -53.333 -45 -72s-30.833 -33.667 -46.5 -45s-31.334 -19.166 -47.001 -23.499s-31.167 -6.5 -46.5 -6.5c-38.667 0 -69.834 14 -93.501 42s-35.5 70.667 -35.5 128c0 46 5.33301 89.333 16 130s26.667 76.334 48 107.001s48 55 80 73
s69 27 111 27zM211.002 66c12 0 24.502 3.33398 37.502 10.001s26.5 18.167 40.5 34.5s27.833 38 41.5 65s27.167 60.5 40.5 100.5l20 123c-19.333 7.33301 -37 12.166 -53 14.499s-29.667 3.5 -41 3.5c-30 0 -54.833 -8.16699 -74.5 -24.5s-35.334 -36.5 -47.001 -60.5
s-19.834 -50 -24.501 -78s-7 -54 -7 -78c0 -37.333 6.16699 -65 18.5 -83s28.5 -27 48.5 -27zM304.004 551.001c-18 0 -34.5 3.33398 -49.5 10.001s-28.667 15.5 -41 26.5s-23.5 23.667 -33.5 38s-19.333 29.166 -28 44.499l54 39c16 -27.333 33.833 -48.333 53.5 -63
s38.5 -22 56.5 -22c6 0 13.333 0.5 22 1.5s19 4 31 9s26 12.667 42 23s34.667 25.166 56 44.499l27 -31c-17.333 -22.667 -34.333 -41.667 -51 -57s-33.167 -27.666 -49.5 -36.999s-32 -16 -47 -20s-29.167 -6 -42.5 -6z" />
    <glyph glyph-name="Aogonek" unicode="&#x104;" horiz-adv-x="676" 
d="M544 0c-8.66699 -10 -16.998 -20.6689 -24.998 -32.002s-15 -22.666 -21 -33.999s-10.667 -22.166 -14 -32.499s-5 -19.5 -5 -27.5c0 -14.667 4.5 -25 13.5 -31s21.167 -9 36.5 -9c12.667 0 25.5 1.16699 38.5 3.5s24.833 4.83301 35.5 7.5
c1.33301 -6.66699 2.16602 -13 2.49902 -19s0.833008 -12 1.5 -18c-17.333 -8.66699 -35.833 -15.667 -55.5 -21s-39.167 -8 -58.5 -8c-28.667 0 -50.334 5.83301 -65.001 17.5s-22 28.167 -22 49.5c0 8 1.33301 17.833 4 29.5s7.5 24.167 14.5 37.5s16.5 27.5 28.5 42.5
s27.333 29.833 46 44.5h-91l8 75h65l-21 114h-249l-49 -114h66l-8 -75h-226l7 75h57l275 611h132l123 -611h53l-9 -75h-88zM411.002 463.998l-22 134h-3l-53 -126l-88 -207h202z" />
    <glyph glyph-name="aogonek" unicode="&#x105;" horiz-adv-x="571" 
d="M295 497c19.333 0 38.6699 -2.33398 58.0029 -7.00098s39.333 -11.334 60 -20.001l24 27l69 -4l-17.5 -114.5l-16 -111c-5 -35.667 -9.5 -69.667 -13.5 -102s-7.33301 -61.833 -10 -88.5c13.333 1.33301 27 4.5 41 9.5s27.667 11.167 41 18.5l11 -23
c4.66699 -10 8.66699 -17.667 12 -23c-16 -15.333 -34.167 -29 -54.5 -41s-39.833 -20.333 -58.5 -25c-15.333 -19.333 -28.333 -39.666 -39 -60.999s-16 -39.333 -16 -54s4.5 -25 13.5 -31s21.167 -9 36.5 -9c12.667 0 25.5 1.16699 38.5 3.5s24.833 4.83301 35.5 7.5
c1.33301 -6.66699 2.16602 -13 2.49902 -19s0.833008 -12 1.5 -18c-17.333 -8.66699 -35.833 -15.667 -55.5 -21s-39.167 -8 -58.5 -8c-28.667 0 -50.334 5.83301 -65.001 17.5s-22 28.167 -22 49.5c0 15.333 5.16699 35.666 15.5 60.999s30.833 52 61.5 80
c-14 4 -24 11.5 -30 22.5s-9.33301 24.167 -10 39.5c0 13.333 0.833008 26.833 2.5 40.5s3.83398 28.167 6.50098 43.5h-5c-14.667 -29.333 -29.667 -53.333 -45 -72s-30.833 -33.667 -46.5 -45s-31.334 -19.166 -47.001 -23.499s-31.167 -6.5 -46.5 -6.5
c-38.667 0 -69.834 14 -93.501 42s-35.5 70.667 -35.5 128c0 46 5.33301 89.333 16 130s26.667 76.334 48 107.001s48 55 80 73s69 27 111 27zM211.004 65.999c12 0 24.502 3.33398 37.502 10.001s26.5 18.167 40.5 34.5s27.833 38 41.5 65s27.167 60.5 40.5 100.5l20 123
c-19.333 7.33301 -37 12.166 -53 14.499s-29.667 3.5 -41 3.5c-30 0 -54.833 -8.16699 -74.5 -24.5s-35.334 -36.5 -47.001 -60.5s-19.834 -50 -24.501 -78s-7 -54 -7 -78c0 -37.333 6.16699 -65 18.5 -83s28.5 -27 48.5 -27z" />
    <glyph glyph-name="Cacute" unicode="&#x106;" horiz-adv-x="575" 
d="M412 698c36 0 68.168 -2.66406 96.501 -7.99707s53.166 -12 74.499 -20l-21 -174h-79l12 104c-11.333 3.33301 -24.833 6.16602 -40.5 8.49902s-31.834 3.5 -48.501 3.5c-39.333 0 -73.5 -8.33301 -102.5 -25s-53 -39.667 -72 -69s-33.333 -64.666 -43 -105.999
s-14.5 -86.333 -14.5 -135c0 -62 14.333 -109 43 -141s77 -48 145 -48c8 0 18.167 0.333008 30.5 1s25.5 2 39.5 4s28.333 4.33301 43 7s28.667 6 42 10l16 -85c-13.333 -5.33301 -28.333 -10 -45 -14s-34 -7.5 -52 -10.5s-36.167 -5.33301 -54.5 -7s-35.5 -2.5 -51.5 -2.5
c-49.333 0 -91 6.5 -125 19.5s-61.667 31.667 -83 56s-36.833 53.666 -46.5 87.999s-14.5 72.5 -14.5 114.5c0 28 1.83301 58.167 5.5 90.5s10.334 64.333 20.001 96s22.834 62.167 39.501 91.5s38 55.166 64 77.499s57.167 40.166 93.5 53.499s79.166 20 128.499 20z
M356.001 726.003l-27 43l182 127l43 -71z" />
    <glyph glyph-name="cacute" unicode="&#x107;" horiz-adv-x="462" 
d="M300 499c9.33301 0 19.167 -0.50293 29.5 -1.50293s20.5 -2.5 30.5 -4.5s19 -4 27 -6s14.333 -4 19 -6c12 -5.33301 20.833 -11.333 26.5 -18s8.5 -16 8.5 -28c0 -4.66699 -1 -11.667 -3 -21s-4.5 -19.5 -7.5 -30.5s-6.5 -22.167 -10.5 -33.5s-8 -21.666 -12 -30.999
c-9.33301 0.666992 -18.5 1.16699 -27.5 1.5s-18.167 1.16602 -27.5 2.49902c1.33301 14.667 2.16602 29.5 2.49902 44.5s0.833008 30.167 1.5 45.5c-7.33301 2.66699 -16.333 4.66699 -27 6s-21.667 2 -33 2c-26 0 -48.667 -6.5 -68 -19.5s-35.166 -30.167 -47.499 -51.5
s-21.666 -46.166 -27.999 -74.499s-9.5 -57.5 -9.5 -87.5c0 -36 7.66699 -64 23 -84s42 -30 80 -30c22 0 42.667 2.16699 62 6.5s42.666 10.5 69.999 18.5c3.33301 -11.333 7.33301 -22.333 12 -33s8.66699 -21.667 12 -33c-23.333 -11.333 -51.333 -20.833 -84 -28.5
s-65 -11.5 -97 -11.5c-33.333 0 -61.5 4.16699 -84.5 12.5s-41.667 20.333 -56 36s-24.833 34.334 -31.5 56.001s-10 45.834 -10 72.501c0 40 4.16699 79.667 12.5 119s22.5 74.5 42.5 105.5s46.667 56.167 80 75.5s75 29 125 29zM279.001 538.997l-36 35l144 172l57 -60z
" />
    <glyph glyph-name="Ccircumflex" unicode="&#x108;" horiz-adv-x="575" 
d="M412 698c36 0 68.168 -2.66406 96.501 -7.99707s53.166 -12 74.499 -20l-21 -174h-79l12 104c-11.333 3.33301 -24.833 6.16602 -40.5 8.49902s-31.834 3.5 -48.501 3.5c-39.333 0 -73.5 -8.33301 -102.5 -25s-53 -39.667 -72 -69s-33.333 -64.666 -43 -105.999
s-14.5 -86.333 -14.5 -135c0 -62 14.333 -109 43 -141s77 -48 145 -48c8 0 18.167 0.333008 30.5 1s25.5 2 39.5 4s28.333 4.33301 43 7s28.667 6 42 10l16 -85c-13.333 -5.33301 -28.333 -10 -45 -14s-34 -7.5 -52 -10.5s-36.167 -5.33301 -54.5 -7s-35.5 -2.5 -51.5 -2.5
c-49.333 0 -91 6.5 -125 19.5s-61.667 31.667 -83 56s-36.833 53.666 -46.5 87.999s-14.5 72.5 -14.5 114.5c0 28 1.83301 58.167 5.5 90.5s10.334 64.333 20.001 96s22.834 62.167 39.501 91.5s38 55.166 64 77.499s57.167 40.166 93.5 53.499s79.166 20 128.499 20z
M537.001 714.003l-142 100l-166 -100l-25 33l165 146h67l132 -144z" />
    <glyph glyph-name="ccircumflex" unicode="&#x109;" horiz-adv-x="462" 
d="M300 499c9.33301 0 19.167 -0.50293 29.5 -1.50293s20.5 -2.5 30.5 -4.5s19 -4 27 -6s14.333 -4 19 -6c12 -5.33301 20.833 -11.333 26.5 -18s8.5 -16 8.5 -28c0 -4.66699 -1 -11.667 -3 -21s-4.5 -19.5 -7.5 -30.5s-6.5 -22.167 -10.5 -33.5s-8 -21.666 -12 -30.999
c-9.33301 0.666992 -18.5 1.16699 -27.5 1.5s-18.167 1.16602 -27.5 2.49902c1.33301 14.667 2.16602 29.5 2.49902 44.5s0.833008 30.167 1.5 45.5c-7.33301 2.66699 -16.333 4.66699 -27 6s-21.667 2 -33 2c-26 0 -48.667 -6.5 -68 -19.5s-35.166 -30.167 -47.499 -51.5
s-21.666 -46.166 -27.999 -74.499s-9.5 -57.5 -9.5 -87.5c0 -36 7.66699 -64 23 -84s42 -30 80 -30c22 0 42.667 2.16699 62 6.5s42.666 10.5 69.999 18.5c3.33301 -11.333 7.33301 -22.333 12 -33s8.66699 -21.667 12 -33c-23.333 -11.333 -51.333 -20.833 -84 -28.5
s-65 -11.5 -97 -11.5c-33.333 0 -61.5 4.16699 -84.5 12.5s-41.667 20.333 -56 36s-24.833 34.334 -31.5 56.001s-10 45.834 -10 72.501c0 40 4.16699 79.667 12.5 119s22.5 74.5 42.5 105.5s46.667 56.167 80 75.5s75 29 125 29zM445.001 532.997l-142 101l-166 -100
l-24 33l164 145h67l131 -144z" />
    <glyph glyph-name="Cdotaccent" unicode="&#x10a;" horiz-adv-x="575" 
d="M412 698c36 0 68.168 -2.66406 96.501 -7.99707s53.166 -12 74.499 -20l-21 -174h-79l12 104c-11.333 3.33301 -24.833 6.16602 -40.5 8.49902s-31.834 3.5 -48.501 3.5c-39.333 0 -73.5 -8.33301 -102.5 -25s-53 -39.667 -72 -69s-33.333 -64.666 -43 -105.999
s-14.5 -86.333 -14.5 -135c0 -62 14.333 -109 43 -141s77 -48 145 -48c8 0 18.167 0.333008 30.5 1s25.5 2 39.5 4s28.333 4.33301 43 7s28.667 6 42 10l16 -85c-13.333 -5.33301 -28.333 -10 -45 -14s-34 -7.5 -52 -10.5s-36.167 -5.33301 -54.5 -7s-35.5 -2.5 -51.5 -2.5
c-49.333 0 -91 6.5 -125 19.5s-61.667 31.667 -83 56s-36.833 53.666 -46.5 87.999s-14.5 72.5 -14.5 114.5c0 28 1.83301 58.167 5.5 90.5s10.334 64.333 20.001 96s22.834 62.167 39.501 91.5s38 55.166 64 77.499s57.167 40.166 93.5 53.499s79.166 20 128.499 20z
M474.001 831.003c-1.33301 -18 -8.66699 -33.498 -22 -46.498s-29 -19.5 -47 -19.5c-16.667 0 -30 5.66699 -40 17s-14.333 25.666 -13 42.999c1.33301 18 9 33.5 23 46.5s29.333 19.5 46 19.5c16 0 29.167 -5.83301 39.5 -17.5s14.833 -25.834 13.5 -42.501z" />
    <glyph glyph-name="cdotaccent" unicode="&#x10b;" horiz-adv-x="462" 
d="M300 499c9.33301 0 19.167 -0.50293 29.5 -1.50293s20.5 -2.5 30.5 -4.5s19 -4 27 -6s14.333 -4 19 -6c12 -5.33301 20.833 -11.333 26.5 -18s8.5 -16 8.5 -28c0 -4.66699 -1 -11.667 -3 -21s-4.5 -19.5 -7.5 -30.5s-6.5 -22.167 -10.5 -33.5s-8 -21.666 -12 -30.999
c-9.33301 0.666992 -18.5 1.16699 -27.5 1.5s-18.167 1.16602 -27.5 2.49902c1.33301 14.667 2.16602 29.5 2.49902 44.5s0.833008 30.167 1.5 45.5c-7.33301 2.66699 -16.333 4.66699 -27 6s-21.667 2 -33 2c-26 0 -48.667 -6.5 -68 -19.5s-35.166 -30.167 -47.499 -51.5
s-21.666 -46.166 -27.999 -74.499s-9.5 -57.5 -9.5 -87.5c0 -36 7.66699 -64 23 -84s42 -30 80 -30c22 0 42.667 2.16699 62 6.5s42.666 10.5 69.999 18.5c3.33301 -11.333 7.33301 -22.333 12 -33s8.66699 -21.667 12 -33c-23.333 -11.333 -51.333 -20.833 -84 -28.5
s-65 -11.5 -97 -11.5c-33.333 0 -61.5 4.16699 -84.5 12.5s-41.667 20.333 -56 36s-24.833 34.334 -31.5 56.001s-10 45.834 -10 72.501c0 40 4.16699 79.667 12.5 119s22.5 74.5 42.5 105.5s46.667 56.167 80 75.5s75 29 125 29zM371.001 631.997
c-1.33301 -17.333 -7.83105 -32.333 -19.498 -45s-25.5 -19 -41.5 -19c-15.333 0 -27.5 5.5 -36.5 16.5s-12.833 24.833 -11.5 41.5c1.33301 17.333 8.16602 32.333 20.499 45s26.166 19 41.499 19c14 0 25.667 -5.66699 35 -17s13.333 -25 12 -41z" />
    <glyph glyph-name="Ccaron" unicode="&#x10c;" horiz-adv-x="575" 
d="M412 698c36 0 68.168 -2.66406 96.501 -7.99707s53.166 -12 74.499 -20l-21 -174h-79l12 104c-11.333 3.33301 -24.833 6.16602 -40.5 8.49902s-31.834 3.5 -48.501 3.5c-39.333 0 -73.5 -8.33301 -102.5 -25s-53 -39.667 -72 -69s-33.333 -64.666 -43 -105.999
s-14.5 -86.333 -14.5 -135c0 -62 14.333 -109 43 -141s77 -48 145 -48c8 0 18.167 0.333008 30.5 1s25.5 2 39.5 4s28.333 4.33301 43 7s28.667 6 42 10l16 -85c-13.333 -5.33301 -28.333 -10 -45 -14s-34 -7.5 -52 -10.5s-36.167 -5.33301 -54.5 -7s-35.5 -2.5 -51.5 -2.5
c-49.333 0 -91 6.5 -125 19.5s-61.667 31.667 -83 56s-36.833 53.666 -46.5 87.999s-14.5 72.5 -14.5 114.5c0 28 1.83301 58.167 5.5 90.5s10.334 64.333 20.001 96s22.834 62.167 39.501 91.5s38 55.166 64 77.499s57.167 40.166 93.5 53.499s79.166 20 128.499 20z
M611.001 867.003l-166 -136h-66l-129 139l29 32l142 -92l167 92z" />
    <glyph glyph-name="ccaron" unicode="&#x10d;" horiz-adv-x="462" 
d="M300 499c9.33301 0 19.167 -0.50293 29.5 -1.50293s20.5 -2.5 30.5 -4.5s19 -4 27 -6s14.333 -4 19 -6c12 -5.33301 20.833 -11.333 26.5 -18s8.5 -16 8.5 -28c0 -4.66699 -1 -11.667 -3 -21s-4.5 -19.5 -7.5 -30.5s-6.5 -22.167 -10.5 -33.5s-8 -21.666 -12 -30.999
c-9.33301 0.666992 -18.5 1.16699 -27.5 1.5s-18.167 1.16602 -27.5 2.49902c1.33301 14.667 2.16602 29.5 2.49902 44.5s0.833008 30.167 1.5 45.5c-7.33301 2.66699 -16.333 4.66699 -27 6s-21.667 2 -33 2c-26 0 -48.667 -6.5 -68 -19.5s-35.166 -30.167 -47.499 -51.5
s-21.666 -46.166 -27.999 -74.499s-9.5 -57.5 -9.5 -87.5c0 -36 7.66699 -64 23 -84s42 -30 80 -30c22 0 42.667 2.16699 62 6.5s42.666 10.5 69.999 18.5c3.33301 -11.333 7.33301 -22.333 12 -33s8.66699 -21.667 12 -33c-23.333 -11.333 -51.333 -20.833 -84 -28.5
s-65 -11.5 -97 -11.5c-33.333 0 -61.5 4.16699 -84.5 12.5s-41.667 20.333 -56 36s-24.833 34.334 -31.5 56.001s-10 45.834 -10 72.501c0 40 4.16699 79.667 12.5 119s22.5 74.5 42.5 105.5s46.667 56.167 80 75.5s75 29 125 29zM503.001 691.997l-166 -144h-67l-129 145
l30 33l141 -100l167 99z" />
    <glyph glyph-name="Dcaron" unicode="&#x10e;" horiz-adv-x="671" 
d="M16 0l8.00195 74.999h69l65 536h-64l9 75h282c49.333 0 90.5 -7.16699 123.5 -21.5s59.5 -34.166 79.5 -59.499s34.167 -55 42.5 -89s12.5 -70.667 12.5 -110c0 -54 -6 -105.5 -18 -154.5s-31.333 -92.167 -58 -129.5s-61.334 -67 -104.001 -89s-94.334 -33 -155.001 -33
h-292zM267.002 610.999l-65.998 -534.999h96c11.333 0 25.166 1.33301 41.499 4s33 8 50 16s34 19.333 51 34s32.167 34 45.5 58s24.166 53.333 32.499 88s12.5 76 12.5 124c0 47.333 -5.66699 85 -17 113s-25.333 49.167 -42 63.5s-34.667 23.666 -54 27.999
s-37.333 6.5 -54 6.5h-96zM550.004 867l-166 -136h-66l-129 139l29 32l142 -92l167 92z" />
    <glyph glyph-name="dcaron" unicode="&#x10f;" horiz-adv-x="695" 
d="M301 496c15.333 0 31.1699 -1.83008 47.5029 -5.49707s33.166 -8.16699 50.499 -13.5l9.5 79l9.5 82l-99 15l3 51c28.667 7.33301 55.334 12.666 80.001 15.999s46.667 5 66 5c23.333 0 38.666 -5.33301 45.999 -16s11 -24.334 11 -41.001
c0 -5.33301 -2.33301 -25.833 -7 -61.5l-17.5 -136.5l-23.5 -185.5l-26 -207.5c28 4 55.667 13.333 83 28l24 -44c-9.33301 -10 -20 -19.333 -32 -28s-24.5 -16.334 -37.5 -23.001s-26.167 -12 -39.5 -16s-26.333 -6 -39 -6c-21.333 0 -36.166 5.5 -44.499 16.5
s-12.833 25.5 -13.5 43.5c-0.666992 15.333 -0.166992 30 1.5 44s4.16699 29 7.5 45h-5c-14.667 -29.333 -29.834 -53.5 -45.501 -72.5s-31.5 -34 -47.5 -45s-31.833 -18.667 -47.5 -23s-31.167 -6.5 -46.5 -6.5c-38.667 0 -69.834 14 -93.501 42s-35.5 70.667 -35.5 128
c0 47.333 5.5 91.5 16.5 132.5s27.5 76.5 49.5 106.5s49.167 53.667 81.5 71s70.166 26 113.499 26zM211.004 66.0029c12 0 24.668 3.33398 38.001 10.001s27 18.167 41 34.5s28.167 38 42.5 65s28.166 60.5 41.499 100.5l17 123
c-19.333 7.33301 -36.833 12.166 -52.5 14.499s-29.167 3.5 -40.5 3.5c-30 0 -55 -8.16699 -75 -24.5s-36 -36.5 -48 -60.5s-20.333 -50 -25 -78s-7 -54 -7 -78c0 -37.333 6.16699 -65 18.5 -83s28.833 -27 49.5 -27zM652.005 743.004
c17.333 0 30.499 -5.50098 39.499 -16.501s13.5 -24.833 13.5 -41.5c0 -14.667 -3.33301 -29.334 -10 -44.001s-15.667 -28.667 -27 -42s-24.166 -25.666 -38.499 -36.999s-29.5 -20.666 -45.5 -27.999l-20 31c14 10.667 25.667 20.667 35 30s16.333 22.666 21 39.999
c-22 6.66699 -33 21.667 -33 45c0 16.667 6 31.334 18 44.001s27.667 19 47 19z" />
    <glyph glyph-name="Dcroat" unicode="&#x110;" horiz-adv-x="671" 
d="M16 0l8.00195 74.999h69l30 246h-65l8 55h63l29 235h-64l9 75h282c49.333 0 90.5 -7.16699 123.5 -21.5s59.5 -34.166 79.5 -59.499s34.167 -55 42.5 -89s12.5 -70.667 12.5 -110c0 -54 -6 -105.5 -18 -154.5s-31.333 -92.167 -58 -129.5s-61.334 -67 -104.001 -89
s-94.334 -33 -155.001 -33h-292zM267.002 610.999l-28.998 -234.999h130l-7 -55h-130l-30 -245h96c11.333 0 25.166 1.33301 41.499 4s33 8 50 16s34 19.333 51 34s32.167 34 45.5 58s24.166 53.333 32.499 88s12.5 76 12.5 124c0 47.333 -5.66699 85 -17 113
s-25.333 49.167 -42 63.5s-34.667 23.666 -54 27.999s-37.333 6.5 -54 6.5h-96z" />
    <glyph glyph-name="dcroat" unicode="&#x111;" horiz-adv-x="571" 
d="M468 725c22 0 36.8379 -4.83398 44.5049 -14.501s11.5 -22.5 11.5 -38.5c0 -4 -0.333008 -10 -1 -18s-1.5 -16.5 -2.5 -25.5s-2.16699 -18.333 -3.5 -28s-2.33301 -18.5 -3 -26.5h68l-6 -46h-68l-57 -452c13.333 1.33301 27 4.5 41 9.5s27.667 11.167 41 18.5
c3.33301 -7.33301 7 -14.666 11 -21.999l12 -23c-22.667 -20.667 -47.834 -37.5 -75.501 -50.5s-51.167 -19.5 -70.5 -19.5c-23.333 0 -38.833 5.66699 -46.5 17s-11.5 27.666 -11.5 48.999c0 13.333 0.833008 26.5 2.5 39.5l5.5 41.5h-4
c-14.667 -29.333 -29.834 -53.333 -45.501 -72s-31.5 -33.5 -47.5 -44.5s-32 -18.5 -48 -22.5s-31.333 -6 -46 -6c-38.667 0 -69.834 13.667 -93.501 41s-35.5 70 -35.5 128c0 45.333 5.5 87.5 16.5 126.5s27.167 72.833 48.5 101.5s48 51.167 80 67.5s69 24.5 111 24.5
c15.333 0 31.666 -1.66699 48.999 -5s34.666 -7.66602 51.999 -12.999l4 32.5l4 33.5h-150l6 46h149l8 63l-100 15c1.33301 8.66699 2.16602 17.167 2.49902 25.5s0.833008 16.833 1.5 25.5c28.667 7.33301 55.334 12.833 80.001 16.5s46.667 5.5 66 5.5zM210.005 65.999
c11.333 0 23.833 3.33301 37.5 10s27.667 17.834 42 33.501s28.5 36.667 42.5 63s27.667 59.5 41 99.5l16 115c-18.667 7.33301 -36 12.166 -52 14.499s-29.667 3.5 -41 3.5c-30 0 -54.833 -7.66699 -74.5 -23s-35.5 -34.5 -47.5 -57.5s-20.333 -48 -25 -75
s-7 -51.833 -7 -74.5c0 -36.667 6.33301 -64 19 -82s29 -27 49 -27z" />
    <glyph glyph-name="Emacron" unicode="&#x112;" horiz-adv-x="589" 
d="M16 0l8 75h66l66 536h-63l8 74h500l-22 -173h-78l12 99h-250l-27 -218l236 5l-8 -79l-237 4l-30 -248h270l13 102h80l-22 -177h-522zM224 823h334l-9 -76h-335z" />
    <glyph glyph-name="emacron" unicode="&#x113;" horiz-adv-x="481" 
d="M308 501c46 0 81.3359 -11.668 106.003 -35.001s37 -54 37 -92c0 -56.667 -26.833 -99.167 -80.5 -127.5s-129.5 -45.166 -227.5 -50.499c-0.666992 -4 -1 -8 -1 -12v-11c0 -13.333 1.33301 -26.333 4 -39s7.66699 -24 15 -34s17.5 -18.167 30.5 -24.5
s29.833 -9.5 50.5 -9.5c24.667 0 49.5 3.16699 74.5 9.5s49.5 14.5 73.5 24.5l21 -60c-12 -7.33301 -25.667 -13.833 -41 -19.5s-31.333 -10.667 -48 -15s-33.834 -7.66602 -51.501 -9.99902s-34.834 -3.5 -51.501 -3.5c-36.667 0 -66.5 5.16699 -89.5 15.5
s-41.167 24.166 -54.5 41.499s-22.5 37.833 -27.5 61.5s-7.5 48.5 -7.5 74.5c0 34 4.16699 69.5 12.5 106.5s22.666 71 42.999 102s47.833 56.667 82.5 77s78 30.5 130 30.5zM293.003 423.999c-42.667 0 -76.333 -15.332 -101 -45.999s-40 -72.667 -46 -126
c68.667 3.33301 120.667 13.666 156 30.999s53 44 53 80c0 18 -4.83301 32.667 -14.5 44s-25.5 17 -47.5 17zM147.004 658h328l-10 -75h-327z" />
    <glyph glyph-name="Ebreve" unicode="&#x114;" horiz-adv-x="589" 
d="M16 0l8 75h66l66 536h-63l8 74h500l-22 -173h-78l12 99h-250l-27 -218l236 5l-8 -79l-237 4l-30 -248h270l13 102h80l-22 -177h-522zM366 731c-18 0 -34.5 3.33301 -49.5 10s-28.667 15.5 -41 26.5s-23.5 23.667 -33.5 38s-19.333 29.166 -28 44.499l54 39
c16 -26.667 33.833 -47.5 53.5 -62.5s38.5 -22.5 56.5 -22.5c6 0 13.333 0.5 22 1.5s19 4 31 9s26 12.833 42 23.5s34.667 25.334 56 44.001l27 -30c-34 -45.333 -67.5 -76.833 -100.5 -94.5s-62.833 -26.5 -89.5 -26.5z" />
    <glyph glyph-name="ebreve" unicode="&#x115;" horiz-adv-x="481" 
d="M308 501c46 0 81.3359 -11.668 106.003 -35.001s37 -54 37 -92c0 -56.667 -26.833 -99.167 -80.5 -127.5s-129.5 -45.166 -227.5 -50.499c-0.666992 -4 -1 -8 -1 -12v-11c0 -13.333 1.33301 -26.333 4 -39s7.66699 -24 15 -34s17.5 -18.167 30.5 -24.5
s29.833 -9.5 50.5 -9.5c24.667 0 49.5 3.16699 74.5 9.5s49.5 14.5 73.5 24.5l21 -60c-12 -7.33301 -25.667 -13.833 -41 -19.5s-31.333 -10.667 -48 -15s-33.834 -7.66602 -51.501 -9.99902s-34.834 -3.5 -51.501 -3.5c-36.667 0 -66.5 5.16699 -89.5 15.5
s-41.167 24.166 -54.5 41.499s-22.5 37.833 -27.5 61.5s-7.5 48.5 -7.5 74.5c0 34 4.16699 69.5 12.5 106.5s22.666 71 42.999 102s47.833 56.667 82.5 77s78 30.5 130 30.5zM293.003 423.999c-42.667 0 -76.333 -15.332 -101 -45.999s-40 -72.667 -46 -126
c68.667 3.33301 120.667 13.666 156 30.999s53 44 53 80c0 18 -4.83301 32.667 -14.5 44s-25.5 17 -47.5 17zM296.004 551c-18 0 -34.5 3.33398 -49.5 10.001s-28.667 15.5 -41 26.5s-23.5 23.667 -33.5 38s-19.333 29.166 -28 44.499l54 39
c16 -27.333 33.833 -48.333 53.5 -63s38.5 -22 56.5 -22c6 0 13.333 0.5 22 1.5s19 4 31 9s26 12.667 42 23s34.667 25.166 56 44.499l27 -31c-17.333 -22.667 -34.333 -41.667 -51 -57s-33.167 -27.666 -49.5 -36.999s-32 -16 -47 -20s-29.167 -6 -42.5 -6z" />
    <glyph glyph-name="Edotaccent" unicode="&#x116;" horiz-adv-x="589" 
d="M16 0l8 75h66l66 536h-63l8 74h500l-22 -173h-78l12 99h-250l-27 -218l236 5l-8 -79l-237 4l-30 -248h270l13 102h80l-22 -177h-522zM437 825c-1.33301 -18 -8.66699 -33.498 -22 -46.498s-29 -19.5 -47 -19.5c-16.667 0 -30 5.66699 -40 17s-14.333 25.666 -13 42.999
c1.33301 18 9 33.5 23 46.5s29.333 19.5 46 19.5c16 0 29.167 -5.83301 39.5 -17.5s14.833 -25.834 13.5 -42.501z" />
    <glyph glyph-name="edotaccent" unicode="&#x117;" horiz-adv-x="481" 
d="M308 501c46 0 81.3359 -11.668 106.003 -35.001s37 -54 37 -92c0 -56.667 -26.833 -99.167 -80.5 -127.5s-129.5 -45.166 -227.5 -50.499c-0.666992 -4 -1 -8 -1 -12v-11c0 -13.333 1.33301 -26.333 4 -39s7.66699 -24 15 -34s17.5 -18.167 30.5 -24.5
s29.833 -9.5 50.5 -9.5c24.667 0 49.5 3.16699 74.5 9.5s49.5 14.5 73.5 24.5l21 -60c-12 -7.33301 -25.667 -13.833 -41 -19.5s-31.333 -10.667 -48 -15s-33.834 -7.66602 -51.501 -9.99902s-34.834 -3.5 -51.501 -3.5c-36.667 0 -66.5 5.16699 -89.5 15.5
s-41.167 24.166 -54.5 41.499s-22.5 37.833 -27.5 61.5s-7.5 48.5 -7.5 74.5c0 34 4.16699 69.5 12.5 106.5s22.666 71 42.999 102s47.833 56.667 82.5 77s78 30.5 130 30.5zM293.003 423.999c-42.667 0 -76.333 -15.332 -101 -45.999s-40 -72.667 -46 -126
c68.667 3.33301 120.667 13.666 156 30.999s53 44 53 80c0 18 -4.83301 32.667 -14.5 44s-25.5 17 -47.5 17zM370.004 631c-1.33301 -18 -8.66699 -33.498 -22 -46.498s-29 -19.5 -47 -19.5c-16.667 0 -30 5.66699 -40 17s-14.333 25.666 -13 42.999
c1.33301 18 9 33.5 23 46.5s29.333 19.5 46 19.5c16 0 29.167 -5.83301 39.5 -17.5s14.833 -25.834 13.5 -42.501z" />
    <glyph glyph-name="Eogonek" unicode="&#x118;" horiz-adv-x="589" 
d="M518 0c-8.66699 -10 -16.833 -20.499 -24.5 -31.499s-14.5 -22.167 -20.5 -33.5s-10.667 -22 -14 -32s-5 -19 -5 -27c0 -14.667 4.5 -25 13.5 -31s21.167 -9 36.5 -9c12.667 0 25.5 1.16699 38.5 3.5s24.833 4.83301 35.5 7.5c1.33301 -6.66699 2.16602 -13 2.49902 -19
s0.833008 -12 1.5 -18c-17.333 -8.66699 -35.833 -15.667 -55.5 -21s-39.167 -8 -58.5 -8c-28.667 0 -50.334 5.83301 -65.001 17.5s-22 28.167 -22 49.5c0 8 1.33301 17.833 4 29.5s7.33398 24.167 14.001 37.5s15.834 27.166 27.501 41.499s26.5 28.833 44.5 43.5h-455
l8 75h66l66 536h-63l8 74h500l-22 -173h-78l12 99h-250l-27 -218l236 5l-8 -79l-237 4l-30 -248h270l13 102h80l-22 -177h-20z" />
    <glyph glyph-name="eogonek" unicode="&#x119;" horiz-adv-x="481" 
d="M308 501c46 0 81.3359 -11.6689 106.003 -35.002s37 -54 37 -92c0 -56.667 -26.833 -99.167 -80.5 -127.5s-129.5 -45.166 -227.5 -50.499c-0.666992 -4 -1 -8 -1 -12v-11c0 -13.333 1.33301 -26.333 4 -39s7.66699 -24 15 -34s17.5 -18.167 30.5 -24.5
s29.833 -9.5 50.5 -9.5c24.667 0 49.5 3.16699 74.5 9.5s49.5 14.5 73.5 24.5l21 -60l-16 -9c-9.33301 -10 -18 -20.667 -26 -32s-15 -22.666 -21 -33.999s-10.667 -22.166 -14 -32.499s-5 -19.5 -5 -27.5c0 -14.667 4.5 -25 13.5 -31s21.167 -9 36.5 -9
c12.667 0 25.5 1.16699 38.5 3.5s24.833 4.83301 35.5 7.5c1.33301 -6.66699 2.16602 -13 2.49902 -19s0.833008 -12 1.5 -18c-17.333 -8.66699 -35.833 -15.667 -55.5 -21s-39.167 -8 -58.5 -8c-28.667 0 -50.334 5.83301 -65.001 17.5s-22 28.167 -22 49.5
c0 14 4.33301 32.5 13 55.5s25.667 47.167 51 72.5c-16.667 -4 -33.5 -7.16699 -50.5 -9.5s-33.833 -3.5 -50.5 -3.5c-36.667 0 -66.5 5.16699 -89.5 15.5s-41.167 24.166 -54.5 41.499s-22.5 37.833 -27.5 61.5s-7.5 48.5 -7.5 74.5c0 34 4.16699 69.5 12.5 106.5
s22.666 71 42.999 102s47.833 56.667 82.5 77s78 30.5 130 30.5zM293.003 423.998c-42.667 0 -76.333 -15.332 -101 -45.999s-40 -72.667 -46 -126c68.667 3.33301 120.667 13.666 156 30.999s53 44 53 80c0 18 -4.83301 32.667 -14.5 44s-25.5 17 -47.5 17z" />
    <glyph glyph-name="Ecaron" unicode="&#x11a;" horiz-adv-x="589" 
d="M16 0l8 75h66l66 536h-63l8 74h500l-22 -173h-78l12 99h-250l-27 -218l236 5l-8 -79l-237 4l-30 -248h270l13 102h80l-22 -177h-522zM574 867l-166 -136h-66l-129 139l29 32l142 -92l167 92z" />
    <glyph glyph-name="ecaron" unicode="&#x11b;" horiz-adv-x="481" 
d="M308 501c46 0 81.3359 -11.668 106.003 -35.001s37 -54 37 -92c0 -56.667 -26.833 -99.167 -80.5 -127.5s-129.5 -45.166 -227.5 -50.499c-0.666992 -4 -1 -8 -1 -12v-11c0 -13.333 1.33301 -26.333 4 -39s7.66699 -24 15 -34s17.5 -18.167 30.5 -24.5
s29.833 -9.5 50.5 -9.5c24.667 0 49.5 3.16699 74.5 9.5s49.5 14.5 73.5 24.5l21 -60c-12 -7.33301 -25.667 -13.833 -41 -19.5s-31.333 -10.667 -48 -15s-33.834 -7.66602 -51.501 -9.99902s-34.834 -3.5 -51.501 -3.5c-36.667 0 -66.5 5.16699 -89.5 15.5
s-41.167 24.166 -54.5 41.499s-22.5 37.833 -27.5 61.5s-7.5 48.5 -7.5 74.5c0 34 4.16699 69.5 12.5 106.5s22.666 71 42.999 102s47.833 56.667 82.5 77s78 30.5 130 30.5zM293.003 423.999c-42.667 0 -76.333 -15.332 -101 -45.999s-40 -72.667 -46 -126
c68.667 3.33301 120.667 13.666 156 30.999s53 44 53 80c0 18 -4.83301 32.667 -14.5 44s-25.5 17 -47.5 17zM493.004 692l-166 -144h-67l-129 145l30 33l141 -100l167 99z" />
    <glyph glyph-name="Gcircumflex" unicode="&#x11c;" horiz-adv-x="638" 
d="M425 698c36 0 68.8369 -2.66699 98.5039 -8s54.834 -12 75.501 -20l-20 -171h-79l13 102c-12 3.33301 -26.333 6.16602 -43 8.49902s-33.334 3.5 -50.001 3.5c-41.333 0 -77.5 -8.5 -108.5 -25.5s-56.667 -40.5 -77 -70.5s-35.5 -65.333 -45.5 -106s-15 -85 -15 -133
c0 -30 2.83301 -57.167 8.5 -81.5s15.167 -45.333 28.5 -63s30.833 -31.167 52.5 -40.5s48.5 -14 80.5 -14c15.333 0 32.166 1.16699 50.499 3.5s35.166 5.83301 50.499 10.5l24 193h-88l8 70h235l-8 -70h-50l-32 -261c-70 -22.667 -139.333 -34 -208 -34
c-48.667 0 -89.834 6.83301 -123.501 20.5s-61 32.834 -82 57.501s-36.167 54 -45.5 88s-14 71.333 -14 112c0 28.667 2.16699 59.167 6.5 91.5s11.666 64.333 21.999 96s24.333 62.167 42 91.5s40 55 67 77s59 39.667 96 53s80.5 20 130.5 20zM555.004 714l-142 100
l-166 -100l-25 33l165 146h67l132 -144z" />
    <glyph glyph-name="gcircumflex" unicode="&#x11d;" horiz-adv-x="534" 
d="M303 496c28 -0.666992 58.1699 -4.1709 90.5029 -10.5039s65.166 -17.166 98.499 -32.499l5 -12l-58 -446c-3.33301 -23.333 -8.83301 -47.833 -16.5 -73.5s-20.5 -49 -38.5 -70s-42.5 -38.333 -73.5 -52s-71.5 -20.5 -121.5 -20.5c-31.333 0 -61.5 4.16699 -90.5 12.5
s-52.167 16.833 -69.5 25.5c2 4 4.33301 9.5 7 16.5l8 21.5l8 21.5c2.66699 7 5 12.5 7 16.5c21.333 -9.33301 43.833 -16.666 67.5 -21.999s45.834 -8 66.501 -8c29.333 0 53.166 4.33301 71.499 13s32.833 20.834 43.5 36.501s18.667 34.334 24 56.001
s9.66602 45.5 12.999 71.5c0 0.666992 0.666992 5.83398 2 15.501s2.66602 20.167 3.99902 31.5s2.66602 21.833 3.99902 31.5l2 14.5c0 0.666992 -1.33301 1 -4 1c-14 -27.333 -28.833 -50 -44.5 -68s-31.167 -32.333 -46.5 -43s-30.833 -18.167 -46.5 -22.5
s-30.5 -6.5 -44.5 -6.5c-38.667 0 -70 13.833 -94 41.5s-36 70.5 -36 128.5c0 45.333 5.5 88.166 16.5 128.499s27.333 75.5 49 105.5s48.834 53.833 81.501 71.5s71 26.5 115 26.5zM213.003 70.9961c12 0 24.665 3.50293 37.998 10.5029s27 18.5 41 34.5
s27.833 37.5 41.5 64.5s26.834 60.5 39.501 100.5l17 118c-19.333 7.33301 -36.5 12.166 -51.5 14.499s-28.167 3.5 -39.5 3.5c-30 0 -55 -7.83301 -75 -23.5s-36 -35.334 -48 -59.001s-20.333 -49.334 -25 -77.001s-7 -53.5 -7 -77.5c0 -37.333 6.33301 -64.833 19 -82.5
s29.334 -26.5 50.001 -26.5zM470.001 532.999l-142 101l-166 -100l-24 33l164 145h67l131 -144z" />
    <glyph glyph-name="Gbreve" unicode="&#x11e;" horiz-adv-x="638" 
d="M425 698c36 0 68.8369 -2.66699 98.5039 -8s54.834 -12 75.501 -20l-20 -171h-79l13 102c-12 3.33301 -26.333 6.16602 -43 8.49902s-33.334 3.5 -50.001 3.5c-41.333 0 -77.5 -8.5 -108.5 -25.5s-56.667 -40.5 -77 -70.5s-35.5 -65.333 -45.5 -106s-15 -85 -15 -133
c0 -30 2.83301 -57.167 8.5 -81.5s15.167 -45.333 28.5 -63s30.833 -31.167 52.5 -40.5s48.5 -14 80.5 -14c15.333 0 32.166 1.16699 50.499 3.5s35.166 5.83301 50.499 10.5l24 193h-88l8 70h235l-8 -70h-50l-32 -261c-70 -22.667 -139.333 -34 -208 -34
c-48.667 0 -89.834 6.83301 -123.501 20.5s-61 32.834 -82 57.501s-36.167 54 -45.5 88s-14 71.333 -14 112c0 28.667 2.16699 59.167 6.5 91.5s11.666 64.333 21.999 96s24.333 62.167 42 91.5s40 55 67 77s59 39.667 96 53s80.5 20 130.5 20zM407.004 731
c-18 0 -34.5 3.33301 -49.5 10s-28.667 15.5 -41 26.5s-23.5 23.667 -33.5 38s-19.333 29.166 -28 44.499l54 39c16 -26.667 33.833 -47.5 53.5 -62.5s38.5 -22.5 56.5 -22.5c6 0 13.333 0.5 22 1.5s19 4 31 9s26 12.833 42 23.5s34.667 25.334 56 44.001l27 -30
c-34 -45.333 -67.5 -76.833 -100.5 -94.5s-62.833 -26.5 -89.5 -26.5z" />
    <glyph glyph-name="gbreve" unicode="&#x11f;" horiz-adv-x="534" 
d="M303 496c28 -0.666992 58.1699 -4.1709 90.5029 -10.5039s65.166 -17.166 98.499 -32.499l5 -12l-58 -446c-3.33301 -23.333 -8.83301 -47.833 -16.5 -73.5s-20.5 -49 -38.5 -70s-42.5 -38.333 -73.5 -52s-71.5 -20.5 -121.5 -20.5c-31.333 0 -61.5 4.16699 -90.5 12.5
s-52.167 16.833 -69.5 25.5c2 4 4.33301 9.5 7 16.5l8 21.5l8 21.5c2.66699 7 5 12.5 7 16.5c21.333 -9.33301 43.833 -16.666 67.5 -21.999s45.834 -8 66.501 -8c29.333 0 53.166 4.33301 71.499 13s32.833 20.834 43.5 36.501s18.667 34.334 24 56.001
s9.66602 45.5 12.999 71.5c0 0.666992 0.666992 5.83398 2 15.501s2.66602 20.167 3.99902 31.5s2.66602 21.833 3.99902 31.5l2 14.5c0 0.666992 -1.33301 1 -4 1c-14 -27.333 -28.833 -50 -44.5 -68s-31.167 -32.333 -46.5 -43s-30.833 -18.167 -46.5 -22.5
s-30.5 -6.5 -44.5 -6.5c-38.667 0 -70 13.833 -94 41.5s-36 70.5 -36 128.5c0 45.333 5.5 88.166 16.5 128.499s27.333 75.5 49 105.5s48.834 53.833 81.501 71.5s71 26.5 115 26.5zM213.003 70.9961c12 0 24.665 3.50293 37.998 10.5029s27 18.5 41 34.5
s27.833 37.5 41.5 64.5s26.834 60.5 39.501 100.5l17 118c-19.333 7.33301 -36.5 12.166 -51.5 14.499s-28.167 3.5 -39.5 3.5c-30 0 -55 -7.83301 -75 -23.5s-36 -35.334 -48 -59.001s-20.333 -49.334 -25 -77.001s-7 -53.5 -7 -77.5c0 -37.333 6.33301 -64.833 19 -82.5
s29.334 -26.5 50.001 -26.5zM298.001 550.999c-18 0 -34.5 3.33398 -49.5 10.001s-28.667 15.5 -41 26.5s-23.5 23.667 -33.5 38s-19.333 29.166 -28 44.499l54 39c16 -27.333 33.833 -48.333 53.5 -63s38.5 -22 56.5 -22c6 0 13.333 0.5 22 1.5s19 4 31 9s26 12.667 42 23
s34.667 25.166 56 44.499l27 -31c-17.333 -22.667 -34.333 -41.667 -51 -57s-33.167 -27.666 -49.5 -36.999s-32 -16 -47 -20s-29.167 -6 -42.5 -6z" />
    <glyph glyph-name="Gdotaccent" unicode="&#x120;" horiz-adv-x="638" 
d="M425 698c36 0 68.8369 -2.66699 98.5039 -8s54.834 -12 75.501 -20l-20 -171h-79l13 102c-12 3.33301 -26.333 6.16602 -43 8.49902s-33.334 3.5 -50.001 3.5c-41.333 0 -77.5 -8.5 -108.5 -25.5s-56.667 -40.5 -77 -70.5s-35.5 -65.333 -45.5 -106s-15 -85 -15 -133
c0 -30 2.83301 -57.167 8.5 -81.5s15.167 -45.333 28.5 -63s30.833 -31.167 52.5 -40.5s48.5 -14 80.5 -14c15.333 0 32.166 1.16699 50.499 3.5s35.166 5.83301 50.499 10.5l24 193h-88l8 70h235l-8 -70h-50l-32 -261c-70 -22.667 -139.333 -34 -208 -34
c-48.667 0 -89.834 6.83301 -123.501 20.5s-61 32.834 -82 57.501s-36.167 54 -45.5 88s-14 71.333 -14 112c0 28.667 2.16699 59.167 6.5 91.5s11.666 64.333 21.999 96s24.333 62.167 42 91.5s40 55 67 77s59 39.667 96 53s80.5 20 130.5 20zM498.004 825
c-1.33301 -18 -8.66699 -33.498 -22 -46.498s-29 -19.5 -47 -19.5c-16.667 0 -30 5.66699 -40 17s-14.333 25.666 -13 42.999c1.33301 18 9 33.5 23 46.5s29.333 19.5 46 19.5c16 0 29.167 -5.83301 39.5 -17.5s14.833 -25.834 13.5 -42.501z" />
    <glyph glyph-name="gdotaccent" unicode="&#x121;" horiz-adv-x="534" 
d="M303 496c28 -0.666992 58.1699 -4.1709 90.5029 -10.5039s65.166 -17.166 98.499 -32.499l5 -12l-58 -446c-3.33301 -23.333 -8.83301 -47.833 -16.5 -73.5s-20.5 -49 -38.5 -70s-42.5 -38.333 -73.5 -52s-71.5 -20.5 -121.5 -20.5c-31.333 0 -61.5 4.16699 -90.5 12.5
s-52.167 16.833 -69.5 25.5c2 4 4.33301 9.5 7 16.5l8 21.5l8 21.5c2.66699 7 5 12.5 7 16.5c21.333 -9.33301 43.833 -16.666 67.5 -21.999s45.834 -8 66.501 -8c29.333 0 53.166 4.33301 71.499 13s32.833 20.834 43.5 36.501s18.667 34.334 24 56.001
s9.66602 45.5 12.999 71.5c0 0.666992 0.666992 5.83398 2 15.501s2.66602 20.167 3.99902 31.5s2.66602 21.833 3.99902 31.5l2 14.5c0 0.666992 -1.33301 1 -4 1c-14 -27.333 -28.833 -50 -44.5 -68s-31.167 -32.333 -46.5 -43s-30.833 -18.167 -46.5 -22.5
s-30.5 -6.5 -44.5 -6.5c-38.667 0 -70 13.833 -94 41.5s-36 70.5 -36 128.5c0 45.333 5.5 88.166 16.5 128.499s27.333 75.5 49 105.5s48.834 53.833 81.501 71.5s71 26.5 115 26.5zM213.003 70.9961c12 0 24.665 3.50293 37.998 10.5029s27 18.5 41 34.5
s27.833 37.5 41.5 64.5s26.834 60.5 39.501 100.5l17 118c-19.333 7.33301 -36.5 12.166 -51.5 14.499s-28.167 3.5 -39.5 3.5c-30 0 -55 -7.83301 -75 -23.5s-36 -35.334 -48 -59.001s-20.333 -49.334 -25 -77.001s-7 -53.5 -7 -77.5c0 -37.333 6.33301 -64.833 19 -82.5
s29.334 -26.5 50.001 -26.5zM395.001 630.999c-1.33301 -18 -8.66699 -33.498 -22 -46.498s-29 -19.5 -47 -19.5c-16.667 0 -30 5.66699 -40 17s-14.333 25.666 -13 42.999c1.33301 18 9 33.5 23 46.5s29.333 19.5 46 19.5c16 0 29.167 -5.83301 39.5 -17.5
s14.833 -25.834 13.5 -42.501z" />
    <glyph glyph-name="Gcommaaccent" unicode="&#x122;" horiz-adv-x="638" 
d="M425 698c36 0 68.8369 -2.66699 98.5039 -8s54.834 -12 75.501 -20l-20 -171h-79l13 102c-12 3.33301 -26.333 6.16602 -43 8.49902s-33.334 3.5 -50.001 3.5c-41.333 0 -77.5 -8.5 -108.5 -25.5s-56.667 -40.5 -77 -70.5s-35.5 -65.333 -45.5 -106s-15 -85 -15 -133
c0 -30 2.83301 -57.167 8.5 -81.5s15.167 -45.333 28.5 -63s30.833 -31.167 52.5 -40.5s48.5 -14 80.5 -14c15.333 0 32.166 1.16699 50.499 3.5s35.166 5.83301 50.499 10.5l24 193h-88l8 70h235l-8 -70h-50l-32 -261c-70 -22.667 -139.333 -34 -208 -34
c-48.667 0 -89.834 6.83301 -123.501 20.5s-61 32.834 -82 57.501s-36.167 54 -45.5 88s-14 71.333 -14 112c0 28.667 2.16699 59.167 6.5 91.5s11.666 64.333 21.999 96s24.333 62.167 42 91.5s40 55 67 77s59 39.667 96 53s80.5 20 130.5 20zM334.004 -39
c17.333 0 30.499 -5.50098 39.499 -16.501s13.5 -24.833 13.5 -41.5c0 -14.667 -3.33301 -29.334 -10 -44.001s-15.667 -28.667 -27 -42s-24.166 -25.666 -38.499 -36.999s-29.5 -20.666 -45.5 -27.999l-20 31c14 10.667 25.667 20.667 35 30s16.333 22.666 21 39.999
c-22 6.66699 -33 21.667 -33 45c0 16.667 6 31.334 18 44.001s27.667 19 47 19z" />
    <glyph glyph-name="gcommaaccent" unicode="&#x123;" horiz-adv-x="534" 
d="M303 496c28 -0.666992 58.1699 -4.1709 90.5029 -10.5039s65.166 -17.166 98.499 -32.499l5 -12l-58 -446c-3.33301 -23.333 -8.83301 -47.833 -16.5 -73.5s-20.5 -49 -38.5 -70s-42.5 -38.333 -73.5 -52s-71.5 -20.5 -121.5 -20.5c-31.333 0 -61.5 4.16699 -90.5 12.5
s-52.167 16.833 -69.5 25.5c2 4 4.33301 9.5 7 16.5l8 21.5l8 21.5c2.66699 7 5 12.5 7 16.5c21.333 -9.33301 43.833 -16.666 67.5 -21.999s45.834 -8 66.501 -8c29.333 0 53.166 4.33301 71.499 13s32.833 20.834 43.5 36.501s18.667 34.334 24 56.001
s9.66602 45.5 12.999 71.5c0 0.666992 0.666992 5.83398 2 15.501s2.66602 20.167 3.99902 31.5s2.66602 21.833 3.99902 31.5l2 14.5c0 0.666992 -1.33301 1 -4 1c-14 -27.333 -28.833 -50 -44.5 -68s-31.167 -32.333 -46.5 -43s-30.833 -18.167 -46.5 -22.5
s-30.5 -6.5 -44.5 -6.5c-38.667 0 -70 13.833 -94 41.5s-36 70.5 -36 128.5c0 45.333 5.5 88.166 16.5 128.499s27.333 75.5 49 105.5s48.834 53.833 81.501 71.5s71 26.5 115 26.5zM213.003 70.9961c12 0 24.665 3.50293 37.998 10.5029s27 18.5 41 34.5
s27.833 37.5 41.5 64.5s26.834 60.5 39.501 100.5l17 118c-19.333 7.33301 -36.5 12.166 -51.5 14.499s-28.167 3.5 -39.5 3.5c-30 0 -55 -7.83301 -75 -23.5s-36 -35.334 -48 -59.001s-20.333 -49.334 -25 -77.001s-7 -53.5 -7 -77.5c0 -37.333 6.33301 -64.833 19 -82.5
s29.334 -26.5 50.001 -26.5zM400.001 620.999c-0.666992 -17.333 -7.16602 -32.6641 -19.499 -45.9971s-28.5 -20 -48.5 -20c-19.333 0 -33.333 6.16699 -42 18.5s-12.667 27.166 -12 44.499c0 15.333 3.5 30.666 10.5 45.999s16.333 29.666 28 42.999s25 25.5 40 36.5
s30.5 20.167 46.5 27.5l20 -33c-14.667 -10 -26.834 -20 -36.501 -30s-16.5 -24 -20.5 -42c12 -2.66699 20.667 -8 26 -16s8 -17.667 8 -29z" />
    <glyph glyph-name="Hcircumflex" unicode="&#x124;" horiz-adv-x="717" 
d="M419 0l9 76h60l30 245h-292l-30 -245h61l-9 -76h-232l8 76h64l66 535h-64l9 75h232l-9 -75h-61l-26 -215h292l26 215h-60l9 75h233l-9 -75h-64l-66 -535h64l-8 -76h-233zM576 714l-142 100l-166 -100l-25 33l165 146h67l132 -144z" />
    <glyph glyph-name="hcircumflex" unicode="&#x125;" horiz-adv-x="596" 
d="M404 500c38 0 64.501 -9.66602 79.501 -28.999s22.5 -45.666 22.5 -78.999c0 -7.33301 -0.666992 -18.333 -2 -33s-3.33301 -34.5 -6 -59.5l-10 -92l-15 -130.5c26.667 2 53 10 79 24l22 -45c-24 -23.333 -48.833 -40.666 -74.5 -51.999s-47.834 -17 -66.501 -17
c-25.333 0 -42.5 5.5 -51.5 16.5s-13.5 26.5 -13.5 46.5c0 4.66699 0.166992 9.16699 0.5 13.5s0.833008 9.16602 1.5 14.499c7.33301 60 13 107.833 17 143.5l9 82c2 19 3.16699 32.333 3.5 40s0.5 13.5 0.5 17.5c0 16.667 -3.33301 30.334 -10 41.001s-17.667 16 -33 16
c-11.333 0 -24.166 -3.66699 -38.499 -11s-28.666 -19 -42.999 -35s-28.666 -37 -42.999 -63s-27.166 -57.667 -38.499 -95l-30 -214h-103c3.33301 28.667 7.33301 61 12 97l14 112.5l14.5 119l14 117l12 106l9.5 86.5l-96 15l5 50c28 7.33301 54.333 12.666 79 15.999
s46.667 5 66 5c21.333 0 36.166 -3.5 44.499 -10.5s12.5 -18.167 12.5 -33.5c0 -4.66699 -0.666992 -14 -2 -28l-5 -51c-2 -20 -4.33301 -41.667 -7 -65s-5.5 -46.333 -8.5 -69s-5.66699 -43.834 -8 -63.501s-4.5 -35.834 -6.5 -48.501l4 -1c14.667 28 30.667 51.333 48 70
s34.666 33.667 51.999 45s33.666 19.333 48.999 24s28.666 7 39.999 7zM337.001 745.001l-142 100l-166 -100l-25 33l165 146h67l132 -144z" />
    <glyph glyph-name="Hbar" unicode="&#x126;" horiz-adv-x="717" 
d="M419 0l9 76h60l30 243h-292l-30 -243h61l-9 -76h-232l8 76h64l50 396h-68l7 49h66l11 90h-64l9 75h232l-9 -75h-61l-10 -90h292l10 90h-60l9 75h233l-9 -75h-64l-11 -90h62l-5 -49h-64l-48 -396h64l-8 -76h-233zM526 385l11 87h-292l-11 -87h292z" />
    <glyph glyph-name="hbar" unicode="&#x127;" horiz-adv-x="596" 
d="M63 584h68.001c1.33301 10 2.33301 19.5 3 28.5s1.66699 17.5 3 25.5l-96 15l5 50c28 7.33301 54.333 12.666 79 15.999s46.667 5 66 5c21.333 0 36.166 -3.5 44.499 -10.5s12.5 -18.167 12.5 -33.5c0 -4.66699 -0.833008 -15.667 -2.5 -33s-4.16699 -38.333 -7.5 -63
h167l-6 -46h-166c-2 -19.333 -4.33301 -38.666 -7 -57.999s-5 -38 -7 -56s-4 -34.333 -6 -49s-3.66699 -26.334 -5 -35.001h4c14.667 27.333 30.834 50.333 48.501 69s35 33.667 52 45s33.333 19.333 49 24s29.167 7 40.5 7c38 0 64.5 -9.66699 79.5 -29
s22.5 -45.333 22.5 -78c0 -7.33301 -0.5 -17.666 -1.5 -30.999s-2.83301 -31.5 -5.5 -54.5s-5.83398 -52 -9.50098 -87s-8.5 -77.833 -14.5 -128.5c26.667 2 53 10 79 24l22 -45c-24 -23.333 -48.833 -40.666 -74.5 -51.999s-47.834 -17 -66.501 -17
c-25.333 0 -42.5 5.5 -51.5 16.5s-13.5 26.5 -13.5 46.5c0 4.66699 0.166992 9.16699 0.5 13.5s0.833008 9.16602 1.5 14.499l16 137.5c4 33.667 6.83301 59.667 8.5 78s2.66699 31 3 38s0.5 12.833 0.5 17.5c0 16 -3.33301 29 -10 39s-17.667 15 -33 15
c-11.333 0 -24.166 -3.66699 -38.499 -11s-28.833 -19 -43.5 -35s-29 -37 -43 -63s-27 -57.667 -39 -95l-26 -199h-103c4.66699 34.667 9.66699 74.5 15 119.5l17 140c6 48.333 11.667 96.5 17 144.5l15 134h-68z" />
    <glyph glyph-name="Itilde" unicode="&#x128;" horiz-adv-x="370" 
d="M43 0l9 75h63l65 536h-63l9 75h234l-9 -75h-64l-66 -536h64l-8 -75h-234zM314 755c-15.333 0 -29.8311 2 -43.498 6s-26.667 8.5 -39 13.5s-24 9.5 -35 13.5s-21.167 6 -30.5 6l-59 -39l-30 25c13.333 27.333 28.666 47.833 45.999 61.5s35.666 20.5 54.999 20.5
c12.667 0 25.667 -2 39 -6s26.333 -8.16699 39 -12.5l37 -12.5c12 -4 23 -6 33 -6l60 39l27 -26c-11.333 -25.333 -25.5 -45.5 -42.5 -60.5s-35.833 -22.5 -56.5 -22.5z" />
    <glyph glyph-name="itilde" unicode="&#x129;" horiz-adv-x="324" 
d="M184 500c21.333 0 35.833 -3.33398 43.5 -10.001s11.5 -17 11.5 -31c0 -2 -1 -12.167 -3 -30.5s-4.66699 -40.666 -8 -66.999l-11 -86l-11 -88l-9 -72l-5 -38.5c27.333 2 54 10 80 24l23 -45c-23.333 -23.333 -48 -40.666 -74 -51.999s-48.667 -17 -68 -17
c-25.333 0 -42.833 6 -52.5 18s-14.5 27.333 -14.5 46c0 4 0.166992 8.16699 0.5 12.5s0.833008 8.83301 1.5 13.5l43 336l-85 15l3 51c28 7.33301 53.5 12.666 76.5 15.999s42.5 5 58.5 5zM245 575.999c-15.333 0 -29.8311 2 -43.498 6s-26.667 8.5 -39 13.5
s-24 9.5 -35 13.5s-21.167 6 -30.5 6l-59 -39l-30 25c13.333 27.333 28.666 47.833 45.999 61.5s35.666 20.5 54.999 20.5c12.667 0 25.667 -2 39 -6s26.333 -8.16699 39 -12.5l37 -12.5c12 -4 23 -6 33 -6l60 39l27 -26c-11.333 -25.333 -25.5 -45.5 -42.5 -60.5
s-35.833 -22.5 -56.5 -22.5z" />
    <glyph glyph-name="Imacron" unicode="&#x12a;" horiz-adv-x="370" 
d="M43 0l9 75h63l65 536h-63l9 75h234l-9 -75h-64l-66 -536h64l-8 -75h-234zM87 823h334l-9 -76h-335z" />
    <glyph glyph-name="imacron" unicode="&#x12b;" horiz-adv-x="330" 
d="M184 500c21.333 0 35.833 -3.33398 43.5 -10.001s11.5 -17 11.5 -31c0 -2 -1 -12.167 -3 -30.5s-4.66699 -40.666 -8 -66.999l-11 -86l-11 -88l-9 -72l-5 -38.5c27.333 2 54 10 80 24l23 -45c-23.333 -23.333 -48 -40.666 -74 -51.999s-48.667 -17 -68 -17
c-25.333 0 -42.833 6 -52.5 18s-14.5 27.333 -14.5 46c0 4 0.166992 8.16699 0.5 12.5s0.833008 8.83301 1.5 13.5l43 336l-85 15l3 51c28 7.33301 53.5 12.666 76.5 15.999s42.5 5 58.5 5zM17 657.999h328l-10 -75h-327z" />
    <glyph glyph-name="Ibreve" unicode="&#x12c;" horiz-adv-x="370" 
d="M246 734c-18 0 -34.5 3.33301 -49.5 10s-28.667 15.5 -41 26.5s-23.5 23.667 -33.5 38s-19.333 29.166 -28 44.499l54 39c16 -26.667 33.833 -47.5 53.5 -62.5s38.5 -22.5 56.5 -22.5c6 0 13.333 0.5 22 1.5s19 4 31 9s26 12.833 42 23.5s34.667 25.334 56 44.001l27 -30
c-34 -45.333 -67.5 -76.833 -100.5 -94.5s-62.833 -26.5 -89.5 -26.5zM43 0l9 75h63l65 536h-63l9 75h234l-9 -75h-64l-66 -536h64l-8 -75h-234z" />
    <glyph glyph-name="ibreve" unicode="&#x12d;" horiz-adv-x="342" 
d="M184 500c21.333 0 35.833 -3.33398 43.5 -10.001s11.5 -17 11.5 -31c0 -2 -1 -12.167 -3 -30.5s-4.66699 -40.666 -8 -66.999l-11 -86l-11 -88l-9 -72l-5 -38.5c27.333 2 54 10 80 24l23 -45c-23.333 -23.333 -48 -40.666 -74 -51.999s-48.667 -17 -68 -17
c-25.333 0 -42.833 6 -52.5 18s-14.5 27.333 -14.5 46c0 4 0.166992 8.16699 0.5 12.5s0.833008 8.83301 1.5 13.5l43 336l-85 15l3 51c28 7.33301 53.5 12.666 76.5 15.999s42.5 5 58.5 5zM167 550.999c-18 0 -34.5 3.33398 -49.5 10.001s-28.667 15.5 -41 26.5
s-23.5 23.667 -33.5 38s-19.333 29.166 -28 44.499l54 39c16 -27.333 33.833 -48.333 53.5 -63s38.5 -22 56.5 -22c6 0 13.333 0.5 22 1.5s19 4 31 9s26 12.667 42 23s34.667 25.166 56 44.499l27 -31c-17.333 -22.667 -34.333 -41.667 -51 -57
s-33.167 -27.666 -49.5 -36.999s-32 -16 -47 -20s-29.167 -6 -42.5 -6z" />
    <glyph glyph-name="Iogonek" unicode="&#x12e;" horiz-adv-x="370" 
d="M181 0c-8.66699 -10 -16.8311 -20.498 -24.498 -31.498s-14.334 -22 -20.001 -33s-10.167 -21.5 -13.5 -31.5s-5 -19 -5 -27c0 -14.667 4.5 -25 13.5 -31s21.167 -9 36.5 -9c12.667 0 25.5 1.16699 38.5 3.5s24.833 4.83301 35.5 7.5
c1.33301 -6.66699 2.16602 -13 2.49902 -19s0.833008 -12 1.5 -18c-17.333 -8.66699 -35.833 -15.667 -55.5 -21s-39.167 -8 -58.5 -8c-28.667 0 -50.334 5.83301 -65.001 17.5s-22 28.167 -22 49.5c0 8 1.33301 17.667 4 29s7.33398 23.666 14.001 36.999
s15.667 27.166 27 41.499s26 28.833 44 43.5h-91l9 75h63l65 536h-63l9 75h234l-9 -75h-64l-66 -536h64l-8 -75h-96z" />
    <glyph glyph-name="iogonek" unicode="&#x12f;" horiz-adv-x="318" 
d="M184 500c21.333 0 35.835 -3.33398 43.502 -10.001s11.5 -17 11.5 -31c0 -2 -1 -12.167 -3 -30.5s-4.66699 -40.666 -8 -66.999l-11 -86l-11 -88l-9 -72l-5 -38.5c27.333 2 54 10 80 24l23 -45c-14.667 -14 -29.667 -25.833 -45 -35.5s-30.333 -17.167 -45 -22.5
c-15.333 -19.333 -28.5 -39.666 -39.5 -60.999s-16.5 -39.333 -16.5 -54s4.5 -25 13.5 -31s21.167 -9 36.5 -9c12.667 0 25.5 1.16699 38.5 3.5s24.833 4.83301 35.5 7.5c1.33301 -6.66699 2.16602 -13 2.49902 -19s0.833008 -12 1.5 -18
c-17.333 -8.66699 -35.833 -15.667 -55.5 -21s-39.167 -8 -58.5 -8c-28.667 0 -50.334 5.83301 -65.001 17.5s-22 28.167 -22 49.5c0 14.667 4.5 33.834 13.5 57.501s27.167 48.5 54.5 74.5c-22 1.33301 -37.167 8 -45.5 20s-12.5 26.667 -12.5 44
c0 4 0.166992 8.16699 0.5 12.5s0.833008 9.16602 1.5 14.499l43 335l-85 15l3 51c28 7.33301 53.5 12.666 76.5 15.999s42.5 5 58.5 5zM199.002 690.999c16 0 29.667 -5.66797 41 -17.001s17 -25.666 17 -42.999c0 -19.333 -6.33301 -36 -19 -50s-29.334 -21 -50.001 -21
c-15.333 0 -28.666 5.5 -39.999 16.5s-17 24.5 -17 40.5c0 21.333 6.5 39 19.5 53s29.167 21 48.5 21z" />
    <glyph glyph-name="Idotaccent" unicode="&#x130;" horiz-adv-x="370" 
d="M43 0l9 75h63l65 536h-63l9 75h234l-9 -75h-64l-66 -536h64l-8 -75h-234zM320 823c-1.33301 -18 -8.66699 -33.498 -22 -46.498s-29 -19.5 -47 -19.5c-16.667 0 -30 5.66699 -40 17s-14.333 25.666 -13 42.999c1.33301 18 9 33.5 23 46.5s29.333 19.5 46 19.5
c16 0 29.167 -5.83301 39.5 -17.5s14.833 -25.834 13.5 -42.501z" />
    <glyph glyph-name="dotlessi" unicode="&#x131;" horiz-adv-x="318" 
d="M184 500c21.333 0 35.833 -3.33398 43.5 -10.001s11.5 -17 11.5 -31c0 -2 -1 -12.167 -3 -30.5s-4.66699 -40.666 -8 -66.999l-11 -86l-11 -88l-9 -72l-5 -38.5c27.333 2 54 10 80 24l23 -45c-23.333 -23.333 -48 -40.666 -74 -51.999s-48.667 -17 -68 -17
c-25.333 0 -42.833 6 -52.5 18s-14.5 27.333 -14.5 46c0 4 0.166992 8.16699 0.5 12.5s0.833008 8.83301 1.5 13.5l43 336l-85 15l3 51c28 7.33301 53.5 12.666 76.5 15.999s42.5 5 58.5 5z" />
    <glyph glyph-name="IJ" unicode="&#x132;" horiz-adv-x="745" 
d="M43 0l9 75h63l65 536h-63l9 75h234l-9 -75h-64l-66 -536h64l-8 -75h-234zM472 686l293 0.000976562l-9 -75h-87l-58 -466c-5.33301 -44.667 -14.5 -84.834 -27.5 -120.501s-30.833 -66.834 -53.5 -93.501s-51 -49 -85 -67s-74.667 -32 -122 -42l-18 73c38 14 69 29 93 45
s43.167 33.667 57.5 53s24.833 40.833 31.5 64.5s12 49.834 16 78.501l59 475h-99z" />
    <glyph glyph-name="ij" unicode="&#x133;" horiz-adv-x="583" 
d="M184 500c21.333 0 35.833 -3.33301 43.5 -10s11.5 -17 11.5 -31c0 -2 -1 -12.167 -3 -30.5s-4.66699 -40.666 -8 -66.999l-11 -86l-11 -88l-9 -72l-5 -38.5c27.333 2 54 10 80 24l23 -45c-23.333 -23.333 -48 -40.666 -74 -51.999s-48.667 -17 -68 -17
c-25.333 0 -42.833 6 -52.5 18s-14.5 27.333 -14.5 46c0 4 0.166992 8.16699 0.5 12.5s0.833008 9.16602 1.5 14.499l43 335l-85 15l3 51c28 7.33301 53.5 12.666 76.5 15.999s42.5 5 58.5 5zM199 691c16 0 29.667 -5.66797 41 -17.001s17 -25.666 17 -42.999
c0 -19.333 -6.33301 -36 -19 -50s-29.334 -21 -50.001 -21c-15.333 0 -28.666 5.5 -39.999 16.5s-17 24.5 -17 40.5c0 21.333 6.5 39 19.5 53s29.167 21 48.5 21zM471 499.999c21.333 0 36.335 -3.33496 45.002 -10.002s13 -17 13 -31
c0 -1.33301 -0.833008 -9.83301 -2.5 -25.5l-6 -59c-2.33301 -23.667 -5.16602 -49.667 -8.49902 -78l-9.5 -82.5l-8 -73c-2.33301 -22 -4.16602 -38.333 -5.49902 -49c-4.66699 -41.333 -11.834 -79.333 -21.501 -114s-23.5 -65.5 -41.5 -92.5s-40.833 -49.667 -68.5 -68
s-61.834 -31.833 -102.501 -40.5l-17 64c29.333 12.667 52.833 27.334 70.5 44.001s31.667 35.334 42 56.001s17.666 43 21.999 67s8.16602 49.667 11.499 77l35 328l-86 15l5 51c56 14 100.333 21 133 21zM487.002 690.997c16 0 29.667 -5.66797 41 -17.001
s17 -25.666 17 -42.999c0 -19.333 -6.33301 -36 -19 -50s-29.334 -21 -50.001 -21c-15.333 0 -28.666 5.5 -39.999 16.5s-17 24.5 -17 40.5c0 21.333 6.5 39 19.5 53s29.167 21 48.5 21z" />
    <glyph glyph-name="Jcircumflex" unicode="&#x134;" horiz-adv-x="412" 
d="M107 687l293 0.000976562l-9 -75h-87l-58 -466c-5.33301 -44.667 -14.5 -84.834 -27.5 -120.501s-30.833 -66.834 -53.5 -93.501s-51 -49 -85 -67s-74.667 -32 -122 -42l-18 73c38 14 69 29 93 45s43.167 33.667 57.5 53s24.833 40.833 31.5 64.5s12 49.834 16 78.501
l59 475h-99zM411 714.001l-142 100l-166 -100l-25 33l165 146h67l132 -144z" />
    <glyph glyph-name="jcircumflex" unicode="&#x135;" horiz-adv-x="330" 
d="M179 500c21.333 0 36.335 -3.33496 45.002 -10.002s13 -17 13 -31c0 -1.33301 -0.833008 -9.83301 -2.5 -25.5l-6 -59c-2.33301 -23.667 -5.16602 -49.667 -8.49902 -78l-9.5 -82.5l-8 -73c-2.33301 -22 -4.16602 -38.333 -5.49902 -49
c-4.66699 -41.333 -11.834 -79.333 -21.501 -114s-23.5 -65.5 -41.5 -92.5s-40.833 -49.667 -68.5 -68s-61.834 -31.833 -102.501 -40.5l-17 64c29.333 12.667 52.833 27.334 70.5 44.001s31.667 35.334 42 56.001s17.666 43 21.999 67s8.16602 49.667 11.499 77l35 328
l-85 15l4 51c56 14 100.333 21 133 21zM325.002 532.998l-142 101l-166 -100l-24 33l164 145h67l131 -144z" />
    </font>
</defs>
</svg>
